<?xml version="1.0" standalone="no"?>
<!DOCTYPE svg PUBLIC "-//W3C//DTD SVG 1.1//EN" "http://www.w3.org/Graphics/SVG/1.1/DTD/svg11.dtd" >
<svg>
<metadata>
Created by FontForge 20090914 at Sat Nov  6 15:49:35 2021
 By www-data
Copyright (c) 2019 by Art. Lebedev Studio. All rights reserved.
</metadata>
<defs>
<font id="ALSHauss-Medium" horiz-adv-x="582" >
  <font-face 
    font-family="ALS Hauss Medium"
    font-weight="500"
    font-stretch="normal"
    units-per-em="1000"
    panose-1="2 0 0 0 0 0 0 0 0 0"
    ascent="800"
    descent="-200"
    x-height="510"
    cap-height="704"
    bbox="-187 -282.001 1273 977"
    underline-thickness="50"
    underline-position="-150"
    unicode-range="U+000D-U+277E"
  />
<missing-glyph horiz-adv-x="600" 
d="M60 704h480v-704h-480v704zM448 613h-297v-522h297v522z" />
    <glyph glyph-name=".notdef" horiz-adv-x="600" 
d="M60 704h480v-704h-480v704zM448 613h-297v-522h297v522z" />
    <glyph glyph-name="NULL" horiz-adv-x="0" 
 />
    <glyph glyph-name="NULL" horiz-adv-x="0" 
 />
    <glyph glyph-name="CR" unicode="&#xd;" horiz-adv-x="218" 
 />
    <glyph glyph-name="space" unicode=" " horiz-adv-x="218" 
 />
    <glyph glyph-name="exclam" unicode="!" horiz-adv-x="318" 
d="M107 221l-8 483h120l-9 -483h-103zM159 135c20.667 0 38.167 -7 52.5 -21s21.5 -31.333 21.5 -52s-7.16699 -38.167 -21.5 -52.5s-31.833 -21.5 -52.5 -21.5s-38.167 7.16699 -52.5 21.5s-21.5 31.833 -21.5 52.5s7.16699 38 21.5 52s31.833 21 52.5 21z" />
    <glyph glyph-name="quotedbl" unicode="&#x22;" horiz-adv-x="455" 
d="M273 421v283h108l-8 -283h-100zM74 421v283h108l-8 -283h-100z" />
    <glyph glyph-name="numbersign" unicode="#" horiz-adv-x="725" 
d="M678 526v-95h-126l-27 -159h108v-95h-125l-30 -177h-99l31 177h-155l-31 -177h-98l30 177h-109v95h126l27 159h-109v95h125l31 178h99l-31 -178h155l31 178h99l-31 -178h109zM299 432l-28 -161h156l27 161h-155z" />
    <glyph glyph-name="dollar" unicode="$" horiz-adv-x="600" 
d="M45 200h112.001c14.667 -49.333 49 -79.666 103 -90.999v201l-29 5c-56.667 8.66699 -100.334 29 -131.001 61s-46 72.667 -46 122c0 54.667 19.333 100 58 136s88 57 148 63v90h81v-91c54.667 -8 100 -27.833 136 -59.5s58.333 -73.834 67 -126.501h-110
c-14.667 44.667 -45.667 72.667 -93 84v-190l30 -5c122.667 -20 184 -82 184 -186c0 -59.333 -19.5 -107.333 -58.5 -144s-90.833 -57.667 -155.5 -63v-95h-81v97c-58.667 7.33301 -107.167 27.5 -145.5 60.5s-61.5 76.833 -69.5 131.5zM348.001 296l-7 0.998047v-191
c31.333 4.66699 56 15.834 74 33.501s27 39.834 27 66.501c0 50 -31.333 80 -94 90zM167.001 502.998c0 -22 7.5 -40.332 22.5 -54.999s36.5 -24.334 64.5 -29.001l6 -1v178c-28 -4.66699 -50.5 -15 -67.5 -31s-25.5 -36.667 -25.5 -62z" />
    <glyph glyph-name="percent" unicode="%" horiz-adv-x="907" 
d="M146 0l503 704h112l-502 -704h-113zM212 629c-24 0 -43 -9.16699 -57 -27.5s-21 -41.5 -21 -69.5s7 -51.333 21 -70s33 -28 57 -28s43 9.33301 57 28s21 42 21 70s-7 51.167 -21 69.5s-33 27.5 -57 27.5zM37 532c0 52.667 16.5 96.5 49.5 131.5s74.833 52.5 125.5 52.5
s92.5 -17.5 125.5 -52.5s49.5 -78.833 49.5 -131.5c0 -53.333 -16.5 -97.333 -49.5 -132s-74.833 -52 -125.5 -52s-92.5 17.333 -125.5 52s-49.5 78.667 -49.5 132zM695 270c-24 0 -43 -9.33301 -57 -28s-21 -42 -21 -70s7 -51.167 21 -69.5s33 -27.5 57 -27.5
s43 9.16699 57 27.5s21 41.5 21 69.5s-7 51.333 -21 70s-33 28 -57 28zM520 172c0 53.333 16.5 97.333 49.5 132s74.833 52 125.5 52c51.333 0 93.5 -17.333 126.5 -52s49.5 -78.667 49.5 -132c0 -52.667 -16.5 -96.5 -49.5 -131.5s-75.167 -52.5 -126.5 -52.5
c-50.667 0 -92.5 17.5 -125.5 52.5s-49.5 78.833 -49.5 131.5z" />
    <glyph glyph-name="ampersand" unicode="&#x26;" horiz-adv-x="730" 
d="M707 319l-136 -167.999l137 -151h-135l-73 80l-8 -8c-56 -56 -125 -84 -207 -84c-70.667 0 -127.5 19.667 -170.5 59s-64.5 88.666 -64.5 147.999c0 87.333 53.333 154.333 160 201l-9 10c-15.333 16 -27.166 29.667 -35.499 41s-16.333 26 -24 44s-11.5 36.667 -11.5 56
c0 46.667 18.167 86.5 54.5 119.5s82.166 49.5 137.499 49.5c54.667 0 99.167 -16 133.5 -48s51.5 -72.333 51.5 -121c0 -72 -45.667 -130.667 -137 -176l136 -149l77 97h124zM431 144.001l6 6l-163 181c-72.667 -31.333 -109 -75 -109 -131c0 -34 11.333 -61.333 34 -82
s54 -31 94 -31c52.667 0 98.667 19 138 57zM236 548.001c0 -28 16.333 -58.333 49 -91l24 -23c62.667 30 94 68 94 114c0 22.667 -7.83301 40.834 -23.5 54.501s-35.167 20.5 -58.5 20.5c-24.667 0 -45 -6.83301 -61 -20.5s-24 -31.834 -24 -54.501z" />
    <glyph glyph-name="quotesingle" unicode="'" horiz-adv-x="256" 
d="M74 421v283h108l-8 -283h-100z" />
    <glyph glyph-name="parenleft" unicode="(" horiz-adv-x="365" 
d="M338 727c-97.333 -134 -146 -281.668 -146 -443.001c0 -160.667 48.667 -308 146 -442h-112c-42 53.333 -77.5 118 -106.5 194s-43.5 158.667 -43.5 248s14.5 172.333 43.5 249s64.5 141.334 106.5 194.001h112z" />
    <glyph glyph-name="parenright" unicode=")" horiz-adv-x="365" 
d="M27 727l112 0.000976562c42 -52.667 77.5 -117.334 106.5 -194.001s43.5 -159.667 43.5 -249s-14.5 -172 -43.5 -248s-64.5 -140.667 -106.5 -194h-112c97.333 134 146 281.333 146 442c0 161.333 -48.667 309 -146 443z" />
    <glyph glyph-name="asterisk" unicode="*" horiz-adv-x="457" 
d="M270 716l-3 -139l133 45l25 -79l-133 -41l83 -112l-67 -47l-80 112l-80 -112l-67 47l83 112l-132 41l25 79l131 -45l-2 139h84z" />
    <glyph glyph-name="plus" unicode="+" horiz-adv-x="627" 
d="M259 519h108v-195h188v-105h-188v-196h-108v196h-187v105h187v195z" />
    <glyph glyph-name="comma" unicode="," horiz-adv-x="278" 
d="M213 58c0 -16 -3.33301 -33.334 -10 -52.001l-63 -166h-87l57 157c-31.333 12 -47 33.667 -47 65c0 20.667 7 37.667 21 51s31.667 20 53 20s39.333 -7.16699 54 -21.5s22 -32.166 22 -53.499z" />
    <glyph glyph-name="hyphen" unicode="-" horiz-adv-x="431" 
d="M57 219v105h318v-105h-318z" />
    <glyph glyph-name="period" unicode="." horiz-adv-x="278" 
d="M139 135c20.667 0 38.167 -7 52.5 -21s21.5 -31.333 21.5 -52s-7.16699 -38.167 -21.5 -52.5s-31.833 -21.5 -52.5 -21.5s-38.167 7.16699 -52.5 21.5s-21.5 31.833 -21.5 52.5s7.16699 38 21.5 52s31.833 21 52.5 21z" />
    <glyph glyph-name="slash" unicode="/" horiz-adv-x="386" 
d="M268 727h110l-259 -885h-111z" />
    <glyph glyph-name="zero" unicode="0" horiz-adv-x="661" 
d="M330 716c84.667 0 151.667 -33.5 201 -100.5s74 -154.833 74 -263.5s-24.667 -196.5 -74 -263.5s-116.333 -100.5 -201 -100.5s-151.667 33.5 -201 100.5s-74 154.833 -74 263.5s24.667 196.5 74 263.5s116.333 100.5 201 100.5zM330 94c50 0 88.333 24 115 72
s40 110 40 186s-13.333 138 -40 186s-65 72 -115 72c-49.333 0 -87.5 -24 -114.5 -72s-40.5 -110 -40.5 -186s13.5 -138 40.5 -186s65.167 -72 114.5 -72z" />
    <glyph glyph-name="one" unicode="1" horiz-adv-x="451" 
d="M336 704v-704h-118v571l-168 -106v120l179 119h107z" />
    <glyph glyph-name="two" unicode="2" horiz-adv-x="617" 
d="M426 503c0 30.667 -10.834 56.167 -32.501 76.5s-50.167 30.5 -85.5 30.5c-36 0 -65.333 -9.33301 -88 -28s-37.334 -44 -44.001 -76h-115c6.66699 62 32.334 112.5 77.001 151.5s102.334 58.5 173.001 58.5c71.333 0 128.5 -20.167 171.5 -60.5s64.5 -90.5 64.5 -150.5
c0 -46.667 -11.333 -87 -34 -121s-56 -70.667 -100 -110l-186 -168h334v-106h-497v99l266 245c34 31.333 58.5 58.333 73.5 81s22.5 48.667 22.5 78z" />
    <glyph glyph-name="three" unicode="3" horiz-adv-x="622" 
d="M60 517c8 62.667 35.1699 111.5 81.5029 146.5s102.166 52.5 167.499 52.5c71.333 0 128.5 -18.5 171.5 -55.5s64.5 -83.5 64.5 -139.5c0 -38.667 -10.5 -71 -31.5 -97s-45.167 -44.333 -72.5 -55c32 -7.33301 61.5 -25.333 88.5 -54s40.5 -67 40.5 -115
c0 -60.667 -23.833 -111.167 -71.5 -151.5s-108.167 -60.5 -181.5 -60.5c-72 0 -132.5 18.333 -181.5 55s-76.833 87 -83.5 151h118c6 -30 22.167 -54.333 48.5 -73s59.166 -28 98.499 -28c38.667 0 70.5 10.333 95.5 31s37.5 47.667 37.5 81
c0 34.667 -13 60.834 -39 78.501s-59.333 26.5 -100 26.5h-83v102h74c38 0 68 9.33301 90 28s33 42.667 33 72s-10.5 53.166 -31.5 71.499s-49.833 27.5 -86.5 27.5c-35.333 0 -64.333 -8.5 -87 -25.5s-37.334 -39.833 -44.001 -68.5h-116z" />
    <glyph glyph-name="four" unicode="4" horiz-adv-x="652" 
d="M509 0h-117v153h-346v96l317 455h146v-450h98v-101h-98v-153zM168 254h224v319z" />
    <glyph glyph-name="five" unicode="5" horiz-adv-x="630" 
d="M321 93c40.667 0 73.5 12.668 98.5 38.001s37.5 58.666 37.5 99.999c0 40 -13 72 -39 96s-57.667 36 -95 36c-58 0 -102.667 -22.667 -134 -68h-118l34 409h432v-106h-332l-18 -200c40 43.333 93.667 65 161 65c62.667 0 116.5 -20.667 161.5 -62s67.5 -97.333 67.5 -168
c0 -74 -24.167 -133.333 -72.5 -178s-108.833 -67 -181.5 -67c-71.333 0 -130.333 19 -177 57s-73.667 85.333 -81 142h119c6.66699 -24.667 21.667 -46.5 45 -65.5s54 -28.5 92 -28.5z" />
    <glyph glyph-name="six" unicode="6" horiz-adv-x="639" 
d="M359 462c62.667 0 116.668 -21 162.001 -63s68 -97.333 68 -166c0 -71.333 -23.5 -130 -70.5 -176s-106.833 -69 -179.5 -69c-90.667 0 -160.667 32.167 -210 96.5s-74 151.5 -74 261.5c0 121.333 26.167 213.333 78.5 276s120.833 94 205.5 94
c65.333 0 119.5 -17.833 162.5 -53.5s68.167 -79.167 75.5 -130.5h-118c-6 21.333 -19.333 39.833 -40 55.5s-47.334 23.5 -80.001 23.5c-107.333 0 -163.333 -83 -168 -249c18.667 33.333 44.667 58.333 78 75s70 25 110 25zM335.001 93c38.667 0 70.667 12.667 96 38
s38 58 38 98c0 39.333 -13 71.333 -39 96s-58 37 -96 37c-38.667 0 -71 -12.333 -97 -37s-39 -56.667 -39 -96s13.167 -71.833 39.5 -97.5s58.833 -38.5 97.5 -38.5z" />
    <glyph glyph-name="seven" unicode="7" horiz-adv-x="565" 
d="M519 606l-277 -606h-130l276 598h-351v106h482v-98z" />
    <glyph glyph-name="eight" unicode="8" horiz-adv-x="636" 
d="M55 194c0 46 13.5 84 40.5 114s56.833 49.333 89.5 58c-72.667 31.333 -109 83.666 -109 156.999c0 54.667 22.167 100.5 66.5 137.5s103.166 55.5 176.499 55.5c72.667 0 131 -18.5 175 -55.5s66 -82.833 66 -137.5c0 -73.333 -36 -125.666 -108 -156.999
c32.667 -8.66699 62.334 -28 89.001 -58s40 -68 40 -114c0 -60.667 -24.333 -110.167 -73 -148.5s-111.667 -57.5 -189 -57.5c-78 0 -141.5 19.167 -190.5 57.5s-73.5 87.833 -73.5 148.5zM442 511c0 31.333 -11.333 56.334 -34 75.001s-52.334 28 -89.001 28
c-38 0 -68.333 -9.33301 -91 -28s-34 -43.667 -34 -75c0 -30 12 -54.5 36 -73.5s53.667 -28.5 89 -28.5c34.667 0 63.834 9.66699 87.501 29s35.5 43.666 35.5 72.999zM460 202.001c0 34 -13.168 61.5 -39.501 82.5s-60.166 31.5 -101.499 31.5
c-42 0 -76.333 -10.5 -103 -31.5s-40 -48.5 -40 -82.5c0 -33.333 13 -60.333 39 -81s60.667 -31 104 -31c42 0 76 10.333 102 31s39 47.667 39 81z" />
    <glyph glyph-name="nine" unicode="9" horiz-adv-x="639" 
d="M280 242c-62.667 0 -116.667 21 -162 63s-68 97.333 -68 166c0 72 23.667 130.833 71 176.5s107.333 68.5 180 68.5c90.667 0 160.5 -32.167 209.5 -96.5s73.5 -151.5 73.5 -261.5c0 -121.333 -26.167 -213.333 -78.5 -276s-120.5 -94 -204.5 -94
c-65.333 0 -119.5 17.833 -162.5 53.5s-68.5 79.167 -76.5 130.5h118c6.66699 -22 20.167 -40.667 40.5 -56s47.166 -23 80.499 -23c49.333 0 89 20 119 60s46.333 103 49 189c-19.333 -33.333 -45.666 -58.333 -78.999 -75s-70 -25 -110 -25zM305 611
c-38.667 0 -70.833 -12.667 -96.5 -38s-38.5 -58 -38.5 -98c0 -39.333 13 -71.333 39 -96s58.333 -37 97 -37c38 0 70.167 12.333 96.5 37s39.5 56.667 39.5 96s-13.167 71.833 -39.5 97.5s-58.833 38.5 -97.5 38.5z" />
    <glyph glyph-name="colon" unicode=":" horiz-adv-x="278" 
d="M139 135c20.667 0 38.167 -7 52.5 -21s21.5 -31.333 21.5 -52s-7.16699 -38.167 -21.5 -52.5s-31.833 -21.5 -52.5 -21.5s-38.167 7.16699 -52.5 21.5s-21.5 31.833 -21.5 52.5s7.16699 38 21.5 52s31.833 21 52.5 21zM139 495c20.667 0 38.167 -7 52.5 -21
s21.5 -31.333 21.5 -52s-7.16699 -38.167 -21.5 -52.5s-31.833 -21.5 -52.5 -21.5s-38.167 7.16699 -52.5 21.5s-21.5 31.833 -21.5 52.5s7.16699 38 21.5 52s31.833 21 52.5 21z" />
    <glyph glyph-name="semicolon" unicode=";" horiz-adv-x="278" 
d="M213 58c0 -16 -3.33301 -33.334 -10 -52.001l-63 -166h-87l57 157c-31.333 12 -47 33.667 -47 65c0 20.667 7 37.667 21 51s31.667 20 53 20s39.333 -7.16699 54 -21.5s22 -32.166 22 -53.499zM138 494.999c20.667 0 38.167 -7 52.5 -21s21.5 -31.333 21.5 -52
s-7.16699 -38.167 -21.5 -52.5s-31.833 -21.5 -52.5 -21.5s-38.167 7.16699 -52.5 21.5s-21.5 31.833 -21.5 52.5s7.16699 38 21.5 52s31.833 21 52.5 21z" />
    <glyph glyph-name="less" unicode="&#x3c;" horiz-adv-x="627" 
d="M553 12l-478 214v90l478 214v-112l-335 -147l335 -147v-112z" />
    <glyph glyph-name="equal" unicode="=" horiz-adv-x="627" 
d="M82 328v101h463v-101h-463zM82 112v101h463v-101h-463z" />
    <glyph glyph-name="greater" unicode="&#x3e;" horiz-adv-x="627" 
d="M75 12v112l335 147l-335 147v112l478 -214v-90z" />
    <glyph glyph-name="question" unicode="?" horiz-adv-x="537" 
d="M375 523c0 26.667 -9.83203 48.3311 -29.499 64.998s-45.5 25 -77.5 25c-65.333 0 -106 -30.667 -122 -92h-111c6.66699 56.667 31 103.334 73 140.001s96 55 162 55c67.333 0 120.833 -17.667 160.5 -53s59.5 -80 59.5 -134c0 -20 -2.66699 -38.667 -8 -56
s-10.5 -31 -15.5 -41s-14.333 -21.167 -28 -33.5s-23.167 -20.333 -28.5 -24l-33 -22.5l-13 -9l-13 -9c-2 -1.33301 -5.83301 -4.16602 -11.5 -8.49902s-9.33398 -7.33301 -11.001 -9s-4.5 -4.66699 -8.5 -9s-6.66699 -7.83301 -8 -10.5s-3.33301 -6.33398 -6 -11.001
s-4.5 -9.16699 -5.5 -13.5s-1.83301 -9.16602 -2.5 -14.499s-1 -11 -1 -17v-20h-108v30c0 28.667 4.83301 53.5 14.5 74.5s20.5 37 32.5 48s30.667 24.833 56 41.5c19.333 13.333 33.5 23.5 42.5 30.5s18 17.5 27 31.5s13.5 29.333 13.5 46zM246.001 134.997
c20.667 0 38.167 -7 52.5 -21s21.5 -31.333 21.5 -52s-7.16699 -38.167 -21.5 -52.5s-31.833 -21.5 -52.5 -21.5s-38.167 7.16699 -52.5 21.5s-21.5 31.833 -21.5 52.5s7.16699 38 21.5 52s31.833 21 52.5 21z" />
    <glyph glyph-name="at" unicode="@" horiz-adv-x="906" 
d="M472 699c115.333 0 209.501 -36.5 282.501 -109.5s109.5 -165.5 109.5 -277.5c0 -82.667 -16.833 -142.667 -50.5 -180s-76.167 -56 -127.5 -56c-59.333 0 -100.333 23 -123 69c-30 -47.333 -75 -71 -135 -71c-50.667 0 -93.5 18.833 -128.5 56.5
s-52.5 89.167 -52.5 154.5c0 62 17.5 112.333 52.5 151s78.5 58 130.5 58c53.333 0 93.333 -20 120 -60v49h100v-260c0 -18 4.83301 -32.667 14.5 -44s22.5 -17 38.5 -17c45.333 0 68 50 68 150c0 90 -26.833 163 -80.5 219s-126.834 84 -219.501 84s-170 -30.333 -232 -91
s-93 -142.667 -93 -246c0 -102.667 32.333 -182.5 97 -239.5s146 -85.5 244 -85.5c62 0 118 9.33301 168 28v-84c-44.667 -18.667 -101 -28 -169 -28c-126 0 -229.667 36.667 -311 110s-122 173 -122 299c0 126.667 40.167 228.5 120.5 305.5s179.833 115.5 298.5 115.5z
M449.001 164c28.667 0 52.332 10.333 70.999 31s28 49 28 85v8c0 35.333 -9.16699 63.5 -27.5 84.5s-42.166 31.5 -71.499 31.5c-28 0 -51.167 -10.667 -69.5 -32s-27.5 -50.333 -27.5 -87s9 -66 27 -88s41.333 -33 70 -33z" />
    <glyph glyph-name="A" unicode="A" horiz-adv-x="680" 
d="M278 704h124l262 -704h-125l-61 167h-278l-58 -167h-125zM339 562l-102 -292h205z" />
    <glyph glyph-name="B" unicode="B" horiz-adv-x="640" 
d="M81 0v703.999h272c68.667 0 122 -17.167 160 -51.5s57 -78.166 57 -131.499c0 -38.667 -9 -71.167 -27 -97.5s-39.667 -44.833 -65 -55.5c31.333 -9.33301 59 -28 83 -56s36 -65.333 36 -112c0 -59.333 -21.333 -107.5 -64 -144.5s-99.667 -55.5 -171 -55.5h-281z
M353 311.999h-153.001v-210h149c38.667 0 69.5 9.16699 92.5 27.5s34.5 44.166 34.5 77.499c0 32.667 -11.167 58.334 -33.5 77.001s-52.166 28 -89.499 28zM335.999 601.999l-136 -0.000976562v-192h141c35.333 0 62.333 8.83301 81 26.5s28 40.834 28 69.501
c0 30 -10 53.5 -30 70.5s-48 25.5 -84 25.5z" />
    <glyph glyph-name="C" unicode="C" horiz-adv-x="710" 
d="M548 231h119.996c-3.33301 -28.667 -11.666 -56.834 -24.999 -84.501s-31.666 -53.5 -54.999 -77.5s-54 -43.5 -92 -58.5s-80 -22.5 -126 -22.5c-94.667 0 -172.167 33.5 -232.5 100.5s-90.5 154.833 -90.5 263.5c0 107.333 30 194.833 90 262.5s137.667 101.5 233 101.5
c84 0 151.667 -22.833 203 -68.5s82.333 -103.5 93 -173.5h-119c-10.667 39.333 -30.667 71.333 -60 96s-68.333 37 -117 37c-60.667 0 -109.334 -23.5 -146.001 -70.5s-55 -108.5 -55 -184.5c0 -75.333 18.333 -136.666 55 -183.999s85.334 -71 146.001 -71
c50.667 0 91.334 13.667 122.001 41s49.334 58.333 56.001 93z" />
    <glyph glyph-name="D" unicode="D" horiz-adv-x="712" 
d="M314 704c110.667 0 196.667 -31.167 258 -93.5s92 -148.5 92 -258.5s-30.667 -196.167 -92 -258.5s-147.333 -93.5 -258 -93.5h-233v704h233zM303 106c78.667 0 138.334 21.3311 179.001 63.998s61 103.334 61 182.001s-20.333 139.334 -61 182.001
s-100.334 64 -179.001 64h-103v-492h103z" />
    <glyph glyph-name="E" unicode="E" horiz-adv-x="595" 
d="M540 597h-340v-185h321v-104h-321v-201h340v-107h-459v704h459v-107z" />
    <glyph glyph-name="F" unicode="F" horiz-adv-x="588" 
d="M200 0h-119v704h456v-108h-337v-198h314v-105h-314v-293z" />
    <glyph glyph-name="G" unicode="G" horiz-adv-x="728" 
d="M365 373l310.999 0.000976562v-76c0 -91.333 -26.833 -165.666 -80.5 -222.999s-127.5 -86 -221.5 -86c-95.333 0 -173.666 33.667 -234.999 101s-92 155 -92 263c0 106.667 30.167 194 90.5 262s139.5 102 237.5 102c80 0 145.833 -21.833 197.5 -65.5
s84.167 -98.834 97.5 -165.501h-122c-25.333 82 -82.666 123 -171.999 123c-62.667 0 -112.834 -23.167 -150.501 -69.5s-56.5 -108.5 -56.5 -186.5c0 -79.333 19.333 -142 58 -188s88.667 -69 150 -69c56 0 100 16.167 132 48.5s48 74.166 48 125.499v4h-192v100z" />
    <glyph glyph-name="H" unicode="H" horiz-adv-x="734" 
d="M200 0h-119v704h119v-289h334v289h119v-704h-119v307h-334v-307z" />
    <glyph glyph-name="I" unicode="I" horiz-adv-x="282" 
d="M200 704v-704h-119v704h119z" />
    <glyph glyph-name="J" unicode="J" horiz-adv-x="558" 
d="M28 192l115.999 0.00195312c2.66699 -24 12.834 -45.833 30.501 -65.5s42.834 -29.5 75.501 -29.5c36.667 0 64.334 12.167 83.001 36.5s28 57.166 28 98.499v472h119v-473c0 -76.667 -20.333 -136.334 -61 -179.001s-97.334 -64 -170.001 -64
c-67.333 0 -120.833 20 -160.5 60s-59.834 88 -60.501 144z" />
    <glyph glyph-name="K" unicode="K" horiz-adv-x="644" 
d="M200 0h-119v704h119v-305l282 305h145l-309 -337l315 -367h-150l-283 324v-324z" />
    <glyph glyph-name="L" unicode="L" horiz-adv-x="576" 
d="M200 704v-597h340v-107h-459v704h119z" />
    <glyph glyph-name="M" unicode="M" horiz-adv-x="904" 
d="M81 704h147l225 -545l224 545h145v-704h-113v509l-209 -506h-96l-209 506v-509h-114v704z" />
    <glyph glyph-name="N" unicode="N" horiz-adv-x="740" 
d="M208 704l335 -506v506h115v-704h-114l-347 522v-522h-116v704h127z" />
    <glyph glyph-name="O" unicode="O" horiz-adv-x="755" 
d="M377 716c98.667 0 178.334 -33.833 239.001 -101.5s91 -155.167 91 -262.5s-30.333 -194.833 -91 -262.5s-140.334 -101.5 -239.001 -101.5s-178.334 33.833 -239.001 101.5s-91 155.167 -91 262.5s30.333 194.833 91 262.5s140.334 101.5 239.001 101.5zM377 97
c64 0 114.833 23.6689 152.5 71.002s56.5 108.666 56.5 183.999s-18.833 136.666 -56.5 183.999s-88.5 71 -152.5 71s-114.667 -23.5 -152 -70.5s-56 -108.5 -56 -184.5s18.667 -137.5 56 -184.5s88 -70.5 152 -70.5z" />
    <glyph glyph-name="P" unicode="P" horiz-adv-x="622" 
d="M337 704c75.333 0 134.668 -21.668 178.001 -65.001s65 -98.333 65 -165c0 -65.333 -21.833 -120.166 -65.5 -164.499s-101.834 -66.5 -174.501 -66.5h-140v-243h-119v704h256zM325.002 598.999h-125v-252h125c42 0 74.833 11.667 98.5 35s35.5 54 35.5 92
s-11.667 68.333 -35 91s-56.333 34 -99 34z" />
    <glyph glyph-name="Q" unicode="Q" horiz-adv-x="755" 
d="M377 716c98.667 0 178.334 -33.833 239.001 -101.5s91 -155.167 91 -262.5c0 -122 -38 -217.333 -114 -286l85 -128h-123l-50 74c-40.667 -16 -83.334 -24 -128.001 -24c-98.667 0 -178.334 33.833 -239.001 101.5s-91 155.167 -91 262.5s30.333 194.833 91 262.5
s140.334 101.5 239.001 101.5zM377 96c24.667 0 46.667 3.33301 66 10l-81 121h124l42 -63c38.667 46 58 108.667 58 188c0 76 -18.833 137.667 -56.5 185s-88.5 71 -152.5 71s-114.667 -23.667 -152 -71s-56 -109 -56 -185s18.667 -137.667 56 -185s88 -71 152 -71z" />
    <glyph glyph-name="R" unicode="R" horiz-adv-x="642" 
d="M584 479c0 -45.333 -12 -86.667 -36 -124s-57.333 -65 -100 -83l174 -272h-136l-160 252h-126v-252h-119v704h262c76 0 135.167 -21.5 177.5 -64.5s63.5 -96.5 63.5 -160.5zM331 598.999h-131.001v-243h131c42 0 74.5 11.667 97.5 35s34.5 52.333 34.5 87
c0 36 -11.167 65.167 -33.5 87.5s-55.166 33.5 -98.499 33.5z" />
    <glyph glyph-name="S" unicode="S" horiz-adv-x="624" 
d="M45 192l121 -0.00195312c20 -66 72.333 -99 157 -99c40.667 0 73.334 9.5 98.001 28.5s37 44.833 37 77.5c0 51.333 -32.667 82.333 -98 93l-122 20c-59.333 8.66699 -104.833 29.167 -136.5 61.5s-47.5 74.166 -47.5 125.499c0 64.667 24.167 117 72.5 157
s108.166 60 179.499 60c70 0 128.833 -17.167 176.5 -51.5s76.5 -83.166 86.5 -146.499h-120c-18 62 -65.667 93 -143 93c-36.667 0 -67.667 -9.16699 -93 -27.5s-38 -43.5 -38 -75.5c0 -46.667 30.667 -75 92 -85l122 -19c126.667 -21.333 190 -86.666 190 -195.999
c0 -68 -23.5 -121.667 -70.5 -161s-109.5 -59 -187.5 -59c-74 0 -136 17.833 -186 53.5s-80 85.834 -90 150.501z" />
    <glyph glyph-name="T" unicode="T" horiz-adv-x="628" 
d="M33 597v107h562v-107h-221v-597h-119v597h-222z" />
    <glyph glyph-name="U" unicode="U" horiz-adv-x="725" 
d="M76 281v423h119v-420c0 -60 15.333 -106.167 46 -138.5s71 -48.5 121 -48.5c50.667 0 91.167 16.167 121.5 48.5s45.5 78.5 45.5 138.5v420h119v-423c0 -95.333 -26.333 -168 -79 -218s-121.667 -75 -207 -75c-84.667 0 -153.5 25 -206.5 75s-79.5 122.667 -79.5 218z
" />
    <glyph glyph-name="V" unicode="V" horiz-adv-x="673" 
d="M656 704l-258 -704h-123l-258 704h126l193 -551l194 551h126z" />
    <glyph glyph-name="W" unicode="W" horiz-adv-x="995" 
d="M970 704l-213 -704h-113l-147 524l-148 -524h-111l-213 704h122l149 -507l146 507h111l146 -507l149 507h122z" />
    <glyph glyph-name="X" unicode="X" horiz-adv-x="676" 
d="M513 0l-177 266l-175 -266h-136l238 355l-236 349h137l175 -264l176 264h134l-236 -353l238 -351h-138z" />
    <glyph glyph-name="Y" unicode="Y" horiz-adv-x="652" 
d="M386 0h-119v270l-254 434h131l182 -317l182 317h131l-253 -432v-272z" />
    <glyph glyph-name="Z" unicode="Z" horiz-adv-x="623" 
d="M55 96l367 501h-367v107h513v-96l-368 -501h368v-107h-513v96z" />
    <glyph glyph-name="bracketleft" unicode="[" horiz-adv-x="376" 
d="M348 630h-137v-691h137v-97h-248v885h248v-97z" />
    <glyph glyph-name="backslash" unicode="\" horiz-adv-x="386" 
d="M118 727l260 -885h-110l-260 885h110z" />
    <glyph glyph-name="bracketright" unicode="]" horiz-adv-x="376" 
d="M29 -158v97h136v691h-136v97h247v-885h-247z" />
    <glyph glyph-name="asciicircum" unicode="^" horiz-adv-x="467" 
d="M442 360h-106l-101 222l-104 -222h-107l162 334h98z" />
    <glyph glyph-name="underscore" unicode="_" horiz-adv-x="483" 
d="M0 -48h483v-100h-483v100z" />
    <glyph glyph-name="grave" unicode="`" horiz-adv-x="520" 
d="M157 745h112l94 -162h-101z" />
    <glyph glyph-name="a" unicode="a" horiz-adv-x="545" 
d="M368 338c0 28.667 -9.16602 50.834 -27.499 66.501s-42.5 23.5 -72.5 23.5c-54 0 -87.667 -19.667 -101 -59h-108c8 44 30.5 80.5 67.5 109.5s85.5 43.5 145.5 43.5c63.333 0 113.833 -16.333 151.5 -49s56.5 -78.334 56.5 -137.001v-336h-106v58
c-37.333 -46.667 -90 -70 -158 -70c-50.667 0 -92.834 14.5 -126.501 43.5s-50.5 67.833 -50.5 116.5c0 50.667 18.167 90.167 54.5 118.5s86.5 42.5 150.5 42.5h124v29zM241.001 81c35.333 0 65.333 10.168 90 30.501s37 47.166 37 80.499v31h-116
c-30 0 -53.833 -6.16699 -71.5 -18.5s-26.5 -29.833 -26.5 -52.5s8 -40.167 24 -52.5s37 -18.5 63 -18.5z" />
    <glyph glyph-name="b" unicode="b" horiz-adv-x="603" 
d="M337 522c63.333 0 116.834 -23.6689 160.501 -71.002s65.5 -112.666 65.5 -195.999s-22.167 -148.666 -66.5 -195.999s-98.5 -71 -162.5 -71c-37.333 0 -69.333 7 -96 21s-46.334 32 -59.001 54v-63h-110v727h114v-277c32.667 48 84 72 154 72zM315.001 88.998
c40 0 72.167 15.167 96.5 45.5s36.5 70.5 36.5 120.5c0 49.333 -12.167 89.333 -36.5 120s-56.5 46 -96.5 46c-40.667 0 -73.334 -14.833 -98.001 -44.5s-37 -69.5 -37 -119.5v-4c0 -50 12.333 -89.833 37 -119.5s57.334 -44.5 98.001 -44.5z" />
    <glyph glyph-name="c" unicode="c" horiz-adv-x="549" 
d="M288 89c33.333 0 59.166 8.33203 77.499 24.999s30.5 36.667 36.5 60h111c-6 -52 -29.333 -96 -70 -132s-92.667 -54 -156 -54c-74 0 -133.667 24.833 -179 74.5s-68 113.834 -68 192.501c0 78 22.5 142 67.5 192s104.833 75 179.5 75
c64.667 0 116.667 -18.167 156 -54.5s62.333 -79.5 69 -129.5h-111c-7.33301 22.667 -20.166 42.167 -38.499 58.5s-43.5 24.5 -75.5 24.5c-40 0 -71.833 -15.333 -95.5 -46s-35.5 -70.667 -35.5 -120c0 -50 12 -90.167 36 -120.5s56 -45.5 96 -45.5z" />
    <glyph glyph-name="d" unicode="d" horiz-adv-x="603" 
d="M266 -12c-62.667 0 -115.998 23.6689 -159.998 71.002s-66 112.666 -66 195.999s22.167 148.666 66.5 195.999s98.5 71 162.5 71c69.333 0 119.666 -23 150.999 -69v274h114v-727h-110v66c-32.667 -52 -85.334 -78 -158.001 -78zM288.002 421.002
c-40 0 -72 -15.167 -96 -45.5s-36 -70.5 -36 -120.5s12 -90.167 36 -120.5s56 -45.5 96 -45.5c40.667 0 73.334 14.833 98.001 44.5s37 69.5 37 119.5v4c0 50 -12.333 89.833 -37 119.5s-57.334 44.5 -98.001 44.5z" />
    <glyph glyph-name="e" unicode="e" horiz-adv-x="556" 
d="M516 222l-359 0.000976562v-2c0 -39.333 12.667 -72 38 -98s58.333 -39 99 -39c28 0 51.167 5.83301 69.5 17.5s29.833 24.167 34.5 37.5h112c-8 -38.667 -30.5 -73.334 -67.5 -104.001s-87.167 -46 -150.5 -46c-76 0 -137 23.833 -183 71.5s-69 112.5 -69 194.5
s22.667 147.167 68 195.5s104.333 72.5 177 72.5c70 0 126 -23 168 -69s63 -107.333 63 -184v-47zM284 427.001c-36 0 -65.168 -10.667 -87.501 -32s-35.166 -50.333 -38.499 -87h244c-1.33301 37.333 -12.5 66.5 -33.5 87.5s-49.167 31.5 -84.5 31.5z" />
    <glyph glyph-name="f" unicode="f" horiz-adv-x="343" 
d="M214 0h-114v413h-84v97h84v50c0 54.667 14.833 96.167 44.5 124.5s73.167 42.5 130.5 42.5h41v-95h-28c-50.667 0 -76 -25 -76 -75v-47h104v-97h-102v-413z" />
    <glyph glyph-name="g" unicode="g" horiz-adv-x="603" 
d="M424 510l110.001 0.000976562v-476c0 -74.667 -21.833 -133.834 -65.5 -177.501s-103.5 -65.5 -179.5 -65.5c-68 0 -121.667 16 -161 48s-61.333 70 -66 114h112c16 -44 54.667 -66 116 -66c41.333 0 73.333 13 96 39s34 62 34 108v42
c-32.667 -48.667 -84.334 -73 -155.001 -73c-62.667 0 -115.834 23 -159.501 69s-65.5 109.333 -65.5 190c0 80 22.167 143.333 66.5 190s98.5 70 162.5 70c37.333 0 69.333 -7.16699 96 -21.5s46.334 -32.5 59.001 -54.5v64zM288.001 102.001
c40.667 0 73.334 14.667 98.001 44s37 67.333 37 114v4c0 46.667 -12.333 84.667 -37 114s-57.334 44 -98.001 44c-39.333 0 -71.166 -15 -95.499 -45s-36.5 -68.333 -36.5 -115s12.167 -85 36.5 -115s56.166 -45 95.499 -45z" />
    <glyph glyph-name="h" unicode="h" 
d="M331 522c53.333 0 97.833 -16.667 133.5 -50s53.5 -83 53.5 -149v-323h-114v302c0 38.667 -9.5 67.834 -28.5 87.501s-44.5 29.5 -76.5 29.5s-59.333 -10.333 -82 -31s-34 -51.334 -34 -92.001v-296h-114v727h114v-271c34.667 44 84 66 148 66z" />
    <glyph glyph-name="i" unicode="i" horiz-adv-x="253" 
d="M183 510v-510h-114v510h114zM126 731c20 0 36.833 -6.66699 50.5 -20s20.5 -29.666 20.5 -48.999c0 -20 -6.83301 -36.667 -20.5 -50s-30.5 -20 -50.5 -20c-19.333 0 -35.833 6.66699 -49.5 20s-20.5 30 -20.5 50c0 19.333 6.83301 35.666 20.5 48.999s30.167 20 49.5 20
z" />
    <glyph glyph-name="j" unicode="j" horiz-adv-x="253" 
d="M-17 -192v96h21c44 0 66 28.333 66 85v521h114v-526c0 -60 -13.5 -104.333 -40.5 -133s-68.5 -43 -124.5 -43h-36zM126 731c20 0 36.833 -6.66699 50.5 -20s20.5 -29.666 20.5 -48.999c0 -20 -6.83301 -36.667 -20.5 -50s-30.5 -20 -50.5 -20
c-19.333 0 -35.833 6.66699 -49.5 20s-20.5 30 -20.5 50c0 19.333 6.83301 35.666 20.5 48.999s30.167 20 49.5 20z" />
    <glyph glyph-name="k" unicode="k" horiz-adv-x="527" 
d="M183 0h-114v727h114v-429l196 212h135l-220 -239l223 -271h-138l-196 238v-238z" />
    <glyph glyph-name="l" unicode="l" horiz-adv-x="253" 
d="M183 727v-727h-114v727h114z" />
    <glyph glyph-name="m" unicode="m" horiz-adv-x="883" 
d="M638 522c49.333 0 91.666 -16.1689 126.999 -48.502s53 -80.833 53 -145.5v-328h-114v308c0 36.667 -9.16699 64.334 -27.5 83.001s-41.833 28 -70.5 28c-29.333 0 -54.166 -10 -74.499 -30s-30.5 -47.667 -30.5 -83v-306h-114v308
c0 36.667 -9.16699 64.334 -27.5 83.001s-41.833 28 -70.5 28c-29.333 0 -54.333 -10 -75 -30s-31 -47.667 -31 -83v-306h-114v510h110v-60c14.667 22 34.834 39.5 60.501 52.5s53.5 19.5 83.5 19.5s58.333 -6.83301 85 -20.5s48 -34.167 64 -61.5
c17.333 24 40.666 43.667 69.999 59s61.333 23 96 23z" />
    <glyph glyph-name="n" unicode="n" 
d="M69 510h109.999v-60c13.333 20 33.333 37 60 51s57.334 21 92.001 21c53.333 0 97.833 -16.667 133.5 -50s53.5 -83 53.5 -149v-323h-114v302c0 38.667 -9.5 67.834 -28.5 87.501s-44.5 29.5 -76.5 29.5s-59.333 -10.333 -82 -31s-34 -51.334 -34 -92.001v-296h-114v510z
" />
    <glyph glyph-name="o" unicode="o" 
d="M291 522c74.667 0 135.167 -24.667 181.5 -74s69.5 -113.666 69.5 -192.999s-23.167 -143.666 -69.5 -192.999s-106.833 -74 -181.5 -74s-135.167 24.667 -181.5 74s-69.5 113.666 -69.5 192.999s23.167 143.666 69.5 192.999s106.833 74 181.5 74zM291 89
c41.333 0 74.166 15.333 98.499 46s36.5 70.667 36.5 120s-12.167 89.333 -36.5 120s-57.166 46 -98.499 46s-74.166 -15.333 -98.499 -46s-36.5 -70.667 -36.5 -120s12.167 -89.333 36.5 -120s57.166 -46 98.499 -46z" />
    <glyph glyph-name="p" unicode="p" horiz-adv-x="603" 
d="M337 522c63.333 0 116.832 -23.6689 160.499 -71.002s65.5 -112.666 65.5 -195.999s-22.167 -148.666 -66.5 -195.999s-98.5 -71 -162.5 -71c-35.333 0 -66.166 6.5 -92.499 19.5s-45.833 29.5 -58.5 49.5v-248h-114v701h110v-66c32 52 84.667 78 158 78zM314.999 88.998
c40 0 72.167 15.167 96.5 45.5s36.5 70.5 36.5 120.5c0 49.333 -12.167 89.333 -36.5 120s-56.5 46 -96.5 46c-40.667 0 -73.334 -14.833 -98.001 -44.5s-37 -69.5 -37 -119.5v-4c0 -50 12.333 -89.833 37 -119.5s57.334 -44.5 98.001 -44.5z" />
    <glyph glyph-name="q" unicode="q" horiz-adv-x="603" 
d="M266 -12c-62.667 0 -116.001 23.668 -160.001 71.001s-66 112.666 -66 195.999s22.167 148.666 66.5 195.999s98.5 71 162.5 71c36.667 0 68.5 -7.16699 95.5 -21.5s46.833 -32.166 59.5 -53.499v63h110v-701h-114v251c-33.333 -48 -84.666 -72 -153.999 -72z
M287.999 421.001c-40 0 -72 -15.167 -96 -45.5s-36 -70.5 -36 -120.5s12 -90.167 36 -120.5s56 -45.5 96 -45.5c40.667 0 73.334 14.833 98.001 44.5s37 69.5 37 119.5v4c0 50 -12.333 89.833 -37 119.5s-57.334 44.5 -98.001 44.5z" />
    <glyph glyph-name="r" unicode="r" horiz-adv-x="386" 
d="M334 512h25.998v-108h-30c-45.333 0 -81.166 -11.5 -107.499 -34.5s-39.5 -56.167 -39.5 -99.5v-270h-114v510h110v-80c32.667 54.667 84.334 82 155.001 82z" />
    <glyph glyph-name="s" unicode="s" horiz-adv-x="507" 
d="M152 147c10.667 -44 47.001 -66 109.001 -66c29.333 0 52.333 5.66699 69 17s25 27.333 25 48c0 32 -22.333 50.667 -67 56l-90 12c-99.333 12.667 -149 60.334 -149 143.001c0 48 19.167 87.333 57.5 118s86.5 46 144.5 46c56.667 0 103.5 -13.333 140.5 -40
s59.167 -64 66.5 -112h-111c-12.667 40 -45.334 60 -98.001 60c-26.667 0 -48 -6 -64 -18s-24 -27 -24 -45c0 -30.667 21.333 -48.667 64 -54l91 -11c46 -6 82.833 -21 110.5 -45s41.5 -58.333 41.5 -103c0 -52 -19.333 -92.5 -58 -121.5s-88 -43.5 -148 -43.5
c-58.667 0 -109 13.167 -151 39.5s-65.667 66.166 -71 119.499h112z" />
    <glyph glyph-name="t" unicode="t" horiz-adv-x="354" 
d="M212 173c0 -28.667 6.33203 -48.167 18.999 -58.5s30.667 -15.5 54 -15.5h32v-100h-51c-57.333 0 -99.666 13.333 -126.999 40s-41 69 -41 127v247h-82v97h82v133h114v-133h105v-97h-105v-240z" />
    <glyph glyph-name="u" unicode="u" 
d="M513 0h-110v59c-14 -20 -34.167 -36.833 -60.5 -50.5s-56.5 -20.5 -90.5 -20.5c-53.333 0 -97.833 16.5 -133.5 49.5s-53.5 82.833 -53.5 149.5v323h114v-302c0 -38.667 9.33301 -67.834 28 -87.501s44 -29.5 76 -29.5s59.333 10.333 82 31s34 51.334 34 92.001v296h114
v-510z" />
    <glyph glyph-name="v" unicode="v" horiz-adv-x="527" 
d="M517 510l-194 -510h-119l-194 510h123l131 -370l131 370h122z" />
    <glyph glyph-name="w" unicode="w" horiz-adv-x="792" 
d="M778 510l-163 -510h-111l-109 364l-107 -364h-110l-163 510h117l104 -347l104 347h113l103 -347l104 347h118z" />
    <glyph glyph-name="x" unicode="x" horiz-adv-x="533" 
d="M383 0l-120 176l-118 -176h-127l177 255l-175 255h131l119 -179l117 179h126l-176 -258l178 -252h-132z" />
    <glyph glyph-name="y" unicode="y" horiz-adv-x="534" 
d="M401 510h123l-275 -701h-122l79 200l-196 501h123l134 -365z" />
    <glyph glyph-name="z" unicode="z" horiz-adv-x="500" 
d="M46 0v89l264 321h-264v100h408v-89l-264 -321h264v-100h-408z" />
    <glyph glyph-name="braceleft" unicode="{" horiz-adv-x="386" 
d="M242 415c0 -39.333 -6.66699 -69.333 -20 -90s-34.333 -34.667 -63 -42c28.667 -6.66699 49.667 -20.5 63 -41.5s20 -51.167 20 -90.5v-112c0 -36.667 6.33301 -62.5 19 -77.5s34 -22.5 64 -22.5h32v-97h-38c-125.333 0 -188 60 -188 180v112
c0 34.667 -5.5 60.167 -16.5 76.5s-30.5 24.5 -58.5 24.5h-33v96h33c28 0 47.5 8 58.5 24s16.5 41.667 16.5 77v115c0 120 62.667 180 188 180h38v-97h-32c-30 0 -51.333 -7.5 -64 -22.5s-19 -40.833 -19 -77.5v-115z" />
    <glyph glyph-name="bar" unicode="|" horiz-adv-x="292" 
d="M93 727h107v-885h-107v885z" />
    <glyph glyph-name="braceright" unicode="}" horiz-adv-x="386" 
d="M144 415v115c0 36.667 -6.33301 62.5 -19 77.5s-34 22.5 -64 22.5h-32v97h38c125.333 0 188 -60 188 -180v-115c0 -35.333 5.5 -61 16.5 -77s30.5 -24 58.5 -24h33v-96h-33c-28 0 -47.5 -8.16699 -58.5 -24.5s-16.5 -41.833 -16.5 -76.5v-112
c0 -120 -62.667 -180 -188 -180h-38v97h32c30 0 51.333 7.5 64 22.5s19 40.833 19 77.5v112c0 39.333 6.66699 69.5 20 90.5s34.333 34.833 63 41.5c-28.667 7.33301 -49.667 21.333 -63 42s-20 50.667 -20 90z" />
    <glyph glyph-name="asciitilde" unicode="~" horiz-adv-x="627" 
d="M469 360l95.999 -0.000976562v-30c0 -49.333 -14 -88 -42 -116s-63 -42 -105 -42c-23.333 0 -45.666 4.83301 -66.999 14.5s-38.5 20.5 -51.5 32.5s-27.167 22.833 -42.5 32.5s-29.666 14.5 -42.999 14.5c-16.667 0 -30 -5.66699 -40 -17s-15 -26.666 -15 -45.999v-22
h-96v30c0 48.667 14 87.167 42 115.5s63 42.5 105 42.5c22.667 0 44.667 -5 66 -15s38.5 -20.833 51.5 -32.5s27.167 -22.5 42.5 -32.5s29.666 -15 42.999 -15c16.667 0 30.167 5.83301 40.5 17.5s15.5 27.167 15.5 46.5v22z" />
    <glyph glyph-name="nonbreakingspace" unicode="&#xa0;" horiz-adv-x="218" 
 />
    <glyph glyph-name="exclamdown" unicode="&#xa1;" horiz-adv-x="318" 
d="M107 288h103l9 -479h-120zM159 522c20.667 0 38.167 -7 52.5 -21s21.5 -31.333 21.5 -52s-7.16699 -38.167 -21.5 -52.5s-31.833 -21.5 -52.5 -21.5s-38.167 7.16699 -52.5 21.5s-21.5 31.833 -21.5 52.5s7.16699 38 21.5 52s31.833 21 52.5 21z" />
    <glyph glyph-name="cent" unicode="&#xa2;" horiz-adv-x="573" 
d="M421 440c-5.33301 18 -15.332 34.667 -29.999 50s-34 25.666 -58 30.999v-339c47.333 10.667 77 38.334 89 83.001h108c-4.66699 -46.667 -24.834 -87.167 -60.501 -121.5s-81.167 -54.5 -136.5 -60.5v-93h-80v94c-63.333 9.33301 -113.5 38 -150.5 86
s-55.5 108.667 -55.5 182c0 72.667 18.5 133 55.5 181s87.167 77 150.5 87v94h80v-93c56 -7.33301 101.333 -28.333 136 -63s55 -74 61 -118h-109zM160.001 352c0 -44 8.16699 -80.167 24.5 -108.5s39.166 -47.5 68.499 -57.5v332
c-29.333 -9.33301 -52.166 -28.5 -68.499 -57.5s-24.5 -65.167 -24.5 -108.5z" />
    <glyph glyph-name="sterling" unicode="&#xa3;" horiz-adv-x="595" 
d="M485 296h-222.999c0.666992 -3.33301 1 -8.66602 1 -15.999c0 -64 -26 -122.667 -78 -176h365v-104h-505v98c69.333 63.333 104 123.666 104 180.999c0 2 -0.166992 4.83301 -0.5 8.5s-0.5 6.5 -0.5 8.5h-104v94h74c-18 45.333 -27 85 -27 119
c0 60 21.5 109.5 64.5 148.5s97.5 58.5 163.5 58.5c63.333 0 115.666 -17.833 156.999 -53.5s66.333 -81.5 75 -137.5h-117c-15.333 57.333 -54 86 -116 86c-32.667 0 -59 -9.33301 -79 -28s-30 -45 -30 -79c0 -25.333 10.333 -63.333 31 -114h245v-94z" />
    <glyph glyph-name="currency" unicode="&#xa4;" horiz-adv-x="623" 
d="M536 352c0 -42.667 -12 -82.334 -36 -119.001l88 -87l-71 -71l-89 88c-36 -21.333 -75 -32 -117 -32s-81 10.667 -117 32l-88 -88l-72 71l88 87c-23.333 37.333 -35 77 -35 119c0 42.667 11.667 82 35 118l-88 88l72 71l88 -89c35.333 22 74.333 33 117 33
s81.667 -11 117 -33l89 89l71 -71l-88 -88c24 -35.333 36 -74.666 36 -117.999zM191 352c0 -36 11.667 -65.5 35 -88.5s51.666 -34.5 84.999 -34.5c34 0 62.667 11.5 86 34.5s35 52.5 35 88.5s-11.667 65.5 -35 88.5s-52 34.5 -86 34.5
c-33.333 0 -61.666 -11.5 -84.999 -34.5s-35 -52.5 -35 -88.5z" />
    <glyph glyph-name="yen" unicode="&#xa5;" horiz-adv-x="623" 
d="M538 122h-168v-122h-117v122h-168v85h168v72h-168v85h123l-193 340h128l168 -310l170 310h127l-193 -340h123v-85h-168v-72h168v-85z" />
    <glyph glyph-name="brokenbar" unicode="&#xa6;" horiz-adv-x="292" 
d="M200 208v-366h-107v366h107zM93 361v366h107v-366h-107z" />
    <glyph glyph-name="section" unicode="&#xa7;" horiz-adv-x="549" 
d="M44 286c0 32 8.83398 59.6709 26.501 83.0039s39.834 41.333 66.501 54c-44 27.333 -66 67.666 -66 120.999c0 49.333 19.167 90.333 57.5 123s87.166 49 146.499 49c55.333 0 102.5 -14.167 141.5 -42.5s60.833 -66.166 65.5 -113.499h-112
c-11.333 41.333 -43.333 62 -96 62c-26.667 0 -48.334 -6.33301 -65.001 -19s-25 -29.334 -25 -50.001c0 -34 24 -55.667 72 -65l104 -20c44.667 -8.66699 80 -26.334 106 -53.001s39 -59.334 39 -98.001c0 -29.333 -8.16699 -55.5 -24.5 -78.5s-36.833 -40.833 -61.5 -53.5
c40.667 -30 61 -70.667 61 -122c0 -50.667 -19.5 -92.5 -58.5 -125.5s-88.833 -49.5 -149.5 -49.5c-59.333 0 -108.833 14.167 -148.5 42.5s-62.5 68.5 -68.5 120.5h113c4.66699 -22 16.5 -39.167 35.5 -51.5s42.833 -18.5 71.5 -18.5c26.667 0 48.5 6.83301 65.5 20.5
s25.5 31.167 25.5 52.5c0 36 -23.333 58.667 -70 68l-109 20c-43.333 8 -78 24.167 -104 48.5s-39 56.166 -39 95.499zM157.001 311.004c0 -40.667 24.667 -65.333 74 -74l105 -19c16 8 29.167 19 39.5 33s15.5 29.667 15.5 47c0 42 -26.333 68 -79 78l-92 17
c-42 -20 -63 -47.333 -63 -82z" />
    <glyph glyph-name="dieresis" unicode="&#xa8;" horiz-adv-x="520" 
d="M154 728c19.333 0 35.5 -6.5 48.5 -19.5s19.5 -28.833 19.5 -47.5s-6.5 -34.5 -19.5 -47.5s-29.167 -19.5 -48.5 -19.5s-35.5 6.5 -48.5 19.5s-19.5 28.833 -19.5 47.5s6.5 34.5 19.5 47.5s29.167 19.5 48.5 19.5zM366 728c19.333 0 35.5 -6.5 48.5 -19.5
s19.5 -28.833 19.5 -47.5s-6.5 -34.5 -19.5 -47.5s-29.167 -19.5 -48.5 -19.5s-35.5 6.5 -48.5 19.5s-19.5 28.833 -19.5 47.5s6.5 34.5 19.5 47.5s29.167 19.5 48.5 19.5z" />
    <glyph glyph-name="copyright" unicode="&#xa9;" horiz-adv-x="874" 
d="M437 -21c88 0 161.167 29.667 219.5 89s87.5 135.333 87.5 228s-29.167 168.667 -87.5 228s-131.5 89 -219.5 89s-161.167 -29.667 -219.5 -89s-87.5 -135.333 -87.5 -228s29.167 -168.667 87.5 -228s131.5 -89 219.5 -89zM437 -107c-112 0 -206 38.167 -282 114.5
s-114 172.5 -114 288.5s38 212.167 114 288.5s170 114.5 282 114.5s206 -38.167 282 -114.5s114 -172.5 114 -288.5s-38 -212.167 -114 -288.5s-170 -114.5 -282 -114.5zM436 169c24.667 0 44.333 6.16992 59 18.5029s24.334 28.166 29.001 47.499h97
c-4 -44.667 -23.5 -81.667 -58.5 -111s-77.5 -44 -127.5 -44c-59.333 0 -108 20 -146 60s-57 92 -57 156s18.833 116.5 56.5 157.5s86.5 61.5 146.5 61.5c52.667 0 95.5 -14.833 128.5 -44.5s52.167 -65.834 57.5 -108.501h-98c-12.667 42 -42 63 -88 63
c-30.667 0 -55.334 -11.333 -74.001 -34s-28 -54.334 -28 -95.001c0 -40 9.33301 -71.167 28 -93.5s43.667 -33.5 75 -33.5z" />
    <glyph glyph-name="ordfeminine" unicode="&#xaa;" horiz-adv-x="396" 
d="M261 586c0 18.667 -5.8291 33 -17.4961 43s-27.834 15 -48.501 15c-36.667 0 -58.334 -12.667 -65.001 -38h-87c5.33301 32 22.166 58.333 50.499 79s63.166 31 104.499 31c46.667 0 83.834 -11.667 111.501 -35s41.5 -55 41.5 -95v-232h-84v42
c-25.333 -33.333 -63 -50 -113 -50c-36.667 0 -66.834 10.333 -90.501 31s-35.5 47.667 -35.5 81c0 34.667 13.333 62 40 82s63 30 109 30h84v16zM181.004 417c22 0 40.833 6.66602 56.5 19.999s23.5 30 23.5 50v18h-78c-42 0 -63 -14.333 -63 -43
c0 -13.333 5.66699 -24.166 17 -32.499s26 -12.5 44 -12.5z" />
    <glyph glyph-name="guillemotleft" unicode="&#xab;" horiz-adv-x="639" 
d="M177 260l171 -211h-125l-175 211l175 212h125zM420 260l170 -211h-125l-174 211l174 212h125z" />
    <glyph glyph-name="logicalnot" unicode="&#xac;" horiz-adv-x="627" 
d="M77 397h466v-283h-108v177h-358v106z" />
    <glyph glyph-name="uni00AD" unicode="&#xad;" horiz-adv-x="431" 
d="M57 219v105h318v-105h-318z" />
    <glyph glyph-name="registered" unicode="&#xae;" horiz-adv-x="618" 
d="M309 193c-75.333 0 -139 25.833 -191 77.5s-78 116.5 -78 194.5c0 77.333 26 141.833 78 193.5s115.667 77.5 191 77.5s139 -25.833 191 -77.5s78 -116.167 78 -193.5c0 -78 -26 -142.833 -78 -194.5s-115.667 -77.5 -191 -77.5zM309 262c56.667 0 103.834 19 141.501 57
s56.5 86.667 56.5 146c0 58.667 -18.833 107 -56.5 145s-84.834 57 -141.501 57s-103.834 -19 -141.501 -57s-56.5 -86.333 -56.5 -145c0 -59.333 18.833 -108 56.5 -146s84.834 -57 141.501 -57zM414 507c0 -30 -13.333 -54 -40 -72l58 -99h-74l-46 81h-41v-81h-66v259h110
c30 0 54 -8.16699 72 -24.5s27 -37.5 27 -63.5zM309 538h-38.001v-65h38c10.667 0 19.334 3 26.001 9s10 14 10 24c0 21.333 -12 32 -36 32z" />
    <glyph glyph-name="macron" unicode="&#xaf;" horiz-adv-x="520" 
d="M106 705h308v-88h-308v88z" />
    <glyph glyph-name="degree" unicode="&#xb0;" horiz-adv-x="457" 
d="M414 525c0 -52 -18.167 -95.5 -54.5 -130.5s-80.166 -52.5 -131.499 -52.5s-95 17.5 -131 52.5s-54 78.5 -54 130.5c0 52.667 18 96.5 54 131.5s79.667 52.5 131 52.5s95.166 -17.5 131.499 -52.5s54.5 -78.833 54.5 -131.5zM137 525c0 -26 9 -47.833 27 -65.5
s39.333 -26.5 64 -26.5c25.333 0 47 8.83301 65 26.5s27 39.5 27 65.5c0 26.667 -9 48.834 -27 66.501s-39.667 26.5 -65 26.5c-24.667 0 -46 -8.83301 -64 -26.5s-27 -39.834 -27 -66.501z" />
    <glyph glyph-name="plusminus" unicode="&#xb1;" horiz-adv-x="627" 
d="M548 266h-183v-163h181v-97h-464v97h180v163h-182v95h182v172h103v-172h183v-95z" />
    <glyph glyph-name="twosuperior" unicode="&#xb2;" horiz-adv-x="398" 
d="M170 422l194.002 -0.000976562v-81h-322v76l168 150c12 10.667 20.5 18.5 25.5 23.5s10.5 12.833 16.5 23.5s9 21 9 31c0 15.333 -6 28 -18 38s-27.333 15 -46 15s-33.834 -4.83301 -45.501 -14.5s-19.167 -22.167 -22.5 -37.5h-91
c3.33301 39.333 19.666 71.5 48.999 96.5s67.333 37.5 114 37.5c46 0 83.5 -12.667 112.5 -38s43.5 -56.666 43.5 -93.999c0 -26 -7 -49.167 -21 -69.5s-33.333 -41.5 -58 -63.5z" />
    <glyph glyph-name="threesuperior" unicode="&#xb3;" horiz-adv-x="404" 
d="M38 652c4.66699 38.667 22.499 69.665 53.499 92.998s67.833 35 110.5 35c44.667 0 81.334 -11.167 110.001 -33.5s43 -50.5 43 -84.5c0 -44.667 -21.667 -76.334 -65 -95.001c21.333 -5.33301 40.166 -17.166 56.499 -35.499s24.5 -41.166 24.5 -68.499
c0 -37.333 -15.667 -68.333 -47 -93s-71 -37 -119 -37c-46.667 0 -86.167 12 -118.5 36s-50.166 56 -53.499 96h91c4 -15.333 13.333 -27.666 28 -36.999s32.334 -14 53.001 -14c20 0 36.667 5 50 15s20 23.333 20 40c0 34.667 -24.333 52 -73 52h-51v79h42
c20.667 0 37 4.66699 49 14s18 21.333 18 36s-5.83301 26.5 -17.5 35.5s-26.834 13.5 -45.501 13.5c-18 0 -33 -4.5 -45 -13.5s-19.667 -20.167 -23 -33.5h-91z" />
    <glyph glyph-name="acute" unicode="&#xb4;" horiz-adv-x="520" 
d="M363 745l-105 -162h-101l94 162h112z" />
    <glyph glyph-name="mu" unicode="&#xb5;" horiz-adv-x="590" 
d="M406 510h114.001v-510h-109v60c-14 -20 -34.333 -37 -61 -51s-57.334 -21 -92.001 -21c-28.667 0 -53.667 6.66699 -75 20v-199h-114v701h114v-302c0 -38.667 9.66699 -67.834 29 -87.501s45 -29.5 77 -29.5s59.5 10.333 82.5 31s34.5 51.334 34.5 92.001v296z" />
    <glyph glyph-name="paragraph" unicode="&#xb6;" horiz-adv-x="618" 
d="M268 704l269 -0.000976562v-805h-97v710h-155c-38.667 0 -70 -10.333 -94 -31s-36 -49.667 -36 -87c0 -36 12 -64.333 36 -85s55.333 -31 94 -31h78v-476h-97v381h-5c-64 0 -116.167 20.167 -156.5 60.5s-60.5 90.5 -60.5 150.5c0 62.667 20.5 113.834 61.5 153.501
s95.167 59.5 162.5 59.5z" />
    <glyph glyph-name="periodcentered" unicode="&#xb7;" horiz-adv-x="278" 
d="M139 328c20.667 0 38.167 -7 52.5 -21s21.5 -31.333 21.5 -52s-7.16699 -38.167 -21.5 -52.5s-31.833 -21.5 -52.5 -21.5s-38.167 7.16699 -52.5 21.5s-21.5 31.833 -21.5 52.5s7.16699 38 21.5 52s31.833 21 52.5 21z" />
    <glyph glyph-name="cedilla" unicode="&#xb8;" horiz-adv-x="520" 
d="M292 14v-14.001l-19 -52c22 -2 41.5 -10.667 58.5 -26s25.5 -36.333 25.5 -63c0 -31.333 -11.667 -56.666 -35 -75.999s-57.333 -29 -102 -29h-58v72h51c32 0 48 12 48 36c0 23.333 -15.333 35 -46 35h-33v21l36 96h74z" />
    <glyph glyph-name="onesuperior" unicode="&#xb9;" horiz-adv-x="298" 
d="M226 772v-431h-95v330l-100 -62v93l107 70h88z" />
    <glyph glyph-name="ordmasculine" unicode="&#xba;" horiz-adv-x="419" 
d="M209 716c53.333 0 96.834 -17.168 130.501 -51.501s50.5 -79.166 50.5 -134.499c0 -54 -16.833 -98.167 -50.5 -132.5s-76.834 -51.5 -129.501 -51.5c-53.333 0 -97 17.167 -131 51.5s-51 78.833 -51 133.5s16.833 99.167 50.5 133.5s77.167 51.5 130.5 51.5z
M209.001 424.999c27.333 0 49 9.83301 65 29.5s24 44.834 24 75.501s-8 56 -24 76s-37.333 30 -64 30c-27.333 0 -49 -9.83301 -65 -29.5s-24 -44.834 -24 -75.501s8 -56 24 -76s37.333 -30 64 -30z" />
    <glyph glyph-name="guillemotright" unicode="&#xbb;" horiz-adv-x="639" 
d="M219 260l-171 212h125l175 -212l-175 -211h-125zM462 260l-171 212h125l174 -212l-174 -211h-125z" />
    <glyph glyph-name="onequarter" unicode="&#xbc;" horiz-adv-x="946" 
d="M226 704v-431h-95v330l-100 -62v93l107 70h88zM131 0l503 704h110l-502 -704h-111zM918 163v-78h-59v-85h-91v85h-212v76l181 271h122v-269h59zM648 163h120v174z" />
    <glyph glyph-name="onehalf" unicode="&#xbd;" horiz-adv-x="975" 
d="M226 704v-431h-95v330l-100 -62v93l107 70h88zM131 0l503 704h110l-502 -704h-111zM747 81l194.002 -0.000976562v-81h-322v76l168 150c12 10.667 20.5 18.5 25.5 23.5s10.5 12.833 16.5 23.5s9 21 9 31c0 15.333 -6 28 -18 38s-27.333 15 -46 15
s-33.834 -4.83301 -45.501 -14.5s-19.167 -22.167 -22.5 -37.5h-91c3.33301 39.333 19.666 71.5 48.999 96.5s67.333 37.5 114 37.5c46 0 83.5 -12.667 112.5 -38s43.5 -56.666 43.5 -93.999c0 -26 -7 -49.167 -21 -69.5s-33.333 -41.5 -58 -63.5z" />
    <glyph glyph-name="threequarters" unicode="&#xbe;" horiz-adv-x="1052" 
d="M38 584c4.66699 38.667 22.499 69.665 53.499 92.998s67.833 35 110.5 35c44.667 0 81.334 -11.167 110.001 -33.5s43 -50.5 43 -84.5c0 -44.667 -21.667 -76.334 -65 -95.001c21.333 -5.33301 40.166 -17.166 56.499 -35.499s24.5 -41.166 24.5 -68.499
c0 -37.333 -15.667 -68.333 -47 -93s-71 -37 -119 -37c-46.667 0 -86.167 12 -118.5 36s-50.166 56 -53.499 96h91c4 -15.333 13.333 -27.666 28 -36.999s32.334 -14 53.001 -14c20 0 36.667 5 50 15s20 23.333 20 40c0 34.667 -24.333 52 -73 52h-51v79h42
c20.667 0 37 4.66699 49 14s18 21.333 18 36s-5.83301 26.5 -17.5 35.5s-26.834 13.5 -45.501 13.5c-18 0 -33 -4.5 -45 -13.5s-19.667 -20.167 -23 -33.5h-91zM236.999 -0.00195312l503 704h110l-502 -704h-111zM1024 162.998v-78h-59v-85h-91v85h-212v76l181 271h122v-269
h59zM753.999 162.998h120v174z" />
    <glyph glyph-name="questiondown" unicode="&#xbf;" horiz-adv-x="537" 
d="M290 522c20.667 0 38.167 -7.16699 52.5 -21.5s21.5 -31.833 21.5 -52.5s-7.16699 -38 -21.5 -52s-31.833 -21 -52.5 -21s-38.167 7 -52.5 21s-21.5 31.333 -21.5 52s7.16699 38.167 21.5 52.5s31.833 21.5 52.5 21.5zM162 -13c0 -26.667 9.66699 -48.3311 29 -64.998
s45 -25 77 -25c66 0 107 30.667 123 92h111c-6.66699 -56.667 -31 -103.334 -73 -140.001s-96.333 -55 -163 -55c-67.333 0 -120.833 17.833 -160.5 53.5s-59.5 80.167 -59.5 133.5c0 31.333 6.16699 59 18.5 83s23.833 40.5 34.5 49.5s28 21.833 52 38.5
c3.33301 2.66699 6 4.66699 8 6c33.333 22.667 54 39 62 49c12.667 16 19 36.667 19 62v20h107v-30c0 -41.333 -7.83301 -72.833 -23.5 -94.5s-41.834 -44.834 -78.501 -69.501c-19.333 -12.667 -33.666 -22.667 -42.999 -30s-18.333 -18 -27 -32s-13 -29.333 -13 -46z" />
    <glyph glyph-name="Agrave" unicode="&#xc0;" horiz-adv-x="680" 
d="M278 704h124l262 -704h-125l-61 167h-278l-58 -167h-125zM339 562l-102 -292h205zM182 933h112l94 -161h-101z" />
    <glyph glyph-name="Aacute" unicode="&#xc1;" horiz-adv-x="680" 
d="M278 704h124l262 -704h-125l-61 167h-278l-58 -167h-125zM339 562l-102 -292h205zM500 933l-105 -161h-101l94 161h112z" />
    <glyph glyph-name="Acircumflex" unicode="&#xc2;" horiz-adv-x="680" 
d="M278 704h124l262 -704h-125l-61 167h-278l-58 -167h-125zM339 562l-102 -292h205zM261 772h-107l136 161h102l136 -161h-107l-80 88z" />
    <glyph glyph-name="Atilde" unicode="&#xc3;" horiz-adv-x="680" 
d="M278 704h124l262 -704h-125l-61 167h-278l-58 -167h-125zM339 562l-102 -292h205zM439 919h76.998v-20c0 -38.667 -9.5 -68.834 -28.5 -90.501s-44.833 -32.5 -77.5 -32.5c-20 0 -38.667 5 -56 15s-32.333 20.167 -45 30.5s-23.667 15.5 -33 15.5
s-17.166 -3.5 -23.499 -10.5s-9.5 -16.833 -9.5 -29.5v-15h-77v20c0 38.667 9.5 68.834 28.5 90.501s44.5 32.5 76.5 32.5c20.667 0 39.667 -5.16699 57 -15.5s32.333 -20.5 45 -30.5s23.334 -15 32.001 -15c10 0 18.167 3.5 24.5 10.5s9.5 16.833 9.5 29.5v15z" />
    <glyph glyph-name="Adieresis" unicode="&#xc4;" horiz-adv-x="680" 
d="M278 704h124l262 -704h-125l-61 167h-278l-58 -167h-125zM339 562l-102 -292h205zM231 917c18.667 0 34.667 -6.5 48 -19.5s20 -28.833 20 -47.5s-6.5 -34.5 -19.5 -47.5s-29.167 -19.5 -48.5 -19.5s-35.5 6.5 -48.5 19.5s-19.5 28.833 -19.5 47.5s6.66699 34.5 20 47.5
s29.333 19.5 48 19.5zM452 917c18.667 0 34.667 -6.5 48 -19.5s20 -28.833 20 -47.5s-6.5 -34.5 -19.5 -47.5s-29.167 -19.5 -48.5 -19.5s-35.5 6.5 -48.5 19.5s-19.5 28.833 -19.5 47.5s6.66699 34.5 20 47.5s29.333 19.5 48 19.5z" />
    <glyph glyph-name="Aring" unicode="&#xc5;" horiz-adv-x="680" 
d="M278 704h124l262 -704h-125l-61 167h-278l-58 -167h-125zM339 562l-102 -292h205zM455 867c0 -31.333 -10.833 -57.5 -32.5 -78.5s-48.834 -31.5 -81.501 -31.5s-59.834 10.5 -81.501 31.5s-32.5 47.167 -32.5 78.5s10.833 57.5 32.5 78.5s48.834 31.5 81.501 31.5
s59.834 -10.5 81.501 -31.5s32.5 -47.167 32.5 -78.5zM296 867c0 -12.667 4.5 -23.334 13.5 -32.001s19.5 -13 31.5 -13s22.5 4.33301 31.5 13s13.5 19.334 13.5 32.001s-4.5 23.334 -13.5 32.001s-19.5 13 -31.5 13s-22.5 -4.33301 -31.5 -13s-13.5 -19.334 -13.5 -32.001z
" />
    <glyph glyph-name="AE" unicode="&#xc6;" horiz-adv-x="998" 
d="M420 704h523v-107h-338v-185h319v-104h-319v-201h338v-107h-456v168h-254l-99 -168h-127zM292 270h195v333z" />
    <glyph glyph-name="Ccedilla" unicode="&#xc7;" horiz-adv-x="710" 
d="M548 231l120 -0.00195312c-2.66699 -26.667 -10 -53 -22 -79s-28.333 -50.667 -49 -74s-47.334 -43 -80.001 -59s-69.334 -25.667 -110.001 -29l-15 -42c22 -2 41.5 -10.667 58.5 -26s25.5 -36.333 25.5 -63c0 -31.333 -11.667 -56.666 -35 -75.999s-57.333 -29 -102 -29
h-58v72h51c32 0 48 12 48 36c0 23.333 -15.333 35 -46 35h-33v21l27 73c-83.333 9.33301 -151 46.833 -203 112.5s-78 148.5 -78 248.5c0 107.333 30 194.833 90 262.5s137.667 101.5 233 101.5c84 0 151.667 -22.833 203 -68.5s82.333 -103.5 93 -173.5h-119
c-10.667 39.333 -30.667 71.333 -60 96s-68.333 37 -117 37c-60.667 0 -109.334 -23.5 -146.001 -70.5s-55 -108.5 -55 -184.5c0 -75.333 18.333 -136.666 55 -183.999s85.334 -71 146.001 -71c50.667 0 91.334 13.667 122.001 41s49.334 58.333 56.001 93z" />
    <glyph glyph-name="Egrave" unicode="&#xc8;" horiz-adv-x="595" 
d="M540 597h-340v-185h321v-104h-321v-201h340v-107h-459v704h459v-107zM155 933h112l94 -161h-101z" />
    <glyph glyph-name="Eacute" unicode="&#xc9;" horiz-adv-x="595" 
d="M540 597h-340v-185h321v-104h-321v-201h340v-107h-459v704h459v-107zM473 933l-105 -161h-101l94 161h112z" />
    <glyph glyph-name="Ecircumflex" unicode="&#xca;" horiz-adv-x="595" 
d="M540 597h-340v-185h321v-104h-321v-201h340v-107h-459v704h459v-107zM234 772h-107l136 161h102l136 -161h-107l-80 88z" />
    <glyph glyph-name="Edieresis" unicode="&#xcb;" horiz-adv-x="595" 
d="M540 597h-340v-185h321v-104h-321v-201h340v-107h-459v704h459v-107zM204 917c18.667 0 34.667 -6.5 48 -19.5s20 -28.833 20 -47.5s-6.5 -34.5 -19.5 -47.5s-29.167 -19.5 -48.5 -19.5s-35.5 6.5 -48.5 19.5s-19.5 28.833 -19.5 47.5s6.66699 34.5 20 47.5
s29.333 19.5 48 19.5zM425 917c18.667 0 34.667 -6.5 48 -19.5s20 -28.833 20 -47.5s-6.5 -34.5 -19.5 -47.5s-29.167 -19.5 -48.5 -19.5s-35.5 6.5 -48.5 19.5s-19.5 28.833 -19.5 47.5s6.66699 34.5 20 47.5s29.333 19.5 48 19.5z" />
    <glyph glyph-name="Igrave" unicode="&#xcc;" horiz-adv-x="282" 
d="M200 704v-704h-119v704h119zM-17 933h112l94 -161h-101z" />
    <glyph glyph-name="Iacute" unicode="&#xcd;" horiz-adv-x="282" 
d="M200 704v-704h-119v704h119zM299 933l-105 -161h-101l94 161h112z" />
    <glyph glyph-name="Icircumflex" unicode="&#xce;" horiz-adv-x="282" 
d="M200 704v-704h-119v704h119zM66 772h-108l132 162h102l132 -162h-107l-76 88z" />
    <glyph glyph-name="Idieresis" unicode="&#xcf;" horiz-adv-x="282" 
d="M200 704v-704h-119v704h119zM35 917c19.333 0 35.5 -6.5 48.5 -19.5s19.5 -28.833 19.5 -47.5s-6.5 -34.5 -19.5 -47.5s-29.167 -19.5 -48.5 -19.5s-35.5 6.5 -48.5 19.5s-19.5 28.833 -19.5 47.5s6.5 34.5 19.5 47.5s29.167 19.5 48.5 19.5zM247 917
c19.333 0 35.5 -6.5 48.5 -19.5s19.5 -28.833 19.5 -47.5s-6.5 -34.5 -19.5 -47.5s-29.167 -19.5 -48.5 -19.5s-35.5 6.5 -48.5 19.5s-19.5 28.833 -19.5 47.5s6.5 34.5 19.5 47.5s29.167 19.5 48.5 19.5z" />
    <glyph glyph-name="Eth" unicode="&#xd0;" horiz-adv-x="730" 
d="M333 704c110.667 0 196.667 -31.167 258 -93.5s92 -148.5 92 -258.5s-30.667 -196.167 -92 -258.5s-147.333 -93.5 -258 -93.5h-233v313h-77v96h77v295h233zM373 313l-154 -0.00195312v-207h102c79.333 0 139.333 21.333 180 64s61 103.334 61 182.001
s-20.333 139.334 -61 182.001s-100.667 64 -180 64h-102v-189h154v-96z" />
    <glyph glyph-name="Ntilde" unicode="&#xd1;" horiz-adv-x="740" 
d="M208 704l335 -506v506h115v-704h-114l-347 522v-522h-116v704h127zM471 919h76.998v-20c0 -38.667 -9.5 -68.834 -28.5 -90.501s-44.833 -32.5 -77.5 -32.5c-20 0 -38.667 5 -56 15s-32.333 20.167 -45 30.5s-23.667 15.5 -33 15.5s-17.166 -3.5 -23.499 -10.5
s-9.5 -16.833 -9.5 -29.5v-15h-77v20c0 38.667 9.5 68.834 28.5 90.501s44.5 32.5 76.5 32.5c20.667 0 39.667 -5.16699 57 -15.5s32.333 -20.5 45 -30.5s23.334 -15 32.001 -15c10 0 18.167 3.5 24.5 10.5s9.5 16.833 9.5 29.5v15z" />
    <glyph glyph-name="Ograve" unicode="&#xd2;" horiz-adv-x="755" 
d="M377 716c98.667 0 178.334 -33.833 239.001 -101.5s91 -155.167 91 -262.5s-30.333 -194.833 -91 -262.5s-140.334 -101.5 -239.001 -101.5s-178.334 33.833 -239.001 101.5s-91 155.167 -91 262.5s30.333 194.833 91 262.5s140.334 101.5 239.001 101.5zM377 97
c64 0 114.833 23.6689 152.5 71.002s56.5 108.666 56.5 183.999s-18.833 136.666 -56.5 183.999s-88.5 71 -152.5 71s-114.667 -23.5 -152 -70.5s-56 -108.5 -56 -184.5s18.667 -137.5 56 -184.5s88 -70.5 152 -70.5zM218 933.002h112l94 -161h-101z" />
    <glyph glyph-name="Oacute" unicode="&#xd3;" horiz-adv-x="755" 
d="M377 716c98.667 0 178.334 -33.833 239.001 -101.5s91 -155.167 91 -262.5s-30.333 -194.833 -91 -262.5s-140.334 -101.5 -239.001 -101.5s-178.334 33.833 -239.001 101.5s-91 155.167 -91 262.5s30.333 194.833 91 262.5s140.334 101.5 239.001 101.5zM377 97
c64 0 114.833 23.6689 152.5 71.002s56.5 108.666 56.5 183.999s-18.833 136.666 -56.5 183.999s-88.5 71 -152.5 71s-114.667 -23.5 -152 -70.5s-56 -108.5 -56 -184.5s18.667 -137.5 56 -184.5s88 -70.5 152 -70.5zM536 933.002l-105 -161h-101l94 161h112z" />
    <glyph glyph-name="Ocircumflex" unicode="&#xd4;" horiz-adv-x="755" 
d="M377 716c98.667 0 178.334 -33.833 239.001 -101.5s91 -155.167 91 -262.5s-30.333 -194.833 -91 -262.5s-140.334 -101.5 -239.001 -101.5s-178.334 33.833 -239.001 101.5s-91 155.167 -91 262.5s30.333 194.833 91 262.5s140.334 101.5 239.001 101.5zM377 97
c64 0 114.833 23.6689 152.5 71.002s56.5 108.666 56.5 183.999s-18.833 136.666 -56.5 183.999s-88.5 71 -152.5 71s-114.667 -23.5 -152 -70.5s-56 -108.5 -56 -184.5s18.667 -137.5 56 -184.5s88 -70.5 152 -70.5zM297 772.002h-107l136 161h102l136 -161h-107l-80 88z
" />
    <glyph glyph-name="Otilde" unicode="&#xd5;" horiz-adv-x="755" 
d="M377 716c98.667 0 178.334 -33.833 239.001 -101.5s91 -155.167 91 -262.5s-30.333 -194.833 -91 -262.5s-140.334 -101.5 -239.001 -101.5s-178.334 33.833 -239.001 101.5s-91 155.167 -91 262.5s30.333 194.833 91 262.5s140.334 101.5 239.001 101.5zM377 97
c64 0 114.833 23.6689 152.5 71.002s56.5 108.666 56.5 183.999s-18.833 136.666 -56.5 183.999s-88.5 71 -152.5 71s-114.667 -23.5 -152 -70.5s-56 -108.5 -56 -184.5s18.667 -137.5 56 -184.5s88 -70.5 152 -70.5zM475 919.002h76.998v-20
c0 -38.667 -9.5 -68.834 -28.5 -90.501s-44.833 -32.5 -77.5 -32.5c-20 0 -38.667 5 -56 15s-32.333 20.167 -45 30.5s-23.667 15.5 -33 15.5s-17.166 -3.5 -23.499 -10.5s-9.5 -16.833 -9.5 -29.5v-15h-77v20c0 38.667 9.5 68.834 28.5 90.501s44.5 32.5 76.5 32.5
c20.667 0 39.667 -5.16699 57 -15.5s32.333 -20.5 45 -30.5s23.334 -15 32.001 -15c10 0 18.167 3.5 24.5 10.5s9.5 16.833 9.5 29.5v15z" />
    <glyph glyph-name="Odieresis" unicode="&#xd6;" horiz-adv-x="755" 
d="M377 716c98.667 0 178.334 -33.833 239.001 -101.5s91 -155.167 91 -262.5s-30.333 -194.833 -91 -262.5s-140.334 -101.5 -239.001 -101.5s-178.334 33.833 -239.001 101.5s-91 155.167 -91 262.5s30.333 194.833 91 262.5s140.334 101.5 239.001 101.5zM377 97
c64 0 114.833 23.6689 152.5 71.002s56.5 108.666 56.5 183.999s-18.833 136.666 -56.5 183.999s-88.5 71 -152.5 71s-114.667 -23.5 -152 -70.5s-56 -108.5 -56 -184.5s18.667 -137.5 56 -184.5s88 -70.5 152 -70.5zM267 917.002c18.667 0 34.667 -6.5 48 -19.5
s20 -28.833 20 -47.5s-6.5 -34.5 -19.5 -47.5s-29.167 -19.5 -48.5 -19.5s-35.5 6.5 -48.5 19.5s-19.5 28.833 -19.5 47.5s6.66699 34.5 20 47.5s29.333 19.5 48 19.5zM488 917.002c18.667 0 34.667 -6.5 48 -19.5s20 -28.833 20 -47.5s-6.5 -34.5 -19.5 -47.5
s-29.167 -19.5 -48.5 -19.5s-35.5 6.5 -48.5 19.5s-19.5 28.833 -19.5 47.5s6.66699 34.5 20 47.5s29.333 19.5 48 19.5z" />
    <glyph glyph-name="multiply" unicode="&#xd7;" horiz-adv-x="627" 
d="M546 109l-70 -69l-163 161l-162 -162l-70 70l162 162l-162 163l70 70l162 -163l163 163l70 -70l-163 -163z" />
    <glyph glyph-name="Oslash" unicode="&#xd8;" horiz-adv-x="755" 
d="M696 740l-84 -123.002c63.333 -67.333 95 -155.666 95 -264.999c0 -107.333 -30.333 -194.833 -91 -262.5s-140.334 -101.5 -239.001 -101.5c-60.667 0 -115.334 14 -164.001 42l-44 -66h-110l83 122c-63.333 68.667 -95 157.334 -95 266.001
c0 107.333 30.333 194.833 91 262.5s140.334 101.5 239.001 101.5c60.667 0 115.334 -14 164.001 -42l45 66h110zM165 351.998c0 -66.667 14.667 -122.333 44 -167l270 398c-30.667 18 -64.667 27 -102 27c-64.667 0 -116.167 -24 -154.5 -72s-57.5 -110 -57.5 -186z
M377 93.999c64.667 0 116.167 24 154.5 72s57.5 110 57.5 186c0 65.333 -14.667 121 -44 167l-270 -399c29.333 -17.333 63.333 -26 102 -26z" />
    <glyph glyph-name="Ugrave" unicode="&#xd9;" horiz-adv-x="725" 
d="M76 281v423h119v-420c0 -60 15.333 -106.167 46 -138.5s71 -48.5 121 -48.5c50.667 0 91.167 16.167 121.5 48.5s45.5 78.5 45.5 138.5v420h119v-423c0 -95.333 -26.333 -168 -79 -218s-121.667 -75 -207 -75c-84.667 0 -153.5 25 -206.5 75s-79.5 122.667 -79.5 218z
M203 933h112l94 -161h-101z" />
    <glyph glyph-name="Uacute" unicode="&#xda;" horiz-adv-x="725" 
d="M76 281v423h119v-420c0 -60 15.333 -106.167 46 -138.5s71 -48.5 121 -48.5c50.667 0 91.167 16.167 121.5 48.5s45.5 78.5 45.5 138.5v420h119v-423c0 -95.333 -26.333 -168 -79 -218s-121.667 -75 -207 -75c-84.667 0 -153.5 25 -206.5 75s-79.5 122.667 -79.5 218z
M521 933l-105 -161h-101l94 161h112z" />
    <glyph glyph-name="Ucircumflex" unicode="&#xdb;" horiz-adv-x="725" 
d="M76 281v423h119v-420c0 -60 15.333 -106.167 46 -138.5s71 -48.5 121 -48.5c50.667 0 91.167 16.167 121.5 48.5s45.5 78.5 45.5 138.5v420h119v-423c0 -95.333 -26.333 -168 -79 -218s-121.667 -75 -207 -75c-84.667 0 -153.5 25 -206.5 75s-79.5 122.667 -79.5 218z
M282 772h-107l136 161h102l136 -161h-107l-80 88z" />
    <glyph glyph-name="Udieresis" unicode="&#xdc;" horiz-adv-x="725" 
d="M76 281v423h119v-420c0 -60 15.333 -106.167 46 -138.5s71 -48.5 121 -48.5c50.667 0 91.167 16.167 121.5 48.5s45.5 78.5 45.5 138.5v420h119v-423c0 -95.333 -26.333 -168 -79 -218s-121.667 -75 -207 -75c-84.667 0 -153.5 25 -206.5 75s-79.5 122.667 -79.5 218z
M252 917c18.667 0 34.667 -6.5 48 -19.5s20 -28.833 20 -47.5s-6.5 -34.5 -19.5 -47.5s-29.167 -19.5 -48.5 -19.5s-35.5 6.5 -48.5 19.5s-19.5 28.833 -19.5 47.5s6.66699 34.5 20 47.5s29.333 19.5 48 19.5zM473 917c18.667 0 34.667 -6.5 48 -19.5s20 -28.833 20 -47.5
s-6.5 -34.5 -19.5 -47.5s-29.167 -19.5 -48.5 -19.5s-35.5 6.5 -48.5 19.5s-19.5 28.833 -19.5 47.5s6.66699 34.5 20 47.5s29.333 19.5 48 19.5z" />
    <glyph glyph-name="Yacute" unicode="&#xdd;" horiz-adv-x="652" 
d="M386 0h-119v270l-254 434h131l182 -317l182 317h131l-253 -432v-272zM488 933l-105 -161h-101l94 161h112z" />
    <glyph glyph-name="Thorn" unicode="&#xde;" horiz-adv-x="618" 
d="M200 0h-118.999v704h119v-124h136c74 0 132.5 -20.333 175.5 -61s64.5 -93.667 64.5 -159c0 -64 -21.833 -116.833 -65.5 -158.5s-100.834 -62.5 -171.501 -62.5h-139v-139zM324.001 476h-124v-232h124c40 0 71.833 10.333 95.5 31s35.5 49 35.5 85
c0 36.667 -11.667 65.167 -35 85.5s-55.333 30.5 -96 30.5z" />
    <glyph glyph-name="germandbls" unicode="&#xdf;" horiz-adv-x="606" 
d="M69 0l0.00195312 493c0 72 22.5 129 67.5 171s102.5 63 172.5 63c67.333 0 121.166 -18.5 161.499 -55.5s60.5 -82.5 60.5 -136.5c0 -68.667 -31.667 -117.334 -95 -146.001c33.333 -9.33301 63.333 -29.166 90 -59.499s40 -70.166 40 -119.499
c0 -62 -21 -112.5 -63 -151.5s-98.667 -58.5 -170 -58.5h-75v100h66c38 0 68.5 10.5 91.5 31.5s34.5 48.833 34.5 83.5c0 35.333 -12.167 63.5 -36.5 84.5s-55.5 31.5 -93.5 31.5h-49v96h32c34.667 0 62.167 9.5 82.5 28.5s30.5 42.833 30.5 71.5
c0 29.333 -9.83301 53.166 -29.5 71.499s-45.834 27.5 -78.501 27.5c-37.333 0 -67.5 -12.333 -90.5 -37s-34.5 -59 -34.5 -103v-486h-114z" />
    <glyph glyph-name="agrave" unicode="&#xe0;" horiz-adv-x="545" 
d="M368 338c0 28.667 -9.16602 50.834 -27.499 66.501s-42.5 23.5 -72.5 23.5c-54 0 -87.667 -19.667 -101 -59h-108c8 44 30.5 80.5 67.5 109.5s85.5 43.5 145.5 43.5c63.333 0 113.833 -16.333 151.5 -49s56.5 -78.334 56.5 -137.001v-336h-106v58
c-37.333 -46.667 -90 -70 -158 -70c-50.667 0 -92.834 14.5 -126.501 43.5s-50.5 67.833 -50.5 116.5c0 50.667 18.167 90.167 54.5 118.5s86.5 42.5 150.5 42.5h124v29zM241.001 81c35.333 0 65.333 10.168 90 30.501s37 47.166 37 80.499v31h-116
c-30 0 -53.833 -6.16699 -71.5 -18.5s-26.5 -29.833 -26.5 -52.5s8 -40.167 24 -52.5s37 -18.5 63 -18.5zM114.001 745.001h112l94 -162h-101z" />
    <glyph glyph-name="aacute" unicode="&#xe1;" horiz-adv-x="545" 
d="M368 338c0 28.667 -9.16602 50.834 -27.499 66.501s-42.5 23.5 -72.5 23.5c-54 0 -87.667 -19.667 -101 -59h-108c8 44 30.5 80.5 67.5 109.5s85.5 43.5 145.5 43.5c63.333 0 113.833 -16.333 151.5 -49s56.5 -78.334 56.5 -137.001v-336h-106v58
c-37.333 -46.667 -90 -70 -158 -70c-50.667 0 -92.834 14.5 -126.501 43.5s-50.5 67.833 -50.5 116.5c0 50.667 18.167 90.167 54.5 118.5s86.5 42.5 150.5 42.5h124v29zM241.001 81c35.333 0 65.333 10.168 90 30.501s37 47.166 37 80.499v31h-116
c-30 0 -53.833 -6.16699 -71.5 -18.5s-26.5 -29.833 -26.5 -52.5s8 -40.167 24 -52.5s37 -18.5 63 -18.5zM432.001 745.001l-105 -162h-101l94 162h112z" />
    <glyph glyph-name="acircumflex" unicode="&#xe2;" horiz-adv-x="545" 
d="M368 338c0 28.667 -9.16602 50.834 -27.499 66.501s-42.5 23.5 -72.5 23.5c-54 0 -87.667 -19.667 -101 -59h-108c8 44 30.5 80.5 67.5 109.5s85.5 43.5 145.5 43.5c63.333 0 113.833 -16.333 151.5 -49s56.5 -78.334 56.5 -137.001v-336h-106v58
c-37.333 -46.667 -90 -70 -158 -70c-50.667 0 -92.834 14.5 -126.501 43.5s-50.5 67.833 -50.5 116.5c0 50.667 18.167 90.167 54.5 118.5s86.5 42.5 150.5 42.5h124v29zM241.001 81c35.333 0 65.333 10.168 90 30.501s37 47.166 37 80.499v31h-116
c-30 0 -53.833 -6.16699 -71.5 -18.5s-26.5 -29.833 -26.5 -52.5s8 -40.167 24 -52.5s37 -18.5 63 -18.5zM198.001 583.001h-108l132 162h102l132 -162h-107l-76 88z" />
    <glyph glyph-name="atilde" unicode="&#xe3;" horiz-adv-x="545" 
d="M368 338c0 28.667 -9.16602 50.834 -27.499 66.501s-42.5 23.5 -72.5 23.5c-54 0 -87.667 -19.667 -101 -59h-108c8 44 30.5 80.5 67.5 109.5s85.5 43.5 145.5 43.5c63.333 0 113.833 -16.333 151.5 -49s56.5 -78.334 56.5 -137.001v-336h-106v58
c-37.333 -46.667 -90 -70 -158 -70c-50.667 0 -92.834 14.5 -126.501 43.5s-50.5 67.833 -50.5 116.5c0 50.667 18.167 90.167 54.5 118.5s86.5 42.5 150.5 42.5h124v29zM241.001 81c35.333 0 65.333 10.168 90 30.501s37 47.166 37 80.499v31h-116
c-30 0 -53.833 -6.16699 -71.5 -18.5s-26.5 -29.833 -26.5 -52.5s8 -40.167 24 -52.5s37 -18.5 63 -18.5zM368.001 730.001h77v-18c0 -39.333 -9.5 -70 -28.5 -92s-44.833 -33 -77.5 -33c-20 0 -38.167 5.16699 -54.5 15.5s-30.5 20.666 -42.5 30.999s-22.333 15.5 -31 15.5
c-9.33301 0 -17.166 -3.5 -23.499 -10.5s-9.5 -16.833 -9.5 -29.5v-16h-77v19c0 39.333 9.5 70 28.5 92s44.5 33 76.5 33c20 0 38.333 -5.16699 55 -15.5s31 -20.666 43 -30.999s22.333 -15.5 31 -15.5c9.33301 0 17.166 3.5 23.499 10.5s9.5 16.833 9.5 29.5v15z" />
    <glyph glyph-name="adieresis" unicode="&#xe4;" horiz-adv-x="545" 
d="M368 338c0 28.667 -9.16602 50.834 -27.499 66.501s-42.5 23.5 -72.5 23.5c-54 0 -87.667 -19.667 -101 -59h-108c8 44 30.5 80.5 67.5 109.5s85.5 43.5 145.5 43.5c63.333 0 113.833 -16.333 151.5 -49s56.5 -78.334 56.5 -137.001v-336h-106v58
c-37.333 -46.667 -90 -70 -158 -70c-50.667 0 -92.834 14.5 -126.501 43.5s-50.5 67.833 -50.5 116.5c0 50.667 18.167 90.167 54.5 118.5s86.5 42.5 150.5 42.5h124v29zM241.001 81c35.333 0 65.333 10.168 90 30.501s37 47.166 37 80.499v31h-116
c-30 0 -53.833 -6.16699 -71.5 -18.5s-26.5 -29.833 -26.5 -52.5s8 -40.167 24 -52.5s37 -18.5 63 -18.5zM167.001 728.001c19.333 0 35.5 -6.5 48.5 -19.5s19.5 -28.833 19.5 -47.5s-6.5 -34.5 -19.5 -47.5s-29.167 -19.5 -48.5 -19.5s-35.5 6.5 -48.5 19.5
s-19.5 28.833 -19.5 47.5s6.5 34.5 19.5 47.5s29.167 19.5 48.5 19.5zM379.001 728.001c19.333 0 35.5 -6.5 48.5 -19.5s19.5 -28.833 19.5 -47.5s-6.5 -34.5 -19.5 -47.5s-29.167 -19.5 -48.5 -19.5s-35.5 6.5 -48.5 19.5s-19.5 28.833 -19.5 47.5s6.5 34.5 19.5 47.5
s29.167 19.5 48.5 19.5z" />
    <glyph glyph-name="aring" unicode="&#xe5;" horiz-adv-x="545" 
d="M368 338c0 28.667 -9.16602 50.834 -27.499 66.501s-42.5 23.5 -72.5 23.5c-54 0 -87.667 -19.667 -101 -59h-108c8 44 30.5 80.5 67.5 109.5s85.5 43.5 145.5 43.5c63.333 0 113.833 -16.333 151.5 -49s56.5 -78.334 56.5 -137.001v-336h-106v58
c-37.333 -46.667 -90 -70 -158 -70c-50.667 0 -92.834 14.5 -126.501 43.5s-50.5 67.833 -50.5 116.5c0 50.667 18.167 90.167 54.5 118.5s86.5 42.5 150.5 42.5h124v29zM241.001 81c35.333 0 65.333 10.168 90 30.501s37 47.166 37 80.499v31h-116
c-30 0 -53.833 -6.16699 -71.5 -18.5s-26.5 -29.833 -26.5 -52.5s8 -40.167 24 -52.5s37 -18.5 63 -18.5zM387.001 678.001c0 -31.333 -10.833 -57.333 -32.5 -78s-48.834 -31 -81.501 -31s-59.834 10.333 -81.501 31s-32.5 46.667 -32.5 78s10.833 57.5 32.5 78.5
s48.834 31.5 81.501 31.5s59.834 -10.5 81.501 -31.5s32.5 -47.167 32.5 -78.5zM228.001 678.001c0 -12.667 4.5 -23.167 13.5 -31.5s19.5 -12.5 31.5 -12.5s22.5 4.16699 31.5 12.5s13.5 18.833 13.5 31.5s-4.5 23.334 -13.5 32.001s-19.5 13 -31.5 13
s-22.5 -4.33301 -31.5 -13s-13.5 -19.334 -13.5 -32.001z" />
    <glyph glyph-name="ae" unicode="&#xe6;" horiz-adv-x="879" 
d="M267 522c80 0 135.999 -27.3311 167.999 -81.998c43.333 54.667 102.333 82 177 82c69.333 0 124.5 -23 165.5 -69s61.5 -107.333 61.5 -184v-47h-359v-2c0 -39.333 12.667 -72 38 -98s58.333 -39 99 -39c28 0 51.167 5.83301 69.5 17.5s29.833 24.167 34.5 37.5h112
c-8 -38.667 -30.167 -73.334 -66.5 -104.001s-85.833 -46 -148.5 -46c-87.333 0 -152.333 33 -195 99c-44.667 -66 -110.667 -99 -198 -99c-54 0 -98.5 14.5 -133.5 43.5s-52.5 67.833 -52.5 116.5c0 50.667 18.167 90.167 54.5 118.5s86.5 42.5 150.5 42.5h124v29
c0 29.333 -9.33301 51.666 -28 66.999s-43 23 -73 23c-53.333 0 -86.666 -19.667 -99.999 -59h-108c8 44 30.167 80.5 66.5 109.5s83.5 43.5 141.5 43.5zM242.999 81.002c35.333 0 65 10.332 89 30.999s36 47.334 36 80.001v31h-116c-30 0 -53.833 -6.16699 -71.5 -18.5
s-26.5 -29.833 -26.5 -52.5s8.16699 -40.167 24.5 -52.5s37.833 -18.5 64.5 -18.5zM606.999 427.001c-36 0 -65.168 -10.667 -87.501 -32s-35.166 -50.333 -38.499 -87h244c-1.33301 37.333 -12.5 66.5 -33.5 87.5s-49.167 31.5 -84.5 31.5z" />
    <glyph glyph-name="ccedilla" unicode="&#xe7;" horiz-adv-x="549" 
d="M288 89c33.333 0 59.166 8.33203 77.499 24.999s30.5 36.667 36.5 60h111c-5.33301 -46.667 -24.833 -87.167 -58.5 -121.5s-77.167 -54.833 -130.5 -61.5l-15 -43c22 -2 41.5 -10.667 58.5 -26s25.5 -36.333 25.5 -63c0 -31.333 -11.667 -56.666 -35 -75.999
s-57.333 -29 -102 -29h-58v72h51c32 0 48 12 48 36c0 23.333 -15.333 35 -46 35h-33v21l27 73c-62.667 8.66699 -112.5 37.167 -149.5 85.5s-55.5 107.833 -55.5 178.5c0 78 22.5 142 67.5 192s104.833 75 179.5 75c64.667 0 116.667 -18.167 156 -54.5
s62.333 -79.5 69 -129.5h-111c-7.33301 22.667 -20.166 42.167 -38.499 58.5s-43.5 24.5 -75.5 24.5c-40 0 -71.833 -15.333 -95.5 -46s-35.5 -70.667 -35.5 -120c0 -50 12 -90.167 36 -120.5s56 -45.5 96 -45.5z" />
    <glyph glyph-name="egrave" unicode="&#xe8;" horiz-adv-x="556" 
d="M516 222l-359 0.000976562v-2c0 -39.333 12.667 -72 38 -98s58.333 -39 99 -39c28 0 51.167 5.83301 69.5 17.5s29.833 24.167 34.5 37.5h112c-8 -38.667 -30.5 -73.334 -67.5 -104.001s-87.167 -46 -150.5 -46c-76 0 -137 23.833 -183 71.5s-69 112.5 -69 194.5
s22.667 147.167 68 195.5s104.333 72.5 177 72.5c70 0 126 -23 168 -69s63 -107.333 63 -184v-47zM284 427.001c-36 0 -65.168 -10.667 -87.501 -32s-35.166 -50.333 -38.499 -87h244c-1.33301 37.333 -12.5 66.5 -33.5 87.5s-49.167 31.5 -84.5 31.5zM125.999 745.001h112
l94 -162h-101z" />
    <glyph glyph-name="eacute" unicode="&#xe9;" horiz-adv-x="556" 
d="M516 222l-359 0.000976562v-2c0 -39.333 12.667 -72 38 -98s58.333 -39 99 -39c28 0 51.167 5.83301 69.5 17.5s29.833 24.167 34.5 37.5h112c-8 -38.667 -30.5 -73.334 -67.5 -104.001s-87.167 -46 -150.5 -46c-76 0 -137 23.833 -183 71.5s-69 112.5 -69 194.5
s22.667 147.167 68 195.5s104.333 72.5 177 72.5c70 0 126 -23 168 -69s63 -107.333 63 -184v-47zM284 427.001c-36 0 -65.168 -10.667 -87.501 -32s-35.166 -50.333 -38.499 -87h244c-1.33301 37.333 -12.5 66.5 -33.5 87.5s-49.167 31.5 -84.5 31.5zM443.999 745.001
l-105 -162h-101l94 162h112z" />
    <glyph glyph-name="ecircumflex" unicode="&#xea;" horiz-adv-x="556" 
d="M516 222l-359 0.000976562v-2c0 -39.333 12.667 -72 38 -98s58.333 -39 99 -39c28 0 51.167 5.83301 69.5 17.5s29.833 24.167 34.5 37.5h112c-8 -38.667 -30.5 -73.334 -67.5 -104.001s-87.167 -46 -150.5 -46c-76 0 -137 23.833 -183 71.5s-69 112.5 -69 194.5
s22.667 147.167 68 195.5s104.333 72.5 177 72.5c70 0 126 -23 168 -69s63 -107.333 63 -184v-47zM284 427.001c-36 0 -65.168 -10.667 -87.501 -32s-35.166 -50.333 -38.499 -87h244c-1.33301 37.333 -12.5 66.5 -33.5 87.5s-49.167 31.5 -84.5 31.5zM209.999 583.001h-108
l132 162h102l132 -162h-107l-76 88z" />
    <glyph glyph-name="edieresis" unicode="&#xeb;" horiz-adv-x="556" 
d="M516 222l-359 0.000976562v-2c0 -39.333 12.667 -72 38 -98s58.333 -39 99 -39c28 0 51.167 5.83301 69.5 17.5s29.833 24.167 34.5 37.5h112c-8 -38.667 -30.5 -73.334 -67.5 -104.001s-87.167 -46 -150.5 -46c-76 0 -137 23.833 -183 71.5s-69 112.5 -69 194.5
s22.667 147.167 68 195.5s104.333 72.5 177 72.5c70 0 126 -23 168 -69s63 -107.333 63 -184v-47zM284 427.001c-36 0 -65.168 -10.667 -87.501 -32s-35.166 -50.333 -38.499 -87h244c-1.33301 37.333 -12.5 66.5 -33.5 87.5s-49.167 31.5 -84.5 31.5zM178.999 728.001
c19.333 0 35.5 -6.5 48.5 -19.5s19.5 -28.833 19.5 -47.5s-6.5 -34.5 -19.5 -47.5s-29.167 -19.5 -48.5 -19.5s-35.5 6.5 -48.5 19.5s-19.5 28.833 -19.5 47.5s6.5 34.5 19.5 47.5s29.167 19.5 48.5 19.5zM390.999 728.001c19.333 0 35.5 -6.5 48.5 -19.5
s19.5 -28.833 19.5 -47.5s-6.5 -34.5 -19.5 -47.5s-29.167 -19.5 -48.5 -19.5s-35.5 6.5 -48.5 19.5s-19.5 28.833 -19.5 47.5s6.5 34.5 19.5 47.5s29.167 19.5 48.5 19.5z" />
    <glyph glyph-name="igrave" unicode="&#xec;" horiz-adv-x="253" 
d="M183 510v-510h-114v510h114zM-32 745h112l94 -162h-101z" />
    <glyph glyph-name="iacute" unicode="&#xed;" horiz-adv-x="253" 
d="M183 510v-510h-114v510h114zM284 745l-105 -162h-101l94 162h112z" />
    <glyph glyph-name="icircumflex" unicode="&#xee;" horiz-adv-x="253" 
d="M183 510v-510h-114v510h114zM58 583h-104l121 162h102l121 -162h-104l-68 87z" />
    <glyph glyph-name="idieresis" unicode="&#xef;" horiz-adv-x="253" 
d="M183 510v-510h-114v510h114zM26 728c19.333 0 35.5 -6.5 48.5 -19.5s19.5 -28.833 19.5 -47.5s-6.5 -34.5 -19.5 -47.5s-29.167 -19.5 -48.5 -19.5s-35.5 6.5 -48.5 19.5s-19.5 28.833 -19.5 47.5s6.5 34.5 19.5 47.5s29.167 19.5 48.5 19.5zM227 728
c19.333 0 35.5 -6.5 48.5 -19.5s19.5 -28.833 19.5 -47.5s-6.5 -34.5 -19.5 -47.5s-29.167 -19.5 -48.5 -19.5s-35.5 6.5 -48.5 19.5s-19.5 28.833 -19.5 47.5s6.5 34.5 19.5 47.5s29.167 19.5 48.5 19.5z" />
    <glyph glyph-name="eth" unicode="&#xf0;" horiz-adv-x="592" 
d="M300 727c28 -18 49.668 -33.335 65.001 -46.002l127 46v-78l-68 -25c80 -91.333 120 -201 120 -329c0 -96.667 -22.167 -172 -66.5 -226s-106.833 -81 -187.5 -81c-74.667 0 -135 24.833 -181 74.5s-69 111.834 -69 186.501c0 77.333 22 138.833 66 184.5
s100 68.5 168 68.5c61.333 0 108.666 -19.667 141.999 -59c-16 52.667 -44.667 101.334 -86 146.001l-135 -49v78l76 28c-16 14 -51.667 41 -107 81h136zM291.001 86.998c42.667 0 76.3311 14.999 100.998 44.999s37 69.667 37 119c0 47.333 -12.667 85 -38 113
s-58.666 42 -99.999 42s-74.166 -14.667 -98.499 -44s-36.5 -67 -36.5 -113c0 -47.333 12 -86.166 36 -116.499s57 -45.5 99 -45.5z" />
    <glyph glyph-name="ntilde" unicode="&#xf1;" 
d="M69 510h109.999v-60c13.333 20 33.333 37 60 51s57.334 21 92.001 21c53.333 0 97.833 -16.667 133.5 -50s53.5 -83 53.5 -149v-323h-114v302c0 38.667 -9.5 67.834 -28.5 87.501s-44.5 29.5 -76.5 29.5s-59.333 -10.333 -82 -31s-34 -51.334 -34 -92.001v-296h-114v510z
M392.999 730h77v-18c0 -39.333 -9.5 -70 -28.5 -92s-44.833 -33 -77.5 -33c-20 0 -38.167 5.16699 -54.5 15.5s-30.5 20.666 -42.5 30.999s-22.333 15.5 -31 15.5c-9.33301 0 -17.166 -3.5 -23.499 -10.5s-9.5 -16.833 -9.5 -29.5v-16h-77v19c0 39.333 9.5 70 28.5 92
s44.5 33 76.5 33c20 0 38.333 -5.16699 55 -15.5s31 -20.666 43 -30.999s22.333 -15.5 31 -15.5c9.33301 0 17.166 3.5 23.499 10.5s9.5 16.833 9.5 29.5v15z" />
    <glyph glyph-name="ograve" unicode="&#xf2;" 
d="M291 522c74.667 0 135.167 -24.667 181.5 -74s69.5 -113.666 69.5 -192.999s-23.167 -143.666 -69.5 -192.999s-106.833 -74 -181.5 -74s-135.167 24.667 -181.5 74s-69.5 113.666 -69.5 192.999s23.167 143.666 69.5 192.999s106.833 74 181.5 74zM291 89
c41.333 0 74.166 15.333 98.499 46s36.5 70.667 36.5 120s-12.167 89.333 -36.5 120s-57.166 46 -98.499 46s-74.166 -15.333 -98.499 -46s-36.5 -70.667 -36.5 -120s12.167 -89.333 36.5 -120s57.166 -46 98.499 -46zM132 745h112l94 -162h-101z" />
    <glyph glyph-name="oacute" unicode="&#xf3;" 
d="M291 522c74.667 0 135.167 -24.667 181.5 -74s69.5 -113.666 69.5 -192.999s-23.167 -143.666 -69.5 -192.999s-106.833 -74 -181.5 -74s-135.167 24.667 -181.5 74s-69.5 113.666 -69.5 192.999s23.167 143.666 69.5 192.999s106.833 74 181.5 74zM291 89
c41.333 0 74.166 15.333 98.499 46s36.5 70.667 36.5 120s-12.167 89.333 -36.5 120s-57.166 46 -98.499 46s-74.166 -15.333 -98.499 -46s-36.5 -70.667 -36.5 -120s12.167 -89.333 36.5 -120s57.166 -46 98.499 -46zM450 745l-105 -162h-101l94 162h112z" />
    <glyph glyph-name="ocircumflex" unicode="&#xf4;" 
d="M291 522c74.667 0 135.167 -24.667 181.5 -74s69.5 -113.666 69.5 -192.999s-23.167 -143.666 -69.5 -192.999s-106.833 -74 -181.5 -74s-135.167 24.667 -181.5 74s-69.5 113.666 -69.5 192.999s23.167 143.666 69.5 192.999s106.833 74 181.5 74zM291 89
c41.333 0 74.166 15.333 98.499 46s36.5 70.667 36.5 120s-12.167 89.333 -36.5 120s-57.166 46 -98.499 46s-74.166 -15.333 -98.499 -46s-36.5 -70.667 -36.5 -120s12.167 -89.333 36.5 -120s57.166 -46 98.499 -46zM216 583h-108l132 162h102l132 -162h-107l-76 88z" />
    <glyph glyph-name="otilde" unicode="&#xf5;" 
d="M291 522c74.667 0 135.167 -24.667 181.5 -74s69.5 -113.666 69.5 -192.999s-23.167 -143.666 -69.5 -192.999s-106.833 -74 -181.5 -74s-135.167 24.667 -181.5 74s-69.5 113.666 -69.5 192.999s23.167 143.666 69.5 192.999s106.833 74 181.5 74zM291 89
c41.333 0 74.166 15.333 98.499 46s36.5 70.667 36.5 120s-12.167 89.333 -36.5 120s-57.166 46 -98.499 46s-74.166 -15.333 -98.499 -46s-36.5 -70.667 -36.5 -120s12.167 -89.333 36.5 -120s57.166 -46 98.499 -46zM386 730h77v-18c0 -39.333 -9.5 -70 -28.5 -92
s-44.833 -33 -77.5 -33c-20 0 -38.167 5.16699 -54.5 15.5s-30.5 20.666 -42.5 30.999s-22.333 15.5 -31 15.5c-9.33301 0 -17.166 -3.5 -23.499 -10.5s-9.5 -16.833 -9.5 -29.5v-16h-77v19c0 39.333 9.5 70 28.5 92s44.5 33 76.5 33c20 0 38.333 -5.16699 55 -15.5
s31 -20.666 43 -30.999s22.333 -15.5 31 -15.5c9.33301 0 17.166 3.5 23.499 10.5s9.5 16.833 9.5 29.5v15z" />
    <glyph glyph-name="odieresis" unicode="&#xf6;" 
d="M291 522c74.667 0 135.167 -24.667 181.5 -74s69.5 -113.666 69.5 -192.999s-23.167 -143.666 -69.5 -192.999s-106.833 -74 -181.5 -74s-135.167 24.667 -181.5 74s-69.5 113.666 -69.5 192.999s23.167 143.666 69.5 192.999s106.833 74 181.5 74zM291 89
c41.333 0 74.166 15.333 98.499 46s36.5 70.667 36.5 120s-12.167 89.333 -36.5 120s-57.166 46 -98.499 46s-74.166 -15.333 -98.499 -46s-36.5 -70.667 -36.5 -120s12.167 -89.333 36.5 -120s57.166 -46 98.499 -46zM185 728c19.333 0 35.5 -6.5 48.5 -19.5
s19.5 -28.833 19.5 -47.5s-6.5 -34.5 -19.5 -47.5s-29.167 -19.5 -48.5 -19.5s-35.5 6.5 -48.5 19.5s-19.5 28.833 -19.5 47.5s6.5 34.5 19.5 47.5s29.167 19.5 48.5 19.5zM397 728c19.333 0 35.5 -6.5 48.5 -19.5s19.5 -28.833 19.5 -47.5s-6.5 -34.5 -19.5 -47.5
s-29.167 -19.5 -48.5 -19.5s-35.5 6.5 -48.5 19.5s-19.5 28.833 -19.5 47.5s6.5 34.5 19.5 47.5s29.167 19.5 48.5 19.5z" />
    <glyph glyph-name="divide" unicode="&#xf7;" horiz-adv-x="627" 
d="M313 533c19.333 0 35.666 -6.5 48.999 -19.5s20 -29.167 20 -48.5s-6.66699 -35.5 -20 -48.5s-29.666 -19.5 -48.999 -19.5c-20 0 -36.833 6.5 -50.5 19.5s-20.5 29.167 -20.5 48.5s6.83301 35.5 20.5 48.5s30.5 19.5 50.5 19.5zM555 223h-483v97h483v-97zM313 145
c19.333 0 35.666 -6.5 48.999 -19.5s20 -29.167 20 -48.5s-6.66699 -35.5 -20 -48.5s-29.666 -19.5 -48.999 -19.5c-20 0 -36.833 6.5 -50.5 19.5s-20.5 29.167 -20.5 48.5s6.83301 35.5 20.5 48.5s30.5 19.5 50.5 19.5z" />
    <glyph glyph-name="oslash" unicode="&#xf8;" 
d="M530 549l-63 -96c50 -50 75 -116 75 -198c0 -79.333 -23.167 -143.666 -69.5 -192.999s-106.833 -74 -181.5 -74c-38.667 0 -75.667 7.66699 -111 23l-33 -50h-95l62 96c-49.333 49.333 -74 115.333 -74 198c0 79.333 23.167 143.666 69.5 192.999s106.833 74 181.5 74
c38.667 0 75.667 -8 111 -24l33 51h95zM291 82c42.667 0 77 15.834 103 47.501s39 73.5 39 125.5c0 41.333 -8.66699 76.666 -26 105.999l-174 -267c16.667 -8 36 -12 58 -12zM149 255.001c0 -43.333 8.33301 -78.667 25 -106l174 267c-17.333 8 -36.333 12 -57 12
c-42.667 0 -77 -15.833 -103 -47.5s-39 -73.5 -39 -125.5z" />
    <glyph glyph-name="ugrave" unicode="&#xf9;" 
d="M513 0h-110v59c-14 -20 -34.167 -36.833 -60.5 -50.5s-56.5 -20.5 -90.5 -20.5c-53.333 0 -97.833 16.5 -133.5 49.5s-53.5 82.833 -53.5 149.5v323h114v-302c0 -38.667 9.33301 -67.834 28 -87.501s44 -29.5 76 -29.5s59.333 10.333 82 31s34 51.334 34 92.001v296h114
v-510zM130 745h112l94 -162h-101z" />
    <glyph glyph-name="uacute" unicode="&#xfa;" 
d="M513 0h-110v59c-14 -20 -34.167 -36.833 -60.5 -50.5s-56.5 -20.5 -90.5 -20.5c-53.333 0 -97.833 16.5 -133.5 49.5s-53.5 82.833 -53.5 149.5v323h114v-302c0 -38.667 9.33301 -67.834 28 -87.501s44 -29.5 76 -29.5s59.333 10.333 82 31s34 51.334 34 92.001v296h114
v-510zM448 745l-105 -162h-101l94 162h112z" />
    <glyph glyph-name="ucircumflex" unicode="&#xfb;" 
d="M513 0h-110v59c-14 -20 -34.167 -36.833 -60.5 -50.5s-56.5 -20.5 -90.5 -20.5c-53.333 0 -97.833 16.5 -133.5 49.5s-53.5 82.833 -53.5 149.5v323h114v-302c0 -38.667 9.33301 -67.834 28 -87.501s44 -29.5 76 -29.5s59.333 10.333 82 31s34 51.334 34 92.001v296h114
v-510zM214 583h-108l132 162h102l132 -162h-107l-76 88z" />
    <glyph glyph-name="udieresis" unicode="&#xfc;" 
d="M513 0h-110v59c-14 -20 -34.167 -36.833 -60.5 -50.5s-56.5 -20.5 -90.5 -20.5c-53.333 0 -97.833 16.5 -133.5 49.5s-53.5 82.833 -53.5 149.5v323h114v-302c0 -38.667 9.33301 -67.834 28 -87.501s44 -29.5 76 -29.5s59.333 10.333 82 31s34 51.334 34 92.001v296h114
v-510zM183 728c19.333 0 35.5 -6.5 48.5 -19.5s19.5 -28.833 19.5 -47.5s-6.5 -34.5 -19.5 -47.5s-29.167 -19.5 -48.5 -19.5s-35.5 6.5 -48.5 19.5s-19.5 28.833 -19.5 47.5s6.5 34.5 19.5 47.5s29.167 19.5 48.5 19.5zM395 728c19.333 0 35.5 -6.5 48.5 -19.5
s19.5 -28.833 19.5 -47.5s-6.5 -34.5 -19.5 -47.5s-29.167 -19.5 -48.5 -19.5s-35.5 6.5 -48.5 19.5s-19.5 28.833 -19.5 47.5s6.5 34.5 19.5 47.5s29.167 19.5 48.5 19.5z" />
    <glyph glyph-name="yacute" unicode="&#xfd;" horiz-adv-x="534" 
d="M401 510h123l-275 -701h-122l79 200l-196 501h123l134 -365zM426 745l-105 -162h-101l94 162h112z" />
    <glyph glyph-name="thorn" unicode="&#xfe;" horiz-adv-x="603" 
d="M337 522c63.333 0 116.832 -23.6689 160.499 -71.002s65.5 -112.666 65.5 -195.999s-22.167 -148.666 -66.5 -195.999s-98.5 -71 -162.5 -71c-35.333 0 -66.166 6.5 -92.499 19.5s-45.833 29.5 -58.5 49.5v-248h-114v918h114v-277c32.667 48 84 72 154 72z
M314.999 88.998c40 0 72.167 15.167 96.5 45.5s36.5 70.5 36.5 120.5c0 49.333 -12.167 89.333 -36.5 120s-56.5 46 -96.5 46c-40.667 0 -73.334 -14.833 -98.001 -44.5s-37 -69.5 -37 -119.5v-4c0 -50 12.333 -89.833 37 -119.5s57.334 -44.5 98.001 -44.5z" />
    <glyph glyph-name="ydieresis" unicode="&#xff;" horiz-adv-x="534" 
d="M401 510h123l-275 -701h-122l79 200l-196 501h123l134 -365zM161 728c19.333 0 35.5 -6.5 48.5 -19.5s19.5 -28.833 19.5 -47.5s-6.5 -34.5 -19.5 -47.5s-29.167 -19.5 -48.5 -19.5s-35.5 6.5 -48.5 19.5s-19.5 28.833 -19.5 47.5s6.5 34.5 19.5 47.5
s29.167 19.5 48.5 19.5zM373 728c19.333 0 35.5 -6.5 48.5 -19.5s19.5 -28.833 19.5 -47.5s-6.5 -34.5 -19.5 -47.5s-29.167 -19.5 -48.5 -19.5s-35.5 6.5 -48.5 19.5s-19.5 28.833 -19.5 47.5s6.5 34.5 19.5 47.5s29.167 19.5 48.5 19.5z" />
    <glyph glyph-name="Amacron" unicode="&#x100;" horiz-adv-x="680" 
d="M278 704h124l262 -704h-125l-61 167h-278l-58 -167h-125zM339 562l-102 -292h205zM183 894h316v-88h-316v88z" />
    <glyph glyph-name="amacron" unicode="&#x101;" horiz-adv-x="545" 
d="M368 338c0 28.667 -9.16602 50.834 -27.499 66.501s-42.5 23.5 -72.5 23.5c-54 0 -87.667 -19.667 -101 -59h-108c8 44 30.5 80.5 67.5 109.5s85.5 43.5 145.5 43.5c63.333 0 113.833 -16.333 151.5 -49s56.5 -78.334 56.5 -137.001v-336h-106v58
c-37.333 -46.667 -90 -70 -158 -70c-50.667 0 -92.834 14.5 -126.501 43.5s-50.5 67.833 -50.5 116.5c0 50.667 18.167 90.167 54.5 118.5s86.5 42.5 150.5 42.5h124v29zM241.001 81c35.333 0 65.333 10.168 90 30.501s37 47.166 37 80.499v31h-116
c-30 0 -53.833 -6.16699 -71.5 -18.5s-26.5 -29.833 -26.5 -52.5s8 -40.167 24 -52.5s37 -18.5 63 -18.5zM119.001 705.001h308v-88h-308v88z" />
    <glyph glyph-name="Abreve" unicode="&#x102;" horiz-adv-x="680" 
d="M278 704h124l262 -704h-125l-61 167h-278l-58 -167h-125zM339 562l-102 -292h205zM261 932c0 -23.333 6.99609 -43 20.9961 -59s33.667 -24 59 -24s45 8 59 24s21 35.667 21 59h93c-1.33301 -48.667 -17.666 -88.167 -48.999 -118.5s-72.666 -45.5 -123.999 -45.5
s-92.666 15.167 -123.999 45.5s-47.666 69.833 -48.999 118.5h93z" />
    <glyph glyph-name="abreve" unicode="&#x103;" horiz-adv-x="545" 
d="M368 338c0 28.667 -9.16602 50.834 -27.499 66.501s-42.5 23.5 -72.5 23.5c-54 0 -87.667 -19.667 -101 -59h-108c8 44 30.5 80.5 67.5 109.5s85.5 43.5 145.5 43.5c63.333 0 113.833 -16.333 151.5 -49s56.5 -78.334 56.5 -137.001v-336h-106v58
c-37.333 -46.667 -90 -70 -158 -70c-50.667 0 -92.834 14.5 -126.501 43.5s-50.5 67.833 -50.5 116.5c0 50.667 18.167 90.167 54.5 118.5s86.5 42.5 150.5 42.5h124v29zM241.001 81c35.333 0 65.333 10.168 90 30.501s37 47.166 37 80.499v31h-116
c-30 0 -53.833 -6.16699 -71.5 -18.5s-26.5 -29.833 -26.5 -52.5s8 -40.167 24 -52.5s37 -18.5 63 -18.5zM196.001 744.001c0 -24 6.66504 -44 19.998 -60s32.333 -24 57 -24s43.667 8 57 24s20 36 20 60h92c-1.33301 -50 -17.166 -90 -47.499 -120s-70.833 -45 -121.5 -45
s-91.167 15 -121.5 45s-46.166 70 -47.499 120h92z" />
    <glyph glyph-name="Aogonek" unicode="&#x104;" horiz-adv-x="680" 
d="M278 704h124l262 -704c-53.333 -35.333 -80 -70 -80 -104c0 -15.333 4.83301 -27.333 14.5 -36s23.5 -13 41.5 -13h36v-81h-59c-43.333 0 -76.5 9.5 -99.5 28.5s-34.5 44.5 -34.5 76.5c0 48.667 24.667 91.667 74 129h-18l-61 167h-278l-58 -167h-125zM339 562l-102 -292
h205z" />
    <glyph glyph-name="aogonek" unicode="&#x105;" horiz-adv-x="545" 
d="M368 338c0 28.667 -9.16602 50.834 -27.499 66.501s-42.5 23.5 -72.5 23.5c-54 0 -87.667 -19.667 -101 -59h-108c8 44 30.5 80.5 67.5 109.5s85.5 43.5 145.5 43.5c63.333 0 113.833 -16.333 151.5 -49s56.5 -78.334 56.5 -137.001v-336
c-53.333 -35.333 -80 -70 -80 -104c0 -15.333 4.83301 -27.333 14.5 -36s23.5 -13 41.5 -13h36v-81h-59c-43.333 0 -76.5 9.5 -99.5 28.5s-34.5 44.5 -34.5 76.5c0 49.333 25 92.333 75 129v58c-37.333 -46.667 -90 -70 -158 -70c-50.667 0 -92.834 14.5 -126.501 43.5
s-50.5 67.833 -50.5 116.5c0 50.667 18.167 90.167 54.5 118.5s86.5 42.5 150.5 42.5h124v29zM241.001 81c35.333 0 65.333 10.168 90 30.501s37 47.166 37 80.499v31h-116c-30 0 -53.833 -6.16699 -71.5 -18.5s-26.5 -29.833 -26.5 -52.5s8 -40.167 24 -52.5
s37 -18.5 63 -18.5z" />
    <glyph glyph-name="Cacute" unicode="&#x106;" horiz-adv-x="710" 
d="M548 231h119.996c-3.33301 -28.667 -11.666 -56.834 -24.999 -84.501s-31.666 -53.5 -54.999 -77.5s-54 -43.5 -92 -58.5s-80 -22.5 -126 -22.5c-94.667 0 -172.167 33.5 -232.5 100.5s-90.5 154.833 -90.5 263.5c0 107.333 30 194.833 90 262.5s137.667 101.5 233 101.5
c84 0 151.667 -22.833 203 -68.5s82.333 -103.5 93 -173.5h-119c-10.667 39.333 -30.667 71.333 -60 96s-68.333 37 -117 37c-60.667 0 -109.334 -23.5 -146.001 -70.5s-55 -108.5 -55 -184.5c0 -75.333 18.333 -136.666 55 -183.999s85.334 -71 146.001 -71
c50.667 0 91.334 13.667 122.001 41s49.334 58.333 56.001 93zM528.996 933l-105 -161h-101l94 161h112z" />
    <glyph glyph-name="cacute" unicode="&#x107;" horiz-adv-x="549" 
d="M288 89c33.333 0 59.166 8.33203 77.499 24.999s30.5 36.667 36.5 60h111c-6 -52 -29.333 -96 -70 -132s-92.667 -54 -156 -54c-74 0 -133.667 24.833 -179 74.5s-68 113.834 -68 192.501c0 78 22.5 142 67.5 192s104.833 75 179.5 75
c64.667 0 116.667 -18.167 156 -54.5s62.333 -79.5 69 -129.5h-111c-7.33301 22.667 -20.166 42.167 -38.499 58.5s-43.5 24.5 -75.5 24.5c-40 0 -71.833 -15.333 -95.5 -46s-35.5 -70.667 -35.5 -120c0 -50 12 -90.167 36 -120.5s56 -45.5 96 -45.5zM446 744.999l-105 -162
h-101l94 162h112z" />
    <glyph glyph-name="Ccircumflex" unicode="&#x108;" horiz-adv-x="710" 
d="M548 231h119.996c-3.33301 -28.667 -11.666 -56.834 -24.999 -84.501s-31.666 -53.5 -54.999 -77.5s-54 -43.5 -92 -58.5s-80 -22.5 -126 -22.5c-94.667 0 -172.167 33.5 -232.5 100.5s-90.5 154.833 -90.5 263.5c0 107.333 30 194.833 90 262.5s137.667 101.5 233 101.5
c84 0 151.667 -22.833 203 -68.5s82.333 -103.5 93 -173.5h-119c-10.667 39.333 -30.667 71.333 -60 96s-68.333 37 -117 37c-60.667 0 -109.334 -23.5 -146.001 -70.5s-55 -108.5 -55 -184.5c0 -75.333 18.333 -136.666 55 -183.999s85.334 -71 146.001 -71
c50.667 0 91.334 13.667 122.001 41s49.334 58.333 56.001 93zM289.996 772h-107l136 161h102l136 -161h-107l-80 88z" />
    <glyph glyph-name="ccircumflex" unicode="&#x109;" horiz-adv-x="549" 
d="M288 89c33.333 0 59.166 8.33203 77.499 24.999s30.5 36.667 36.5 60h111c-6 -52 -29.333 -96 -70 -132s-92.667 -54 -156 -54c-74 0 -133.667 24.833 -179 74.5s-68 113.834 -68 192.501c0 78 22.5 142 67.5 192s104.833 75 179.5 75
c64.667 0 116.667 -18.167 156 -54.5s62.333 -79.5 69 -129.5h-111c-7.33301 22.667 -20.166 42.167 -38.499 58.5s-43.5 24.5 -75.5 24.5c-40 0 -71.833 -15.333 -95.5 -46s-35.5 -70.667 -35.5 -120c0 -50 12 -90.167 36 -120.5s56 -45.5 96 -45.5zM212 582.999h-108
l132 162h102l132 -162h-107l-76 88z" />
    <glyph glyph-name="Cdotaccent" unicode="&#x10a;" horiz-adv-x="710" 
d="M548 231h119.996c-3.33301 -28.667 -11.666 -56.834 -24.999 -84.501s-31.666 -53.5 -54.999 -77.5s-54 -43.5 -92 -58.5s-80 -22.5 -126 -22.5c-94.667 0 -172.167 33.5 -232.5 100.5s-90.5 154.833 -90.5 263.5c0 107.333 30 194.833 90 262.5s137.667 101.5 233 101.5
c84 0 151.667 -22.833 203 -68.5s82.333 -103.5 93 -173.5h-119c-10.667 39.333 -30.667 71.333 -60 96s-68.333 37 -117 37c-60.667 0 -109.334 -23.5 -146.001 -70.5s-55 -108.5 -55 -184.5c0 -75.333 18.333 -136.666 55 -183.999s85.334 -71 146.001 -71
c50.667 0 91.334 13.667 122.001 41s49.334 58.333 56.001 93zM369.996 920c20 0 36.833 -6.66699 50.5 -20s20.5 -30 20.5 -50c0 -19.333 -6.83301 -35.666 -20.5 -48.999s-30.5 -20 -50.5 -20c-19.333 0 -35.833 6.66699 -49.5 20s-20.5 29.666 -20.5 48.999
c0 20 6.83301 36.667 20.5 50s30.167 20 49.5 20z" />
    <glyph glyph-name="cdotaccent" unicode="&#x10b;" horiz-adv-x="549" 
d="M288 89c33.333 0 59.166 8.33203 77.499 24.999s30.5 36.667 36.5 60h111c-6 -52 -29.333 -96 -70 -132s-92.667 -54 -156 -54c-74 0 -133.667 24.833 -179 74.5s-68 113.834 -68 192.501c0 78 22.5 142 67.5 192s104.833 75 179.5 75
c64.667 0 116.667 -18.167 156 -54.5s62.333 -79.5 69 -129.5h-111c-7.33301 22.667 -20.166 42.167 -38.499 58.5s-43.5 24.5 -75.5 24.5c-40 0 -71.833 -15.333 -95.5 -46s-35.5 -70.667 -35.5 -120c0 -50 12 -90.167 36 -120.5s56 -45.5 96 -45.5zM287 730.999
c20 0 36.833 -6.66699 50.5 -20s20.5 -29.666 20.5 -48.999c0 -20 -6.83301 -36.667 -20.5 -50s-30.5 -20 -50.5 -20c-19.333 0 -35.833 6.66699 -49.5 20s-20.5 30 -20.5 50c0 19.333 6.83301 35.666 20.5 48.999s30.167 20 49.5 20z" />
    <glyph glyph-name="Ccaron" unicode="&#x10c;" horiz-adv-x="710" 
d="M548 231h119.996c-3.33301 -28.667 -11.666 -56.834 -24.999 -84.501s-31.666 -53.5 -54.999 -77.5s-54 -43.5 -92 -58.5s-80 -22.5 -126 -22.5c-94.667 0 -172.167 33.5 -232.5 100.5s-90.5 154.833 -90.5 263.5c0 107.333 30 194.833 90 262.5s137.667 101.5 233 101.5
c84 0 151.667 -22.833 203 -68.5s82.333 -103.5 93 -173.5h-119c-10.667 39.333 -30.667 71.333 -60 96s-68.333 37 -117 37c-60.667 0 -109.334 -23.5 -146.001 -70.5s-55 -108.5 -55 -184.5c0 -75.333 18.333 -136.666 55 -183.999s85.334 -71 146.001 -71
c50.667 0 91.334 13.667 122.001 41s49.334 58.333 56.001 93zM289.996 933l80 -87l80 87h107l-136 -161h-102l-136 161h107z" />
    <glyph glyph-name="ccaron" unicode="&#x10d;" horiz-adv-x="549" 
d="M288 89c33.333 0 59.166 8.33203 77.499 24.999s30.5 36.667 36.5 60h111c-6 -52 -29.333 -96 -70 -132s-92.667 -54 -156 -54c-74 0 -133.667 24.833 -179 74.5s-68 113.834 -68 192.501c0 78 22.5 142 67.5 192s104.833 75 179.5 75
c64.667 0 116.667 -18.167 156 -54.5s62.333 -79.5 69 -129.5h-111c-7.33301 22.667 -20.166 42.167 -38.499 58.5s-43.5 24.5 -75.5 24.5c-40 0 -71.833 -15.333 -95.5 -46s-35.5 -70.667 -35.5 -120c0 -50 12 -90.167 36 -120.5s56 -45.5 96 -45.5zM212 744.999l75 -88
l76 88h107l-132 -162h-102l-132 162h108z" />
    <glyph glyph-name="Dcaron" unicode="&#x10e;" horiz-adv-x="712" 
d="M314 704c110.667 0 196.667 -31.167 258 -93.5s92 -148.5 92 -258.5s-30.667 -196.167 -92 -258.5s-147.333 -93.5 -258 -93.5h-233v704h233zM303 106c78.667 0 138.334 21.3311 179.001 63.998s61 103.334 61 182.001s-20.333 139.334 -61 182.001
s-100.334 64 -179.001 64h-103v-492h103zM242 932.998l80 -87l80 87h107l-136 -161h-102l-136 161h107z" />
    <glyph glyph-name="dcaron" unicode="&#x10f;" horiz-adv-x="728" 
d="M266 -12c-62.667 0 -115.998 23.6689 -159.998 71.002s-66 112.666 -66 195.999s22.167 148.666 66.5 195.999s98.5 71 162.5 71c69.333 0 119.666 -23 150.999 -69v274h114v-727h-110v66c-32.667 -52 -85.334 -78 -158.001 -78zM288.002 421.002
c-40 0 -72 -15.167 -96 -45.5s-36 -70.5 -36 -120.5s12 -90.167 36 -120.5s56 -45.5 96 -45.5c40.667 0 73.334 14.833 98.001 44.5s37 69.5 37 119.5v4c0 50 -12.333 89.833 -37 119.5s-57.334 44.5 -98.001 44.5zM733.002 664.002c0 -16 -3.66699 -33.001 -11 -51.001
l-49 -124h-82l45 117c-30 10.667 -45 31.334 -45 62.001c0 19.333 6.5 35.333 19.5 48s29.5 19 49.5 19s37.167 -6.83301 51.5 -20.5s21.5 -30.5 21.5 -50.5z" />
    <glyph glyph-name="Dcroat" unicode="&#x110;" horiz-adv-x="730" 
d="M333 704c110.667 0 196.667 -31.167 258 -93.5s92 -148.5 92 -258.5s-30.667 -196.167 -92 -258.5s-147.333 -93.5 -258 -93.5h-233v313h-77v96h77v295h233zM373 313l-154 -0.00195312v-207h102c79.333 0 139.333 21.333 180 64s61 103.334 61 182.001
s-20.333 139.334 -61 182.001s-100.667 64 -180 64h-102v-189h154v-96z" />
    <glyph glyph-name="dcroat" unicode="&#x111;" horiz-adv-x="606" 
d="M290 665l130.002 0.00195312v62h114v-62h70v-78h-70v-587h-110v66c-32.667 -52 -85.334 -78 -158.001 -78c-62.667 0 -116 23.667 -160 71s-66 112.666 -66 195.999s22.167 148.666 66.5 195.999s98.5 71 162.5 71c69.333 0 119.666 -23 150.999 -69v134h-130v78z
M288.002 421.002c-40 0 -72 -15.167 -96 -45.5s-36 -70.5 -36 -120.5s12 -90.167 36 -120.5s56 -45.5 96 -45.5c40.667 0 73.334 14.833 98.001 44.5s37 69.5 37 119.5v4c0 50 -12.333 89.833 -37 119.5s-57.334 44.5 -98.001 44.5z" />
    <glyph glyph-name="Emacron" unicode="&#x112;" horiz-adv-x="595" 
d="M540 597h-340v-185h321v-104h-321v-201h340v-107h-459v704h459v-107zM156 894h316v-88h-316v88z" />
    <glyph glyph-name="emacron" unicode="&#x113;" horiz-adv-x="556" 
d="M516 222l-359 0.000976562v-2c0 -39.333 12.667 -72 38 -98s58.333 -39 99 -39c28 0 51.167 5.83301 69.5 17.5s29.833 24.167 34.5 37.5h112c-8 -38.667 -30.5 -73.334 -67.5 -104.001s-87.167 -46 -150.5 -46c-76 0 -137 23.833 -183 71.5s-69 112.5 -69 194.5
s22.667 147.167 68 195.5s104.333 72.5 177 72.5c70 0 126 -23 168 -69s63 -107.333 63 -184v-47zM284 427.001c-36 0 -65.168 -10.667 -87.501 -32s-35.166 -50.333 -38.499 -87h244c-1.33301 37.333 -12.5 66.5 -33.5 87.5s-49.167 31.5 -84.5 31.5zM130.999 705.001h308
v-88h-308v88z" />
    <glyph glyph-name="Edotaccent" unicode="&#x116;" horiz-adv-x="595" 
d="M540 597h-340v-185h321v-104h-321v-201h340v-107h-459v704h459v-107zM314 920c20 0 36.833 -6.66699 50.5 -20s20.5 -30 20.5 -50c0 -19.333 -6.83301 -35.666 -20.5 -48.999s-30.5 -20 -50.5 -20c-19.333 0 -35.833 6.66699 -49.5 20s-20.5 29.666 -20.5 48.999
c0 20 6.83301 36.667 20.5 50s30.167 20 49.5 20z" />
    <glyph glyph-name="edotaccent" unicode="&#x117;" horiz-adv-x="556" 
d="M516 222l-359 0.000976562v-2c0 -39.333 12.667 -72 38 -98s58.333 -39 99 -39c28 0 51.167 5.83301 69.5 17.5s29.833 24.167 34.5 37.5h112c-8 -38.667 -30.5 -73.334 -67.5 -104.001s-87.167 -46 -150.5 -46c-76 0 -137 23.833 -183 71.5s-69 112.5 -69 194.5
s22.667 147.167 68 195.5s104.333 72.5 177 72.5c70 0 126 -23 168 -69s63 -107.333 63 -184v-47zM284 427.001c-36 0 -65.168 -10.667 -87.501 -32s-35.166 -50.333 -38.499 -87h244c-1.33301 37.333 -12.5 66.5 -33.5 87.5s-49.167 31.5 -84.5 31.5zM284.999 731.001
c20 0 36.833 -6.66699 50.5 -20s20.5 -29.666 20.5 -48.999c0 -20 -6.83301 -36.667 -20.5 -50s-30.5 -20 -50.5 -20c-19.333 0 -35.833 6.66699 -49.5 20s-20.5 30 -20.5 50c0 19.333 6.83301 35.666 20.5 48.999s30.167 20 49.5 20z" />
    <glyph glyph-name="Eogonek" unicode="&#x118;" horiz-adv-x="595" 
d="M540 597h-340v-185h321v-104h-321v-201h340v-107c-53.333 -35.333 -80 -70 -80 -104c0 -15.333 4.83301 -27.333 14.5 -36s23.5 -13 41.5 -13h36v-81h-59c-43.333 0 -76.5 9.5 -99.5 28.5s-34.5 44.5 -34.5 76.5c0 48.667 24.667 91.667 74 129h-352v704h459v-107z" />
    <glyph glyph-name="eogonek" unicode="&#x119;" horiz-adv-x="556" 
d="M516 222l-359 0.000976562v-2c0 -39.333 12.667 -72 38 -98s58.333 -39 99 -39c28 0 51.167 5.83301 69.5 17.5s29.833 24.167 34.5 37.5h112c-10 -45.333 -35.333 -82 -76 -110c-48 -36 -79 -62.333 -93 -79c-15.333 -18.667 -23 -36.334 -23 -53.001
c0 -15.333 4.83301 -27.333 14.5 -36s23.5 -13 41.5 -13h36v-81h-59c-43.333 0 -76.5 9.5 -99.5 28.5s-34.5 44.5 -34.5 76.5c0 40.667 21.667 79.667 65 117c-73.333 2.66699 -132 27.667 -176 75s-66 111 -66 191c0 82 22.667 147.167 68 195.5s104.333 72.5 177 72.5
c70 0 126 -23 168 -69s63 -107.333 63 -184v-47zM284 427.001c-36 0 -65.168 -10.667 -87.501 -32s-35.166 -50.333 -38.499 -87h244c-1.33301 37.333 -12.5 66.5 -33.5 87.5s-49.167 31.5 -84.5 31.5z" />
    <glyph glyph-name="Ecaron" unicode="&#x11a;" horiz-adv-x="595" 
d="M540 597h-340v-185h321v-104h-321v-201h340v-107h-459v704h459v-107zM234 933l80 -87l80 87h107l-136 -161h-102l-136 161h107z" />
    <glyph glyph-name="ecaron" unicode="&#x11b;" horiz-adv-x="556" 
d="M516 222l-359 0.000976562v-2c0 -39.333 12.667 -72 38 -98s58.333 -39 99 -39c28 0 51.167 5.83301 69.5 17.5s29.833 24.167 34.5 37.5h112c-8 -38.667 -30.5 -73.334 -67.5 -104.001s-87.167 -46 -150.5 -46c-76 0 -137 23.833 -183 71.5s-69 112.5 -69 194.5
s22.667 147.167 68 195.5s104.333 72.5 177 72.5c70 0 126 -23 168 -69s63 -107.333 63 -184v-47zM284 427.001c-36 0 -65.168 -10.667 -87.501 -32s-35.166 -50.333 -38.499 -87h244c-1.33301 37.333 -12.5 66.5 -33.5 87.5s-49.167 31.5 -84.5 31.5zM209.999 745.001
l75 -88l76 88h107l-132 -162h-102l-132 162h108z" />
    <glyph glyph-name="Gcircumflex" unicode="&#x11c;" horiz-adv-x="728" 
d="M365 373l310.999 0.000976562v-76c0 -91.333 -26.833 -165.666 -80.5 -222.999s-127.5 -86 -221.5 -86c-95.333 0 -173.666 33.667 -234.999 101s-92 155 -92 263c0 106.667 30.167 194 90.5 262s139.5 102 237.5 102c80 0 145.833 -21.833 197.5 -65.5
s84.167 -98.834 97.5 -165.501h-122c-25.333 82 -82.666 123 -171.999 123c-62.667 0 -112.834 -23.167 -150.501 -69.5s-56.5 -108.5 -56.5 -186.5c0 -79.333 19.333 -142 58 -188s88.667 -69 150 -69c56 0 100 16.167 132 48.5s48 74.166 48 125.499v4h-192v100z
M294.999 772.001h-107l136 161h102l136 -161h-107l-80 88z" />
    <glyph glyph-name="gcircumflex" unicode="&#x11d;" horiz-adv-x="603" 
d="M424 510l110.001 0.000976562v-476c0 -74.667 -21.833 -133.834 -65.5 -177.501s-103.5 -65.5 -179.5 -65.5c-68 0 -121.667 16 -161 48s-61.333 70 -66 114h112c16 -44 54.667 -66 116 -66c41.333 0 73.333 13 96 39s34 62 34 108v42
c-32.667 -48.667 -84.334 -73 -155.001 -73c-62.667 0 -115.834 23 -159.501 69s-65.5 109.333 -65.5 190c0 80 22.167 143.333 66.5 190s98.5 70 162.5 70c37.333 0 69.333 -7.16699 96 -21.5s46.334 -32.5 59.001 -54.5v64zM288.001 102.001
c40.667 0 73.334 14.667 98.001 44s37 67.333 37 114v4c0 46.667 -12.333 84.667 -37 114s-57.334 44 -98.001 44c-39.333 0 -71.166 -15 -95.499 -45s-36.5 -68.333 -36.5 -115s12.167 -85 36.5 -115s56.166 -45 95.499 -45zM219.001 583.001h-108l132 162h102l132 -162
h-107l-76 88z" />
    <glyph glyph-name="Gbreve" unicode="&#x11e;" horiz-adv-x="728" 
d="M365 373l310.999 0.000976562v-76c0 -91.333 -26.833 -165.666 -80.5 -222.999s-127.5 -86 -221.5 -86c-95.333 0 -173.666 33.667 -234.999 101s-92 155 -92 263c0 106.667 30.167 194 90.5 262s139.5 102 237.5 102c80 0 145.833 -21.833 197.5 -65.5
s84.167 -98.834 97.5 -165.501h-122c-25.333 82 -82.666 123 -171.999 123c-62.667 0 -112.834 -23.167 -150.501 -69.5s-56.5 -108.5 -56.5 -186.5c0 -79.333 19.333 -142 58 -188s88.667 -69 150 -69c56 0 100 16.167 132 48.5s48 74.166 48 125.499v4h-192v100z
M294.999 932.001c0 -23.333 6.99609 -43 20.9961 -59s33.667 -24 59 -24s45 8 59 24s21 35.667 21 59h93c-1.33301 -48.667 -17.666 -88.167 -48.999 -118.5s-72.666 -45.5 -123.999 -45.5s-92.666 15.167 -123.999 45.5s-47.666 69.833 -48.999 118.5h93z" />
    <glyph glyph-name="gbreve" unicode="&#x11f;" horiz-adv-x="603" 
d="M424 510l110.001 0.000976562v-476c0 -74.667 -21.833 -133.834 -65.5 -177.501s-103.5 -65.5 -179.5 -65.5c-68 0 -121.667 16 -161 48s-61.333 70 -66 114h112c16 -44 54.667 -66 116 -66c41.333 0 73.333 13 96 39s34 62 34 108v42
c-32.667 -48.667 -84.334 -73 -155.001 -73c-62.667 0 -115.834 23 -159.501 69s-65.5 109.333 -65.5 190c0 80 22.167 143.333 66.5 190s98.5 70 162.5 70c37.333 0 69.333 -7.16699 96 -21.5s46.334 -32.5 59.001 -54.5v64zM288.001 102.001
c40.667 0 73.334 14.667 98.001 44s37 67.333 37 114v4c0 46.667 -12.333 84.667 -37 114s-57.334 44 -98.001 44c-39.333 0 -71.166 -15 -95.499 -45s-36.5 -68.333 -36.5 -115s12.167 -85 36.5 -115s56.166 -45 95.499 -45zM217.001 744.001c0 -24 6.66504 -44 19.998 -60
s32.333 -24 57 -24s43.667 8 57 24s20 36 20 60h92c-1.33301 -50 -17.166 -90 -47.499 -120s-70.833 -45 -121.5 -45s-91.167 15 -121.5 45s-46.166 70 -47.499 120h92z" />
    <glyph glyph-name="Gdotaccent" unicode="&#x120;" horiz-adv-x="728" 
d="M365 373l310.999 0.000976562v-76c0 -91.333 -26.833 -165.666 -80.5 -222.999s-127.5 -86 -221.5 -86c-95.333 0 -173.666 33.667 -234.999 101s-92 155 -92 263c0 106.667 30.167 194 90.5 262s139.5 102 237.5 102c80 0 145.833 -21.833 197.5 -65.5
s84.167 -98.834 97.5 -165.501h-122c-25.333 82 -82.666 123 -171.999 123c-62.667 0 -112.834 -23.167 -150.501 -69.5s-56.5 -108.5 -56.5 -186.5c0 -79.333 19.333 -142 58 -188s88.667 -69 150 -69c56 0 100 16.167 132 48.5s48 74.166 48 125.499v4h-192v100z
M374.999 920.001c20 0 36.833 -6.66699 50.5 -20s20.5 -30 20.5 -50c0 -19.333 -6.83301 -35.666 -20.5 -48.999s-30.5 -20 -50.5 -20c-19.333 0 -35.833 6.66699 -49.5 20s-20.5 29.666 -20.5 48.999c0 20 6.83301 36.667 20.5 50s30.167 20 49.5 20z" />
    <glyph glyph-name="gdotaccent" unicode="&#x121;" horiz-adv-x="603" 
d="M424 510l110.001 0.000976562v-476c0 -74.667 -21.833 -133.834 -65.5 -177.501s-103.5 -65.5 -179.5 -65.5c-68 0 -121.667 16 -161 48s-61.333 70 -66 114h112c16 -44 54.667 -66 116 -66c41.333 0 73.333 13 96 39s34 62 34 108v42
c-32.667 -48.667 -84.334 -73 -155.001 -73c-62.667 0 -115.834 23 -159.501 69s-65.5 109.333 -65.5 190c0 80 22.167 143.333 66.5 190s98.5 70 162.5 70c37.333 0 69.333 -7.16699 96 -21.5s46.334 -32.5 59.001 -54.5v64zM288.001 102.001
c40.667 0 73.334 14.667 98.001 44s37 67.333 37 114v4c0 46.667 -12.333 84.667 -37 114s-57.334 44 -98.001 44c-39.333 0 -71.166 -15 -95.499 -45s-36.5 -68.333 -36.5 -115s12.167 -85 36.5 -115s56.166 -45 95.499 -45zM294.001 731.001
c20 0 36.833 -6.66699 50.5 -20s20.5 -29.666 20.5 -48.999c0 -20 -6.83301 -36.667 -20.5 -50s-30.5 -20 -50.5 -20c-19.333 0 -35.833 6.66699 -49.5 20s-20.5 30 -20.5 50c0 19.333 6.83301 35.666 20.5 48.999s30.167 20 49.5 20z" />
    <glyph glyph-name="Gcommaaccent" unicode="&#x122;" horiz-adv-x="728" 
d="M365 373l310.999 0.000976562v-76c0 -91.333 -26.833 -165.666 -80.5 -222.999s-127.5 -86 -221.5 -86c-95.333 0 -173.666 33.667 -234.999 101s-92 155 -92 263c0 106.667 30.167 194 90.5 262s139.5 102 237.5 102c80 0 145.833 -21.833 197.5 -65.5
s84.167 -98.834 97.5 -165.501h-122c-25.333 82 -82.666 123 -171.999 123c-62.667 0 -112.834 -23.167 -150.501 -69.5s-56.5 -108.5 -56.5 -186.5c0 -79.333 19.333 -142 58 -188s88.667 -69 150 -69c56 0 100 16.167 132 48.5s48 74.166 48 125.499v4h-192v100z
M444.999 -124.999c0 -16 -3.66699 -33.332 -11 -51.999l-42 -105h-82l38 99c-30 9.33301 -45 30 -45 62c0 19.333 6.5 35.166 19.5 47.499s29.5 18.5 49.5 18.5s37.167 -6.66699 51.5 -20s21.5 -30 21.5 -50z" />
    <glyph glyph-name="gcommaaccent" unicode="&#x123;" horiz-adv-x="603" 
d="M424 510l110.001 0.000976562v-476c0 -74.667 -21.833 -133.834 -65.5 -177.501s-103.5 -65.5 -179.5 -65.5c-68 0 -121.667 16 -161 48s-61.333 70 -66 114h112c16 -44 54.667 -66 116 -66c41.333 0 73.333 13 96 39s34 62 34 108v42
c-32.667 -48.667 -84.334 -73 -155.001 -73c-62.667 0 -115.834 23 -159.501 69s-65.5 109.333 -65.5 190c0 80 22.167 143.333 66.5 190s98.5 70 162.5 70c37.333 0 69.333 -7.16699 96 -21.5s46.334 -32.5 59.001 -54.5v64zM288.001 102.001
c40.667 0 73.334 14.667 98.001 44s37 67.333 37 114v4c0 46.667 -12.333 84.667 -37 114s-57.334 44 -98.001 44c-39.333 0 -71.166 -15 -95.499 -45s-36.5 -68.333 -36.5 -115s12.167 -85 36.5 -115s56.166 -45 95.499 -45zM223.001 650.001
c0 16 3.66699 33.332 11 51.999l42 105h82l-38 -99c30 -9.33301 45 -29.666 45 -60.999c0 -19.333 -6.5 -35.333 -19.5 -48s-29.5 -19 -49.5 -19s-37.167 6.66699 -51.5 20s-21.5 30 -21.5 50z" />
    <glyph glyph-name="Hcircumflex" unicode="&#x124;" horiz-adv-x="734" 
d="M200 0h-119v704h119v-289h334v289h119v-704h-119v307h-334v-307zM287 772h-107l136 161h102l136 -161h-107l-80 88z" />
    <glyph glyph-name="hcircumflex" unicode="&#x125;" 
d="M331 522c53.333 0 97.833 -16.667 133.5 -50s53.5 -83 53.5 -149v-323h-114v302c0 38.667 -9.5 67.834 -28.5 87.501s-44.5 29.5 -76.5 29.5s-59.333 -10.333 -82 -31s-34 -51.334 -34 -92.001v-296h-114v727h114v-271c34.667 44 84 66 148 66zM58 788h-104l121 162h102
l121 -162h-104l-68 87z" />
    <glyph glyph-name="Hbar" unicode="&#x126;" horiz-adv-x="766" 
d="M216 0h-118v517h-68v91h68v96h118v-96h334v96h118v-96h68v-91h-68v-517h-118v291h-334v-291zM216 517v-119h334v119h-334z" />
    <glyph glyph-name="hbar" unicode="&#x127;" horiz-adv-x="585" 
d="M2 665h70v62h114v-62h130v-78h-130v-131c34.667 44 84 66 148 66c53.333 0 97.833 -16.667 133.5 -50s53.5 -83 53.5 -149v-323h-114v302c0 38.667 -9.5 67.834 -28.5 87.501s-44.5 29.5 -76.5 29.5s-59.333 -10.333 -82 -31s-34 -51.334 -34 -92.001v-296h-114v587h-70
v78z" />
    <glyph glyph-name="Itilde" unicode="&#x128;" horiz-adv-x="282" 
d="M200 704v-704h-119v704h119zM236 919h77v-18c0 -39.333 -9.5 -70 -28.5 -92s-44.833 -33 -77.5 -33c-20 0 -38.167 5.16699 -54.5 15.5s-30.5 20.666 -42.5 30.999s-22.333 15.5 -31 15.5c-9.33301 0 -17.166 -3.5 -23.499 -10.5s-9.5 -16.833 -9.5 -29.5v-16h-77v19
c0 39.333 9.5 70 28.5 92s44.5 33 76.5 33c20 0 38.333 -5.16699 55 -15.5s31 -20.666 43 -30.999s22.333 -15.5 31 -15.5c9.33301 0 17.166 3.5 23.499 10.5s9.5 16.833 9.5 29.5v15z" />
    <glyph glyph-name="itilde" unicode="&#x129;" horiz-adv-x="253" 
d="M183 510v-510h-114v510h114zM215 730l77.002 0.000976562v-18c0 -39.333 -9.16699 -70 -27.5 -92s-43.166 -33 -74.499 -33c-20.667 0 -38.667 5.16699 -54 15.5s-28.333 20.666 -39 30.999s-20.667 15.5 -30 15.5c-8.66699 0 -15.834 -3.5 -21.501 -10.5
s-8.5 -16.833 -8.5 -29.5v-16h-77v19c0 39.333 9.16699 70 27.5 92s43.166 33 74.499 33c16 0 30.667 -3.16699 44 -9.5s23.666 -13.5 30.999 -21.5s15.166 -15.167 23.499 -21.5s16.5 -9.5 24.5 -9.5c8.66699 0 15.834 3.5 21.501 10.5s8.5 16.833 8.5 29.5v15z" />
    <glyph glyph-name="Imacron" unicode="&#x12a;" horiz-adv-x="282" 
d="M200 704v-704h-119v704h119zM-13 893h308v-88h-308v88z" />
    <glyph glyph-name="imacron" unicode="&#x12b;" horiz-adv-x="253" 
d="M183 510v-510h-114v510h114zM-9 705h270v-88h-270v88z" />
    <glyph glyph-name="Ibreve" unicode="&#x12c;" horiz-adv-x="282" 
d="M200 704v-704h-119v704h119zM64 933c0 -24 6.66504 -44 19.998 -60s32.333 -24 57 -24s43.667 8 57 24s20 36 20 60h92c-1.33301 -50 -17.166 -90 -47.499 -120s-70.833 -45 -121.5 -45s-91.167 15 -121.5 45s-46.166 70 -47.499 120h92z" />
    <glyph glyph-name="ibreve" unicode="&#x12d;" horiz-adv-x="253" 
d="M183 510v-510h-114v510h114zM54 744c0 -24 6 -44 18 -60s30 -24 54 -24s42 8 54 24s18 36 18 60h92c-1.33301 -50 -16.5 -90 -45.5 -120s-68.5 -45 -118.5 -45s-89.5 15 -118.5 45s-44.167 70 -45.5 120h92z" />
    <glyph glyph-name="Iogonek" unicode="&#x12e;" horiz-adv-x="282" 
d="M200 704v-704c-53.333 -35.333 -80 -70 -80 -104c0 -15.333 4.83301 -27.333 14.5 -36s23.5 -13 41.5 -13h36v-81h-59c-43.333 0 -76.5 9.5 -99.5 28.5s-34.5 44.5 -34.5 76.5c0 48.667 24.667 91.667 74 129h-12v704h119z" />
    <glyph glyph-name="iogonek" unicode="&#x12f;" horiz-adv-x="253" 
d="M183 510v-510c-53.333 -35.333 -80 -70 -80 -104c0 -15.333 4.83301 -27.333 14.5 -36s23.5 -13 41.5 -13h36v-81h-59c-43.333 0 -76.5 9.5 -99.5 28.5s-34.5 44.5 -34.5 76.5c0 48.667 24.667 91.667 74 129h-7v510h114zM126 731c20 0 36.833 -6.66699 50.5 -20
s20.5 -29.666 20.5 -48.999c0 -20 -6.83301 -36.667 -20.5 -50s-30.5 -20 -50.5 -20c-19.333 0 -35.833 6.66699 -49.5 20s-20.5 30 -20.5 50c0 19.333 6.83301 35.666 20.5 48.999s30.167 20 49.5 20z" />
    <glyph glyph-name="Idotaccent" unicode="&#x130;" horiz-adv-x="282" 
d="M200 704v-704h-119v704h119zM141 920c20 0 36.833 -6.66699 50.5 -20s20.5 -30 20.5 -50c0 -19.333 -6.83301 -35.666 -20.5 -48.999s-30.5 -20 -50.5 -20c-19.333 0 -35.833 6.66699 -49.5 20s-20.5 29.666 -20.5 48.999c0 20 6.83301 36.667 20.5 50s30.167 20 49.5 20
z" />
    <glyph glyph-name="dotlessi" unicode="&#x131;" horiz-adv-x="253" 
d="M183 510v-510h-114v510h114z" />
    <glyph glyph-name="Jcircumflex" unicode="&#x134;" horiz-adv-x="558" 
d="M28 192l115.999 0.00195312c2.66699 -24 12.834 -45.833 30.501 -65.5s42.834 -29.5 75.501 -29.5c36.667 0 64.334 12.167 83.001 36.5s28 57.166 28 98.499v472h119v-473c0 -76.667 -20.333 -136.334 -61 -179.001s-97.334 -64 -170.001 -64
c-67.333 0 -120.833 20 -160.5 60s-59.834 88 -60.501 144zM345.999 772.002h-108l132 162h102l132 -162h-107l-76 88z" />
    <glyph glyph-name="jcircumflex" unicode="&#x135;" horiz-adv-x="253" 
d="M-17 -192v96h21c44 0 66 28.333 66 85v521h114v-526c0 -60 -13.5 -104.333 -40.5 -133s-68.5 -43 -124.5 -43h-36zM58 583h-104l121 162h102l121 -162h-104l-68 87z" />
    <glyph glyph-name="Kcommaaccent" unicode="&#x136;" horiz-adv-x="644" 
d="M200 0h-119v704h119v-305l282 305h145l-309 -337l315 -367h-150l-283 324v-324zM409 -125c0 -16 -3.66699 -33.332 -11 -51.999l-42 -105h-82l38 99c-30 9.33301 -45 30 -45 62c0 19.333 6.5 35.166 19.5 47.499s29.5 18.5 49.5 18.5s37.167 -6.66699 51.5 -20
s21.5 -30 21.5 -50z" />
    <glyph glyph-name="kcommaaccent" unicode="&#x137;" horiz-adv-x="527" 
d="M183 0h-114v727h114v-429l196 212h135l-220 -239l223 -271h-138l-196 238v-238zM347 -125c0 -16 -3.66699 -33.332 -11 -51.999l-42 -105h-82l38 99c-30 9.33301 -45 30 -45 62c0 19.333 6.5 35.166 19.5 47.499s29.5 18.5 49.5 18.5s37.167 -6.66699 51.5 -20
s21.5 -30 21.5 -50z" />
    <glyph glyph-name="Lacute" unicode="&#x139;" horiz-adv-x="576" 
d="M200 704v-597h340v-107h-459v704h119zM300 933l-105 -161h-101l94 161h112z" />
    <glyph glyph-name="lacute" unicode="&#x13a;" horiz-adv-x="253" 
d="M183 727v-727h-114v727h114zM285 950l-105 -162h-101l94 162h112z" />
    <glyph glyph-name="Lcommaaccent" unicode="&#x13b;" horiz-adv-x="576" 
d="M200 704v-597h340v-107h-459v704h119zM387 -125c0 -16 -3.66699 -33.332 -11 -51.999l-42 -105h-82l38 99c-30 9.33301 -45 30 -45 62c0 19.333 6.5 35.166 19.5 47.499s29.5 18.5 49.5 18.5s37.167 -6.66699 51.5 -20s21.5 -30 21.5 -50z" />
    <glyph glyph-name="lcommaaccent" unicode="&#x13c;" horiz-adv-x="253" 
d="M183 727v-727h-114v727h114zM197 -125c0 -16 -3.66699 -33.332 -11 -51.999l-42 -105h-82l38 99c-30 9.33301 -45 30 -45 62c0 19.333 6.5 35.166 19.5 47.499s29.5 18.5 49.5 18.5s37.167 -6.66699 51.5 -20s21.5 -30 21.5 -50z" />
    <glyph glyph-name="Lcaron" unicode="&#x13d;" horiz-adv-x="576" 
d="M200 704v-597h340v-107h-459v704h119zM422 641c0 -16 -3.66699 -33.001 -11 -51.001l-49 -124h-82l45 117c-30 10.667 -45 31.334 -45 62.001c0 19.333 6.5 35.333 19.5 48s29.5 19 49.5 19s37.167 -6.83301 51.5 -20.5s21.5 -30.5 21.5 -50.5z" />
    <glyph glyph-name="lcaron" unicode="&#x13e;" horiz-adv-x="378" 
d="M183 727v-727h-114v727h114zM383 664c0 -16 -3.66699 -33.001 -11 -51.001l-49 -124h-82l45 117c-30 10.667 -45 31.334 -45 62.001c0 19.333 6.5 35.333 19.5 48s29.5 19 49.5 19s37.167 -6.83301 51.5 -20.5s21.5 -30.5 21.5 -50.5z" />
    <glyph glyph-name="Ldot" unicode="&#x13f;" horiz-adv-x="576" 
d="M200 704v-597h340v-107h-459v704h119zM375 463c20.667 0 38.167 -7 52.5 -21s21.5 -31.333 21.5 -52s-7.16699 -38.167 -21.5 -52.5s-31.833 -21.5 -52.5 -21.5s-38.167 7.16699 -52.5 21.5s-21.5 31.833 -21.5 52.5s7.16699 38 21.5 52s31.833 21 52.5 21z" />
    <glyph glyph-name="ldot" unicode="&#x140;" horiz-adv-x="395" 
d="M183 727v-727h-114v727h114zM316 425c20.667 0 38.167 -7 52.5 -21s21.5 -31.333 21.5 -52s-7.16699 -38.167 -21.5 -52.5s-31.833 -21.5 -52.5 -21.5s-38.167 7.16699 -52.5 21.5s-21.5 31.833 -21.5 52.5s7.16699 38 21.5 52s31.833 21 52.5 21z" />
    <glyph glyph-name="Lslash" unicode="&#x141;" horiz-adv-x="595" 
d="M382 440l-163 -78v-255h339v-107h-458v305l-78 -37v102l78 37v297h119v-240l163 78v-102z" />
    <glyph glyph-name="lslash" unicode="&#x142;" horiz-adv-x="294" 
d="M11 377l79 38v312h114v-256l79 39v-94l-79 -39v-377h-114v321l-79 -38v94z" />
    <glyph glyph-name="Nacute" unicode="&#x143;" horiz-adv-x="740" 
d="M208 704l335 -506v506h115v-704h-114l-347 522v-522h-116v704h127zM532 933l-105 -161h-101l94 161h112z" />
    <glyph glyph-name="nacute" unicode="&#x144;" 
d="M69 510h109.999v-60c13.333 20 33.333 37 60 51s57.334 21 92.001 21c53.333 0 97.833 -16.667 133.5 -50s53.5 -83 53.5 -149v-323h-114v302c0 38.667 -9.5 67.834 -28.5 87.501s-44.5 29.5 -76.5 29.5s-59.333 -10.333 -82 -31s-34 -51.334 -34 -92.001v-296h-114v510z
M456.999 745l-105 -162h-101l94 162h112z" />
    <glyph glyph-name="Ncommaaccent" unicode="&#x145;" horiz-adv-x="740" 
d="M208 704l335 -506v506h115v-704h-114l-347 522v-522h-116v704h127zM437 -116c0 -16 -3.66699 -33.332 -11 -51.999l-42 -105h-82l38 99c-30 9.33301 -45 30 -45 62c0 19.333 6.5 35.166 19.5 47.499s29.5 18.5 49.5 18.5s37.167 -6.66699 51.5 -20s21.5 -30 21.5 -50z
" />
    <glyph glyph-name="ncommaaccent" unicode="&#x146;" 
d="M69 510h109.999v-60c13.333 20 33.333 37 60 51s57.334 21 92.001 21c53.333 0 97.833 -16.667 133.5 -50s53.5 -83 53.5 -149v-323h-114v302c0 38.667 -9.5 67.834 -28.5 87.501s-44.5 29.5 -76.5 29.5s-59.333 -10.333 -82 -31s-34 -51.334 -34 -92.001v-296h-114v510z
M364.999 -125c0 -16 -3.66699 -33.332 -11 -51.999l-42 -105h-82l38 99c-30 9.33301 -45 30 -45 62c0 19.333 6.5 35.166 19.5 47.499s29.5 18.5 49.5 18.5s37.167 -6.66699 51.5 -20s21.5 -30 21.5 -50z" />
    <glyph glyph-name="Ncaron" unicode="&#x147;" horiz-adv-x="740" 
d="M208 704l335 -506v506h115v-704h-114l-347 522v-522h-116v704h127zM293 933l80 -87l80 87h107l-136 -161h-102l-136 161h107z" />
    <glyph glyph-name="ncaron" unicode="&#x148;" 
d="M69 510h109.999v-60c13.333 20 33.333 37 60 51s57.334 21 92.001 21c53.333 0 97.833 -16.667 133.5 -50s53.5 -83 53.5 -149v-323h-114v302c0 38.667 -9.5 67.834 -28.5 87.501s-44.5 29.5 -76.5 29.5s-59.333 -10.333 -82 -31s-34 -51.334 -34 -92.001v-296h-114v510z
M222.999 745l75 -88l76 88h107l-132 -162h-102l-132 162h108z" />
    <glyph glyph-name="Eng" unicode="&#x14a;" horiz-adv-x="740" 
d="M543 704h115v-719c0 -118 -56.667 -177 -170 -177h-37v99h23c46.667 0 70 25.333 70 76v18l-347 521v-522h-116v704h127l335 -505v505z" />
    <glyph glyph-name="eng" unicode="&#x14b;" 
d="M331 522c53.333 0 97.832 -16.667 133.499 -50s53.5 -83 53.5 -149v-339c0 -60 -13.5 -104.333 -40.5 -133s-68.5 -43 -124.5 -43h-36v96h21c44 0 66 28.333 66 85v313c0 38.667 -9.5 67.834 -28.5 87.501s-44.5 29.5 -76.5 29.5s-59.333 -10.333 -82 -31
s-34 -51.334 -34 -92.001v-296h-114v510h110v-60c13.333 20 33.333 37 60 51s57.334 21 92.001 21z" />
    <glyph glyph-name="Omacron" unicode="&#x14c;" horiz-adv-x="755" 
d="M377 716c98.667 0 178.334 -33.833 239.001 -101.5s91 -155.167 91 -262.5s-30.333 -194.833 -91 -262.5s-140.334 -101.5 -239.001 -101.5s-178.334 33.833 -239.001 101.5s-91 155.167 -91 262.5s30.333 194.833 91 262.5s140.334 101.5 239.001 101.5zM377 97
c64 0 114.833 23.6689 152.5 71.002s56.5 108.666 56.5 183.999s-18.833 136.666 -56.5 183.999s-88.5 71 -152.5 71s-114.667 -23.5 -152 -70.5s-56 -108.5 -56 -184.5s18.667 -137.5 56 -184.5s88 -70.5 152 -70.5zM219 894.002h316v-88h-316v88z" />
    <glyph glyph-name="omacron" unicode="&#x14d;" 
d="M291 522c74.667 0 135.167 -24.667 181.5 -74s69.5 -113.666 69.5 -192.999s-23.167 -143.666 -69.5 -192.999s-106.833 -74 -181.5 -74s-135.167 24.667 -181.5 74s-69.5 113.666 -69.5 192.999s23.167 143.666 69.5 192.999s106.833 74 181.5 74zM291 89
c41.333 0 74.166 15.333 98.499 46s36.5 70.667 36.5 120s-12.167 89.333 -36.5 120s-57.166 46 -98.499 46s-74.166 -15.333 -98.499 -46s-36.5 -70.667 -36.5 -120s12.167 -89.333 36.5 -120s57.166 -46 98.499 -46zM137 705h308v-88h-308v88z" />
    <glyph glyph-name="Obreve" unicode="&#x14e;" horiz-adv-x="755" 
d="M377 716c98.667 0 178.334 -33.833 239.001 -101.5s91 -155.167 91 -262.5s-30.333 -194.833 -91 -262.5s-140.334 -101.5 -239.001 -101.5s-178.334 33.833 -239.001 101.5s-91 155.167 -91 262.5s30.333 194.833 91 262.5s140.334 101.5 239.001 101.5zM377 97
c64 0 114.833 23.6689 152.5 71.002s56.5 108.666 56.5 183.999s-18.833 136.666 -56.5 183.999s-88.5 71 -152.5 71s-114.667 -23.5 -152 -70.5s-56 -108.5 -56 -184.5s18.667 -137.5 56 -184.5s88 -70.5 152 -70.5zM297 932.002c0 -23.333 6.99609 -43 20.9961 -59
s33.667 -24 59 -24s45 8 59 24s21 35.667 21 59h93c-1.33301 -48.667 -17.666 -88.167 -48.999 -118.5s-72.666 -45.5 -123.999 -45.5s-92.666 15.167 -123.999 45.5s-47.666 69.833 -48.999 118.5h93z" />
    <glyph glyph-name="obreve" unicode="&#x14f;" 
d="M291 522c74.667 0 135.167 -24.667 181.5 -74s69.5 -113.666 69.5 -192.999s-23.167 -143.666 -69.5 -192.999s-106.833 -74 -181.5 -74s-135.167 24.667 -181.5 74s-69.5 113.666 -69.5 192.999s23.167 143.666 69.5 192.999s106.833 74 181.5 74zM291 89
c41.333 0 74.166 15.333 98.499 46s36.5 70.667 36.5 120s-12.167 89.333 -36.5 120s-57.166 46 -98.499 46s-74.166 -15.333 -98.499 -46s-36.5 -70.667 -36.5 -120s12.167 -89.333 36.5 -120s57.166 -46 98.499 -46zM214 744c0 -24 6.66504 -44 19.998 -60
s32.333 -24 57 -24s43.667 8 57 24s20 36 20 60h92c-1.33301 -50 -17.166 -90 -47.499 -120s-70.833 -45 -121.5 -45s-91.167 15 -121.5 45s-46.166 70 -47.499 120h92z" />
    <glyph glyph-name="Ohungarumlaut" unicode="&#x150;" horiz-adv-x="755" 
d="M377 716c98.667 0 178.334 -33.833 239.001 -101.5s91 -155.167 91 -262.5s-30.333 -194.833 -91 -262.5s-140.334 -101.5 -239.001 -101.5s-178.334 33.833 -239.001 101.5s-91 155.167 -91 262.5s30.333 194.833 91 262.5s140.334 101.5 239.001 101.5zM377 97
c64 0 114.833 23.6689 152.5 71.002s56.5 108.666 56.5 183.999s-18.833 136.666 -56.5 183.999s-88.5 71 -152.5 71s-114.667 -23.5 -152 -70.5s-56 -108.5 -56 -184.5s18.667 -137.5 56 -184.5s88 -70.5 152 -70.5zM435 933.002l-99 -161h-98l89 161h108zM616 933.002
l-99 -161h-98l89 161h108z" />
    <glyph glyph-name="ohungarumlaut" unicode="&#x151;" 
d="M291 522c74.667 0 135.167 -24.667 181.5 -74s69.5 -113.666 69.5 -192.999s-23.167 -143.666 -69.5 -192.999s-106.833 -74 -181.5 -74s-135.167 24.667 -181.5 74s-69.5 113.666 -69.5 192.999s23.167 143.666 69.5 192.999s106.833 74 181.5 74zM291 89
c41.333 0 74.166 15.333 98.499 46s36.5 70.667 36.5 120s-12.167 89.333 -36.5 120s-57.166 46 -98.499 46s-74.166 -15.333 -98.499 -46s-36.5 -70.667 -36.5 -120s12.167 -89.333 36.5 -120s57.166 -46 98.499 -46zM351 745l-99 -162h-98l88 162h109zM528 745l-99 -162
h-98l89 162h108z" />
    <glyph glyph-name="OE" unicode="&#x152;" horiz-adv-x="1019" 
d="M964 704v-107h-337v-185h318v-104h-318v-201h337v-107h-553c-108.667 -0 -196.5 31.833 -263.5 95.5s-100.5 149.167 -100.5 256.5s33.5 192.833 100.5 256.5s154.833 95.5 263.5 95.5h553zM169 352c0 -76 23 -136 69 -180s107.667 -66 185 -66h85v492h-85
c-77.333 0 -139 -22 -185 -66s-69 -104 -69 -180z" />
    <glyph glyph-name="oe" unicode="&#x153;" horiz-adv-x="939" 
d="M288 522c86.667 0 151.333 -33.666 194 -100.999c42 67.333 105.333 101 190 101c69.333 0 124.5 -23 165.5 -69s61.5 -107.333 61.5 -184v-47h-359v-2c0 -39.333 12.667 -72 38 -98s58.333 -39 99 -39c28 0 51.167 5.83301 69.5 17.5s29.833 24.167 34.5 37.5h112
c-8 -38.667 -30.167 -73.334 -66.5 -104.001s-85.833 -46 -148.5 -46c-88 0 -153.333 33.333 -196 100c-42 -66.667 -106.667 -100 -194 -100c-73.333 0 -133 24.667 -179 74s-69 113.666 -69 192.999c0 78.667 23 142.834 69 192.501s105.667 74.5 179 74.5z
M290.999 89.001c41.333 0 74.166 15.333 98.499 46s36.5 70.667 36.5 120s-12.167 89.333 -36.5 120s-57.166 46 -98.499 46s-74.166 -15.333 -98.499 -46s-36.5 -70.667 -36.5 -120s12.167 -89.333 36.5 -120s57.166 -46 98.499 -46zM666.999 427.001
c-36 0 -65.168 -10.667 -87.501 -32s-35.166 -50.333 -38.499 -87h244c-1.33301 37.333 -12.5 66.5 -33.5 87.5s-49.167 31.5 -84.5 31.5z" />
    <glyph glyph-name="Racute" unicode="&#x154;" horiz-adv-x="642" 
d="M584 479c0 -45.333 -12 -86.667 -36 -124s-57.333 -65 -100 -83l174 -272h-136l-160 252h-126v-252h-119v704h262c76 0 135.167 -21.5 177.5 -64.5s63.5 -96.5 63.5 -160.5zM331 598.999h-131.001v-243h131c42 0 74.5 11.667 97.5 35s34.5 52.333 34.5 87
c0 36 -11.167 65.167 -33.5 87.5s-55.166 33.5 -98.499 33.5zM478.999 932.999l-105 -161h-101l94 161h112z" />
    <glyph glyph-name="racute" unicode="&#x155;" horiz-adv-x="386" 
d="M334 512h25.998v-108h-30c-45.333 0 -81.166 -11.5 -107.499 -34.5s-39.5 -56.167 -39.5 -99.5v-270h-114v510h110v-80c32.667 54.667 84.334 82 155.001 82zM374.998 745l-105 -162h-101l94 162h112z" />
    <glyph glyph-name="Rcommaaccent" unicode="&#x156;" horiz-adv-x="642" 
d="M584 479c0 -45.333 -12 -86.667 -36 -124s-57.333 -65 -100 -83l174 -272h-136l-160 252h-126v-252h-119v704h262c76 0 135.167 -21.5 177.5 -64.5s63.5 -96.5 63.5 -160.5zM331 598.999h-131.001v-243h131c42 0 74.5 11.667 97.5 35s34.5 52.333 34.5 87
c0 36 -11.167 65.167 -33.5 87.5s-55.166 33.5 -98.499 33.5zM410.999 -125.001c0 -16 -3.66699 -33.332 -11 -51.999l-42 -105h-82l38 99c-30 9.33301 -45 30 -45 62c0 19.333 6.5 35.166 19.5 47.499s29.5 18.5 49.5 18.5s37.167 -6.66699 51.5 -20s21.5 -30 21.5 -50z
" />
    <glyph glyph-name="rcommaaccent" unicode="&#x157;" horiz-adv-x="386" 
d="M334 512h25.998v-108h-30c-45.333 0 -81.166 -11.5 -107.499 -34.5s-39.5 -56.167 -39.5 -99.5v-270h-114v510h110v-80c32.667 54.667 84.334 82 155.001 82zM196.998 -125c0 -16 -3.66699 -33.332 -11 -51.999l-42 -105h-82l38 99c-30 9.33301 -45 30 -45 62
c0 19.333 6.5 35.166 19.5 47.499s29.5 18.5 49.5 18.5s37.167 -6.66699 51.5 -20s21.5 -30 21.5 -50z" />
    <glyph glyph-name="Rcaron" unicode="&#x158;" horiz-adv-x="642" 
d="M584 479c0 -45.333 -12 -86.667 -36 -124s-57.333 -65 -100 -83l174 -272h-136l-160 252h-126v-252h-119v704h262c76 0 135.167 -21.5 177.5 -64.5s63.5 -96.5 63.5 -160.5zM331 598.999h-131.001v-243h131c42 0 74.5 11.667 97.5 35s34.5 52.333 34.5 87
c0 36 -11.167 65.167 -33.5 87.5s-55.166 33.5 -98.499 33.5zM239.999 932.999l80 -87l80 87h107l-136 -161h-102l-136 161h107z" />
    <glyph glyph-name="rcaron" unicode="&#x159;" horiz-adv-x="386" 
d="M334 512h25.998v-108h-30c-45.333 0 -81.166 -11.5 -107.499 -34.5s-39.5 -56.167 -39.5 -99.5v-270h-114v510h110v-80c32.667 54.667 84.334 82 155.001 82zM140.998 745l75 -88l76 88h107l-132 -162h-102l-132 162h108z" />
    <glyph glyph-name="Sacute" unicode="&#x15a;" horiz-adv-x="624" 
d="M45 192l121 -0.00195312c20 -66 72.333 -99 157 -99c40.667 0 73.334 9.5 98.001 28.5s37 44.833 37 77.5c0 51.333 -32.667 82.333 -98 93l-122 20c-59.333 8.66699 -104.833 29.167 -136.5 61.5s-47.5 74.166 -47.5 125.499c0 64.667 24.167 117 72.5 157
s108.166 60 179.499 60c70 0 128.833 -17.167 176.5 -51.5s76.5 -83.166 86.5 -146.499h-120c-18 62 -65.667 93 -143 93c-36.667 0 -67.667 -9.16699 -93 -27.5s-38 -43.5 -38 -75.5c0 -46.667 30.667 -75 92 -85l122 -19c126.667 -21.333 190 -86.666 190 -195.999
c0 -68 -23.5 -121.667 -70.5 -161s-109.5 -59 -187.5 -59c-74 0 -136 17.833 -186 53.5s-80 85.834 -90 150.501zM470 932.998l-105 -161h-101l94 161h112z" />
    <glyph glyph-name="sacute" unicode="&#x15b;" horiz-adv-x="507" 
d="M152 147c10.667 -44 47.001 -66 109.001 -66c29.333 0 52.333 5.66699 69 17s25 27.333 25 48c0 32 -22.333 50.667 -67 56l-90 12c-99.333 12.667 -149 60.334 -149 143.001c0 48 19.167 87.333 57.5 118s86.5 46 144.5 46c56.667 0 103.5 -13.333 140.5 -40
s59.167 -64 66.5 -112h-111c-12.667 40 -45.334 60 -98.001 60c-26.667 0 -48 -6 -64 -18s-24 -27 -24 -45c0 -30.667 21.333 -48.667 64 -54l91 -11c46 -6 82.833 -21 110.5 -45s41.5 -58.333 41.5 -103c0 -52 -19.333 -92.5 -58 -121.5s-88 -43.5 -148 -43.5
c-58.667 0 -109 13.167 -151 39.5s-65.667 66.166 -71 119.499h112zM413.001 745l-105 -162h-101l94 162h112z" />
    <glyph glyph-name="Scircumflex" unicode="&#x15c;" horiz-adv-x="624" 
d="M45 192l121 -0.00195312c20 -66 72.333 -99 157 -99c40.667 0 73.334 9.5 98.001 28.5s37 44.833 37 77.5c0 51.333 -32.667 82.333 -98 93l-122 20c-59.333 8.66699 -104.833 29.167 -136.5 61.5s-47.5 74.166 -47.5 125.499c0 64.667 24.167 117 72.5 157
s108.166 60 179.499 60c70 0 128.833 -17.167 176.5 -51.5s76.5 -83.166 86.5 -146.499h-120c-18 62 -65.667 93 -143 93c-36.667 0 -67.667 -9.16699 -93 -27.5s-38 -43.5 -38 -75.5c0 -46.667 30.667 -75 92 -85l122 -19c126.667 -21.333 190 -86.666 190 -195.999
c0 -68 -23.5 -121.667 -70.5 -161s-109.5 -59 -187.5 -59c-74 0 -136 17.833 -186 53.5s-80 85.834 -90 150.501zM231 771.998h-107l136 161h102l136 -161h-107l-80 88z" />
    <glyph glyph-name="scircumflex" unicode="&#x15d;" horiz-adv-x="507" 
d="M152 147c10.667 -44 47.001 -66 109.001 -66c29.333 0 52.333 5.66699 69 17s25 27.333 25 48c0 32 -22.333 50.667 -67 56l-90 12c-99.333 12.667 -149 60.334 -149 143.001c0 48 19.167 87.333 57.5 118s86.5 46 144.5 46c56.667 0 103.5 -13.333 140.5 -40
s59.167 -64 66.5 -112h-111c-12.667 40 -45.334 60 -98.001 60c-26.667 0 -48 -6 -64 -18s-24 -27 -24 -45c0 -30.667 21.333 -48.667 64 -54l91 -11c46 -6 82.833 -21 110.5 -45s41.5 -58.333 41.5 -103c0 -52 -19.333 -92.5 -58 -121.5s-88 -43.5 -148 -43.5
c-58.667 0 -109 13.167 -151 39.5s-65.667 66.166 -71 119.499h112zM179.001 583h-108l132 162h102l132 -162h-107l-76 88z" />
    <glyph glyph-name="Scedilla" unicode="&#x15e;" horiz-adv-x="624" 
d="M45 192l121.001 -0.000976562c20 -66 72.333 -99 157 -99c40.667 0 73.334 9.5 98.001 28.5s37 44.833 37 77.5c0 51.333 -32.667 82.333 -98 93l-122 20c-59.333 8.66699 -104.833 29.167 -136.5 61.5s-47.5 74.166 -47.5 125.499c0 64.667 24.167 117 72.5 157
s108.166 60 179.499 60c70 0 128.833 -17.167 176.5 -51.5s76.5 -83.166 86.5 -146.499h-120c-18 62 -65.667 93 -143 93c-36.667 0 -67.667 -9.16699 -93 -27.5s-38 -43.5 -38 -75.5c0 -46.667 30.667 -75 92 -85l122 -19c126.667 -21.333 190 -86.666 190 -195.999
c0 -62.667 -20 -113.334 -60 -152.001s-94 -60.667 -162 -66l-15 -42c22 -2 41.5 -10.667 58.5 -26s25.5 -36.333 25.5 -63c0 -31.333 -11.667 -56.666 -35 -75.999s-57.333 -29 -102 -29h-58v72h51c32 0 48 12 48 36c0 23.333 -15.333 35 -46 35h-33v21l27 72
c-63.333 6.66699 -115.833 27.5 -157.5 62.5s-66.834 81.5 -75.501 139.5z" />
    <glyph glyph-name="scedilla" unicode="&#x15f;" horiz-adv-x="507" 
d="M152 147c10.667 -44 47.001 -66.002 109.001 -66.002c29.333 0 52.333 5.66699 69 17s25 27.333 25 48c0 32 -22.333 50.667 -67 56l-90 12c-99.333 12.667 -149 60.334 -149 143.001c0 48 19.167 87.333 57.5 118s86.5 46 144.5 46c56.667 0 103.5 -13.333 140.5 -40
s59.167 -64 66.5 -112h-111c-12.667 40 -45.334 60 -98.001 60c-26.667 0 -48 -6 -64 -18s-24 -27 -24 -45c0 -30.667 21.333 -48.667 64 -54l91 -11c46 -6 82.833 -21 110.5 -45s41.5 -58.333 41.5 -103c0 -46.667 -15.667 -84 -47 -112s-72.333 -45 -123 -51l-15 -42
c22 -2 41.5 -10.667 58.5 -26s25.5 -36.333 25.5 -63c0 -31.333 -11.667 -56.666 -35 -75.999s-57.333 -29 -102 -29h-58v72h51c32 0 48 12 48 36c0 23.333 -15.333 35 -46 35h-33v21l27 73c-48.667 5.33301 -89.5 21 -122.5 47s-51.833 62.333 -56.5 109h112z" />
    <glyph glyph-name="Scaron" unicode="&#x160;" horiz-adv-x="624" 
d="M45 192l121 -0.00195312c20 -66 72.333 -99 157 -99c40.667 0 73.334 9.5 98.001 28.5s37 44.833 37 77.5c0 51.333 -32.667 82.333 -98 93l-122 20c-59.333 8.66699 -104.833 29.167 -136.5 61.5s-47.5 74.166 -47.5 125.499c0 64.667 24.167 117 72.5 157
s108.166 60 179.499 60c70 0 128.833 -17.167 176.5 -51.5s76.5 -83.166 86.5 -146.499h-120c-18 62 -65.667 93 -143 93c-36.667 0 -67.667 -9.16699 -93 -27.5s-38 -43.5 -38 -75.5c0 -46.667 30.667 -75 92 -85l122 -19c126.667 -21.333 190 -86.666 190 -195.999
c0 -68 -23.5 -121.667 -70.5 -161s-109.5 -59 -187.5 -59c-74 0 -136 17.833 -186 53.5s-80 85.834 -90 150.501zM231 932.998l80 -87l80 87h107l-136 -161h-102l-136 161h107z" />
    <glyph glyph-name="scaron" unicode="&#x161;" horiz-adv-x="507" 
d="M152 147c10.667 -44 47.001 -66 109.001 -66c29.333 0 52.333 5.66699 69 17s25 27.333 25 48c0 32 -22.333 50.667 -67 56l-90 12c-99.333 12.667 -149 60.334 -149 143.001c0 48 19.167 87.333 57.5 118s86.5 46 144.5 46c56.667 0 103.5 -13.333 140.5 -40
s59.167 -64 66.5 -112h-111c-12.667 40 -45.334 60 -98.001 60c-26.667 0 -48 -6 -64 -18s-24 -27 -24 -45c0 -30.667 21.333 -48.667 64 -54l91 -11c46 -6 82.833 -21 110.5 -45s41.5 -58.333 41.5 -103c0 -52 -19.333 -92.5 -58 -121.5s-88 -43.5 -148 -43.5
c-58.667 0 -109 13.167 -151 39.5s-65.667 66.166 -71 119.499h112zM179.001 745l75 -88l76 88h107l-132 -162h-102l-132 162h108z" />
    <glyph glyph-name="Tcedilla" unicode="&#x162;" horiz-adv-x="628" 
d="M33 597v106.999h562v-107h-221v-597h-19l-19 -52c22 -2 41.5 -10.667 58.5 -26s25.5 -36.333 25.5 -63c0 -31.333 -11.667 -56.666 -35 -75.999s-57.333 -29 -102 -29h-58v72h51c32 0 48 12 48 36c0 23.333 -15.333 35 -46 35h-33v21l30 82h-20v597h-222z" />
    <glyph glyph-name="tcedilla" unicode="&#x163;" horiz-adv-x="354" 
d="M212 173c0 -28.667 6.33301 -48.168 19 -58.501s30.667 -15.5 54 -15.5h32v-100h-51h-12l-18 -51c22 -2 41.5 -10.667 58.5 -26s25.5 -36.333 25.5 -63c0 -31.333 -11.667 -56.666 -35 -75.999s-57.333 -29 -102 -29h-58v72h51c32 0 48 12 48 36
c0 23.333 -15.333 35 -46 35h-33v21l35 94c-54.667 22 -82 73.333 -82 154v247h-82v97h82v133h114v-133h105v-97h-105v-240z" />
    <glyph glyph-name="Tcaron" unicode="&#x164;" horiz-adv-x="628" 
d="M33 597v107h562v-107h-221v-597h-119v597h-222zM235 933l80 -87l80 87h107l-136 -161h-102l-136 161h107z" />
    <glyph glyph-name="tcaron" unicode="&#x165;" horiz-adv-x="373" 
d="M212 173c0 -28.667 6.33203 -48.167 18.999 -58.5s30.667 -15.5 54 -15.5h32v-100h-51c-57.333 0 -99.666 13.333 -126.999 40s-41 69 -41 127v247h-82v97h82v133h114v-133h105v-97h-105v-240zM400.999 732c0 -16 -3.66699 -33.332 -11 -51.999l-42 -105h-82l38 99
c-30 9.33301 -45 29.666 -45 60.999c0 19.333 6.5 35.333 19.5 48s29.5 19 49.5 19s37.167 -6.66699 51.5 -20s21.5 -30 21.5 -50z" />
    <glyph glyph-name="Tbar" unicode="&#x166;" horiz-adv-x="628" 
d="M533 273h-159v-273h-119v273h-159v98h159v226h-222v107h562v-107h-221v-226h159v-98z" />
    <glyph glyph-name="tbar" unicode="&#x167;" horiz-adv-x="354" 
d="M16 316l81.999 0.000976562v100h-82v94h82v133h113v-133h106v-94h-106v-100h106v-84h-106v-60c0 -28.667 6.33301 -48.334 19 -59.001s30.667 -16 54 -16h33v-98h-51c-57.333 0 -99.666 13.333 -126.999 40s-41 69 -41 127v66h-82v84z" />
    <glyph glyph-name="Utilde" unicode="&#x168;" horiz-adv-x="725" 
d="M76 281v423h119v-420c0 -60 15.333 -106.167 46 -138.5s71 -48.5 121 -48.5c50.667 0 91.167 16.167 121.5 48.5s45.5 78.5 45.5 138.5v420h119v-423c0 -95.333 -26.333 -168 -79 -218s-121.667 -75 -207 -75c-84.667 0 -153.5 25 -206.5 75s-79.5 122.667 -79.5 218z
M460 919h76.998v-20c0 -38.667 -9.5 -68.834 -28.5 -90.501s-44.833 -32.5 -77.5 -32.5c-20 0 -38.667 5 -56 15s-32.333 20.167 -45 30.5s-23.667 15.5 -33 15.5s-17.166 -3.5 -23.499 -10.5s-9.5 -16.833 -9.5 -29.5v-15h-77v20c0 38.667 9.5 68.834 28.5 90.501
s44.5 32.5 76.5 32.5c20.667 0 39.667 -5.16699 57 -15.5s32.333 -20.5 45 -30.5s23.334 -15 32.001 -15c10 0 18.167 3.5 24.5 10.5s9.5 16.833 9.5 29.5v15z" />
    <glyph glyph-name="utilde" unicode="&#x169;" 
d="M513 0h-110v59c-14 -20 -34.167 -36.833 -60.5 -50.5s-56.5 -20.5 -90.5 -20.5c-53.333 0 -97.833 16.5 -133.5 49.5s-53.5 82.833 -53.5 149.5v323h114v-302c0 -38.667 9.33301 -67.834 28 -87.501s44 -29.5 76 -29.5s59.333 10.333 82 31s34 51.334 34 92.001v296h114
v-510zM384 730h77v-18c0 -39.333 -9.5 -70 -28.5 -92s-44.833 -33 -77.5 -33c-20 0 -38.167 5.16699 -54.5 15.5s-30.5 20.666 -42.5 30.999s-22.333 15.5 -31 15.5c-9.33301 0 -17.166 -3.5 -23.499 -10.5s-9.5 -16.833 -9.5 -29.5v-16h-77v19c0 39.333 9.5 70 28.5 92
s44.5 33 76.5 33c20 0 38.333 -5.16699 55 -15.5s31 -20.666 43 -30.999s22.333 -15.5 31 -15.5c9.33301 0 17.166 3.5 23.499 10.5s9.5 16.833 9.5 29.5v15z" />
    <glyph glyph-name="Umacron" unicode="&#x16a;" horiz-adv-x="725" 
d="M76 281v423h119v-420c0 -60 15.333 -106.167 46 -138.5s71 -48.5 121 -48.5c50.667 0 91.167 16.167 121.5 48.5s45.5 78.5 45.5 138.5v420h119v-423c0 -95.333 -26.333 -168 -79 -218s-121.667 -75 -207 -75c-84.667 0 -153.5 25 -206.5 75s-79.5 122.667 -79.5 218z
M204 894h316v-88h-316v88z" />
    <glyph glyph-name="umacron" unicode="&#x16b;" 
d="M513 0h-110v59c-14 -20 -34.167 -36.833 -60.5 -50.5s-56.5 -20.5 -90.5 -20.5c-53.333 0 -97.833 16.5 -133.5 49.5s-53.5 82.833 -53.5 149.5v323h114v-302c0 -38.667 9.33301 -67.834 28 -87.501s44 -29.5 76 -29.5s59.333 10.333 82 31s34 51.334 34 92.001v296h114
v-510zM135 705h308v-88h-308v88z" />
    <glyph glyph-name="Ubreve" unicode="&#x16c;" horiz-adv-x="725" 
d="M76 281v423h119v-420c0 -60 15.333 -106.167 46 -138.5s71 -48.5 121 -48.5c50.667 0 91.167 16.167 121.5 48.5s45.5 78.5 45.5 138.5v420h119v-423c0 -95.333 -26.333 -168 -79 -218s-121.667 -75 -207 -75c-84.667 0 -153.5 25 -206.5 75s-79.5 122.667 -79.5 218z
M282 932c0 -23.333 6.99609 -43 20.9961 -59s33.667 -24 59 -24s45 8 59 24s21 35.667 21 59h93c-1.33301 -48.667 -17.666 -88.167 -48.999 -118.5s-72.666 -45.5 -123.999 -45.5s-92.666 15.167 -123.999 45.5s-47.666 69.833 -48.999 118.5h93z" />
    <glyph glyph-name="ubreve" unicode="&#x16d;" 
d="M513 0h-110v59c-14 -20 -34.167 -36.833 -60.5 -50.5s-56.5 -20.5 -90.5 -20.5c-53.333 0 -97.833 16.5 -133.5 49.5s-53.5 82.833 -53.5 149.5v323h114v-302c0 -38.667 9.33301 -67.834 28 -87.501s44 -29.5 76 -29.5s59.333 10.333 82 31s34 51.334 34 92.001v296h114
v-510zM212 744c0 -24 6.66504 -44 19.998 -60s32.333 -24 57 -24s43.667 8 57 24s20 36 20 60h92c-1.33301 -50 -17.166 -90 -47.499 -120s-70.833 -45 -121.5 -45s-91.167 15 -121.5 45s-46.166 70 -47.499 120h92z" />
    <glyph glyph-name="Uring" unicode="&#x16e;" horiz-adv-x="725" 
d="M76 281v423h119v-420c0 -60 15.333 -106.167 46 -138.5s71 -48.5 121 -48.5c50.667 0 91.167 16.167 121.5 48.5s45.5 78.5 45.5 138.5v420h119v-423c0 -95.333 -26.333 -168 -79 -218s-121.667 -75 -207 -75c-84.667 0 -153.5 25 -206.5 75s-79.5 122.667 -79.5 218z
M476 867c0 -31.333 -10.833 -57.5 -32.5 -78.5s-48.834 -31.5 -81.501 -31.5s-59.834 10.5 -81.501 31.5s-32.5 47.167 -32.5 78.5s10.833 57.5 32.5 78.5s48.834 31.5 81.501 31.5s59.834 -10.5 81.501 -31.5s32.5 -47.167 32.5 -78.5zM317 867
c0 -12.667 4.5 -23.334 13.5 -32.001s19.5 -13 31.5 -13s22.5 4.33301 31.5 13s13.5 19.334 13.5 32.001s-4.5 23.334 -13.5 32.001s-19.5 13 -31.5 13s-22.5 -4.33301 -31.5 -13s-13.5 -19.334 -13.5 -32.001z" />
    <glyph glyph-name="uring" unicode="&#x16f;" 
d="M513 0h-110v59c-14 -20 -34.167 -36.833 -60.5 -50.5s-56.5 -20.5 -90.5 -20.5c-53.333 0 -97.833 16.5 -133.5 49.5s-53.5 82.833 -53.5 149.5v323h114v-302c0 -38.667 9.33301 -67.834 28 -87.501s44 -29.5 76 -29.5s59.333 10.333 82 31s34 51.334 34 92.001v296h114
v-510zM403 678c0 -31.333 -10.833 -57.333 -32.5 -78s-48.834 -31 -81.501 -31s-59.834 10.333 -81.501 31s-32.5 46.667 -32.5 78s10.833 57.5 32.5 78.5s48.834 31.5 81.501 31.5s59.834 -10.5 81.501 -31.5s32.5 -47.167 32.5 -78.5zM244 678
c0 -12.667 4.5 -23.167 13.5 -31.5s19.5 -12.5 31.5 -12.5s22.5 4.16699 31.5 12.5s13.5 18.833 13.5 31.5s-4.5 23.334 -13.5 32.001s-19.5 13 -31.5 13s-22.5 -4.33301 -31.5 -13s-13.5 -19.334 -13.5 -32.001z" />
    <glyph glyph-name="Uhungarumlaut" unicode="&#x170;" horiz-adv-x="725" 
d="M76 281v423h119v-420c0 -60 15.333 -106.167 46 -138.5s71 -48.5 121 -48.5c50.667 0 91.167 16.167 121.5 48.5s45.5 78.5 45.5 138.5v420h119v-423c0 -95.333 -26.333 -168 -79 -218s-121.667 -75 -207 -75c-84.667 0 -153.5 25 -206.5 75s-79.5 122.667 -79.5 218z
M420 933l-99 -161h-98l89 161h108zM601 933l-99 -161h-98l89 161h108z" />
    <glyph glyph-name="uhungarumlaut" unicode="&#x171;" 
d="M513 0h-110v59c-14 -20 -34.167 -36.833 -60.5 -50.5s-56.5 -20.5 -90.5 -20.5c-53.333 0 -97.833 16.5 -133.5 49.5s-53.5 82.833 -53.5 149.5v323h114v-302c0 -38.667 9.33301 -67.834 28 -87.501s44 -29.5 76 -29.5s59.333 10.333 82 31s34 51.334 34 92.001v296h114
v-510zM349 745l-99 -162h-98l88 162h109zM526 745l-99 -162h-98l89 162h108z" />
    <glyph glyph-name="Uogonek" unicode="&#x172;" horiz-adv-x="725" 
d="M76 281v423h119v-420c0 -60 15.333 -106.167 46 -138.5s71 -48.5 121 -48.5c50.667 0 91.167 16.167 121.5 48.5s45.5 78.5 45.5 138.5v420h119v-423c0 -114 -38.333 -196.333 -115 -247l-29.5 -22.5c-16.333 -12.333 -28 -21.5 -35 -27.5s-16.167 -14.667 -27.5 -26
s-19.5 -22 -24.5 -32s-7.5 -20 -7.5 -30c0 -15.333 4.83301 -27.333 14.5 -36s23.5 -13 41.5 -13h36v-81h-59c-43.333 0 -76.5 9.5 -99.5 28.5s-34.5 44.5 -34.5 76.5c0 40.667 21.667 79.667 65 117h-11c-84.667 0 -153.5 25 -206.5 75s-79.5 122.667 -79.5 218z" />
    <glyph glyph-name="uogonek" unicode="&#x173;" 
d="M513 0c-53.333 -35.333 -80 -70 -80 -104c0 -15.333 4.83301 -27.333 14.5 -36s23.5 -13 41.5 -13h36v-81h-59c-43.333 0 -76.5 9.5 -99.5 28.5s-34.5 44.5 -34.5 76.5c0 48.667 24.667 91.667 74 129h-3v59c-14 -20 -34.167 -36.833 -60.5 -50.5
s-56.5 -20.5 -90.5 -20.5c-53.333 0 -97.833 16.5 -133.5 49.5s-53.5 82.833 -53.5 149.5v323h114v-302c0 -38.667 9.33301 -67.834 28 -87.501s44 -29.5 76 -29.5s59.333 10.333 82 31s34 51.334 34 92.001v296h114v-510z" />
    <glyph glyph-name="Wcircumflex" unicode="&#x174;" horiz-adv-x="995" 
d="M970 704l-213 -704h-113l-147 524l-148 -524h-111l-213 704h122l149 -507l146 507h111l146 -507l149 507h122zM417 772h-107l136 161h102l136 -161h-107l-80 88z" />
    <glyph glyph-name="wcircumflex" unicode="&#x175;" horiz-adv-x="792" 
d="M778 510l-163 -510h-111l-109 364l-107 -364h-110l-163 510h117l104 -347l104 347h113l103 -347l104 347h118zM321 583h-108l132 162h102l132 -162h-107l-76 88z" />
    <glyph glyph-name="Ycircumflex" unicode="&#x176;" horiz-adv-x="652" 
d="M386 0h-119v270l-254 434h131l182 -317l182 317h131l-253 -432v-272zM249 772h-107l136 161h102l136 -161h-107l-80 88z" />
    <glyph glyph-name="ycircumflex" unicode="&#x177;" horiz-adv-x="534" 
d="M401 510h123l-275 -701h-122l79 200l-196 501h123l134 -365zM192 583h-108l132 162h102l132 -162h-107l-76 88z" />
    <glyph glyph-name="Ydieresis" unicode="&#x178;" horiz-adv-x="652" 
d="M386 0h-119v270l-254 434h131l182 -317l182 317h131l-253 -432v-272zM219 917c18.667 0 34.667 -6.5 48 -19.5s20 -28.833 20 -47.5s-6.5 -34.5 -19.5 -47.5s-29.167 -19.5 -48.5 -19.5s-35.5 6.5 -48.5 19.5s-19.5 28.833 -19.5 47.5s6.66699 34.5 20 47.5
s29.333 19.5 48 19.5zM440 917c18.667 0 34.667 -6.5 48 -19.5s20 -28.833 20 -47.5s-6.5 -34.5 -19.5 -47.5s-29.167 -19.5 -48.5 -19.5s-35.5 6.5 -48.5 19.5s-19.5 28.833 -19.5 47.5s6.66699 34.5 20 47.5s29.333 19.5 48 19.5z" />
    <glyph glyph-name="Zacute" unicode="&#x179;" horiz-adv-x="623" 
d="M55 96l367 501h-367v107h513v-96l-368 -501h368v-107h-513v96zM471 933l-105 -161h-101l94 161h112z" />
    <glyph glyph-name="zacute" unicode="&#x17a;" horiz-adv-x="500" 
d="M46 0v89l264 321h-264v100h408v-89l-264 -321h264v-100h-408zM409 745l-105 -162h-101l94 162h112z" />
    <glyph glyph-name="Zdotaccent" unicode="&#x17b;" horiz-adv-x="623" 
d="M55 96l367 501h-367v107h513v-96l-368 -501h368v-107h-513v96zM312 920c20 0 36.833 -6.66699 50.5 -20s20.5 -30 20.5 -50c0 -19.333 -6.83301 -35.666 -20.5 -48.999s-30.5 -20 -50.5 -20c-19.333 0 -35.833 6.66699 -49.5 20s-20.5 29.666 -20.5 48.999
c0 20 6.83301 36.667 20.5 50s30.167 20 49.5 20z" />
    <glyph glyph-name="zdotaccent" unicode="&#x17c;" horiz-adv-x="500" 
d="M46 0v89l264 321h-264v100h408v-89l-264 -321h264v-100h-408zM250 731c20 0 36.833 -6.66699 50.5 -20s20.5 -29.666 20.5 -48.999c0 -20 -6.83301 -36.667 -20.5 -50s-30.5 -20 -50.5 -20c-19.333 0 -35.833 6.66699 -49.5 20s-20.5 30 -20.5 50
c0 19.333 6.83301 35.666 20.5 48.999s30.167 20 49.5 20z" />
    <glyph glyph-name="Zcaron" unicode="&#x17d;" horiz-adv-x="623" 
d="M55 96l367 501h-367v107h513v-96l-368 -501h368v-107h-513v96zM232 933l80 -87l80 87h107l-136 -161h-102l-136 161h107z" />
    <glyph glyph-name="zcaron" unicode="&#x17e;" horiz-adv-x="500" 
d="M46 0v89l264 321h-264v100h408v-89l-264 -321h264v-100h-408zM175 745l75 -88l76 88h107l-132 -162h-102l-132 162h108z" />
    <glyph glyph-name="Schwa" unicode="&#x18f;" horiz-adv-x="720" 
d="M47 337l0.00195312 56h501c-1.33301 65.333 -20.833 117.666 -58.5 156.999s-84.834 59 -141.501 59c-80.667 0 -137.667 -33.333 -171 -100h-121c16.667 60.667 50.5 110.334 101.5 149.001s114.833 58 191.5 58c98.667 0 177.167 -33.167 235.5 -99.5
s87.5 -154.5 87.5 -264.5s-28.333 -198.167 -85 -264.5s-132.334 -99.5 -227.001 -99.5c-95.333 0 -171.333 32.667 -228 98s-85 149 -85 251zM360.002 95c54 0 97.498 18 130.498 54s51.833 83.667 56.5 143h-377c2.66699 -58 21.334 -105.333 56.001 -142
s79.334 -55 134.001 -55z" />
    <glyph glyph-name="florin" unicode="&#x192;" horiz-adv-x="512" 
d="M130 451h92l13 78c10 58.667 30.667 102.5 62 131.5s76.666 43.5 135.999 43.5h43v-98h-35c-51.333 0 -82.333 -29.667 -93 -89l-11 -66h93v-96h-108l-55 -338c-10 -58.667 -30.667 -102.5 -62 -131.5s-76.666 -43.5 -135.999 -43.5h-42v98h34
c52.667 0 83.667 29.667 93 89l53 326h-77v96z" />
    <glyph glyph-name="Acaron" unicode="&#x1cd;" horiz-adv-x="680" 
d="M278 704h124l262 -704h-125l-61 167h-278l-58 -167h-125zM339 562l-102 -292h205zM261 933l80 -87l80 87h107l-136 -161h-102l-136 161h107z" />
    <glyph glyph-name="acaron" unicode="&#x1ce;" horiz-adv-x="545" 
d="M368 338c0 28.667 -9.16602 50.834 -27.499 66.501s-42.5 23.5 -72.5 23.5c-54 0 -87.667 -19.667 -101 -59h-108c8 44 30.5 80.5 67.5 109.5s85.5 43.5 145.5 43.5c63.333 0 113.833 -16.333 151.5 -49s56.5 -78.334 56.5 -137.001v-336h-106v58
c-37.333 -46.667 -90 -70 -158 -70c-50.667 0 -92.834 14.5 -126.501 43.5s-50.5 67.833 -50.5 116.5c0 50.667 18.167 90.167 54.5 118.5s86.5 42.5 150.5 42.5h124v29zM241.001 81c35.333 0 65.333 10.168 90 30.501s37 47.166 37 80.499v31h-116
c-30 0 -53.833 -6.16699 -71.5 -18.5s-26.5 -29.833 -26.5 -52.5s8 -40.167 24 -52.5s37 -18.5 63 -18.5zM198.001 745.001l75 -88l76 88h107l-132 -162h-102l-132 162h108z" />
    <glyph glyph-name="Ocaron" unicode="&#x1d1;" horiz-adv-x="755" 
d="M377 716c98.667 0 178.334 -33.833 239.001 -101.5s91 -155.167 91 -262.5s-30.333 -194.833 -91 -262.5s-140.334 -101.5 -239.001 -101.5s-178.334 33.833 -239.001 101.5s-91 155.167 -91 262.5s30.333 194.833 91 262.5s140.334 101.5 239.001 101.5zM377 97
c64 0 114.833 23.6689 152.5 71.002s56.5 108.666 56.5 183.999s-18.833 136.666 -56.5 183.999s-88.5 71 -152.5 71s-114.667 -23.5 -152 -70.5s-56 -108.5 -56 -184.5s18.667 -137.5 56 -184.5s88 -70.5 152 -70.5zM297 933.002l80 -87l80 87h107l-136 -161h-102l-136 161
h107z" />
    <glyph glyph-name="ocaron" unicode="&#x1d2;" 
d="M291 522c74.667 0 135.167 -24.667 181.5 -74s69.5 -113.666 69.5 -192.999s-23.167 -143.666 -69.5 -192.999s-106.833 -74 -181.5 -74s-135.167 24.667 -181.5 74s-69.5 113.666 -69.5 192.999s23.167 143.666 69.5 192.999s106.833 74 181.5 74zM291 89
c41.333 0 74.166 15.333 98.499 46s36.5 70.667 36.5 120s-12.167 89.333 -36.5 120s-57.166 46 -98.499 46s-74.166 -15.333 -98.499 -46s-36.5 -70.667 -36.5 -120s12.167 -89.333 36.5 -120s57.166 -46 98.499 -46zM216 745l75 -88l76 88h107l-132 -162h-102l-132 162
h108z" />
    <glyph glyph-name="Ucaron" unicode="&#x1d3;" horiz-adv-x="725" 
d="M76 281v423h119v-420c0 -60 15.333 -106.167 46 -138.5s71 -48.5 121 -48.5c50.667 0 91.167 16.167 121.5 48.5s45.5 78.5 45.5 138.5v420h119v-423c0 -95.333 -26.333 -168 -79 -218s-121.667 -75 -207 -75c-84.667 0 -153.5 25 -206.5 75s-79.5 122.667 -79.5 218z
M282 933l80 -87l80 87h107l-136 -161h-102l-136 161h107z" />
    <glyph glyph-name="ucaron" unicode="&#x1d4;" 
d="M513 0h-110v59c-14 -20 -34.167 -36.833 -60.5 -50.5s-56.5 -20.5 -90.5 -20.5c-53.333 0 -97.833 16.5 -133.5 49.5s-53.5 82.833 -53.5 149.5v323h114v-302c0 -38.667 9.33301 -67.834 28 -87.501s44 -29.5 76 -29.5s59.333 10.333 82 31s34 51.334 34 92.001v296h114
v-510zM214 745l75 -88l76 88h107l-132 -162h-102l-132 162h108z" />
    <glyph glyph-name="Scommaaccent" unicode="&#x218;" horiz-adv-x="624" 
d="M45 192l121 -0.00195312c20 -66 72.333 -99 157 -99c40.667 0 73.334 9.5 98.001 28.5s37 44.833 37 77.5c0 51.333 -32.667 82.333 -98 93l-122 20c-59.333 8.66699 -104.833 29.167 -136.5 61.5s-47.5 74.166 -47.5 125.499c0 64.667 24.167 117 72.5 157
s108.166 60 179.499 60c70 0 128.833 -17.167 176.5 -51.5s76.5 -83.166 86.5 -146.499h-120c-18 62 -65.667 93 -143 93c-36.667 0 -67.667 -9.16699 -93 -27.5s-38 -43.5 -38 -75.5c0 -46.667 30.667 -75 92 -85l122 -19c126.667 -21.333 190 -86.666 190 -195.999
c0 -68 -23.5 -121.667 -70.5 -161s-109.5 -59 -187.5 -59c-74 0 -136 17.833 -186 53.5s-80 85.834 -90 150.501zM392 -125.002c0 -16 -3.66699 -33.332 -11 -51.999l-42 -105h-82l38 99c-30 9.33301 -45 30 -45 62c0 19.333 6.5 35.166 19.5 47.499s29.5 18.5 49.5 18.5
s37.167 -6.66699 51.5 -20s21.5 -30 21.5 -50z" />
    <glyph glyph-name="scommaaccent" unicode="&#x219;" horiz-adv-x="507" 
d="M152 147c10.667 -44 47.001 -66 109.001 -66c29.333 0 52.333 5.66699 69 17s25 27.333 25 48c0 32 -22.333 50.667 -67 56l-90 12c-99.333 12.667 -149 60.334 -149 143.001c0 48 19.167 87.333 57.5 118s86.5 46 144.5 46c56.667 0 103.5 -13.333 140.5 -40
s59.167 -64 66.5 -112h-111c-12.667 40 -45.334 60 -98.001 60c-26.667 0 -48 -6 -64 -18s-24 -27 -24 -45c0 -30.667 21.333 -48.667 64 -54l91 -11c46 -6 82.833 -21 110.5 -45s41.5 -58.333 41.5 -103c0 -52 -19.333 -92.5 -58 -121.5s-88 -43.5 -148 -43.5
c-58.667 0 -109 13.167 -151 39.5s-65.667 66.166 -71 119.499h112zM333.001 -125c0 -16 -3.66699 -33.332 -11 -51.999l-42 -105h-82l38 99c-30 9.33301 -45 30 -45 62c0 19.333 6.5 35.166 19.5 47.499s29.5 18.5 49.5 18.5s37.167 -6.66699 51.5 -20s21.5 -30 21.5 -50z
" />
    <glyph glyph-name="Tcommaaccent" unicode="&#x21a;" horiz-adv-x="628" 
d="M33 597v107h562v-107h-221v-597h-119v597h-222zM386 -125c0 -16 -3.66699 -33.332 -11 -51.999l-42 -105h-82l38 99c-30 9.33301 -45 30 -45 62c0 19.333 6.5 35.166 19.5 47.499s29.5 18.5 49.5 18.5s37.167 -6.66699 51.5 -20s21.5 -30 21.5 -50z" />
    <glyph glyph-name="tcommaaccent" unicode="&#x21b;" horiz-adv-x="354" 
d="M212 173c0 -28.667 6.33203 -48.167 18.999 -58.5s30.667 -15.5 54 -15.5h32v-100h-51c-57.333 0 -99.666 13.333 -126.999 40s-41 69 -41 127v247h-82v97h82v133h114v-133h105v-97h-105v-240zM278.999 -125c0 -16 -3.66699 -33.332 -11 -51.999l-42 -105h-82l38 99
c-30 9.33301 -45 30 -45 62c0 19.333 6.5 35.166 19.5 47.499s29.5 18.5 49.5 18.5s37.167 -6.66699 51.5 -20s21.5 -30 21.5 -50z" />
    <glyph glyph-name="jdotless" unicode="&#x237;" horiz-adv-x="253" 
d="M-17 -192v96h21c44 0 66 28.333 66 85v521h114v-526c0 -60 -13.5 -104.333 -40.5 -133s-68.5 -43 -124.5 -43h-36z" />
    <glyph glyph-name="schwa" unicode="&#x259;" horiz-adv-x="556" 
d="M40 242l0.00195312 50.999h359v1c0 39.333 -12 71.333 -36 96s-56.333 37 -97 37c-28 0 -51.333 -5.66699 -70 -17s-30.334 -23.666 -35.001 -36.999h-112c7.33301 38 29.666 72.333 66.999 103s87.666 46 150.999 46c76.667 0 137.334 -23.833 182.001 -71.5
s67 -112.5 67 -194.5s-22 -147.167 -66 -195.5s-102.333 -72.5 -175 -72.5c-70.667 0 -127.5 23 -170.5 69s-64.5 107.667 -64.5 185zM276.002 82.999c36 0 64.5 11.167 85.5 33.5s33.167 52.5 36.5 90.5h-245c0.666992 -38 12.167 -68.167 34.5 -90.5
s51.833 -33.5 88.5 -33.5z" />
    <glyph glyph-name="circumflex" unicode="&#x2c6;" horiz-adv-x="520" 
d="M184 583h-108l132 162h102l132 -162h-107l-76 88z" />
    <glyph glyph-name="caron" unicode="&#x2c7;" horiz-adv-x="520" 
d="M185 745l75 -88l76 88h107l-132 -162h-102l-132 162h108z" />
    <glyph glyph-name="breve" unicode="&#x2d8;" horiz-adv-x="520" 
d="M183 744c0 -24 6.66504 -44 19.998 -60s32.333 -24 57 -24s43.667 8 57 24s20 36 20 60h92c-1.33301 -50 -17.166 -90 -47.499 -120s-70.833 -45 -121.5 -45s-91.167 15 -121.5 45s-46.166 70 -47.499 120h92z" />
    <glyph glyph-name="dotaccent" unicode="&#x2d9;" horiz-adv-x="520" 
d="M260 731c20 0 36.833 -6.66699 50.5 -20s20.5 -29.666 20.5 -48.999c0 -20 -6.83301 -36.667 -20.5 -50s-30.5 -20 -50.5 -20c-19.333 0 -35.833 6.66699 -49.5 20s-20.5 30 -20.5 50c0 19.333 6.83301 35.666 20.5 48.999s30.167 20 49.5 20z" />
    <glyph glyph-name="ring" unicode="&#x2da;" horiz-adv-x="520" 
d="M374 678c0 -31.333 -10.833 -57.333 -32.5 -78s-48.834 -31 -81.501 -31s-59.834 10.333 -81.501 31s-32.5 46.667 -32.5 78s10.833 57.5 32.5 78.5s48.834 31.5 81.501 31.5s59.834 -10.5 81.501 -31.5s32.5 -47.167 32.5 -78.5zM215 678
c0 -12.667 4.5 -23.167 13.5 -31.5s19.5 -12.5 31.5 -12.5s22.5 4.16699 31.5 12.5s13.5 18.833 13.5 31.5s-4.5 23.334 -13.5 32.001s-19.5 13 -31.5 13s-22.5 -4.33301 -31.5 -13s-13.5 -19.334 -13.5 -32.001z" />
    <glyph glyph-name="ogonek" unicode="&#x2db;" horiz-adv-x="520" 
d="M345 0c-53.333 -35.333 -80 -70 -80 -104c0 -15.333 4.83301 -27.333 14.5 -36s23.5 -13 41.5 -13h36v-81h-59c-43.333 0 -76.5 9.5 -99.5 28.5s-34.5 44.5 -34.5 76.5c0 31.333 11 61 33 89s48 48.667 78 62z" />
    <glyph glyph-name="tilde" unicode="&#x2dc;" horiz-adv-x="520" 
d="M355 730h77v-18c0 -39.333 -9.5 -70 -28.5 -92s-44.833 -33 -77.5 -33c-20 0 -38.167 5.16699 -54.5 15.5s-30.5 20.666 -42.5 30.999s-22.333 15.5 -31 15.5c-9.33301 0 -17.166 -3.5 -23.499 -10.5s-9.5 -16.833 -9.5 -29.5v-16h-77v19c0 39.333 9.5 70 28.5 92
s44.5 33 76.5 33c20 0 38.333 -5.16699 55 -15.5s31 -20.666 43 -30.999s22.333 -15.5 31 -15.5c9.33301 0 17.166 3.5 23.499 10.5s9.5 16.833 9.5 29.5v15z" />
    <glyph glyph-name="hungarumlaut" unicode="&#x2dd;" horiz-adv-x="520" 
d="M270 745l-99 -162h-98l88 162h109zM447 745l-99 -162h-98l89 162h108z" />
    <glyph glyph-name="gravecomb" unicode="&#x300;" horiz-adv-x="0" 
d="M-159 745h112l94 -162h-101z" />
    <glyph glyph-name="acutecomb" unicode="&#x301;" horiz-adv-x="0" 
d="M159 745l-105 -162h-101l94 162h112z" />
    <glyph glyph-name="circumflexcomb" unicode="&#x302;" horiz-adv-x="0" 
d="M-75 583h-108l132 162h102l132 -162h-107l-76 88z" />
    <glyph glyph-name="tildecomb" unicode="&#x303;" horiz-adv-x="0" 
d="M95 730h77v-18c0 -39.333 -9.5 -70 -28.5 -92s-44.833 -33 -77.5 -33c-20 0 -38.167 5.16699 -54.5 15.5s-30.5 20.666 -42.5 30.999s-22.333 15.5 -31 15.5c-9.33301 0 -17.166 -3.5 -23.499 -10.5s-9.5 -16.833 -9.5 -29.5v-16h-77v19c0 39.333 9.5 70 28.5 92
s44.5 33 76.5 33c20 0 38.333 -5.16699 55 -15.5s31 -20.666 43 -30.999s22.333 -15.5 31 -15.5c9.33301 0 17.166 3.5 23.499 10.5s9.5 16.833 9.5 29.5v15z" />
    <glyph glyph-name="macroncomb" unicode="&#x304;" horiz-adv-x="0" 
d="M-154 705h308v-88h-308v88z" />
    <glyph glyph-name="brevecomb" unicode="&#x306;" horiz-adv-x="0" 
d="M-77 744c0 -24 6.66504 -44 19.998 -60s32.333 -24 57 -24s43.667 8 57 24s20 36 20 60h92c-1.33301 -50 -17.166 -90 -47.499 -120s-70.833 -45 -121.5 -45s-91.167 15 -121.5 45s-46.166 70 -47.499 120h92z" />
    <glyph glyph-name="dotaccentcomb" unicode="&#x307;" horiz-adv-x="0" 
d="M0 731c20 0 36.833 -6.66699 50.5 -20s20.5 -29.666 20.5 -48.999c0 -20 -6.83301 -36.667 -20.5 -50s-30.5 -20 -50.5 -20c-19.333 0 -35.833 6.66699 -49.5 20s-20.5 30 -20.5 50c0 19.333 6.83301 35.666 20.5 48.999s30.167 20 49.5 20z" />
    <glyph glyph-name="dieresiscomb" unicode="&#x308;" horiz-adv-x="0" 
d="M-106 728c19.333 0 35.5 -6.5 48.5 -19.5s19.5 -28.833 19.5 -47.5s-6.5 -34.5 -19.5 -47.5s-29.167 -19.5 -48.5 -19.5s-35.5 6.5 -48.5 19.5s-19.5 28.833 -19.5 47.5s6.5 34.5 19.5 47.5s29.167 19.5 48.5 19.5zM106 728c19.333 0 35.5 -6.5 48.5 -19.5
s19.5 -28.833 19.5 -47.5s-6.5 -34.5 -19.5 -47.5s-29.167 -19.5 -48.5 -19.5s-35.5 6.5 -48.5 19.5s-19.5 28.833 -19.5 47.5s6.5 34.5 19.5 47.5s29.167 19.5 48.5 19.5z" />
    <glyph glyph-name="ringcomb" unicode="&#x30a;" horiz-adv-x="0" 
d="M114 678c0 -31.333 -10.833 -57.333 -32.5 -78s-48.834 -31 -81.501 -31s-59.834 10.333 -81.501 31s-32.5 46.667 -32.5 78s10.833 57.5 32.5 78.5s48.834 31.5 81.501 31.5s59.834 -10.5 81.501 -31.5s32.5 -47.167 32.5 -78.5zM-45 678
c0 -12.667 4.5 -23.167 13.5 -31.5s19.5 -12.5 31.5 -12.5s22.5 4.16699 31.5 12.5s13.5 18.833 13.5 31.5s-4.5 23.334 -13.5 32.001s-19.5 13 -31.5 13s-22.5 -4.33301 -31.5 -13s-13.5 -19.334 -13.5 -32.001z" />
    <glyph glyph-name="hungarumlautcomb" unicode="&#x30b;" horiz-adv-x="0" 
d="M60 745l-99 -162h-98l88 162h109zM237 745l-99 -162h-98l89 162h108z" />
    <glyph glyph-name="caroncomb" unicode="&#x30c;" horiz-adv-x="0" 
d="M-75 745l75 -88l76 88h107l-132 -162h-102l-132 162h108z" />
    <glyph glyph-name="commaturnedabovecomb" unicode="&#x312;" horiz-adv-x="0" 
d="M-71 650c0 16 3.66699 33.332 11 51.999l42 105h82l-38 -99c30 -9.33301 45 -29.666 45 -60.999c0 -19.333 -6.5 -35.333 -19.5 -48s-29.5 -19 -49.5 -19s-37.167 6.66699 -51.5 20s-21.5 30 -21.5 50z" />
    <glyph glyph-name="commaaccentcomb" unicode="&#x326;" horiz-adv-x="0" 
d="M71 -125c0 -16 -3.66699 -33.332 -11 -51.999l-42 -105h-82l38 99c-30 9.33301 -45 30 -45 62c0 19.333 6.5 35.166 19.5 47.499s29.5 18.5 49.5 18.5s37.167 -6.66699 51.5 -20s21.5 -30 21.5 -50z" />
    <glyph glyph-name="cedillacomb" unicode="&#x327;" horiz-adv-x="0" 
d="M40 14v-14.001l-19 -52c22 -2 41.5 -10.667 58.5 -26s25.5 -36.333 25.5 -63c0 -31.333 -11.667 -56.666 -35 -75.999s-57.333 -29 -102 -29h-58v72h51c32 0 48 12 48 36c0 23.333 -15.333 35 -46 35h-33v21l36 96h74z" />
    <glyph glyph-name="ogonekcomb" unicode="&#x328;" horiz-adv-x="0" 
d="M0 0c-53.333 -35.333 -80 -70 -80 -104c0 -15.333 4.83301 -27.333 14.5 -36s23.5 -13 41.5 -13h36v-81h-59c-43.333 0 -76.5 9.5 -99.5 28.5s-34.5 44.5 -34.5 76.5c0 31.333 11 61 33 89s48 48.667 78 62z" />
    <glyph glyph-name="questiongreek" unicode="&#x37e;" horiz-adv-x="278" 
d="M213 58c0 -16 -3.33301 -33.334 -10 -52.001l-63 -166h-87l57 157c-31.333 12 -47 33.667 -47 65c0 20.667 7 37.667 21 51s31.667 20 53 20s39.333 -7.16699 54 -21.5s22 -32.166 22 -53.499zM138 494.999c20.667 0 38.167 -7 52.5 -21s21.5 -31.333 21.5 -52
s-7.16699 -38.167 -21.5 -52.5s-31.833 -21.5 -52.5 -21.5s-38.167 7.16699 -52.5 21.5s-21.5 31.833 -21.5 52.5s7.16699 38 21.5 52s31.833 21 52.5 21z" />
    <glyph glyph-name="tonos" unicode="&#x384;" horiz-adv-x="520" 
d="M363 745l-105 -162h-101l94 162h112z" />
    <glyph glyph-name="dieresistonos" unicode="&#x385;" horiz-adv-x="520" 
d="M119 719c16.667 0 30.834 -5.83301 42.501 -17.5s17.5 -25.834 17.5 -42.501s-5.83301 -30.834 -17.5 -42.501s-25.834 -17.5 -42.501 -17.5s-31 5.83301 -43 17.5s-18 25.834 -18 42.501s6 30.834 18 42.501s26.333 17.5 43 17.5zM334 745l-58 -162h-84l47 162h95z
M401 719c16.667 0 31 -5.83301 43 -17.5s18 -25.834 18 -42.501s-6 -30.834 -18 -42.501s-26.333 -17.5 -43 -17.5s-31 5.83301 -43 17.5s-18 25.834 -18 42.501s6 30.834 18 42.501s26.333 17.5 43 17.5z" />
    <glyph glyph-name="Alphatonos" unicode="&#x386;" horiz-adv-x="682" 
d="M280 704h124l262 -704h-125l-61 167h-278l-58 -167h-125zM341 562l-102 -292h205zM234 704l-104 -161h-102l94 161h112z" />
    <glyph glyph-name="anoteleia" unicode="&#x387;" horiz-adv-x="278" 
d="M139 328c20.667 0 38.167 -7 52.5 -21s21.5 -31.333 21.5 -52s-7.16699 -38.167 -21.5 -52.5s-31.833 -21.5 -52.5 -21.5s-38.167 7.16699 -52.5 21.5s-21.5 31.833 -21.5 52.5s7.16699 38 21.5 52s31.833 21 52.5 21z" />
    <glyph glyph-name="Epsilontonos" unicode="&#x388;" horiz-adv-x="734" 
d="M679 597h-340v-185h321v-104h-321v-201h340v-107h-459v704h459v-107zM191 704l-104 -161h-102l94 161h112z" />
    <glyph glyph-name="Etatonos" unicode="&#x389;" horiz-adv-x="873" 
d="M339 0h-119v704h119v-289h334v289h119v-704h-119v307h-334v-307zM191 704l-104 -161h-102l94 161h112z" />
    <glyph glyph-name="Iotatonos" unicode="&#x38a;" horiz-adv-x="421" 
d="M339 704v-704h-119v704h119zM191 704l-104 -161h-102l94 161h112z" />
    <glyph glyph-name="Omicrontonos" unicode="&#x38c;" horiz-adv-x="827" 
d="M449 716c98.667 0 178.334 -33.833 239.001 -101.5s91 -155.167 91 -262.5s-30.333 -194.833 -91 -262.5s-140.334 -101.5 -239.001 -101.5s-178.334 33.833 -239.001 101.5s-91 155.167 -91 262.5s30.333 194.833 91 262.5s140.334 101.5 239.001 101.5zM449 97
c64 0 114.833 23.6689 152.5 71.002s56.5 108.666 56.5 183.999s-18.833 136.666 -56.5 183.999s-88.5 71 -152.5 71s-114.667 -23.5 -152 -70.5s-56 -108.5 -56 -184.5s18.667 -137.5 56 -184.5s88 -70.5 152 -70.5zM192 704.002l-104 -161h-102l94 161h112z" />
    <glyph glyph-name="Upsilontonos" unicode="&#x38e;" horiz-adv-x="845" 
d="M579 0h-119v270l-254 434h131l182 -317l182 317h131l-253 -432v-272zM191 704l-104 -161h-102l94 161h112z" />
    <glyph glyph-name="Omegatonos" unicode="&#x38f;" horiz-adv-x="839" 
d="M786 377c0 -56.667 -11.6699 -108.334 -35.0029 -155.001s-54.666 -85.667 -93.999 -117h129v-105h-263v115c39.333 24.667 73 59.334 101 104.001s42 95.334 42 152.001c0 69.333 -19 126 -57 170s-89 66 -153 66s-114.833 -21.833 -152.5 -65.5
s-56.5 -100.5 -56.5 -170.5c0 -56.667 14 -107.334 42 -152.001s61.667 -79.334 101 -104.001v-115h-264v105h129c-39.333 31.333 -70.666 70.333 -93.999 117s-35 98.334 -35 155.001c0 99.333 30.5 180.666 91.5 243.999s140.5 95 238.5 95
c98.667 0 178.334 -31.667 239.001 -95s91 -144.666 91 -243.999zM191.997 704l-104 -161h-102l94 161h112z" />
    <glyph glyph-name="iotadieresistonos" unicode="&#x390;" horiz-adv-x="306" 
d="M183 173c0 -28 6.33398 -47.333 19.001 -58s30 -16 52 -16h22v-100h-39c-56.667 0 -98.834 13.333 -126.501 40s-41.5 69 -41.5 127v344h114v-337zM0.000976562 719c16.667 0 30.834 -5.83301 42.501 -17.5s17.5 -25.834 17.5 -42.501s-5.83301 -30.834 -17.5 -42.501
s-25.834 -17.5 -42.501 -17.5s-31 5.83301 -43 17.5s-18 25.834 -18 42.501s6 30.834 18 42.501s26.333 17.5 43 17.5zM215.001 745l-58 -162h-84l47 162h95zM282.001 719c16.667 0 31 -5.83301 43 -17.5s18 -25.834 18 -42.501s-6 -30.834 -18 -42.501
s-26.333 -17.5 -43 -17.5s-31 5.83301 -43 17.5s-18 25.834 -18 42.501s6 30.834 18 42.501s26.333 17.5 43 17.5z" />
    <glyph glyph-name="Alpha" unicode="&#x391;" horiz-adv-x="680" 
d="M278 704h124l262 -704h-125l-61 167h-278l-58 -167h-125zM339 562l-102 -292h205z" />
    <glyph glyph-name="Beta" unicode="&#x392;" horiz-adv-x="640" 
d="M81 0v703.999h272c68.667 0 122 -17.167 160 -51.5s57 -78.166 57 -131.499c0 -38.667 -9 -71.167 -27 -97.5s-39.667 -44.833 -65 -55.5c31.333 -9.33301 59 -28 83 -56s36 -65.333 36 -112c0 -59.333 -21.333 -107.5 -64 -144.5s-99.667 -55.5 -171 -55.5h-281z
M353 311.999h-153.001v-210h149c38.667 0 69.5 9.16699 92.5 27.5s34.5 44.166 34.5 77.499c0 32.667 -11.167 58.334 -33.5 77.001s-52.166 28 -89.499 28zM335.999 601.999l-136 -0.000976562v-192h141c35.333 0 62.333 8.83301 81 26.5s28 40.834 28 69.501
c0 30 -10 53.5 -30 70.5s-48 25.5 -84 25.5z" />
    <glyph glyph-name="Gamma" unicode="&#x393;" horiz-adv-x="567" 
d="M531 597h-331v-597h-119v704h450v-107z" />
    <glyph glyph-name="Delta" unicode="&#x394;" horiz-adv-x="696" 
d="M410 704l271 -704h-665l270 704h124zM348 561l-168 -453h335z" />
    <glyph glyph-name="Epsilon" unicode="&#x395;" horiz-adv-x="595" 
d="M540 597h-340v-185h321v-104h-321v-201h340v-107h-459v704h459v-107z" />
    <glyph glyph-name="Zeta" unicode="&#x396;" horiz-adv-x="623" 
d="M55 96l367 501h-367v107h513v-96l-368 -501h368v-107h-513v96z" />
    <glyph glyph-name="Eta" unicode="&#x397;" horiz-adv-x="734" 
d="M200 0h-119v704h119v-289h334v289h119v-704h-119v307h-334v-307z" />
    <glyph glyph-name="Theta" unicode="&#x398;" horiz-adv-x="755" 
d="M377 716c98.667 0 178.334 -33.833 239.001 -101.5s91 -155.167 91 -262.5s-30.333 -194.833 -91 -262.5s-140.334 -101.5 -239.001 -101.5s-178.334 33.833 -239.001 101.5s-91 155.167 -91 262.5s30.333 194.833 91 262.5s140.334 101.5 239.001 101.5zM377 96
c64.667 0 116 23.667 154 71s57 109 57 185s-19 137.667 -57 185s-89.333 71 -154 71s-115.834 -23.667 -153.501 -71s-56.5 -109 -56.5 -185s18.833 -137.667 56.5 -185s88.834 -71 153.501 -71zM521 309h-288v104h288v-104z" />
    <glyph glyph-name="Iota" unicode="&#x399;" horiz-adv-x="282" 
d="M200 704v-704h-119v704h119z" />
    <glyph glyph-name="Kappa" unicode="&#x39a;" horiz-adv-x="644" 
d="M200 0h-119v704h119v-305l282 305h145l-309 -337l315 -367h-150l-283 324v-324z" />
    <glyph glyph-name="Lambda" unicode="&#x39b;" horiz-adv-x="671" 
d="M20 0l254 704h123l254 -704h-127l-189 549l-189 -549h-126z" />
    <glyph glyph-name="Mu" unicode="&#x39c;" horiz-adv-x="904" 
d="M81 704h147l225 -545l224 545h145v-704h-113v509l-209 -506h-96l-209 506v-509h-114v704z" />
    <glyph glyph-name="Nu" unicode="&#x39d;" horiz-adv-x="740" 
d="M208 704l335 -506v506h115v-704h-114l-347 522v-522h-116v704h127z" />
    <glyph glyph-name="Xi" unicode="&#x39e;" horiz-adv-x="624" 
d="M55 109h513v-109h-513v109zM102 413h419v-106h-419v106zM55 704h513v-109h-513v109z" />
    <glyph glyph-name="Omicron" unicode="&#x39f;" horiz-adv-x="755" 
d="M377 716c98.667 0 178.334 -33.833 239.001 -101.5s91 -155.167 91 -262.5s-30.333 -194.833 -91 -262.5s-140.334 -101.5 -239.001 -101.5s-178.334 33.833 -239.001 101.5s-91 155.167 -91 262.5s30.333 194.833 91 262.5s140.334 101.5 239.001 101.5zM377 97
c64 0 114.833 23.6689 152.5 71.002s56.5 108.666 56.5 183.999s-18.833 136.666 -56.5 183.999s-88.5 71 -152.5 71s-114.667 -23.5 -152 -70.5s-56 -108.5 -56 -184.5s18.667 -137.5 56 -184.5s88 -70.5 152 -70.5z" />
    <glyph glyph-name="Pi" unicode="&#x3a0;" horiz-adv-x="731" 
d="M81 704h569v-704h-119v597h-331v-597h-119v704z" />
    <glyph glyph-name="Rho" unicode="&#x3a1;" horiz-adv-x="622" 
d="M337 704c75.333 0 134.668 -21.668 178.001 -65.001s65 -98.333 65 -165c0 -65.333 -21.833 -120.166 -65.5 -164.499s-101.834 -66.5 -174.501 -66.5h-140v-243h-119v704h256zM325.002 598.999h-125v-252h125c42 0 74.833 11.667 98.5 35s35.5 54 35.5 92
s-11.667 68.333 -35 91s-56.333 34 -99 34z" />
    <glyph glyph-name="Sigma" unicode="&#x3a3;" horiz-adv-x="614" 
d="M558 704v-106h-356l204 -245l-205 -247h358v-106h-504v95l214 257l-213 257v95h502z" />
    <glyph glyph-name="Tau" unicode="&#x3a4;" horiz-adv-x="628" 
d="M33 597v107h562v-107h-221v-597h-119v597h-222z" />
    <glyph glyph-name="Upsilon" unicode="&#x3a5;" horiz-adv-x="652" 
d="M386 0h-119v270l-254 434h131l182 -317l182 317h131l-253 -432v-272z" />
    <glyph glyph-name="Phi" unicode="&#x3a6;" horiz-adv-x="843" 
d="M479 651c90.667 -2 166.834 -29 228.501 -81s92.5 -123.333 92.5 -214s-30.833 -162 -92.5 -214s-137.834 -79 -228.501 -81v-72h-116v72c-90.667 2 -166.667 29 -228 81s-92 123.333 -92 214s30.667 162 92 214s137.333 79 228 81v73h116v-73zM363 165v382.997
c-60.667 -1.33301 -109.5 -19.166 -146.5 -53.499s-55.5 -80.5 -55.5 -138.5c0 -57.333 18.5 -103.166 55.5 -137.499s85.833 -52.166 146.5 -53.499zM479 164.997c60.667 1.33301 109.5 19.1689 146.5 53.502s55.5 80.166 55.5 137.499c0 58 -18.5 104.167 -55.5 138.5
s-85.833 52.166 -146.5 53.499v-383z" />
    <glyph glyph-name="Chi" unicode="&#x3a7;" horiz-adv-x="676" 
d="M513 0l-177 266l-175 -266h-136l238 355l-236 349h137l175 -264l176 264h134l-236 -353l238 -351h-138z" />
    <glyph glyph-name="Psi" unicode="&#x3a8;" horiz-adv-x="853" 
d="M192 454c0 -56.667 14.832 -101.001 44.499 -133.001s73.167 -50 130.5 -54v437h119v-437c56.667 4 100 22 130 54s45 76.333 45 133v250h119v-257c0 -89.333 -26.667 -158.666 -80 -207.999s-124.666 -76 -213.999 -80v-159h-119v159c-90 4 -161.5 30.5 -214.5 79.5
s-79.5 118.5 -79.5 208.5v257h119v-250z" />
    <glyph glyph-name="Omega" unicode="&#x3a9;" horiz-adv-x="765" 
d="M712 377c0 -56.667 -11.6699 -108.334 -35.0029 -155.001s-54.666 -85.667 -93.999 -117h129v-105h-263v115c39.333 24.667 73 59.334 101 104.001s42 95.334 42 152.001c0 69.333 -19 126 -57 170s-89 66 -153 66s-114.833 -21.833 -152.5 -65.5
s-56.5 -100.5 -56.5 -170.5c0 -56.667 14 -107.334 42 -152.001s61.667 -79.334 101 -104.001v-115h-264v105h129c-39.333 31.333 -70.666 70.333 -93.999 117s-35 98.334 -35 155.001c0 99.333 30.5 180.666 91.5 243.999s140.5 95 238.5 95
c98.667 0 178.334 -31.667 239.001 -95s91 -144.666 91 -243.999z" />
    <glyph glyph-name="Iotadieresis" unicode="&#x3aa;" horiz-adv-x="282" 
d="M200 704v-704h-119v704h119zM35 917c19.333 0 35.5 -6.5 48.5 -19.5s19.5 -28.833 19.5 -47.5s-6.5 -34.5 -19.5 -47.5s-29.167 -19.5 -48.5 -19.5s-35.5 6.5 -48.5 19.5s-19.5 28.833 -19.5 47.5s6.5 34.5 19.5 47.5s29.167 19.5 48.5 19.5zM247 917
c19.333 0 35.5 -6.5 48.5 -19.5s19.5 -28.833 19.5 -47.5s-6.5 -34.5 -19.5 -47.5s-29.167 -19.5 -48.5 -19.5s-35.5 6.5 -48.5 19.5s-19.5 28.833 -19.5 47.5s6.5 34.5 19.5 47.5s29.167 19.5 48.5 19.5z" />
    <glyph glyph-name="Upsilondieresis" unicode="&#x3ab;" horiz-adv-x="652" 
d="M386 0h-119v270l-254 434h131l182 -317l182 317h131l-253 -432v-272zM219 917c18.667 0 34.667 -6.5 48 -19.5s20 -28.833 20 -47.5s-6.5 -34.5 -19.5 -47.5s-29.167 -19.5 -48.5 -19.5s-35.5 6.5 -48.5 19.5s-19.5 28.833 -19.5 47.5s6.66699 34.5 20 47.5
s29.333 19.5 48 19.5zM440 917c18.667 0 34.667 -6.5 48 -19.5s20 -28.833 20 -47.5s-6.5 -34.5 -19.5 -47.5s-29.167 -19.5 -48.5 -19.5s-35.5 6.5 -48.5 19.5s-19.5 28.833 -19.5 47.5s6.66699 34.5 20 47.5s29.333 19.5 48 19.5z" />
    <glyph glyph-name="alphatonos" unicode="&#x3ac;" horiz-adv-x="603" 
d="M266 -12c-62.667 0 -115.999 23.668 -159.999 71.001s-66 112.666 -66 195.999s22.167 148.666 66.5 195.999s98.5 71 162.5 71c36.667 0 68.5 -7.16699 95.5 -21.5s46.833 -32.166 59.5 -53.499v63h110v-510h-110v66c-32.667 -52 -85.334 -78 -158.001 -78z
M288.001 421.001c-40 0 -72 -15.167 -96 -45.5s-36 -70.5 -36 -120.5s12 -90.167 36 -120.5s56 -45.5 96 -45.5c40.667 0 73.334 14.833 98.001 44.5s37 69.5 37 119.5v4c0 50 -12.333 89.833 -37 119.5s-57.334 44.5 -98.001 44.5zM453.001 745.001l-105 -162h-101l94 162
h112z" />
    <glyph glyph-name="epsilontonos" unicode="&#x3ad;" horiz-adv-x="518" 
d="M479 364l-109.995 -0.000976562c-8.66699 42.667 -44 64 -106 64c-30 0 -53.167 -5.66699 -69.5 -17s-24.5 -27 -24.5 -47c0 -39.333 30 -59 90 -59h78v-89h-78c-32.667 0 -57.5 -6 -74.5 -18s-25.5 -28.667 -25.5 -50s9.16699 -37.666 27.5 -48.999
s43.166 -17 74.499 -17c69.333 0 107.666 23.333 114.999 70h112c-4.66699 -52.667 -27.834 -93.167 -69.501 -121.5s-94.167 -42.5 -157.5 -42.5c-64.667 0 -116.834 13.667 -156.501 41s-59.5 64.333 -59.5 111c0 34.667 9.66699 62.167 29 82.5s41.333 33.833 66 40.5
c-22.667 7.33301 -42.334 20 -59.001 38s-25 41.333 -25 70c0 44 19.167 80.167 57.5 108.5s87.833 42.5 148.5 42.5c62 0 112.5 -13.833 151.5 -41.5s60.833 -66.5 65.5 -116.5zM422.005 744.999l-105 -162h-101l94 162h112z" />
    <glyph glyph-name="etatonos" unicode="&#x3ae;" 
d="M69 510h109.999v-60c13.333 20 33.333 37 60 51s57.334 21 92.001 21c53.333 0 97.833 -16.667 133.5 -50s53.5 -83 53.5 -149v-514h-114v493c0 38.667 -9.5 67.834 -28.5 87.501s-44.5 29.5 -76.5 29.5s-59.333 -10.333 -82 -31s-34 -51.334 -34 -92.001v-296h-114v510z
M456.999 745l-105 -162h-101l94 162h112z" />
    <glyph glyph-name="iotatonos" unicode="&#x3af;" horiz-adv-x="306" 
d="M183 173c0 -28 6.33398 -47.333 19.001 -58s30 -16 52 -16h22v-100h-39c-56.667 0 -98.834 13.333 -126.501 40s-41.5 69 -41.5 127v344h114v-337zM285.001 745l-105 -162h-101l94 162h112z" />
    <glyph glyph-name="upsilondieresistonos" unicode="&#x3b0;" horiz-adv-x="578" 
d="M399 510h114v-306c0 -68.667 -20.833 -121.834 -62.5 -159.501s-95.5 -56.5 -161.5 -56.5s-119.833 18.833 -161.5 56.5s-62.5 90.834 -62.5 159.501v306h114v-302c0 -38.667 10.167 -68.167 30.5 -88.5s46.833 -30.5 79.5 -30.5s59.167 10.167 79.5 30.5
s30.5 49.833 30.5 88.5v302zM149 719c16.667 0 30.834 -5.83301 42.501 -17.5s17.5 -25.834 17.5 -42.501s-5.83301 -30.834 -17.5 -42.501s-25.834 -17.5 -42.501 -17.5s-31 5.83301 -43 17.5s-18 25.834 -18 42.501s6 30.834 18 42.501s26.333 17.5 43 17.5zM364 745
l-58 -162h-84l47 162h95zM431 719c16.667 0 31 -5.83301 43 -17.5s18 -25.834 18 -42.501s-6 -30.834 -18 -42.501s-26.333 -17.5 -43 -17.5s-31 5.83301 -43 17.5s-18 25.834 -18 42.501s6 30.834 18 42.501s26.333 17.5 43 17.5z" />
    <glyph glyph-name="alpha" unicode="&#x3b1;" horiz-adv-x="603" 
d="M266 -12c-62.667 0 -115.999 23.668 -159.999 71.001s-66 112.666 -66 195.999s22.167 148.666 66.5 195.999s98.5 71 162.5 71c36.667 0 68.5 -7.16699 95.5 -21.5s46.833 -32.166 59.5 -53.499v63h110v-510h-110v66c-32.667 -52 -85.334 -78 -158.001 -78z
M288.001 421.001c-40 0 -72 -15.167 -96 -45.5s-36 -70.5 -36 -120.5s12 -90.167 36 -120.5s56 -45.5 96 -45.5c40.667 0 73.334 14.833 98.001 44.5s37 69.5 37 119.5v4c0 50 -12.333 89.833 -37 119.5s-57.334 44.5 -98.001 44.5z" />
    <glyph glyph-name="beta" unicode="&#x3b2;" horiz-adv-x="608" 
d="M437 393c33.333 -11.333 62.999 -32.3311 88.999 -62.998s39 -71.334 39 -122.001c0 -62 -20.833 -114.167 -62.5 -156.5s-94.5 -63.5 -158.5 -63.5c-71.333 0 -125 24 -161 72v-251h-114v702c0 69.333 22.667 124.666 68 165.999s102 62 170 62
c67.333 0 121.333 -18.667 162 -56s61 -83 61 -137c0 -39.333 -9.16699 -71.833 -27.5 -97.5s-40.166 -44.167 -65.499 -55.5zM321.999 89.002c38 0 68.832 11.666 92.499 34.999s35.5 53.333 35.5 90c0 38 -12.167 67.667 -36.5 89s-58.166 32 -101.499 32h-33v97h27
c36 0 63.333 10 82 30s28 45.333 28 76c0 30 -10 54.167 -30 72.5s-46.667 27.5 -80 27.5c-36 0 -65.5 -11.167 -88.5 -33.5s-34.5 -53.166 -34.5 -92.499v-295c0 -36.667 13.667 -67.167 41 -91.5s60 -36.5 98 -36.5z" />
    <glyph glyph-name="gamma" unicode="&#x3b3;" horiz-adv-x="534" 
d="M524 510l-201 -512v-189h-114v193l-199 508h123l134 -365l134 365h123z" />
    <glyph glyph-name="delta" unicode="&#x3b4;" horiz-adv-x="587" 
d="M268 631c-19.333 0 -34.332 -4.5 -44.999 -13.5s-16 -20.5 -16 -34.5c0 -30 25 -50.667 75 -62c57.333 -12 98 -23.667 122 -35c95.333 -44.667 143 -123.334 143 -236.001c0 -75.333 -23 -137.833 -69 -187.5s-107.667 -74.5 -185 -74.5c-76.667 0 -138 24.333 -184 73
s-69 110.334 -69 185.001c0 57.333 13.167 104.5 39.5 141.5s62.166 62.833 107.499 77.5c-61.333 27.333 -92 70.333 -92 129c0 40.667 15 73.5 45 98.5s69.667 37.5 119 37.5h232v-99h-223zM293.001 87c42 0 75.501 15.333 100.501 46s37.5 69.667 37.5 117
c0 48.667 -12.833 87.334 -38.5 116.001s-58.834 43 -99.501 43s-73.667 -14.333 -99 -43s-38 -67.334 -38 -116.001c0 -47.333 12.333 -86.333 37 -117s58 -46 100 -46z" />
    <glyph glyph-name="epsilon" unicode="&#x3b5;" horiz-adv-x="518" 
d="M479 364l-109.995 -0.000976562c-8.66699 42.667 -44 64 -106 64c-30 0 -53.167 -5.66699 -69.5 -17s-24.5 -27 -24.5 -47c0 -39.333 30 -59 90 -59h78v-89h-78c-32.667 0 -57.5 -6 -74.5 -18s-25.5 -28.667 -25.5 -50s9.16699 -37.666 27.5 -48.999
s43.166 -17 74.499 -17c69.333 0 107.666 23.333 114.999 70h112c-4.66699 -52.667 -27.834 -93.167 -69.501 -121.5s-94.167 -42.5 -157.5 -42.5c-64.667 0 -116.834 13.667 -156.501 41s-59.5 64.333 -59.5 111c0 34.667 9.66699 62.167 29 82.5s41.333 33.833 66 40.5
c-22.667 7.33301 -42.334 20 -59.001 38s-25 41.333 -25 70c0 44 19.167 80.167 57.5 108.5s87.833 42.5 148.5 42.5c62 0 112.5 -13.833 151.5 -41.5s60.833 -66.5 65.5 -116.5z" />
    <glyph glyph-name="zeta" unicode="&#x3b6;" horiz-adv-x="480" 
d="M312 486c-55.333 -54.667 -95.167 -101.166 -119.5 -139.499s-36.5 -76.833 -36.5 -115.5c0 -74 40.333 -117.333 121 -130l33 -5c56 -8 96.167 -23.833 120.5 -47.5s36.5 -61.5 36.5 -113.5v-59h-104v42c0 22 -4.33301 38.833 -13 50.5s-26.334 19.5 -53.001 23.5l-32 4
c-73.333 10 -129.166 34.667 -167.499 74s-57.5 91 -57.5 155c0 40.667 9.83301 81.167 29.5 121.5s42.167 75.166 67.5 104.499s60 65.333 104 108l74 73h-246v98h398v-94z" />
    <glyph glyph-name="eta" unicode="&#x3b7;" 
d="M69 510h109.999v-60c13.333 20 33.333 37 60 51s57.334 21 92.001 21c53.333 0 97.833 -16.667 133.5 -50s53.5 -83 53.5 -149v-514h-114v493c0 38.667 -9.5 67.834 -28.5 87.501s-44.5 29.5 -76.5 29.5s-59.333 -10.333 -82 -31s-34 -51.334 -34 -92.001v-296h-114v510z
" />
    <glyph glyph-name="theta" unicode="&#x3b8;" horiz-adv-x="625" 
d="M312 739c84.667 0 148.834 -33.833 192.501 -101.5s65.5 -158.834 65.5 -273.501s-21.833 -206 -65.5 -274s-107.834 -102 -192.501 -102c-84 0 -147.833 34 -191.5 102s-65.5 159.333 -65.5 274s21.667 205.834 65 273.501s107.333 101.5 192 101.5zM312 89
c88.667 0 136 78.333 142 235h-283c6 -156.667 53 -235 141 -235zM312 639c-84.667 0 -131.667 -72 -141 -216h282c-10 144 -57 216 -141 216z" />
    <glyph glyph-name="iota" unicode="&#x3b9;" horiz-adv-x="306" 
d="M183 173c0 -28 6.33398 -47.333 19.001 -58s30 -16 52 -16h22v-100h-39c-56.667 0 -98.834 13.333 -126.501 40s-41.5 69 -41.5 127v344h114v-337z" />
    <glyph glyph-name="kappa" unicode="&#x3ba;" horiz-adv-x="527" 
d="M183 0h-114v510h114v-212l196 212h135l-220 -239l223 -271h-138l-196 238v-238z" />
    <glyph glyph-name="lambda" unicode="&#x3bb;" horiz-adv-x="534" 
d="M110 730c51.333 0 90.499 -11.833 117.499 -35.5s51.5 -64.167 73.5 -121.5l223 -573h-123l-134 364l-134 -364h-123l196 502l-15 40c-12.667 31.333 -26.167 53.833 -40.5 67.5s-33.166 20.5 -56.499 20.5h-18v100h34z" />
    <glyph glyph-name="uni03BC" unicode="&#x3bc;" horiz-adv-x="590" 
d="M406 510h114.001v-510h-109v60c-14 -20 -34.333 -37 -61 -51s-57.334 -21 -92.001 -21c-28.667 0 -53.667 6.66699 -75 20v-199h-114v701h114v-302c0 -38.667 9.66699 -67.834 29 -87.501s45 -29.5 77 -29.5s59.5 10.333 82.5 31s34.5 51.334 34.5 92.001v296z" />
    <glyph glyph-name="nu" unicode="&#x3bd;" horiz-adv-x="527" 
d="M517 510l-194 -510h-119l-194 510h123l131 -370l131 370h122z" />
    <glyph glyph-name="xi" unicode="&#x3be;" horiz-adv-x="501" 
d="M60 730l412.001 -0.00195312v-98h-152c-38 0 -68 -9.66699 -90 -29s-33 -44.333 -33 -75c0 -29.333 10.333 -52.666 31 -69.999s49.667 -26 87 -26h121v-99h-143c-42 0 -75.333 -10.833 -100 -32.5s-37 -49.834 -37 -84.501c0 -63.333 43 -101.666 129 -114.999l42 -6
c55.333 -8 95 -23.833 119 -47.5s36 -61.167 36 -112.5v-59h-104v42c0 22 -4.16699 38.833 -12.5 50.5s-25.833 19.5 -52.5 23.5l-45 6c-72.667 10.667 -128.834 34.5 -168.501 71.5s-59.5 84.167 -59.5 141.5c0 46.667 13.167 84.834 39.5 114.501s55.833 50.167 88.5 61.5
c-57.333 29.333 -86 72 -86 128c0 24 6.5 46.5 19.5 67.5s29.833 37.5 50.5 49.5h-92v98z" />
    <glyph glyph-name="omicron" unicode="&#x3bf;" 
d="M291 522c74.667 0 135.167 -24.667 181.5 -74s69.5 -113.666 69.5 -192.999s-23.167 -143.666 -69.5 -192.999s-106.833 -74 -181.5 -74s-135.167 24.667 -181.5 74s-69.5 113.666 -69.5 192.999s23.167 143.666 69.5 192.999s106.833 74 181.5 74zM291 89
c41.333 0 74.166 15.333 98.499 46s36.5 70.667 36.5 120s-12.167 89.333 -36.5 120s-57.166 46 -98.499 46s-74.166 -15.333 -98.499 -46s-36.5 -70.667 -36.5 -120s12.167 -89.333 36.5 -120s57.166 -46 98.499 -46z" />
    <glyph glyph-name="pi" unicode="&#x3c0;" horiz-adv-x="627" 
d="M219 0h-114v410h-78v100h573v-100h-78v-410h-114v410h-189v-410z" />
    <glyph glyph-name="rho" unicode="&#x3c1;" horiz-adv-x="592" 
d="M305 522c70.667 0 129.499 -23.3311 176.499 -69.998s70.5 -112.334 70.5 -197.001c0 -82.667 -22.667 -147.834 -68 -195.501s-99 -71.5 -161 -71.5c-68.667 0 -118.667 22.667 -150 68v-247h-114v448c0 84 23.333 149.167 70 195.5s105.334 69.5 176.001 69.5z
M304.999 89.002c39.333 0 71.166 15.167 95.499 45.5s36.5 70.5 36.5 120.5c0 49.333 -12.167 89.333 -36.5 120s-56.166 46 -95.499 46c-41.333 0 -74.166 -14.833 -98.499 -44.5s-36.5 -69.5 -36.5 -119.5v-4c0 -50 12.167 -89.833 36.5 -119.5s57.166 -44.5 98.499 -44.5
z" />
    <glyph glyph-name="sigmafinal" unicode="&#x3c2;" horiz-adv-x="547" 
d="M329 96c57.333 -8.66699 98.334 -24.833 123.001 -48.5s37 -61.167 37 -112.5v-59h-104v42c0 22 -4.33301 38.833 -13 50.5s-26.334 19.5 -53.001 23.5l-33 4c-78 10 -138.5 36.833 -181.5 80.5s-64.5 103.5 -64.5 179.5c0 77.333 22.5 141 67.5 191s104.833 75 179.5 75
c64.667 0 116.667 -18.333 156 -55s62.333 -80 69 -130h-111c-18 56 -56 84 -114 84c-40 0 -71.833 -15 -95.5 -45s-35.5 -69.667 -35.5 -119c0 -89.333 45.333 -141 136 -155z" />
    <glyph glyph-name="sigma" unicode="&#x3c3;" horiz-adv-x="607" 
d="M574 510v-100h-111c51.333 -43.333 77 -99.333 77 -168c0 -73.333 -23.167 -134 -69.5 -182s-106.5 -72 -180.5 -72c-74.667 0 -135 24.5 -181 73.5s-69 112.167 -69 189.5c0 76.667 23 139 69 187s107.667 72 185 72h280zM426 251c0 48 -12 86.499 -36 115.499
s-56.667 43.5 -98 43.5s-74.333 -14.667 -99 -44s-37 -67.666 -37 -114.999c0 -48 12 -87 36 -117s56.667 -45 98 -45s74.333 15 99 45s37 69 37 117z" />
    <glyph glyph-name="tau" unicode="&#x3c4;" horiz-adv-x="498" 
d="M25 410l-0.000976562 100h440v-100h-168v-237c0 -28 6.33301 -47.333 19 -58s30 -16 52 -16h27v-100h-44c-57.333 0 -99.666 13.333 -126.999 40s-41 69 -41 127v244h-158z" />
    <glyph glyph-name="upsilon" unicode="&#x3c5;" horiz-adv-x="578" 
d="M399 510h114v-306c0 -68.667 -20.833 -121.834 -62.5 -159.501s-95.5 -56.5 -161.5 -56.5s-119.833 18.833 -161.5 56.5s-62.5 90.834 -62.5 159.501v306h114v-302c0 -38.667 10.167 -68.167 30.5 -88.5s46.833 -30.5 79.5 -30.5s59.167 10.167 79.5 30.5
s30.5 49.833 30.5 88.5v302z" />
    <glyph glyph-name="phi" unicode="&#x3c6;" horiz-adv-x="741" 
d="M426 521c81.333 -2.66699 147.333 -28.334 198 -77.001s76 -111.667 76 -189s-25.333 -140.333 -76 -189s-116.667 -74.334 -198 -77.001v-180h-112v180c-81.333 2.66699 -147.333 28.334 -198 77.001s-76 111.667 -76 189s25.333 140.333 76 189
s116.667 74.334 198 77.001v189h112v-189zM314 88v333c-46.667 -1.33301 -84.834 -16.666 -114.501 -45.999s-44.5 -69.333 -44.5 -120s14.833 -90.834 44.5 -120.501s67.834 -45.167 114.501 -46.5zM586 255c0 50.667 -15 90.667 -45 120s-68.333 44.666 -115 45.999v-333
c46.667 1.33301 85 16.833 115 46.5s45 69.834 45 120.501z" />
    <glyph glyph-name="chi" unicode="&#x3c7;" horiz-adv-x="534" 
d="M398 -191l-134 256l-131 -256h-123l191 354l-189 347h126l132 -250l130 250h122l-189 -349l191 -352h-126z" />
    <glyph glyph-name="psi" unicode="&#x3c8;" horiz-adv-x="734" 
d="M558 510h114v-268c0 -76 -21.5 -135.5 -64.5 -178.5s-104.833 -67.167 -185.5 -72.5v-182h-110v182c-81.333 5.33301 -143.333 29.5 -186 72.5s-64 102.5 -64 178.5v268h114v-259c0 -96.667 45.333 -149 136 -157v576h110v-576c90.667 8 136 60.333 136 157v259z" />
    <glyph glyph-name="omega" unicode="&#x3c9;" horiz-adv-x="777" 
d="M493 522c71.333 0 129.167 -25.333 173.5 -76s66.5 -114.667 66.5 -192c0 -79.333 -17.667 -143.5 -53 -192.5s-84 -73.5 -146 -73.5c-70 0 -118.667 32.333 -146 97c-27.333 -64.667 -75.666 -97 -144.999 -97c-62 0 -110.667 24.5 -146 73.5s-53 113.167 -53 192.5
c0 77.333 22.167 141.333 66.5 192s102.166 76 173.499 76v-101c-37.333 0 -67.5 -15.5 -90.5 -46.5s-34.5 -71.167 -34.5 -120.5c0 -50.667 8.16699 -90.834 24.5 -120.501s39.833 -44.5 70.5 -44.5c28 0 48.167 11.333 60.5 34s18.5 50.667 18.5 84v139h111v-139
c0 -33.333 6.16699 -61.333 18.5 -84s32.5 -34 60.5 -34c30.667 0 54.167 14.833 70.5 44.5s24.5 69.834 24.5 120.501c0 49.333 -11.5 89.5 -34.5 120.5s-53.167 46.5 -90.5 46.5v101z" />
    <glyph glyph-name="iotadieresis" unicode="&#x3ca;" horiz-adv-x="306" 
d="M183 173c0 -28 6.33398 -47.333 19.001 -58s30 -16 52 -16h22v-100h-39c-56.667 0 -98.834 13.333 -126.501 40s-41.5 69 -41.5 127v344h114v-337zM27.001 728c19.333 0 35.5 -6.5 48.5 -19.5s19.5 -28.833 19.5 -47.5s-6.5 -34.5 -19.5 -47.5s-29.167 -19.5 -48.5 -19.5
s-35.5 6.5 -48.5 19.5s-19.5 28.833 -19.5 47.5s6.5 34.5 19.5 47.5s29.167 19.5 48.5 19.5zM228.001 728c19.333 0 35.5 -6.5 48.5 -19.5s19.5 -28.833 19.5 -47.5s-6.5 -34.5 -19.5 -47.5s-29.167 -19.5 -48.5 -19.5s-35.5 6.5 -48.5 19.5s-19.5 28.833 -19.5 47.5
s6.5 34.5 19.5 47.5s29.167 19.5 48.5 19.5z" />
    <glyph glyph-name="upsilondieresis" unicode="&#x3cb;" horiz-adv-x="578" 
d="M399 510h114v-306c0 -68.667 -20.833 -121.834 -62.5 -159.501s-95.5 -56.5 -161.5 -56.5s-119.833 18.833 -161.5 56.5s-62.5 90.834 -62.5 159.501v306h114v-302c0 -38.667 10.167 -68.167 30.5 -88.5s46.833 -30.5 79.5 -30.5s59.167 10.167 79.5 30.5
s30.5 49.833 30.5 88.5v302zM183 728c19.333 0 35.5 -6.5 48.5 -19.5s19.5 -28.833 19.5 -47.5s-6.5 -34.5 -19.5 -47.5s-29.167 -19.5 -48.5 -19.5s-35.5 6.5 -48.5 19.5s-19.5 28.833 -19.5 47.5s6.5 34.5 19.5 47.5s29.167 19.5 48.5 19.5zM395 728
c19.333 0 35.5 -6.5 48.5 -19.5s19.5 -28.833 19.5 -47.5s-6.5 -34.5 -19.5 -47.5s-29.167 -19.5 -48.5 -19.5s-35.5 6.5 -48.5 19.5s-19.5 28.833 -19.5 47.5s6.5 34.5 19.5 47.5s29.167 19.5 48.5 19.5z" />
    <glyph glyph-name="omicrontonos" unicode="&#x3cc;" 
d="M291 522c74.667 0 135.167 -24.667 181.5 -74s69.5 -113.666 69.5 -192.999s-23.167 -143.666 -69.5 -192.999s-106.833 -74 -181.5 -74s-135.167 24.667 -181.5 74s-69.5 113.666 -69.5 192.999s23.167 143.666 69.5 192.999s106.833 74 181.5 74zM291 89
c41.333 0 74.166 15.333 98.499 46s36.5 70.667 36.5 120s-12.167 89.333 -36.5 120s-57.166 46 -98.499 46s-74.166 -15.333 -98.499 -46s-36.5 -70.667 -36.5 -120s12.167 -89.333 36.5 -120s57.166 -46 98.499 -46zM450 745l-105 -162h-101l94 162h112z" />
    <glyph glyph-name="upsilontonos" unicode="&#x3cd;" horiz-adv-x="578" 
d="M399 510h114v-306c0 -68.667 -20.833 -121.834 -62.5 -159.501s-95.5 -56.5 -161.5 -56.5s-119.833 18.833 -161.5 56.5s-62.5 90.834 -62.5 159.501v306h114v-302c0 -38.667 10.167 -68.167 30.5 -88.5s46.833 -30.5 79.5 -30.5s59.167 10.167 79.5 30.5
s30.5 49.833 30.5 88.5v302zM448 745l-105 -162h-101l94 162h112z" />
    <glyph glyph-name="omegatonos" unicode="&#x3ce;" horiz-adv-x="777" 
d="M493 522c71.333 0 129.167 -25.333 173.5 -76s66.5 -114.667 66.5 -192c0 -79.333 -17.667 -143.5 -53 -192.5s-84 -73.5 -146 -73.5c-70 0 -118.667 32.333 -146 97c-27.333 -64.667 -75.666 -97 -144.999 -97c-62 0 -110.667 24.5 -146 73.5s-53 113.167 -53 192.5
c0 77.333 22.167 141.333 66.5 192s102.166 76 173.499 76v-101c-37.333 0 -67.5 -15.5 -90.5 -46.5s-34.5 -71.167 -34.5 -120.5c0 -50.667 8.16699 -90.834 24.5 -120.501s39.833 -44.5 70.5 -44.5c28 0 48.167 11.333 60.5 34s18.5 50.667 18.5 84v139h111v-139
c0 -33.333 6.16699 -61.333 18.5 -84s32.5 -34 60.5 -34c30.667 0 54.167 14.833 70.5 44.5s24.5 69.834 24.5 120.501c0 49.333 -11.5 89.5 -34.5 120.5s-53.167 46.5 -90.5 46.5v101zM547.001 745l-105 -162h-101l94 162h112z" />
    <glyph glyph-name="cyrIegrave" unicode="&#x400;" horiz-adv-x="595" 
d="M540 597h-340v-185h321v-104h-321v-201h340v-107h-459v704h459v-107zM155 933h112l94 -161h-101z" />
    <glyph glyph-name="afii10023" unicode="&#x401;" horiz-adv-x="595" 
d="M540 597h-340v-185h321v-104h-321v-201h340v-107h-459v704h459v-107zM204 917c18.667 0 34.667 -6.5 48 -19.5s20 -28.833 20 -47.5s-6.5 -34.5 -19.5 -47.5s-29.167 -19.5 -48.5 -19.5s-35.5 6.5 -48.5 19.5s-19.5 28.833 -19.5 47.5s6.66699 34.5 20 47.5
s29.333 19.5 48 19.5zM425 917c18.667 0 34.667 -6.5 48 -19.5s20 -28.833 20 -47.5s-6.5 -34.5 -19.5 -47.5s-29.167 -19.5 -48.5 -19.5s-35.5 6.5 -48.5 19.5s-19.5 28.833 -19.5 47.5s6.66699 34.5 20 47.5s29.333 19.5 48 19.5z" />
    <glyph glyph-name="afii10051" unicode="&#x402;" horiz-adv-x="820" 
d="M539 439c70.667 0 128.167 -20.332 172.5 -60.999s66.5 -95.334 66.5 -164.001c0 -66.667 -20.333 -120 -61 -160s-95.667 -60 -165 -60h-35v106h21c34.667 0 63.167 9.66699 85.5 29s33.5 47.333 33.5 84c0 38 -12.5 67.333 -37.5 88s-58.5 31 -100.5 31
c-58 0 -107.333 -16.333 -148 -49v-283h-119v597h-216v107h554v-107h-219v-205c44 31.333 100 47 168 47z" />
    <glyph glyph-name="afii10052" unicode="&#x403;" horiz-adv-x="567" 
d="M531 597h-331v-597h-119v704h450v-107zM479 933l-105 -161h-101l94 161h112z" />
    <glyph glyph-name="afii10053" unicode="&#x404;" horiz-adv-x="711" 
d="M549 220l119.002 0.00292969c-4 -26.667 -12.833 -52.834 -26.5 -78.501s-31.834 -50.334 -54.501 -74.001s-52.834 -42.834 -90.501 -57.501s-79.5 -22 -125.5 -22c-94 0 -171.5 32.833 -232.5 98.5s-91.5 154.167 -91.5 265.5c0 110 30.167 198.167 90.5 264.5
s138.166 99.5 233.499 99.5c82 0 148.833 -22.333 200.5 -67s83.5 -99.667 95.5 -165h-118c-12 35.333 -32.833 64.833 -62.5 88.5s-68.167 35.5 -115.5 35.5c-54 0 -98.833 -17.5 -134.5 -52.5s-57.167 -83.5 -64.5 -145.5h279v-102h-281
c6 -66 26.833 -117.833 62.5 -155.5s81.5 -56.5 137.5 -56.5c50.667 0 90.834 12.667 120.501 38s49.167 54 58.5 86z" />
    <glyph glyph-name="afii10054" unicode="&#x405;" horiz-adv-x="624" 
d="M45 192l121 -0.00195312c20 -66 72.333 -99 157 -99c40.667 0 73.334 9.5 98.001 28.5s37 44.833 37 77.5c0 51.333 -32.667 82.333 -98 93l-122 20c-59.333 8.66699 -104.833 29.167 -136.5 61.5s-47.5 74.166 -47.5 125.499c0 64.667 24.167 117 72.5 157
s108.166 60 179.499 60c70 0 128.833 -17.167 176.5 -51.5s76.5 -83.166 86.5 -146.499h-120c-18 62 -65.667 93 -143 93c-36.667 0 -67.667 -9.16699 -93 -27.5s-38 -43.5 -38 -75.5c0 -46.667 30.667 -75 92 -85l122 -19c126.667 -21.333 190 -86.666 190 -195.999
c0 -68 -23.5 -121.667 -70.5 -161s-109.5 -59 -187.5 -59c-74 0 -136 17.833 -186 53.5s-80 85.834 -90 150.501z" />
    <glyph glyph-name="afii10055" unicode="&#x406;" horiz-adv-x="282" 
d="M200 704v-704h-119v704h119z" />
    <glyph glyph-name="afii10056" unicode="&#x407;" horiz-adv-x="282" 
d="M200 704v-704h-119v704h119zM35 917c19.333 0 35.5 -6.5 48.5 -19.5s19.5 -28.833 19.5 -47.5s-6.5 -34.5 -19.5 -47.5s-29.167 -19.5 -48.5 -19.5s-35.5 6.5 -48.5 19.5s-19.5 28.833 -19.5 47.5s6.5 34.5 19.5 47.5s29.167 19.5 48.5 19.5zM247 917
c19.333 0 35.5 -6.5 48.5 -19.5s19.5 -28.833 19.5 -47.5s-6.5 -34.5 -19.5 -47.5s-29.167 -19.5 -48.5 -19.5s-35.5 6.5 -48.5 19.5s-19.5 28.833 -19.5 47.5s6.5 34.5 19.5 47.5s29.167 19.5 48.5 19.5z" />
    <glyph glyph-name="afii10057" unicode="&#x408;" horiz-adv-x="558" 
d="M28 192l115.999 0.00195312c2.66699 -24 12.834 -45.833 30.501 -65.5s42.834 -29.5 75.501 -29.5c36.667 0 64.334 12.167 83.001 36.5s28 57.166 28 98.499v472h119v-473c0 -76.667 -20.333 -136.334 -61 -179.001s-97.334 -64 -170.001 -64
c-67.333 0 -120.833 20 -160.5 60s-59.834 88 -60.501 144z" />
    <glyph glyph-name="afii10058" unicode="&#x409;" horiz-adv-x="1045" 
d="M762 455c74.667 0 133.67 -21.333 177.003 -64s65 -97 65 -163c0 -65.333 -21.833 -119.666 -65.5 -162.999s-101.5 -65 -173.5 -65h-258v597h-230l-24 -351c-2.66699 -38.667 -7.83398 -72.334 -15.501 -101.001s-19.334 -54.5 -35.001 -77.5
s-36.834 -40.333 -63.501 -52s-58.667 -17.5 -96 -17.5h-33v108h17c38.667 0 66.167 11.333 82.5 34s26.5 60.667 30.5 114l30 450h456v-249h136zM750.003 350l-124 -0.000976562v-245h124c41.333 0 73.833 11.333 97.5 34s35.5 52.334 35.5 89.001
c0 37.333 -11.667 67 -35 89s-56 33 -98 33z" />
    <glyph glyph-name="afii10059" unicode="&#x40a;" horiz-adv-x="1066" 
d="M200 0h-119v704h119v-272h331v272h119v-269h137c72.667 0 130.5 -20 173.5 -60s64.5 -92.333 64.5 -157c0 -64 -21.333 -116.333 -64 -157s-99.667 -61 -171 -61h-259v326h-331v-326zM775 330l-124.999 0.000976562v-226h125c39.333 0 70.666 10.167 93.999 30.5
s35 48.166 35 83.499s-11.5 62.833 -34.5 82.5s-54.5 29.5 -94.5 29.5z" />
    <glyph glyph-name="afii10060" unicode="&#x40b;" horiz-adv-x="833" 
d="M36 597l-0.000976562 107.001h554v-107h-219v-206c44 31.333 98 47 162 47c72.667 0 130.334 -21.333 173.001 -64s64 -107.334 64 -194.001v-180h-119v178c0 101.333 -46.333 152 -139 152c-54 0 -101 -16 -141 -48v-282h-119v597h-216z" />
    <glyph glyph-name="afii10061" unicode="&#x40c;" horiz-adv-x="644" 
d="M200 0h-119v704h119v-305l282 305h145l-309 -337l315 -367h-150l-283 324v-324zM490 933l-105 -161h-101l94 161h112z" />
    <glyph glyph-name="cyrIgrave" unicode="&#x40d;" horiz-adv-x="740" 
d="M658 704v-704h-117v515l-342 -515h-118v704h118v-516l342 516h117zM211 929h112l94 -161h-101z" />
    <glyph glyph-name="afii10062" unicode="&#x40e;" horiz-adv-x="660" 
d="M17 704h129l192 -383l179 383h126l-334 -704h-127l94 197zM253 932c0 -23.333 6.99609 -43 20.9961 -59s33.667 -24 59 -24s45 8 59 24s21 35.667 21 59h93c-1.33301 -48.667 -17.666 -88.167 -48.999 -118.5s-72.666 -45.5 -123.999 -45.5s-92.666 15.167 -123.999 45.5
s-47.666 69.833 -48.999 118.5h93z" />
    <glyph glyph-name="afii10145" unicode="&#x40f;" horiz-adv-x="731" 
d="M81 0v704h119v-596h331v596h119v-704h-227v-153h-115v153h-227z" />
    <glyph glyph-name="afii10017" unicode="&#x410;" horiz-adv-x="680" 
d="M278 704h124l262 -704h-125l-61 167h-278l-58 -167h-125zM339 562l-102 -292h205z" />
    <glyph glyph-name="afii10018" unicode="&#x411;" horiz-adv-x="620" 
d="M527 597h-327v-165h148c70.667 0 126.667 -19.5 168 -58.5s62 -91.167 62 -156.5c0 -63.333 -21 -115.333 -63 -156s-97.333 -61 -166 -61h-268v704h446v-107zM332 331l-132 0.000976562v-227h132c38.667 0 69.167 10.167 91.5 30.5s33.5 48.166 33.5 83.499
s-11.167 63 -33.5 83s-52.833 30 -91.5 30z" />
    <glyph glyph-name="afii10019" unicode="&#x412;" horiz-adv-x="640" 
d="M81 0v703.999h272c68.667 0 122 -17.167 160 -51.5s57 -78.166 57 -131.499c0 -38.667 -9 -71.167 -27 -97.5s-39.667 -44.833 -65 -55.5c31.333 -9.33301 59 -28 83 -56s36 -65.333 36 -112c0 -59.333 -21.333 -107.5 -64 -144.5s-99.667 -55.5 -171 -55.5h-281z
M353 311.999h-153.001v-210h149c38.667 0 69.5 9.16699 92.5 27.5s34.5 44.166 34.5 77.499c0 32.667 -11.167 58.334 -33.5 77.001s-52.166 28 -89.499 28zM335.999 601.999l-136 -0.000976562v-192h141c35.333 0 62.333 8.83301 81 26.5s28 40.834 28 69.501
c0 30 -10 53.5 -30 70.5s-48 25.5 -84 25.5z" />
    <glyph glyph-name="afii10020" unicode="&#x413;" horiz-adv-x="567" 
d="M531 597h-331v-597h-119v704h450v-107z" />
    <glyph glyph-name="afii10021" unicode="&#x414;" horiz-adv-x="749" 
d="M722 108v-242h-114v134h-484v-134h-114v242h55c24 16.667 41.667 43.5 53 80.5s19.333 90.167 24 159.5l23 356h471v-596h86zM256 348c-4.66699 -68.667 -11.167 -120.5 -19.5 -155.5s-21.833 -63.167 -40.5 -84.5h321v489h-245z" />
    <glyph glyph-name="afii10022" unicode="&#x415;" horiz-adv-x="595" 
d="M540 597h-340v-185h321v-104h-321v-201h340v-107h-459v704h459v-107z" />
    <glyph glyph-name="afii10024" unicode="&#x416;" horiz-adv-x="953" 
d="M418 0v332l-263 -332h-141l288 365l-282 339h140l258 -308v308h117v-308l258 308h140l-282 -337l289 -367h-142l-263 332v-332h-117z" />
    <glyph glyph-name="afii10025" unicode="&#x417;" horiz-adv-x="608" 
d="M46 515c6 63.333 33.002 112.667 81.002 148s105.333 53 172 53c72 0 130 -18.167 174 -54.5s66 -83.833 66 -142.5c0 -37.333 -9.83301 -69.333 -29.5 -96s-42.834 -44.667 -69.501 -54c30 -8 58.333 -26 85 -54s40 -65.333 40 -112c0 -63.333 -23.667 -115 -71 -155
s-109.333 -60 -186 -60c-76 0 -138.167 18.5 -186.5 55.5s-75.833 87.833 -82.5 152.5h118c6 -30 22 -54.333 48 -73s60.333 -28 103 -28c42 0 75.167 10 99.5 30s36.5 46.667 36.5 80c0 34.667 -12.333 60.5 -37 77.5s-57.667 25.5 -99 25.5h-101v104h91
c39.333 0 69.166 9 89.499 27s30.5 42 30.5 72s-11 53.833 -33 71.5s-51 26.5 -87 26.5c-36.667 0 -67 -8.16699 -91 -24.5s-39 -39.5 -45 -69.5h-116z" />
    <glyph glyph-name="afii10026" unicode="&#x418;" horiz-adv-x="740" 
d="M658 704v-704h-117v515l-342 -515h-118v704h118v-516l342 516h117z" />
    <glyph glyph-name="afii10027" unicode="&#x419;" horiz-adv-x="740" 
d="M658 704v-704h-117v515l-342 -515h-118v704h118v-516l342 516h117zM290 928c0 -23.333 6.99609 -43 20.9961 -59s33.667 -24 59 -24s45 8 59 24s21 35.667 21 59h93c-1.33301 -48.667 -17.666 -88.167 -48.999 -118.5s-72.666 -45.5 -123.999 -45.5
s-92.666 15.167 -123.999 45.5s-47.666 69.833 -48.999 118.5h93z" />
    <glyph glyph-name="afii10028" unicode="&#x41a;" horiz-adv-x="644" 
d="M200 0h-119v704h119v-305l282 305h145l-309 -337l315 -367h-150l-283 324v-324z" />
    <glyph glyph-name="afii10029" unicode="&#x41b;" horiz-adv-x="708" 
d="M10 -2l0.00292969 108.001h17c38.667 0 66.167 11.333 82.5 34s26.5 60.667 30.5 114l30 450h456v-704h-119v597h-230l-24 -351c-2.66699 -38.667 -7.83398 -72.334 -15.501 -101.001s-19.334 -54.5 -35.001 -77.5s-36.834 -40.333 -63.501 -52s-58.667 -17.5 -96 -17.5
h-33z" />
    <glyph glyph-name="afii10030" unicode="&#x41c;" horiz-adv-x="904" 
d="M81 704h147l225 -545l224 545h145v-704h-113v509l-209 -506h-96l-209 506v-509h-114v704z" />
    <glyph glyph-name="afii10031" unicode="&#x41d;" horiz-adv-x="734" 
d="M200 0h-119v704h119v-289h334v289h119v-704h-119v307h-334v-307z" />
    <glyph glyph-name="afii10032" unicode="&#x41e;" horiz-adv-x="755" 
d="M377 716c98.667 0 178.334 -33.833 239.001 -101.5s91 -155.167 91 -262.5s-30.333 -194.833 -91 -262.5s-140.334 -101.5 -239.001 -101.5s-178.334 33.833 -239.001 101.5s-91 155.167 -91 262.5s30.333 194.833 91 262.5s140.334 101.5 239.001 101.5zM377 97
c64 0 114.833 23.6689 152.5 71.002s56.5 108.666 56.5 183.999s-18.833 136.666 -56.5 183.999s-88.5 71 -152.5 71s-114.667 -23.5 -152 -70.5s-56 -108.5 -56 -184.5s18.667 -137.5 56 -184.5s88 -70.5 152 -70.5z" />
    <glyph glyph-name="afii10033" unicode="&#x41f;" horiz-adv-x="731" 
d="M81 704h569v-704h-119v597h-331v-597h-119v704z" />
    <glyph glyph-name="afii10034" unicode="&#x420;" horiz-adv-x="622" 
d="M337 704c75.333 0 134.668 -21.668 178.001 -65.001s65 -98.333 65 -165c0 -65.333 -21.833 -120.166 -65.5 -164.499s-101.834 -66.5 -174.501 -66.5h-140v-243h-119v704h256zM325.002 598.999h-125v-252h125c42 0 74.833 11.667 98.5 35s35.5 54 35.5 92
s-11.667 68.333 -35 91s-56.333 34 -99 34z" />
    <glyph glyph-name="afii10035" unicode="&#x421;" horiz-adv-x="710" 
d="M548 231h119.996c-3.33301 -28.667 -11.666 -56.834 -24.999 -84.501s-31.666 -53.5 -54.999 -77.5s-54 -43.5 -92 -58.5s-80 -22.5 -126 -22.5c-94.667 0 -172.167 33.5 -232.5 100.5s-90.5 154.833 -90.5 263.5c0 107.333 30 194.833 90 262.5s137.667 101.5 233 101.5
c84 0 151.667 -22.833 203 -68.5s82.333 -103.5 93 -173.5h-119c-10.667 39.333 -30.667 71.333 -60 96s-68.333 37 -117 37c-60.667 0 -109.334 -23.5 -146.001 -70.5s-55 -108.5 -55 -184.5c0 -75.333 18.333 -136.666 55 -183.999s85.334 -71 146.001 -71
c50.667 0 91.334 13.667 122.001 41s49.334 58.333 56.001 93z" />
    <glyph glyph-name="afii10036" unicode="&#x422;" horiz-adv-x="628" 
d="M33 597v107h562v-107h-221v-597h-119v597h-222z" />
    <glyph glyph-name="afii10037" unicode="&#x423;" horiz-adv-x="660" 
d="M17 704h129l192 -383l179 383h126l-334 -704h-127l94 197z" />
    <glyph glyph-name="afii10038" unicode="&#x424;" horiz-adv-x="843" 
d="M479 651c90.667 -2 166.834 -29 228.501 -81s92.5 -123.333 92.5 -214s-30.833 -162 -92.5 -214s-137.834 -79 -228.501 -81v-72h-116v72c-90.667 2 -166.667 29 -228 81s-92 123.333 -92 214s30.667 162 92 214s137.333 79 228 81v73h116v-73zM363 165v382.997
c-60.667 -1.33301 -109.5 -19.166 -146.5 -53.499s-55.5 -80.5 -55.5 -138.5c0 -57.333 18.5 -103.166 55.5 -137.499s85.833 -52.166 146.5 -53.499zM479 164.997c60.667 1.33301 109.5 19.1689 146.5 53.502s55.5 80.166 55.5 137.499c0 58 -18.5 104.167 -55.5 138.5
s-85.833 52.166 -146.5 53.499v-383z" />
    <glyph glyph-name="afii10039" unicode="&#x425;" horiz-adv-x="676" 
d="M513 0l-177 266l-175 -266h-136l238 355l-236 349h137l175 -264l176 264h134l-236 -353l238 -351h-138z" />
    <glyph glyph-name="afii10040" unicode="&#x426;" horiz-adv-x="760" 
d="M734 108v-242h-115v134h-538v704h119v-596h329v596h119v-596h86z" />
    <glyph glyph-name="afii10041" unicode="&#x427;" horiz-adv-x="678" 
d="M478 704h119v-704h-119v290c-39.333 -24 -91 -36 -155 -36c-77.333 0 -140.833 22.833 -190.5 68.5s-74.5 112.834 -74.5 201.501v180h119v-177c0 -54.667 15 -95.834 45 -123.501s69.667 -41.5 119 -41.5c53.333 0 99 12.333 137 37v305z" />
    <glyph glyph-name="afii10042" unicode="&#x428;" horiz-adv-x="988" 
d="M553 704v-596h234v596h119v-704h-825v704h119v-596h234v596h119z" />
    <glyph glyph-name="afii10043" unicode="&#x429;" horiz-adv-x="1019" 
d="M992 108v-242h-114v134h-797v704h119v-596h234v596h119v-596h234v596h119v-596h86z" />
    <glyph glyph-name="afii10044" unicode="&#x42a;" horiz-adv-x="724" 
d="M441 455c74.667 0 133.667 -21.334 177 -64.001s65 -97 65 -163c0 -65.333 -21.833 -119.666 -65.5 -162.999s-101.5 -65 -173.5 -65h-258v596h-153v108h272v-249h136zM429 349.999l-124 -0.000976562v-245h124c41.333 0 73.833 11.333 97.5 34s35.5 52.334 35.5 89.001
c0 37.333 -11.833 67 -35.5 89s-56.167 33 -97.5 33z" />
    <glyph glyph-name="afii10045" unicode="&#x42b;" horiz-adv-x="850" 
d="M336 455c74.667 0 133.667 -21.334 177 -64.001s65 -97 65 -163c0 -65.333 -21.833 -119.666 -65.5 -162.999s-101.5 -65 -173.5 -65h-258v704h119v-249h136zM769 703.999v-704h-119v704h119zM324 349.999l-124 -0.000976562v-245h124c41.333 0 73.833 11.333 97.5 34
s35.5 52.334 35.5 89.001c0 37.333 -11.667 67 -35 89s-56 33 -98 33z" />
    <glyph glyph-name="afii10046" unicode="&#x42c;" horiz-adv-x="619" 
d="M336 455c74.667 0 133.667 -21.334 177 -64.001s65 -97 65 -163c0 -65.333 -21.833 -119.666 -65.5 -162.999s-101.5 -65 -173.5 -65h-258v704h119v-249h136zM324 349.999l-124 -0.000976562v-245h124c41.333 0 73.833 11.333 97.5 34s35.5 52.334 35.5 89.001
c0 37.333 -11.667 67 -35 89s-56 33 -98 33z" />
    <glyph glyph-name="afii10047" unicode="&#x42d;" horiz-adv-x="711" 
d="M260 308v101.997h279c-8 62 -29.667 110.5 -65 145.5s-79.666 52.5 -132.999 52.5c-47.333 0 -86 -11.833 -116 -35.5s-50.667 -53.167 -62 -88.5h-118c12 65.333 43.833 120.333 95.5 165s118.5 67 200.5 67c96 0 173.833 -32.833 233.5 -98.5
s89.5 -154.167 89.5 -265.5s-30.5 -199.833 -91.5 -265.5s-138.5 -98.5 -232.5 -98.5c-46 0 -87.833 7.33301 -125.5 22s-67.834 33.834 -90.501 57.501s-40.834 48.334 -54.501 74.001s-22.5 51.834 -26.5 78.501h119c9.33301 -32 28.833 -60.667 58.5 -86
s69.834 -38 120.501 -38c55.333 0 101 19 137 57s56.667 89.667 62 155h-280z" />
    <glyph glyph-name="afii10048" unicode="&#x42e;" horiz-adv-x="998" 
d="M200 0h-119v704h119v-289h103c11.333 90.667 45.833 163.5 103.5 218.5s130.5 82.5 218.5 82.5c98 0 176.667 -33.833 236 -101.5s89 -155.167 89 -262.5s-29.667 -194.833 -89 -262.5s-138 -101.5 -236 -101.5c-90.667 0 -165.167 29.333 -223.5 88
s-91.833 135.667 -100.5 231h-101v-307zM625 97c63.333 0 113.166 23.5 149.499 70.5s54.5 108.5 54.5 184.5s-18.167 137.5 -54.5 184.5s-86.166 70.5 -149.499 70.5c-64 0 -114.167 -23.5 -150.5 -70.5s-54.5 -108.5 -54.5 -184.5s18.167 -137.5 54.5 -184.5
s86.5 -70.5 150.5 -70.5z" />
    <glyph glyph-name="afii10049" unicode="&#x42f;" horiz-adv-x="643" 
d="M155 0l-134 0.000976562l172 271c-40.667 18 -72.667 45 -96 81s-35 77.333 -35 124c0 67.333 22 122.166 66 164.499s103 63.5 177 63.5h257v-704h-119v249h-131zM183 476.001c0 -36.667 12.001 -66.499 36.001 -89.499s57.333 -34.5 100 -34.5h124v247h-125
c-42.667 0 -75.834 -11.333 -99.501 -34s-35.5 -52.334 -35.5 -89.001z" />
    <glyph glyph-name="afii10065" unicode="&#x430;" horiz-adv-x="545" 
d="M368 338c0 28.667 -9.16602 50.834 -27.499 66.501s-42.5 23.5 -72.5 23.5c-54 0 -87.667 -19.667 -101 -59h-108c8 44 30.5 80.5 67.5 109.5s85.5 43.5 145.5 43.5c63.333 0 113.833 -16.333 151.5 -49s56.5 -78.334 56.5 -137.001v-336h-106v58
c-37.333 -46.667 -90 -70 -158 -70c-50.667 0 -92.834 14.5 -126.501 43.5s-50.5 67.833 -50.5 116.5c0 50.667 18.167 90.167 54.5 118.5s86.5 42.5 150.5 42.5h124v29zM241.001 81c35.333 0 65.333 10.168 90 30.501s37 47.166 37 80.499v31h-116
c-30 0 -53.833 -6.16699 -71.5 -18.5s-26.5 -29.833 -26.5 -52.5s8 -40.167 24 -52.5s37 -18.5 63 -18.5z" />
    <glyph glyph-name="afii10066" unicode="&#x431;" horiz-adv-x="598" 
d="M330 506c67.333 0 122.169 -23.001 164.502 -69.001s63.5 -108.333 63.5 -187c0 -74 -22.5 -136.167 -67.5 -186.5s-104.5 -75.5 -178.5 -75.5c-82.667 0 -147.334 27.833 -194.001 83.5s-70 133.167 -70 232.5c0 122 19.333 214.5 58 277.5s103.667 102.833 195 119.5
l207 38v-104l-190 -31c-52.667 -9.33301 -91.334 -28.166 -116.001 -56.499s-39.667 -69.833 -45 -124.5c38 55.333 95.667 83 173 83zM306.003 86.999c42 0 75.166 15.165 99.499 45.498s36.5 69.5 36.5 117.5c0 46.667 -12.167 84.834 -36.5 114.501
s-57.166 44.5 -98.499 44.5s-75 -14.167 -101 -42.5s-39 -66.5 -39 -114.5c0 -49.333 12.5 -89.166 37.5 -119.499s58.833 -45.5 101.5 -45.5z" />
    <glyph glyph-name="afii10067" unicode="&#x432;" horiz-adv-x="527" 
d="M69 0l-0.000976562 510h229c54.667 0 96.334 -12.333 125.001 -37s43 -56.334 43 -95.001c0 -28 -6.83301 -51.167 -20.5 -69.5s-30.5 -31.5 -50.5 -39.5c26 -7.33301 47.833 -21.666 65.5 -42.999s26.5 -48.333 26.5 -81c0 -42.667 -15.833 -77.5 -47.5 -104.5
s-75.5 -40.5 -131.5 -40.5h-239zM293.999 218l-113 -0.000976562v-130h113c25.333 0 44.833 5.83301 58.5 17.5s20.5 27.834 20.5 48.501c0 42.667 -26.333 64 -79 64zM283.999 421.999l-103 -0.000976562v-118h103c22 0 39.167 5.33301 51.5 16s18.5 25.334 18.5 44.001
c0 38.667 -23.333 58 -70 58z" />
    <glyph glyph-name="afii10068" unicode="&#x433;" horiz-adv-x="451" 
d="M419 410h-236v-410h-114v510h350v-100z" />
    <glyph glyph-name="afii10069" unicode="&#x434;" horiz-adv-x="623" 
d="M595 100v-228h-110v128h-360v-128h-110v228h41c30 16.667 49 69.667 57 159l19 251h389v-410h74zM221 255c-6 -78.667 -20.333 -130.333 -43 -155h229v310h-174z" />
    <glyph glyph-name="afii10070" unicode="&#x435;" horiz-adv-x="556" 
d="M516 222l-359 0.000976562v-2c0 -39.333 12.667 -72 38 -98s58.333 -39 99 -39c28 0 51.167 5.83301 69.5 17.5s29.833 24.167 34.5 37.5h112c-8 -38.667 -30.5 -73.334 -67.5 -104.001s-87.167 -46 -150.5 -46c-76 0 -137 23.833 -183 71.5s-69 112.5 -69 194.5
s22.667 147.167 68 195.5s104.333 72.5 177 72.5c70 0 126 -23 168 -69s63 -107.333 63 -184v-47zM284 427.001c-36 0 -65.168 -10.667 -87.501 -32s-35.166 -50.333 -38.499 -87h244c-1.33301 37.333 -12.5 66.5 -33.5 87.5s-49.167 31.5 -84.5 31.5z" />
    <glyph glyph-name="afii10072" unicode="&#x436;" horiz-adv-x="761" 
d="M436 510v-216l178 216h131l-198 -240l201 -270h-134l-178 240v-240h-112v240l-178 -240h-133l200 267l-198 243h131l178 -216v216h112z" />
    <glyph glyph-name="afii10073" unicode="&#x437;" horiz-adv-x="505" 
d="M45 367c5.33301 48.667 27.835 86.665 67.502 113.998s87.5 41 143.5 41c54.667 0 99.667 -13.333 135 -40s53 -62 53 -106c0 -53.333 -24.667 -90.333 -74 -111c24.667 -5.33301 46.5 -17.833 65.5 -37.5s28.5 -46.5 28.5 -80.5c0 -47.333 -19.5 -85.666 -58.5 -114.999
s-89.5 -44 -151.5 -44c-60 0 -109.667 14.333 -149 43s-62.333 68.334 -69 119.001h111c5.33301 -22 17.5 -38.833 36.5 -50.5s42.5 -17.5 70.5 -17.5c29.333 0 52.666 6.16699 69.999 18.5s26 29.5 26 51.5c0 41.333 -31.667 62 -95 62h-75v90h69
c26.667 0 47.167 5.5 61.5 16.5s21.5 26.5 21.5 46.5c0 19.333 -7.5 34.333 -22.5 45s-34.833 16 -59.5 16c-26 0 -47.333 -5.66699 -64 -17s-27.334 -26 -32.001 -44h-109z" />
    <glyph glyph-name="afii10074" unicode="&#x438;" horiz-adv-x="591" 
d="M522 510v-510h-112v339l-231 -339h-110v510h112v-340l231 340h110z" />
    <glyph glyph-name="afii10075" unicode="&#x439;" horiz-adv-x="591" 
d="M522 510v-510h-112v339l-231 -339h-110v510h112v-340l231 340h110zM219 741c0 -24 6.66504 -44 19.998 -60s32.333 -24 57 -24s43.667 8 57 24s20 36 20 60h92c-1.33301 -50 -17.166 -90 -47.499 -120s-70.833 -45 -121.5 -45s-91.167 15 -121.5 45
s-46.166 70 -47.499 120h92z" />
    <glyph glyph-name="afii10076" unicode="&#x43a;" horiz-adv-x="527" 
d="M183 0h-114v510h114v-212l196 212h135l-220 -239l223 -271h-138l-196 238v-238z" />
    <glyph glyph-name="afii10077" unicode="&#x43b;" horiz-adv-x="583" 
d="M15 -2v100h16c28 0 47.833 7.83301 59.5 23.5s19.167 43.167 22.5 82.5l25 306h375v-510h-114v410h-161l-17 -214c-5.33301 -70 -21.833 -120.5 -49.5 -151.5s-69.5 -46.5 -125.5 -46.5h-31z" />
    <glyph glyph-name="afii10078" unicode="&#x43c;" horiz-adv-x="748" 
d="M69 510h144l162 -370l162 370h142v-510h-110v349l-153 -347h-84l-153 346v-348h-110v510z" />
    <glyph glyph-name="afii10079" unicode="&#x43d;" horiz-adv-x="585" 
d="M183 0h-114v510h114v-196h219v196h114v-510h-114v213h-219v-213z" />
    <glyph glyph-name="afii10080" unicode="&#x43e;" 
d="M291 522c74.667 0 135.167 -24.667 181.5 -74s69.5 -113.666 69.5 -192.999s-23.167 -143.666 -69.5 -192.999s-106.833 -74 -181.5 -74s-135.167 24.667 -181.5 74s-69.5 113.666 -69.5 192.999s23.167 143.666 69.5 192.999s106.833 74 181.5 74zM291 89
c41.333 0 74.166 15.333 98.499 46s36.5 70.667 36.5 120s-12.167 89.333 -36.5 120s-57.166 46 -98.499 46s-74.166 -15.333 -98.499 -46s-36.5 -70.667 -36.5 -120s12.167 -89.333 36.5 -120s57.166 -46 98.499 -46z" />
    <glyph glyph-name="afii10081" unicode="&#x43f;" 
d="M69 510h444v-510h-114v410h-216v-410h-114v510z" />
    <glyph glyph-name="afii10082" unicode="&#x440;" horiz-adv-x="603" 
d="M337 522c63.333 0 116.832 -23.6689 160.499 -71.002s65.5 -112.666 65.5 -195.999s-22.167 -148.666 -66.5 -195.999s-98.5 -71 -162.5 -71c-35.333 0 -66.166 6.5 -92.499 19.5s-45.833 29.5 -58.5 49.5v-248h-114v701h110v-66c32 52 84.667 78 158 78zM314.999 88.998
c40 0 72.167 15.167 96.5 45.5s36.5 70.5 36.5 120.5c0 49.333 -12.167 89.333 -36.5 120s-56.5 46 -96.5 46c-40.667 0 -73.334 -14.833 -98.001 -44.5s-37 -69.5 -37 -119.5v-4c0 -50 12.333 -89.833 37 -119.5s57.334 -44.5 98.001 -44.5z" />
    <glyph glyph-name="afii10083" unicode="&#x441;" horiz-adv-x="549" 
d="M288 89c33.333 0 59.166 8.33203 77.499 24.999s30.5 36.667 36.5 60h111c-6 -52 -29.333 -96 -70 -132s-92.667 -54 -156 -54c-74 0 -133.667 24.833 -179 74.5s-68 113.834 -68 192.501c0 78 22.5 142 67.5 192s104.833 75 179.5 75
c64.667 0 116.667 -18.167 156 -54.5s62.333 -79.5 69 -129.5h-111c-7.33301 22.667 -20.166 42.167 -38.499 58.5s-43.5 24.5 -75.5 24.5c-40 0 -71.833 -15.333 -95.5 -46s-35.5 -70.667 -35.5 -120c0 -50 12 -90.167 36 -120.5s56 -45.5 96 -45.5z" />
    <glyph glyph-name="afii10084" unicode="&#x442;" horiz-adv-x="498" 
d="M29 410v100h440v-100h-163v-410h-114v410h-163z" />
    <glyph glyph-name="afii10085" unicode="&#x443;" horiz-adv-x="534" 
d="M401 510h123l-275 -701h-122l79 200l-196 501h123l134 -365z" />
    <glyph glyph-name="afii10086" unicode="&#x444;" horiz-adv-x="727" 
d="M420 521c78 -2.66699 142 -28.334 192 -77.001s75 -111.667 75 -189s-25 -140.333 -75 -189s-114 -74.334 -192 -77.001v-180h-112v180c-78.667 2.66699 -143 28.334 -193 77.001s-75 111.667 -75 189s25 140.333 75 189s114.333 74.334 193 77.001v189h112v-189zM308 88
v334.002c-43.333 -1.33301 -79.666 -16.833 -108.999 -46.5s-44 -69.834 -44 -120.501s14.667 -90.834 44 -120.501s65.666 -45.167 108.999 -46.5zM573 255.002c0 50.667 -14.667 90.833 -44 120.5s-65.666 45.167 -108.999 46.5v-334c43.333 1.33301 79.666 17 108.999 47
s44 70 44 120z" />
    <glyph glyph-name="afii10087" unicode="&#x445;" horiz-adv-x="533" 
d="M383 0l-120 176l-118 -176h-127l177 255l-175 255h131l119 -179l117 179h126l-176 -258l178 -252h-132z" />
    <glyph glyph-name="afii10088" unicode="&#x446;" horiz-adv-x="612" 
d="M584 100v-228h-109v128h-406v510h114v-410h214v410h114v-410h73z" />
    <glyph glyph-name="afii10089" unicode="&#x447;" horiz-adv-x="548" 
d="M365 510h114.001v-510h-114v201c-30 -17.333 -68 -26 -114 -26c-59.333 0 -107.333 17.333 -144 52s-55 85.667 -55 153v130h114v-122c0 -75.333 37 -113 111 -113c33.333 0 62.666 6.66699 87.999 20v215z" />
    <glyph glyph-name="afii10090" unicode="&#x448;" horiz-adv-x="816" 
d="M465 510v-410h168v410h114v-510h-678v510h114v-410h168v410h114z" />
    <glyph glyph-name="afii10091" unicode="&#x449;" horiz-adv-x="849" 
d="M821 100v-228h-110v128h-642v510h114v-410h168v410h114v-410h168v410h114v-410h74z" />
    <glyph glyph-name="afii10092" unicode="&#x44a;" horiz-adv-x="603" 
d="M277 510v-155h102c56.667 0 102 -16.5 136 -49.5s51 -75.167 51 -126.5c0 -52 -17.167 -94.833 -51.5 -128.5s-79.5 -50.5 -135.5 -50.5h-215v412h-135v98h248zM365 259h-88v-164h88c27.333 0 48.833 8 64.5 24s23.5 36 23.5 60s-7.83301 43.333 -23.5 58
s-37.167 22 -64.5 22z" />
    <glyph glyph-name="afii10093" unicode="&#x44b;" horiz-adv-x="718" 
d="M182 510v-155h102c56.667 0 102 -16.5 136 -49.5s51 -75.167 51 -126.5c0 -52 -17.167 -94.833 -51.5 -128.5s-79.5 -50.5 -135.5 -50.5h-215v510h113zM649 510v-510h-113v510h113zM270 259h-88v-164h88c27.333 0 48.833 8 64.5 24s23.5 36 23.5 60
s-7.83301 43.333 -23.5 58s-37.167 22 -64.5 22z" />
    </font>
</defs>
</svg>
