<?xml version="1.0" encoding="utf-8"?>
<!-- Generator: Adobe Illustrator 15.0.2, SVG Export Plug-In . SVG Version: 6.00 Build 0)  -->
<!DOCTYPE svg PUBLIC "-//W3C//DTD SVG 1.1//EN" "http://www.w3.org/Graphics/SVG/1.1/DTD/svg11.dtd">
<svg version="1.1" id="Layer_1" xmlns="http://www.w3.org/2000/svg" xmlns:xlink="http://www.w3.org/1999/xlink" x="0px" y="0px"
	 width="200px" height="200px" viewBox="0 0 200 200" enable-background="new 0 0 200 200" xml:space="preserve">
<g>
	<path fill="#11305D" d="M144.67,154.113H45.687c-0.276,0-0.5,0.224-0.5,0.5c0,0.275,0.224,0.5,0.5,0.5h98.983
		c0.275,0,0.5-0.225,0.5-0.5C145.17,154.337,144.945,154.113,144.67,154.113z"/>
	<path fill="#11305D" d="M165.992,154.113h-15.303c-0.276,0-0.5,0.224-0.5,0.5c0,0.275,0.224,0.5,0.5,0.5h15.303
		c0.275,0,0.5-0.225,0.5-0.5C166.492,154.337,166.27,154.113,165.992,154.113z"/>
	<path fill="#11305D" d="M164.576,35.113h-61.393c-1.058,0-1.916,0.861-1.916,1.92v52.595l-8.531,10.037
		c-0.126,0.148-0.155,0.357-0.073,0.534c0.082,0.177,0.259,0.29,0.454,0.29h71.458c1.057,0,1.916-0.861,1.916-1.92V37.033
		C166.492,35.974,165.633,35.113,164.576,35.113z M165.492,98.568c0,0.507-0.411,0.92-0.916,0.92H94.2l7.948-9.353
		c0.078-0.09,0.119-0.205,0.119-0.324V37.033c0-0.507,0.412-0.92,0.916-0.92h61.394c0.505,0,0.916,0.413,0.916,0.92L165.492,98.568
		L165.492,98.568z"/>
	<path fill="#11305D" d="M149.701,53.336h-28.336c-0.276,0-0.5,0.224-0.5,0.5v28.401c0,0.276,0.224,0.5,0.5,0.5h28.336
		c0.275,0,0.5-0.224,0.5-0.5V53.836C150.201,53.56,149.979,53.336,149.701,53.336z M149.201,81.737h-27.336V54.336h27.336V81.737z"
		/>
	<path fill="#11305D" d="M135.215,72.651c0.094,0.094,0.221,0.147,0.354,0.147c0.014,0,0.025,0,0.039-0.001
		c0.146-0.011,0.279-0.085,0.365-0.204l9.592-13.128c0.162-0.223,0.113-0.536-0.108-0.699c-0.222-0.162-0.535-0.115-0.698,0.109
		l-9.246,12.656l-4.584-4.595c-0.197-0.196-0.513-0.195-0.707-0.001c-0.195,0.195-0.195,0.512-0.002,0.707L135.215,72.651z"/>
	<path fill="#11305D" d="M76.984,144.18H60.435c-0.276,0-0.5,0.225-0.5,0.5c0,0.276,0.224,0.5,0.5,0.5h16.549
		c0.276,0,0.5-0.224,0.5-0.5C77.484,144.404,77.26,144.18,76.984,144.18z"/>
	<path fill="#11305D" d="M62.141,110.291c10.434,0,18.923-8.471,18.923-18.881V79.882c0-10.412-8.489-18.883-18.923-18.883
		c-10.435,0-18.925,8.471-18.925,18.883V91.41C43.216,101.82,51.706,110.291,62.141,110.291z M44.216,79.882
		c0-9.861,8.041-17.883,17.925-17.883c9.883,0,17.923,8.022,17.923,17.883V91.41c0,9.859-8.04,17.881-17.923,17.881
		c-9.884,0-17.925-8.021-17.925-17.881V79.882z"/>
	<path fill="#11305D" d="M46.866,120.965v17.281c0,1.729,1.409,3.135,3.142,3.135h24.267c1.732,0,3.142-1.406,3.142-3.135v-17.281
		h5.118c0.584,0,1.16,0.033,1.729,0.088v29.324c0,0.275,0.224,0.5,0.5,0.5c0.276,0,0.5-0.225,0.5-0.5v-29.184
		c8.589,1.32,15.194,8.722,15.194,17.654v11.528c0,0.276,0.224,0.5,0.5,0.5s0.5-0.224,0.5-0.5v-11.528
		c0-10.412-8.489-18.884-18.923-18.884h-5.618c-0.276,0-0.5,0.224-0.5,0.5v17.781c0,1.177-0.961,2.135-2.142,2.135H50.007
		c-1.181,0-2.142-0.958-2.142-2.135v-17.781c0-0.276-0.224-0.5-0.5-0.5h-5.62c-10.434,0-18.923,8.472-18.923,18.884v11.528
		c0,0.276,0.224,0.5,0.5,0.5c0.276,0,0.5-0.224,0.5-0.5v-11.528c0-8.934,6.605-16.336,15.194-17.654v29.184
		c0,0.275,0.224,0.5,0.5,0.5s0.5-0.225,0.5-0.5v-29.324c0.569-0.055,1.145-0.088,1.729-0.088H46.866L46.866,120.965z"/>
</g>
</svg>
