<?xml version="1.0" encoding="utf-8"?>
<!-- Generator: Adobe Illustrator 15.0.2, SVG Export Plug-In . SVG Version: 6.00 Build 0)  -->
<!DOCTYPE svg PUBLIC "-//W3C//DTD SVG 1.1//EN" "http://www.w3.org/Graphics/SVG/1.1/DTD/svg11.dtd">
<svg version="1.1" id="Layer_1" xmlns="http://www.w3.org/2000/svg" xmlns:xlink="http://www.w3.org/1999/xlink" x="0px" y="0px"
	 width="144px" height="144px" viewBox="0 0 144 144" enable-background="new 0 0 144 144" xml:space="preserve">
<g>
	<circle cx="102.938" cy="114.188" r="2.312"/>
	<path d="M109.704,102.755l-13.563-4.521l-5.052-10.103l0.25-0.255c4.294-4.37,7.206-10.062,8.2-16.026l0.668-4.006h5.543
		c4.377,0,7.938-3.561,7.938-7.938V42.188C113.688,19.201,94.987,0.5,72,0.5c-22.987,0-41.688,18.701-41.688,41.688v17.719
		c0,3.353,2.126,6.359,5.292,7.481l0.333,0.118v3.65c0,4.377,3.561,7.938,7.938,7.938h2.79l0.134,0.291
		c1.206,2.618,2.767,5.035,4.641,7.186c0.392,0.45,0.8,0.886,1.219,1.312l0.25,0.255l-5.049,10.097l-13.564,4.521
		c-15.345,5.117-26.483,21.28-26.483,38.433c0,1.275,1.038,2.312,2.312,2.312h123.75c1.275,0,2.312-1.037,2.312-2.312
		C136.188,124.035,125.05,107.872,109.704,102.755z M91.995,100.287l-0.068,0.198c-1.736,5.025-3.865,9.963-6.328,14.675
		l-0.314,0.604l-10.373-10.373l12.844-13.583L91.995,100.287z M71.639,102.119l-7.043-7.045l1.646,0.347
		c3.39,0.714,6.844,0.796,10.277,0.232l1.463-0.24L71.639,102.119z M109.062,59.906c0,1.826-1.486,3.312-3.312,3.312h-4.862
		l0.073-0.564c0.713-5.517,1.19-11.46,1.38-17.187l0.026-0.968h6.695V59.906z M35.046,39.337C36.496,20.153,52.728,5.125,72,5.125
		c19.255,0,35.487,15.027,36.954,34.212l0.042,0.538h-6.556l-0.007-0.493C102.234,24.146,89.712,11.75,74.517,11.75h-5.033
		c-15.195,0-27.718,12.396-27.916,27.632l-0.006,0.493h-6.556L35.046,39.337z M38.25,63.219c-1.827,0-3.312-1.486-3.312-3.312V44.5
		h6.694l0.045,1.366c0.194,5.583,0.665,11.377,1.362,16.789l0.073,0.563H38.25z M43.875,74.469c-1.827,0-3.312-1.486-3.312-3.312
		v-3.312h3.229l0.668,4.006c0.11,0.656,0.248,1.33,0.41,2.002l0.148,0.617H43.875z M46.315,37.329
		c1.229-11.946,11.188-20.954,23.167-20.954h5.034c6.223,0,12.076,2.441,16.481,6.875c4.397,4.426,6.818,10.293,6.814,16.521
		c0,0.889-0.007,1.663-0.022,2.367l-0.013,0.563L97.22,42.65l-3.518-0.502c-9.664-1.38-18.787-5.941-25.692-12.847
		c-0.437-0.437-1.018-0.677-1.635-0.677c-7.337,0-14.506,3.392-19.177,9.072l-1.053,1.281L46.315,37.329z M52.258,79.85
		l-0.451-0.756h6.967l0.118,0.333c1.123,3.165,4.13,5.292,7.483,5.292H72c4.376,0,7.938-3.561,7.938-7.938S76.376,68.844,72,68.844
		h-5.625c-3.362,0-6.371,2.126-7.487,5.291l-0.118,0.334h-8.928l-0.107-0.356c-1.465-4.875-3.055-18.986-3.396-27.42l-0.007-0.178
		l3.893-5.189c3.579-4.771,9.05-7.701,15.01-8.042l0.217-0.013l0.157,0.149c7.484,7.122,17.229,11.849,27.439,13.307l4.591,0.656
		l-0.021,0.454c-0.278,5.89-0.852,11.852-1.659,17.24c-0.176,1.203-0.328,2.109-0.574,3.576l-0.406,2.435
		c-1.566,9.392-8.691,17.458-17.328,19.616c-1.842,0.46-3.742,0.693-5.65,0.693c-1.907,0-3.808-0.233-5.648-0.693
		C60.661,89.281,55.524,85.325,52.258,79.85z M63.062,76.781c0-1.826,1.486-3.312,3.312-3.312H72c1.827,0,3.312,1.486,3.312,3.312
		S73.827,80.094,72,80.094h-5.625C64.548,80.094,63.062,78.607,63.062,76.781z M55.758,92.779L68.46,105.48l-9.736,10.298
		l-0.324-0.622c-2.465-4.718-4.594-9.653-6.327-14.671l-0.068-0.198L55.758,92.779z M12.508,138.875l0.043-0.54
		c1.135-14.188,10.678-27.016,23.207-31.193l12.301-4.1l0.166,0.459c2.155,5.961,4.837,11.778,7.97,17.288
		c2.303,4.051,4.882,7.989,7.68,11.731l3.96,6.354H12.508z M72,136.813l-4.238-6.805c-0.035-0.057-0.074-0.112-0.114-0.168
		c-2.277-3.037-4.419-6.237-6.365-9.509l-0.193-0.325l10.643-11.253l11.207,11.205l-0.197,0.335
		c-1.961,3.299-4.111,6.512-6.391,9.55c-0.066,0.089-0.082,0.113-0.838,1.331L72,136.813z M76.165,138.875l3.936-6.319
		c2.836-3.793,5.433-7.762,7.742-11.831l0.045-0.085c3.094-5.455,5.746-11.222,7.887-17.139l0.166-0.459l12.301,4.1
		c12.529,4.178,22.072,17.005,23.207,31.193l0.043,0.54H76.165z"/>
	<path d="M114.229,117.724c-0.407-0.314-0.895-0.48-1.407-0.48c-0.725,0-1.394,0.329-1.834,0.903
		c-0.377,0.49-0.541,1.097-0.461,1.709s0.394,1.157,0.883,1.533c2.719,2.092,4.968,4.822,6.502,7.896
		c0.556,1.111,1.982,1.595,3.103,1.034c1.141-0.569,1.605-1.961,1.035-3.103C120.205,123.522,117.501,120.24,114.229,117.724z"/>
</g>
</svg>
