<svg width="92" height="92" viewBox="0 0 92 92" fill="none" xmlns="http://www.w3.org/2000/svg">
<path d="M65.7652 74.4308C66.581 74.4308 67.2423 73.7695 67.2423 72.9537C67.2423 72.1379 66.581 71.4766 65.7652 71.4766C64.9494 71.4766 64.2881 72.1379 64.2881 72.9537C64.2881 73.7695 64.9494 74.4308 65.7652 74.4308Z" fill="#11305D"/>
<path d="M70.0882 65.6489L61.423 62.7605L58.1953 56.3058L58.355 56.1429C61.0984 53.3509 62.9589 49.7144 63.5939 45.9041L64.0207 43.3447H67.5621C70.3585 43.3447 72.6336 41.0696 72.6336 38.2732V26.9533C72.6336 12.2672 60.6857 0.319336 45.9996 0.319336C31.3134 0.319336 19.3656 12.2672 19.3656 26.9533V38.2738C19.3656 40.416 20.7239 42.3365 22.7466 43.0533L22.9593 43.1287V45.4607C22.9593 48.2571 25.2344 50.5322 28.0308 50.5322H29.8133L29.8989 50.7181C30.6694 52.3907 31.6667 53.9349 32.864 55.3091C33.1145 55.5966 33.3751 55.8752 33.6428 56.1474L33.8025 56.3103L30.5768 62.7611L21.9109 65.6496C12.1072 68.9188 4.99121 79.2451 4.99121 90.204C4.99121 91.0186 5.65438 91.6811 6.46832 91.6811H85.5308C86.3454 91.6811 87.0079 91.0186 87.0079 90.204C87.0086 79.2445 79.8926 68.9181 70.0882 65.6489ZM58.7742 64.0721L58.7307 64.1986C57.6216 67.4091 56.2614 70.5639 54.6878 73.5743L54.4872 73.9602L47.86 67.333L56.0659 58.655L58.7742 64.0721ZM45.7689 65.2426L41.2692 60.7416L42.3208 60.9633C44.4867 61.4195 46.6934 61.4719 48.8867 61.1115L49.8214 60.9582L45.7689 65.2426ZM69.6781 38.2732C69.6781 39.4398 68.7287 40.3892 67.5621 40.3892H64.4558L64.5024 40.0288C64.958 36.5041 65.2627 32.7072 65.3841 29.0483L65.4007 28.4298H69.6781V38.2732ZM22.3901 25.1319C23.3165 12.8754 33.6869 3.2742 45.9996 3.2742C58.3014 3.2742 68.6718 12.8748 69.6091 25.1319L69.6359 25.4756H65.4473L65.4429 25.1606C65.3157 15.4265 57.3156 7.50684 47.6077 7.50684H44.3921C34.6842 7.50684 26.6834 15.4265 26.5569 25.1606L26.5531 25.4756H22.3645L22.3901 25.1319ZM24.4371 40.3898C23.2698 40.3898 22.3211 39.4404 22.3211 38.2738V28.4304H26.5978L26.6265 29.3032C26.7505 32.8701 27.0514 36.5718 27.4967 40.0295L27.5434 40.3892H24.4371V40.3898ZM28.0308 47.5773C26.8636 47.5773 25.9148 46.6279 25.9148 45.4613V43.3453H27.9778L28.4046 45.9047C28.4748 46.3238 28.563 46.7544 28.6665 47.1838L28.7611 47.5779H28.0308V47.5773ZM29.5897 23.849C30.3749 16.2168 36.7376 10.4617 44.3909 10.4617H47.607C51.5828 10.4617 55.3222 12.0212 58.1365 14.8541C60.9457 17.6818 62.4925 21.4301 62.4899 25.4091C62.4899 25.9771 62.4855 26.4716 62.4759 26.9214L62.4676 27.2811L62.1124 27.2485L59.8647 26.9278C53.6905 26.0461 47.8619 23.1321 43.4504 18.72C43.1712 18.4408 42.8 18.2874 42.4058 18.2874C37.7183 18.2874 33.1381 20.4546 30.1539 24.0834L29.4811 24.9019L29.5897 23.849ZM33.3866 51.0152L33.0985 50.5322H37.5496L37.625 50.7449C38.3425 52.767 40.2636 54.1259 42.4058 54.1259H45.9996C48.7953 54.1259 51.0711 51.8508 51.0711 49.0544C51.0711 46.258 48.7953 43.9836 45.9996 43.9836H42.4058C40.2579 43.9836 38.3355 45.3418 37.6225 47.3639L37.5471 47.5773H31.8431L31.7747 47.3499C30.8387 44.2353 29.8229 35.2199 29.605 29.8315L29.6006 29.7178L32.0878 26.4026C34.3743 23.3545 37.8697 21.4825 41.6775 21.2647L41.8161 21.2564L41.9164 21.3516C46.6979 25.9017 52.9238 28.9218 59.4469 29.8533L62.38 30.2724L62.3666 30.5624C62.189 34.3255 61.8223 38.1345 61.3067 41.5769C61.1943 42.3455 61.0972 42.9243 60.94 43.8615L60.6806 45.4172C59.6801 51.4177 55.128 56.5709 49.6099 57.9497C48.4331 58.2436 47.2192 58.3924 46.0002 58.3924C44.7818 58.3924 43.5673 58.2436 42.3918 57.9497C38.7552 57.0405 35.4732 54.5131 33.3866 51.0152ZM40.2892 49.0544C40.2892 47.8878 41.2386 46.9384 42.4052 46.9384H45.9996C47.1668 46.9384 48.1156 47.8878 48.1156 49.0544C48.1156 50.221 47.1668 51.1711 45.9996 51.1711H42.4058C41.2386 51.1711 40.2892 50.221 40.2892 49.0544ZM35.6227 59.2754L43.7379 67.3899L37.5177 73.9692L37.3107 73.5718C35.7358 70.5575 34.3756 67.4046 33.2684 64.1986L33.225 64.0721L35.6227 59.2754ZM7.99079 88.7256L8.01827 88.3806C8.74341 79.316 14.8403 71.1204 22.845 68.4517L30.7039 65.8323L30.81 66.1255C32.1868 69.9339 33.9003 73.6504 35.9019 77.1706C37.3733 79.7588 39.021 82.2747 40.8086 84.6655L43.3386 88.7249H7.99079V88.7256ZM45.9996 87.4082L43.292 83.0606C43.2696 83.0241 43.2447 82.989 43.2191 82.9532C41.7644 81.0129 40.3959 78.9685 39.1526 76.878L39.0293 76.6704L45.829 69.481L52.989 76.6397L52.8632 76.8538C51.6103 78.9614 50.2367 81.0142 48.78 82.9551C48.7378 83.012 48.7276 83.0273 48.2446 83.8055L45.9996 87.4082ZM48.6605 88.7256L51.1752 84.6884C52.9871 82.2651 54.6463 79.7294 56.1215 77.1298L56.1502 77.0754C58.127 73.5903 59.8213 69.9058 61.1892 66.1255L61.2952 65.8323L69.1542 68.4517C77.1588 71.121 83.2557 79.316 83.9809 88.3806L84.0084 88.7256H48.6605Z" fill="#11305D"/>
<path d="M72.9794 75.2119C72.7194 75.0113 72.4076 74.9053 72.0805 74.9053C71.6173 74.9053 71.1899 75.1155 70.9087 75.4822C70.6679 75.7952 70.5631 76.1831 70.6142 76.5741C70.6653 76.9651 70.8659 77.3132 71.1784 77.5535C72.9155 78.89 74.3524 80.6342 75.3324 82.5981C75.6876 83.3079 76.5987 83.6172 77.3149 83.2587C78.0439 82.8952 78.3403 82.0059 77.9761 81.2763C76.7974 78.9162 75.0698 76.8194 72.9794 75.2119Z" fill="#11305D"/>
</svg>
