<?xml version="1.0" encoding="utf-8"?>
<!-- Generator: Adobe Illustrator 15.0.2, SVG Export Plug-In . SVG Version: 6.00 Build 0)  -->
<!DOCTYPE svg PUBLIC "-//W3C//DTD SVG 1.1//EN" "http://www.w3.org/Graphics/SVG/1.1/DTD/svg11.dtd">
<svg version="1.1" id="Layer_2" xmlns="http://www.w3.org/2000/svg" xmlns:xlink="http://www.w3.org/1999/xlink" x="0px" y="0px"
	 width="200px" height="200px" viewBox="0 0 200 200" enable-background="new 0 0 200 200" xml:space="preserve">
<g>
	<path fill="#11305D" d="M144.671,154.113H45.687c-0.276,0-0.5,0.225-0.5,0.5s0.224,0.5,0.5,0.5h98.984c0.275,0,0.5-0.225,0.5-0.5
		S144.946,154.113,144.671,154.113z"/>
	<path fill="#11305D" d="M165.993,154.113H150.69c-0.277,0-0.5,0.225-0.5,0.5s0.223,0.5,0.5,0.5h15.303c0.275,0,0.5-0.225,0.5-0.5
		S166.269,154.113,165.993,154.113z"/>
	<path fill="#11305D" d="M164.577,35.113h-61.393c-1.06,0-1.918,0.861-1.918,1.92v52.594l-8.531,10.037
		c-0.126,0.149-0.154,0.357-0.073,0.534c0.082,0.177,0.26,0.29,0.454,0.29h71.459c1.057,0,1.916-0.861,1.916-1.92V37.033
		C166.493,35.974,165.634,35.113,164.577,35.113z M165.493,98.568c0,0.507-0.412,0.92-0.916,0.92H94.2l7.95-9.354
		c0.074-0.092,0.117-0.207,0.117-0.324V37.033c0-0.507,0.412-0.92,0.918-0.92h61.396c0.504,0,0.916,0.413,0.916,0.92v61.535H165.493
		z"/>
	<path fill="#11305D" d="M149.702,53.335h-28.338c-0.277,0-0.5,0.225-0.5,0.5v28.401c0,0.276,0.223,0.5,0.5,0.5h28.338
		c0.275,0,0.5-0.224,0.5-0.5V53.835C150.202,53.558,149.978,53.335,149.702,53.335z"/>
	<path fill="#11305D" d="M76.983,144.18H60.435c-0.276,0-0.5,0.223-0.5,0.5c0,0.275,0.224,0.5,0.5,0.5h16.549
		c0.275,0,0.5-0.225,0.5-0.5C77.483,144.402,77.26,144.18,76.983,144.18z"/>
	<path fill="#11305D" d="M62.14,110.291c10.435,0,18.924-8.471,18.924-18.881V79.882c0-10.412-8.489-18.884-18.924-18.884
		S43.215,69.47,43.215,79.882V91.41C43.215,101.82,51.706,110.291,62.14,110.291z M44.215,79.882
		c0-9.861,8.041-17.884,17.926-17.884c9.883,0,17.923,8.022,17.923,17.884V91.41c0,9.859-8.04,17.881-17.923,17.881
		c-9.885,0-17.926-8.021-17.926-17.881V79.882z"/>
	<path fill="#11305D" d="M46.866,120.965v17.281c0,1.729,1.409,3.135,3.142,3.135h24.268c1.732,0,3.142-1.406,3.142-3.135v-17.281
		h5.118c0.584,0,1.16,0.033,1.729,0.088v29.324c0,0.275,0.225,0.5,0.5,0.5c0.276,0,0.5-0.225,0.5-0.5v-29.184
		c8.59,1.317,15.195,8.721,15.195,17.654v11.526c0,0.274,0.223,0.5,0.5,0.5c0.275,0,0.5-0.226,0.5-0.5v-11.526
		c0-10.412-8.49-18.884-18.924-18.884h-5.618c-0.275,0-0.5,0.224-0.5,0.5v17.779c0,1.178-0.961,2.137-2.142,2.137H50.006
		c-1.181,0-2.142-0.959-2.142-2.137v-17.779c0-0.276-0.224-0.5-0.5-0.5h-5.62c-10.436,0-18.923,8.472-18.923,18.884v11.526
		c0,0.274,0.224,0.5,0.5,0.5c0.276,0,0.5-0.226,0.5-0.5v-11.526c0-8.935,6.604-16.337,15.194-17.654v29.184
		c0,0.275,0.225,0.5,0.5,0.5c0.277,0,0.5-0.225,0.5-0.5v-29.324c0.57-0.055,1.146-0.088,1.729-0.088H46.866L46.866,120.965z"/>
</g>
<path fill="#FFFFFF" d="M135.569,72.798c-0.133,0-0.26-0.052-0.354-0.146l-4.998-5.01c-0.194-0.195-0.194-0.512,0-0.707
	c0.195-0.194,0.513-0.195,0.707,0.001l4.586,4.596l9.244-12.657c0.164-0.223,0.478-0.27,0.699-0.109
	c0.223,0.164,0.271,0.477,0.104,0.699l-9.59,13.129c-0.086,0.119-0.219,0.192-0.365,0.205
	C135.595,72.798,135.581,72.798,135.569,72.798z"/>
</svg>
