<?xml version="1.0" encoding="utf-8"?>
<!-- Generator: Adobe Illustrator 15.0.2, SVG Export Plug-In . SVG Version: 6.00 Build 0)  -->
<!DOCTYPE svg PUBLIC "-//W3C//DTD SVG 1.1//EN" "http://www.w3.org/Graphics/SVG/1.1/DTD/svg11.dtd">
<svg version="1.1" id="Layer_1" xmlns="http://www.w3.org/2000/svg" xmlns:xlink="http://www.w3.org/1999/xlink" x="0px" y="0px"
	 width="200px" height="200px" viewBox="0 0 200 200" enable-background="new 0 0 200 200" xml:space="preserve">
<g>
	<path fill="#11305D" d="M59.001,136.504h7.023c0.115,2.454,2.135,4.42,4.622,4.42c2.561,0,4.644-2.079,4.644-4.635
		c0-0.738-0.189-1.426-0.498-2.046l18.572-24.026l4.22,9.889c-6.052,2.756-10.276,8.838-10.276,15.898
		c0,9.641,7.859,17.482,17.519,17.482c9.659,0,17.521-7.844,17.521-17.482s-7.859-17.482-17.521-17.482
		c-2.229,0-4.356,0.436-6.32,1.195l-8.97-21.016h9.238c0.276,0,0.5-0.224,0.5-0.5c0-0.276-0.224-0.5-0.5-0.5H88.78
		c-0.168,0-0.325,0.084-0.417,0.225c-0.093,0.14-0.109,0.317-0.043,0.472l3.062,7.176L62.015,116.53l-5.101-11.704h8.646
		c0.276,0,0.5-0.225,0.5-0.5c0-0.276-0.224-0.5-0.5-0.5H52.142c-0.276,0-0.5,0.224-0.5,0.5c0,0.275,0.224,0.5,0.5,0.5h3.797
		c-0.024,0.102-0.025,0.209,0.02,0.312l5.176,11.877l-7.184,6.699c-3.177-3.203-7.581-5.193-12.443-5.193
		c-9.66,0-17.519,7.844-17.519,17.482s7.859,17.482,17.519,17.482C50.999,153.486,58.732,145.911,59.001,136.504z M104.454,136.2
		c0.081,0.19,0.267,0.304,0.46,0.304c0.064,0,0.132-0.013,0.195-0.04c0.254-0.108,0.373-0.401,0.265-0.655l-6.475-15.172
		c1.843-0.71,3.835-1.115,5.927-1.115c9.109,0,16.52,7.395,16.52,16.482s-7.41,16.482-16.52,16.482
		c-9.108,0-16.519-7.395-16.519-16.482c0-6.648,3.974-12.377,9.669-14.98L104.454,136.2z M70.646,139.924
		c-2.009,0-3.644-1.631-3.644-3.635s1.634-3.635,3.644-3.635s3.644,1.631,3.644,3.635S72.656,139.924,70.646,139.924z
		 M91.775,106.494l1.139,2.67l-18.702,24.193c-0.852-1.031-2.125-1.703-3.566-1.703c-0.665,0-1.294,0.146-1.867,0.397l-6.365-14.604
		L91.775,106.494z M61.558,117.986l6.353,14.576c-0.949,0.696-1.621,1.736-1.828,2.94h-7.082c-0.121-4.231-1.751-8.083-4.377-11.05
		L61.558,117.986z M58.001,135.504H42.777l11.117-10.369C56.354,127.922,57.881,131.535,58.001,135.504z M41.508,152.486
		c-9.108,0-16.519-7.395-16.519-16.482s7.41-16.482,16.519-16.482c4.574,0,8.719,1.867,11.713,4.875l-12.054,11.242
		c-0.15,0.141-0.2,0.357-0.125,0.549c0.075,0.19,0.26,0.316,0.465,0.316H58C57.733,145.359,50.447,152.486,41.508,152.486z"/>
	<path fill="#11305D" d="M150.309,88.266c3.713,0,6.733-3.014,6.733-6.719v-37.06c0-3.705-3.021-6.719-6.733-6.719h-26.75
		c-3.713,0-6.734,3.014-6.734,6.719v37.06c0,3.705,3.021,6.719,6.734,6.719h12.875v68.501H46.515c-0.276,0-0.5,0.224-0.5,0.5
		c0,0.275,0.224,0.5,0.5,0.5h98.978c0.276,0,0.5-0.225,0.5-0.5c0-0.276-0.224-0.5-0.5-0.5h-8.06V88.266H150.309z M117.822,81.547
		v-37.06c0-3.153,2.572-5.719,5.734-5.719h26.752c3.16,0,5.732,2.565,5.732,5.719v37.06c0,3.154-2.572,5.719-5.732,5.719h-26.752
		C120.396,87.266,117.822,84.701,117.822,81.547z"/>
	<path fill="#11305D" d="M135.798,48.899h-6.146c-0.275,0-0.5,0.224-0.5,0.5c0,0.007,0.005,0.013,0.005,0.02v25.045
		c0,0.276,0.224,0.5,0.5,0.5s0.5-0.224,0.5-0.5V66.69h5.641c4.916,0,8.915-3.99,8.915-8.895
		C144.713,52.89,140.714,48.899,135.798,48.899z M135.798,65.689h-5.641v-15.79h5.641c4.364,0,7.915,3.542,7.915,7.896
		C143.713,62.147,140.162,65.689,135.798,65.689z"/>
	<path fill="#11305D" d="M166.812,156.467H151.51c-0.275,0-0.5,0.225-0.5,0.5c0,0.276,0.225,0.5,0.5,0.5h15.303
		c0.275,0,0.5-0.224,0.5-0.5C167.312,156.691,167.089,156.467,166.812,156.467z"/>
</g>
</svg>
