<?xml version="1.0" encoding="utf-8"?>
<!-- Generator: Adobe Illustrator 15.0.2, SVG Export Plug-In . SVG Version: 6.00 Build 0)  -->
<!DOCTYPE svg PUBLIC "-//W3C//DTD SVG 1.1//EN" "http://www.w3.org/Graphics/SVG/1.1/DTD/svg11.dtd">
<svg version="1.1" id="Layer_1" xmlns="http://www.w3.org/2000/svg" xmlns:xlink="http://www.w3.org/1999/xlink" x="0px" y="0px"
	 width="144px" height="144px" viewBox="0 0 144 144" enable-background="new 0 0 144 144" xml:space="preserve">
<g>
	<path d="M53.419,52.774h-4.645v4.645v37.162v4.645h4.645h37.162h4.645v-4.645V57.419v-4.645h-4.645H53.419z M90.581,94.581H53.419
		V57.419h37.162V94.581z"/>
	<rect x="79.811" y="61.803" width="5.183" height="4.645"/>
	<rect x="79.811" y="75.736" width="5.183" height="4.645"/>
	<rect x="74.628" y="71.092" width="5.183" height="4.645"/>
	<rect x="59.08" y="61.803" width="5.183" height="4.645"/>
	<rect x="64.263" y="66.447" width="5.183" height="4.645"/>
	<polygon points="64.19,71.092 59.008,71.092 59.008,75.736 59.008,80.381 64.19,80.381 64.19,75.736 	"/>
	<rect x="69.445" y="61.803" width="5.183" height="4.645"/>
	<rect x="64.19" y="80.381" width="5.183" height="4.645"/>
	<rect x="59.008" y="85.025" width="5.183" height="4.645"/>
	<path d="M102.193,32.017H80.072V5.046h12.881c1.255,0,2.272-1.018,2.272-2.272c0-1.256-1.018-2.273-2.272-2.273H51.209
		c-1.256,0-2.273,1.018-2.273,2.273c0,1.255,1.018,2.272,2.273,2.272h12.719v26.971H41.807c-3.842,0-6.968,3.126-6.968,6.968v97.548
		c0,3.842,3.126,6.968,6.968,6.968h60.387c3.842,0,6.968-3.126,6.968-6.968V38.984C109.161,35.143,106.035,32.017,102.193,32.017z
		 M75.428,5.046v37.088h-6.855V5.046H75.428z M104.517,136.532c0,1.28-1.043,2.323-2.323,2.323H41.807
		c-1.279,0-2.322-1.043-2.322-2.323V38.984c0-1.28,1.043-2.322,2.322-2.322h22.121v5.472h-1.519c-1.256,0-2.273,1.018-2.273,2.273
		c0,1.255,1.018,2.272,2.273,2.272h19.184c1.255,0,2.272-1.018,2.272-2.272c0-1.256-1.018-2.273-2.272-2.273h-1.521v-5.472h22.121
		c1.28,0,2.323,1.042,2.323,2.322V136.532z"/>
	<path d="M69.728,120.436H51.209c-1.256,0-2.273,1.018-2.273,2.273c0,1.255,1.018,2.272,2.273,2.272h18.519
		c1.255,0,2.272-1.018,2.272-2.272C72,121.453,70.982,120.436,69.728,120.436z"/>
	<path d="M92.953,109.102H51.209c-1.256,0-2.273,1.018-2.273,2.273c0,1.255,1.018,2.272,2.273,2.272h41.744
		c1.255,0,2.272-1.018,2.272-2.272C95.226,110.119,94.208,109.102,92.953,109.102z"/>
	<path d="M69.728,129.695H51.209c-1.256,0-2.273,1.018-2.273,2.273c0,1.255,1.018,2.272,2.273,2.272h18.519
		c1.255,0,2.272-1.018,2.272-2.272C72,130.713,70.982,129.695,69.728,129.695z"/>
	<path d="M92.792,129.695H78.887c-1.256,0-2.273,1.018-2.273,2.273c0,1.255,1.018,2.272,2.273,2.272h13.905
		c1.255,0,2.272-1.018,2.272-2.272C95.064,130.713,94.047,129.695,92.792,129.695z"/>
</g>
</svg>
