<?xml version="1.0" encoding="utf-8"?>
<!-- Generator: Adobe Illustrator 15.0.2, SVG Export Plug-In . SVG Version: 6.00 Build 0)  -->
<!DOCTYPE svg PUBLIC "-//W3C//DTD SVG 1.1//EN" "http://www.w3.org/Graphics/SVG/1.1/DTD/svg11.dtd">
<svg version="1.1" id="Layer_1" xmlns="http://www.w3.org/2000/svg" xmlns:xlink="http://www.w3.org/1999/xlink" x="0px" y="0px"
	 width="200px" height="120px" viewBox="0 0 200 120" enable-background="new 0 0 200 120" xml:space="preserve">
<g>
	<path d="M188.362,99.906h-14.381V14.625C173.981,6.561,167.314,0,159.12,0H40.88c-8.194,0-14.86,6.561-14.86,14.625v85.281H11.638
		c-1.242,0-2.25,1.008-2.25,2.25c0,9.839,8.136,17.844,18.137,17.844h144.951c10.001,0,18.137-8.005,18.137-17.844
		C190.612,100.914,189.604,99.906,188.362,99.906z M40.88,4.5h118.24c5.667,0,10.281,4.471,10.354,9.993h-13.153h-40.703H30.526
		C30.6,8.971,35.213,4.5,40.88,4.5z M117.868,18.993h36.203v34.218h-36.203V18.993z M172.476,115.5H27.524
		c-6.736,0-12.347-4.804-13.442-11.094h70.407c1.243,0,2.25-1.008,2.25-2.25s-1.007-2.25-2.25-2.25H30.52V18.993h82.849v36.468
		c0,1.243,1.008,2.25,2.25,2.25h40.703c1.242,0,2.25-1.007,2.25-2.25V18.993h10.91v80.913h-53.971c-1.242,0-2.25,1.008-2.25,2.25
		s1.008,2.25,2.25,2.25h70.407C184.822,110.696,179.212,115.5,172.476,115.5z"/>
	<path d="M69.382,66.318c9.002,0,16.325-7.205,16.325-16.062v-6.565c0-8.861-7.323-16.069-16.325-16.069
		c-9.001,0-16.324,7.208-16.324,16.069v6.565C53.058,59.113,60.381,66.318,69.382,66.318z M57.558,43.691
		c0-6.379,5.305-11.569,11.824-11.569c6.521,0,11.825,5.19,11.825,11.569v6.565c0,6.375-5.305,11.562-11.825,11.562
		c-6.52,0-11.824-5.187-11.824-11.562V43.691z"/>
	<path d="M94.345,91.834c0,1.242,1.007,2.25,2.25,2.25c1.242,0,2.25-1.008,2.25-2.25v-5.266c0-6.942-5.735-12.591-12.784-12.591
		H52.703c-7.049,0-12.784,5.648-12.784,12.591v5.406c0,1.242,1.008,2.25,2.25,2.25c1.243,0,2.25-1.008,2.25-2.25v-5.406
		c0-4.461,3.717-8.091,8.284-8.091h33.357c4.567,0,8.284,3.63,8.284,8.091V91.834z"/>
	<path d="M105.479,99.906H94.521c-1.242,0-2.25,1.008-2.25,2.25s1.008,2.25,2.25,2.25h10.957c1.242,0,2.25-1.008,2.25-2.25
		S106.721,99.906,105.479,99.906z"/>
	<path d="M147.244,23.819h-22.55c-1.242,0-2.25,1.007-2.25,2.25s1.008,2.25,2.25,2.25h22.55c1.242,0,2.25-1.007,2.25-2.25
		S148.486,23.819,147.244,23.819z"/>
	<path d="M147.244,40.512h-22.55c-1.242,0-2.25,1.007-2.25,2.25s1.008,2.25,2.25,2.25h22.55c1.242,0,2.25-1.007,2.25-2.25
		S148.486,40.512,147.244,40.512z"/>
	<path d="M147.244,32.165h-22.55c-1.242,0-2.25,1.007-2.25,2.25s1.008,2.25,2.25,2.25h22.55c1.242,0,2.25-1.007,2.25-2.25
		S148.486,32.165,147.244,32.165z"/>
</g>
</svg>
