<svg width="92" height="92" viewBox="0 0 92 92" fill="none" xmlns="http://www.w3.org/2000/svg">
<path d="M34.1288 33.7168H31.1611V36.6844V60.4268V63.3945H34.1288H57.8712H60.8388V60.4268V36.6844V33.7168H57.8712H34.1288ZM57.8712 60.4268H34.1288V36.6844H57.8712V60.4268Z" fill="#11305D"/>
<path d="M54.3016 39.4854H50.9902V42.453H54.3016V39.4854Z" fill="#11305D"/>
<path d="M54.3016 48.3867H50.9902V51.3544H54.3016V48.3867Z" fill="#11305D"/>
<path d="M50.9901 45.4199H47.6787V48.3876H50.9901V45.4199Z" fill="#11305D"/>
<path d="M41.0565 39.4854H37.7451V42.453H41.0565V39.4854Z" fill="#11305D"/>
<path d="M44.368 42.4521H41.0566V45.4198H44.368V42.4521Z" fill="#11305D"/>
<path d="M41.0099 45.4199H37.6992V48.3869V51.3546H41.0099V48.3869V45.4199Z" fill="#11305D"/>
<path d="M47.6785 39.4854H44.3672V42.453H47.6785V39.4854Z" fill="#11305D"/>
<path d="M44.3211 51.3545H41.0098V54.3221H44.3211V51.3545Z" fill="#11305D"/>
<path d="M41.0106 54.3213H37.6992V57.2889H41.0106V54.3213Z" fill="#11305D"/>
<path d="M65.2895 20.4555H51.1567V3.22406H59.3862C60.188 3.22406 60.8377 2.57367 60.8377 1.77251C60.8377 0.970062 60.1874 0.320312 59.3862 0.320312H32.7164C31.914 0.320312 31.2642 0.970701 31.2642 1.77251C31.2642 2.57431 31.9146 3.22406 32.7164 3.22406H40.8424V20.4555H26.7096C24.255 20.4555 22.2578 22.4527 22.2578 24.9073V87.2296C22.2578 89.6843 24.255 91.6814 26.7096 91.6814H65.2902C67.7448 91.6814 69.7419 89.6843 69.7419 87.2296V24.9067C69.7413 22.4527 67.7441 20.4555 65.2895 20.4555ZM48.1897 3.22406V26.9192H43.8101V3.22406H48.1897ZM66.7743 87.229C66.7743 88.0468 66.1079 88.7131 65.2902 88.7131H26.7096C25.8924 88.7131 25.2261 88.0468 25.2261 87.229V24.9067C25.2261 24.0889 25.8924 23.4232 26.7096 23.4232H40.8424V26.9192H39.872C39.0695 26.9192 38.4198 27.5696 38.4198 28.3714C38.4198 29.1732 39.0702 29.8229 39.872 29.8229H52.1284C52.9302 29.8229 53.58 29.1725 53.58 28.3714C53.58 27.5689 52.9296 26.9192 52.1284 26.9192H51.1567V23.4232H65.2895C66.1073 23.4232 66.7737 24.0889 66.7737 24.9067V87.229H66.7743Z" fill="#11305D"/>
<path d="M44.5484 76.9453H32.7168C31.9144 76.9453 31.2646 77.5957 31.2646 78.3975C31.2646 79.1993 31.915 79.8491 32.7168 79.8491H44.5484C45.3502 79.8491 46 79.1987 46 78.3975C46 77.5951 45.3496 76.9453 44.5484 76.9453Z" fill="#11305D"/>
<path d="M59.3866 69.7041H32.7168C31.9144 69.7041 31.2646 70.3545 31.2646 71.1563C31.2646 71.9581 31.915 72.6079 32.7168 72.6079H59.3866C60.1884 72.6079 60.8382 71.9575 60.8382 71.1563C60.8388 70.3539 60.1884 69.7041 59.3866 69.7041Z" fill="#11305D"/>
<path d="M44.5484 82.8604H32.7168C31.9144 82.8604 31.2646 83.5107 31.2646 84.3125C31.2646 85.1143 31.915 85.7641 32.7168 85.7641H44.5484C45.3502 85.7641 46 85.1137 46 84.3125C46 83.5107 45.3496 82.8604 44.5484 82.8604Z" fill="#11305D"/>
<path d="M59.2832 82.8604H50.3995C49.597 82.8604 48.9473 83.5107 48.9473 84.3125C48.9473 85.1143 49.5977 85.7641 50.3995 85.7641H59.2832C60.085 85.7641 60.7348 85.1137 60.7348 84.3125C60.7348 83.5107 60.085 82.8604 59.2832 82.8604Z" fill="#11305D"/>
</svg>
