<?xml version="1.0" encoding="utf-8"?>
<!-- Generator: Adobe Illustrator 15.0.2, SVG Export Plug-In . SVG Version: 6.00 Build 0)  -->
<!DOCTYPE svg PUBLIC "-//W3C//DTD SVG 1.1//EN" "http://www.w3.org/Graphics/SVG/1.1/DTD/svg11.dtd">
<svg version="1.1" id="Layer_2" xmlns="http://www.w3.org/2000/svg" xmlns:xlink="http://www.w3.org/1999/xlink" x="0px" y="0px"
	 width="200px" height="200px" viewBox="0 0 200 200" enable-background="new 0 0 200 200" xml:space="preserve">
<g>
	<path fill="#11305D" d="M59.002,136.504h7.022c0.116,2.455,2.136,4.422,4.622,4.422c2.561,0,4.645-2.08,4.645-4.637
		c0-0.738-0.189-1.426-0.498-2.045l18.574-24.02l4.217,9.879c-6.052,2.758-10.275,8.84-10.275,15.899
		c0,9.64,7.857,17.479,17.519,17.479c9.66,0,17.52-7.842,17.52-17.479s-7.859-17.481-17.52-17.481c-2.23,0-4.357,0.436-6.32,1.194
		L89.537,98.7h9.238c0.275,0,0.5-0.225,0.5-0.5c0-0.276-0.225-0.5-0.5-0.5H88.78c-0.168,0-0.325,0.084-0.417,0.225
		c-0.093,0.14-0.109,0.316-0.043,0.472l3.062,7.177l-29.367,10.957l-5.102-11.705h8.646c0.275,0,0.5-0.225,0.5-0.5
		s-0.225-0.5-0.5-0.5H52.142c-0.276,0-0.5,0.225-0.5,0.5s0.224,0.5,0.5,0.5h3.797c-0.024,0.102-0.024,0.209,0.021,0.312
		l5.176,11.877l-7.184,6.7c-3.178-3.205-7.58-5.194-12.443-5.194c-9.659,0-17.52,7.844-17.52,17.481s7.859,17.481,17.52,17.481
		C50.999,153.486,58.733,145.912,59.002,136.504z M104.826,119.521c9.109,0,16.52,7.395,16.52,16.481s-7.41,16.481-16.52,16.481
		s-16.518-7.395-16.518-16.481c0-6.647,3.974-12.377,9.669-14.979l6.478,15.178c0.08,0.189,0.266,0.305,0.459,0.305
		c0.066,0,0.133-0.014,0.197-0.041c0.254-0.107,0.371-0.402,0.264-0.656l-6.476-15.17
		C100.742,119.928,102.736,119.521,104.826,119.521z M70.647,139.926c-2.01,0-3.645-1.633-3.645-3.637s1.635-3.635,3.645-3.635
		c2.009,0,3.645,1.631,3.645,3.635S72.656,139.926,70.647,139.926z M91.776,106.496l1.217,2.852
		c-0.135,0.012-0.266,0.072-0.355,0.189l-18.424,23.822c-0.853-1.031-2.127-1.705-3.566-1.705c-0.665,0-1.295,0.146-1.867,0.397
		l-6.363-14.604L91.776,106.496z M61.559,117.988l6.352,14.576c-0.947,0.694-1.619,1.735-1.828,2.938h-7.08
		c-0.121-4.229-1.752-8.082-4.377-11.049L61.559,117.988z M58.002,135.504H42.777l11.117-10.367
		C56.354,127.924,57.881,131.537,58.002,135.504z M41.508,152.486c-9.108,0-16.521-7.394-16.521-16.48s7.411-16.482,16.521-16.482
		c4.574,0,8.719,1.867,11.713,4.875l-12.053,11.24c-0.15,0.142-0.201,0.357-0.125,0.549c0.074,0.191,0.26,0.316,0.465,0.316h16.494
		C57.733,145.361,50.448,152.486,41.508,152.486z"/>
	<path fill="#11305D" d="M150.309,88.267c3.713,0,6.732-3.016,6.732-6.721v-37.06c0-3.704-3.02-6.719-6.732-6.719h-26.75
		c-3.715,0-6.733,3.015-6.733,6.719v37.06c0,3.705,3.021,6.721,6.733,6.721h12.875v68.502H46.514c-0.275,0-0.5,0.225-0.5,0.5
		c0,0.274,0.225,0.5,0.5,0.5h98.978c0.277,0,0.5-0.226,0.5-0.5c0-0.275-0.223-0.5-0.5-0.5h-8.059V88.267H150.309z"/>
	<path fill="#11305D" d="M166.812,156.77H151.51c-0.275,0-0.5,0.226-0.5,0.5c0,0.275,0.225,0.5,0.5,0.5h15.303
		c0.275,0,0.5-0.225,0.5-0.5C167.312,156.995,167.088,156.77,166.812,156.77z"/>
</g>
<path fill="#FFFFFF" d="M135.797,48.9h-6.145c-0.275,0-0.5,0.225-0.5,0.5c0,0.008,0.004,0.014,0.004,0.02v25.045
	c0,0.275,0.225,0.5,0.5,0.5c0.277,0,0.5-0.225,0.5-0.5v-7.773h5.641c4.916,0,8.916-3.99,8.916-8.895
	C144.713,52.89,140.713,48.9,135.797,48.9z M135.797,65.69h-5.641V49.9h5.641c4.365,0,7.916,3.542,7.916,7.896
	S140.162,65.69,135.797,65.69z"/>
</svg>
