<?xml version="1.0" encoding="utf-8"?>
<!-- Generator: Adobe Illustrator 15.0.2, SVG Export Plug-In . SVG Version: 6.00 Build 0)  -->
<!DOCTYPE svg PUBLIC "-//W3C//DTD SVG 1.1//EN" "http://www.w3.org/Graphics/SVG/1.1/DTD/svg11.dtd">
<svg version="1.1" id="Layer_1" xmlns="http://www.w3.org/2000/svg" xmlns:xlink="http://www.w3.org/1999/xlink" x="0px" y="0px"
	 width="200px" height="200px" viewBox="0 0 200 200" enable-background="new 0 0 200 200" xml:space="preserve">
<g>
	<path fill="#11305D" d="M160.034,148.602H61.057c-0.276,0-0.5,0.224-0.5,0.5c0,0.275,0.224,0.5,0.5,0.5h98.978
		c0.275,0,0.5-0.225,0.5-0.5C160.535,148.825,160.311,148.602,160.034,148.602z"/>
	<path fill="#11305D" d="M181.354,148.602h-15.301c-0.277,0-0.5,0.224-0.5,0.5c0,0.275,0.223,0.5,0.5,0.5h15.301
		c0.276,0,0.5-0.225,0.5-0.5C181.854,148.825,181.631,148.602,181.354,148.602z"/>
	<path fill="#11305D" d="M47.043,105.157c2.778,0,5.038-2.261,5.038-5.039c0-2.777-2.26-5.037-5.038-5.037s-5.039,2.26-5.039,5.037
		C42.004,102.896,44.265,105.157,47.043,105.157z M47.043,96.081c2.227,0,4.038,1.811,4.038,4.037c0,2.228-1.812,4.039-4.038,4.039
		c-2.227,0-4.039-1.812-4.039-4.039C43.004,97.892,44.816,96.081,47.043,96.081z"/>
	<path fill="#11305D" d="M70.4,134.938v9.881c0,0.275,0.224,0.5,0.5,0.5s0.5-0.225,0.5-0.5v-9.881
		c0-10.781,8.821-19.555,19.663-19.555h7.564c10.848,0,19.671,8.772,19.671,19.555v9.881c0,0.275,0.224,0.5,0.5,0.5
		s0.5-0.225,0.5-0.5v-9.881c0-10.232-7.565-18.719-17.424-20.274v-6.808c0-2.141-1.144-4.016-2.85-5.066
		c0.004-0.023,0.015-0.047,0.015-0.072V33.19c0-1.979-1.618-3.59-3.606-3.59h-1.166c-1.99,0-3.608,1.61-3.608,3.59v69.526
		c0,0.025,0.011,0.048,0.015,0.072c-1.707,1.052-2.849,2.927-2.849,5.065v6.808C77.968,116.216,70.4,124.703,70.4,134.938z
		 M91.659,33.19c0-1.428,1.17-2.59,2.608-2.59h1.166c1.437,0,2.606,1.162,2.606,2.59v69.11c-0.671-0.26-1.398-0.407-2.161-0.407
		h-2.062c-0.762,0-1.488,0.147-2.159,0.406V33.19H91.659z M88.825,107.855c0-2.736,2.24-4.963,4.993-4.963h2.062
		c2.754,0,4.996,2.227,4.996,4.963v6.654c-0.739-0.08-1.487-0.127-2.247-0.127h-7.564c-0.757,0-1.503,0.047-2.239,0.126
		L88.825,107.855L88.825,107.855z"/>
	<path fill="#11305D" d="M79.199,131.986v12.724c0,0.276,0.224,0.5,0.5,0.5c0.276,0,0.5-0.224,0.5-0.5v-12.724
		c0-0.276-0.224-0.5-0.5-0.5C79.423,131.486,79.199,131.71,79.199,131.986z"/>
	<path fill="#11305D" d="M84.25,131.986v12.724c0,0.276,0.224,0.5,0.5,0.5s0.5-0.224,0.5-0.5v-12.724c0-0.276-0.224-0.5-0.5-0.5
		S84.25,131.71,84.25,131.986z"/>
	<path fill="#11305D" d="M89.301,131.986v12.724c0,0.276,0.224,0.5,0.5,0.5c0.276,0,0.5-0.224,0.5-0.5v-12.724
		c0-0.276-0.224-0.5-0.5-0.5C89.525,131.486,89.301,131.71,89.301,131.986z"/>
	<path fill="#11305D" d="M94.351,131.986v12.724c0,0.276,0.224,0.5,0.5,0.5s0.5-0.224,0.5-0.5v-12.724c0-0.276-0.224-0.5-0.5-0.5
		S94.351,131.71,94.351,131.986z"/>
	<path fill="#11305D" d="M99.401,131.986v12.724c0,0.276,0.224,0.5,0.5,0.5c0.276,0,0.5-0.224,0.5-0.5v-12.724
		c0-0.276-0.224-0.5-0.5-0.5C99.625,131.486,99.401,131.71,99.401,131.986z"/>
	<path fill="#11305D" d="M104.451,131.986v12.724c0,0.276,0.224,0.5,0.5,0.5c0.275,0,0.5-0.224,0.5-0.5v-12.724
		c0-0.276-0.225-0.5-0.5-0.5C104.675,131.486,104.451,131.71,104.451,131.986z"/>
	<path fill="#11305D" d="M109.5,131.986v12.724c0,0.276,0.225,0.5,0.5,0.5s0.5-0.224,0.5-0.5v-12.724c0-0.276-0.225-0.5-0.5-0.5
		S109.5,131.71,109.5,131.986z"/>
	<path fill="#11305D" d="M66.436,138.46c0.248-0.121,0.351-0.42,0.23-0.668c-0.12-0.248-0.417-0.351-0.668-0.229
		c-1.019,0.496-2.114,0.748-3.255,0.748c-2.246,0-4.348-1.004-5.768-2.756c-0.189-0.231-0.586-0.232-0.777,0.002
		c-1.418,1.75-3.521,2.754-5.768,2.754c-4.095,0-7.426-3.33-7.426-7.425c0-2.12,0.917-4.147,2.518-5.561
		c0.135-0.119,0.195-0.304,0.158-0.479c-0.038-0.176-0.167-0.318-0.34-0.373c-3.111-0.975-5.202-3.822-5.202-7.084
		c0-4.096,3.331-7.427,7.425-7.427c1.875,0,3.667,0.708,5.049,1.993c0.128,0.118,0.307,0.162,0.476,0.115
		c0.168-0.049,0.299-0.18,0.346-0.348c0.891-3.197,3.829-5.432,7.146-5.432c2.78,0,5.305,1.532,6.602,4.02
		c0.126,0.238,0.42,0.336,0.663,0.215c1.143-0.562,2.373-0.846,3.655-0.846c2.79,0,5.375,1.389,6.917,3.719
		c0.152,0.229,0.461,0.289,0.693,0.141c0.23-0.152,0.293-0.463,0.141-0.693c-1.728-2.607-4.625-4.166-7.751-4.166
		c-1.276,0-2.506,0.252-3.664,0.75c-1.515-2.562-4.255-4.138-7.256-4.138c-3.507,0-6.642,2.199-7.871,5.435
		c-1.473-1.143-3.274-1.765-5.147-1.765c-4.646,0-8.425,3.78-8.425,8.427c0,3.426,2.033,6.448,5.135,7.758
		c-1.451,1.555-2.269,3.604-2.269,5.739c0,4.646,3.78,8.425,8.426,8.425c2.352,0,4.564-0.97,6.156-2.679
		c1.593,1.709,3.805,2.679,6.156,2.679C64.037,139.311,65.28,139.023,66.436,138.46z"/>
</g>
</svg>
