<?xml version="1.0" encoding="utf-8"?>
<!-- Generator: Adobe Illustrator 15.0.2, SVG Export Plug-In . SVG Version: 6.00 Build 0)  -->
<!DOCTYPE svg PUBLIC "-//W3C//DTD SVG 1.1//EN" "http://www.w3.org/Graphics/SVG/1.1/DTD/svg11.dtd">
<svg version="1.1" id="Layer_1" xmlns="http://www.w3.org/2000/svg" xmlns:xlink="http://www.w3.org/1999/xlink" x="0px" y="0px"
	 width="144px" height="144px" viewBox="0 0 144 144" enable-background="new 0 0 144 144" xml:space="preserve">
<g>
	<path d="M51.242,51.242c-6.359,0-11.532,5.174-11.532,11.532v7.345c-2.679,0.954-4.613,3.49-4.613,6.493
		c0,3.816,3.104,6.921,6.92,6.921h3.113c0.657,1.852,1.692,3.521,3.021,4.916c-7.427,1.447-13.055,7.997-13.055,15.842v9.226
		c0,1.272,1.033,2.306,2.307,2.306H78.92c1.271,0,2.306-1.033,2.306-2.306v-9.226c0-7.845-5.628-14.395-13.054-15.842
		c1.328-1.396,2.363-3.064,3.021-4.916h3.113c3.814,0,6.919-3.104,6.919-6.921c0-3.003-1.935-5.539-4.612-6.493v-7.345
		c0-6.358-5.174-11.532-11.533-11.532H51.242z M44.322,78.92h-2.306c-1.271,0-2.307-1.036-2.307-2.308
		c0-1.271,1.035-2.306,2.307-2.306h2.306V78.92z M76.613,104.291v6.919H39.71v-6.919c0-6.359,5.173-11.533,11.532-11.533H65.08
		C71.439,92.758,76.613,97.932,76.613,104.291z M48.936,78.92v-4.613h2.307c3.718,0,9.71-2.021,13.255-5.476
		c0.759,1.225,1.741,2.297,2.89,3.159v6.93c0,5.088-4.138,9.225-9.226,9.225S48.936,84.008,48.936,78.92z M74.307,74.307
		c1.271,0,2.307,1.035,2.307,2.306c0,1.271-1.035,2.308-2.307,2.308H72v-4.613H74.307z M72,62.774v6.523
		c-2.686-0.951-4.613-3.517-4.613-6.523c0-1.273-1.033-2.308-2.307-2.308s-2.307,1.034-2.307,2.308
		c0,3.208-6.979,6.919-11.531,6.919h-6.92v-6.919c0-3.815,3.105-6.919,6.92-6.919H65.08C68.896,55.855,72,58.959,72,62.774z"/>
	<path d="M97.371,0.5H74.307c-10.174,0-18.451,8.278-18.451,18.452v13.839H28.178c-3.815,0-6.92,3.104-6.92,6.919v96.87
		c0,3.815,3.104,6.92,6.92,6.92h59.967c3.815,0,6.92-3.104,6.92-6.92V39.71c0-3.815-3.104-6.919-6.92-6.919H60.468V18.952
		c0-7.634,6.206-13.84,13.839-13.84h4.613c11.443,0,20.758,9.313,20.758,20.759v36.903c0,6.358,5.172,11.532,11.531,11.532
		s11.533-5.174,11.533-11.532V25.871C122.742,11.883,111.359,0.5,97.371,0.5z M88.145,37.404c1.271,0,2.307,1.034,2.307,2.306v96.87
		c0,1.271-1.035,2.308-2.307,2.308H28.178c-1.271,0-2.307-1.036-2.307-2.308V39.71c0-1.271,1.035-2.306,2.307-2.306h27.678v4.729
		h-7.286c-1.256,0-2.273,1.018-2.273,2.273c0,1.255,1.018,2.272,2.273,2.272h19.184c1.255,0,2.272-1.018,2.272-2.272
		c0-1.256-1.018-2.273-2.272-2.273h-7.285v-4.729H88.145z M118.129,62.774c0,3.815-3.105,6.919-6.92,6.919s-6.92-3.104-6.92-6.919
		V25.871c0-8.57-4.27-16.164-10.798-20.759h3.88c11.443,0,20.758,9.313,20.758,20.759V62.774z"/>
	<path d="M55.889,120.436H37.37c-1.256,0-2.273,1.018-2.273,2.273c0,1.255,1.018,2.272,2.273,2.272h18.519
		c1.255,0,2.272-1.018,2.272-2.272C58.161,121.453,57.144,120.436,55.889,120.436z"/>
	<path d="M55.889,129.695H37.37c-1.256,0-2.273,1.018-2.273,2.273c0,1.255,1.018,2.272,2.273,2.272h18.519
		c1.255,0,2.272-1.018,2.272-2.272C58.161,130.713,57.144,129.695,55.889,129.695z"/>
	<path d="M78.953,129.695H65.047c-1.256,0-2.273,1.018-2.273,2.273c0,1.255,1.018,2.272,2.273,2.272h13.906
		c1.255,0,2.272-1.018,2.272-2.272C81.226,130.713,80.208,129.695,78.953,129.695z"/>
</g>
</svg>
