<svg width="92" height="92" viewBox="0 0 92 92" fill="none" xmlns="http://www.w3.org/2000/svg">
<path d="M32.7384 32.7373C28.6757 32.7373 25.3707 36.0429 25.3707 40.105V44.7976C23.6591 45.4071 22.4235 47.0273 22.4235 48.9459C22.4235 51.3839 24.4066 53.3677 26.8446 53.3677H28.8335C29.2532 54.5509 29.9145 55.6172 30.7635 56.5084C26.0185 57.4329 22.4229 61.6176 22.4229 66.6297V72.5241C22.4229 73.3368 23.0828 73.9974 23.8968 73.9974H50.4215C51.2335 73.9974 51.8948 73.3374 51.8948 72.5241V66.6297C51.8948 61.6176 48.2991 57.4329 43.5547 56.5084C44.4032 55.6166 45.0644 54.5509 45.4848 53.3677H47.4737C49.9104 53.3677 51.8942 51.3846 51.8942 48.9459C51.8942 47.0273 50.6579 45.4071 48.9476 44.7976V40.105C48.9476 36.0429 45.642 32.7373 41.5793 32.7373H32.7384ZM28.3172 50.4205H26.844C26.0319 50.4205 25.37 49.7586 25.37 48.9459C25.37 48.1339 26.0313 47.4726 26.844 47.4726H28.3172V50.4205ZM48.9476 66.6297V71.0502H25.3707V66.6297C25.3707 62.567 28.6757 59.2614 32.7384 59.2614H41.5793C45.642 59.2614 48.9476 62.567 48.9476 66.6297ZM31.2651 50.4205V47.4733H32.739C35.1144 47.4733 38.9426 46.1821 41.2075 43.9747C41.6924 44.7574 42.3198 45.4422 43.0539 45.993V50.4205C43.0539 53.6711 40.4101 56.3142 37.1595 56.3142C33.9088 56.3142 31.2651 53.6711 31.2651 50.4205ZM47.4743 47.4733C48.2863 47.4733 48.9482 48.1345 48.9482 48.9466C48.9482 49.7586 48.287 50.4211 47.4743 50.4211H46.0004V47.4739H47.4743V47.4733ZM46.0004 40.105V44.2724C44.2843 43.6649 43.0532 42.0255 43.0532 40.105C43.0532 39.2917 42.3932 38.6304 41.5793 38.6304C40.7654 38.6304 40.1054 39.291 40.1054 40.105C40.1054 42.1545 35.6466 44.5254 32.7384 44.5254H28.3172V40.105C28.3172 37.6676 30.301 35.6845 32.7384 35.6845H41.5793C44.0173 35.6845 46.0004 37.6676 46.0004 40.105Z" fill="#11305D"/>
<path d="M62.2098 0.319336H47.4744C40.9744 0.319336 35.6863 5.60806 35.6863 12.1081V20.9497H18.0031C15.5658 20.9497 13.582 22.9328 13.582 25.3702V87.2593C13.582 89.6967 15.5651 91.6805 18.0031 91.6805H56.3154C58.7528 91.6805 60.7365 89.6973 60.7365 87.2593V25.3702C60.7365 22.9328 58.7534 20.9497 56.3154 20.9497H38.6329V12.1081C38.6329 7.23084 42.5978 3.26589 47.4744 3.26589H50.4216C57.7324 3.26589 63.6837 9.21586 63.6837 16.5286V40.1055C63.6837 44.1676 66.988 47.4732 71.0507 47.4732C75.1134 47.4732 78.419 44.1676 78.419 40.1055V16.5286C78.419 7.59181 71.1466 0.319336 62.2098 0.319336ZM56.3154 23.8969C57.1274 23.8969 57.7893 24.5575 57.7893 25.3702V87.2593C57.7893 88.0714 57.1281 88.7339 56.3154 88.7339H18.0031C17.1911 88.7339 16.5292 88.072 16.5292 87.2593V25.3702C16.5292 24.5581 17.1905 23.8969 18.0031 23.8969H35.6863V26.9182H31.0314C30.2289 26.9182 29.5792 27.5686 29.5792 28.3704C29.5792 29.1722 30.2296 29.8219 31.0314 29.8219H43.2878C44.0896 29.8219 44.7394 29.1716 44.7394 28.3704C44.7394 27.5679 44.089 26.9182 43.2878 26.9182H38.6335V23.8969H56.3154ZM75.4718 40.1055C75.4718 42.5429 73.4881 44.526 71.0507 44.526C68.6134 44.526 66.6296 42.5429 66.6296 40.1055V16.5286C66.6296 11.0533 63.9016 6.20159 59.7309 3.26589H62.2098C69.5206 3.26589 75.4718 9.21586 75.4718 16.5286V40.1055Z" fill="#11305D"/>
<path d="M35.7076 76.9453H23.876C23.0736 76.9453 22.4238 77.5957 22.4238 78.3975C22.4238 79.1993 23.0742 79.8491 23.876 79.8491H35.7076C36.5094 79.8491 37.1592 79.1987 37.1592 78.3975C37.1592 77.5951 36.5094 76.9453 35.7076 76.9453Z" fill="#11305D"/>
<path d="M35.7076 82.8604H23.876C23.0736 82.8604 22.4238 83.5107 22.4238 84.3125C22.4238 85.1143 23.0742 85.7641 23.876 85.7641H35.7076C36.5094 85.7641 37.1592 85.1137 37.1592 84.3125C37.1592 83.5107 36.5094 82.8604 35.7076 82.8604Z" fill="#11305D"/>
<path d="M50.443 82.8604H41.5586C40.7562 82.8604 40.1064 83.5107 40.1064 84.3125C40.1064 85.1143 40.7568 85.7641 41.5586 85.7641H50.443C51.2448 85.7641 51.8946 85.1137 51.8946 84.3125C51.8952 83.5107 51.2448 82.8604 50.443 82.8604Z" fill="#11305D"/>
</svg>
