<?xml version="1.0" encoding="utf-8"?>
<!-- Generator: Adobe Illustrator 15.0.2, SVG Export Plug-In . SVG Version: 6.00 Build 0)  -->
<!DOCTYPE svg PUBLIC "-//W3C//DTD SVG 1.1//EN" "http://www.w3.org/Graphics/SVG/1.1/DTD/svg11.dtd">
<svg version="1.1" id="Layer_1" xmlns="http://www.w3.org/2000/svg" xmlns:xlink="http://www.w3.org/1999/xlink" x="0px" y="0px"
	 width="144px" height="144px" viewBox="0 0 144 144" enable-background="new 0 0 144 144" xml:space="preserve">
<g>
	<g>
		<g>
			<g>
				<path d="M125.601,118.5c-1.268,0-2.299,1.031-2.299,2.299v0.219c0,1.268,1.031,2.299,2.299,2.299s2.299-1.031,2.299-2.299
					v-0.219C127.899,119.531,126.868,118.5,125.601,118.5z"/>
			</g>
		</g>
	</g>
	<g>
		<g>
			<g>
				<path d="M34.554,95.752c-5.408,1.688-10.001,4.961-13.336,9.484c-3.348,4.54-5.117,9.922-5.117,15.562v20.402
					c0,1.268,1.031,2.299,2.298,2.299h107.202c1.268,0,2.299-1.031,2.299-2.299v-9.283c0-1.268-1.031-2.299-2.299-2.299
					s-2.299,1.031-2.299,2.299v6.984H91.929l12.597-11.173c0.855-0.758,1.021-2.046,0.386-2.999l-5.357-8.001l10.485-15.874
					l0.397,0.176c4.226,1.867,7.679,4.975,9.986,8.984c0.609,1.057,2.079,1.455,3.139,0.846c0.532-0.307,0.913-0.802,1.073-1.395
					s0.079-1.213-0.227-1.744c-3.316-5.761-8.636-10.014-14.98-11.977l-17.102-5.292c-1.966-0.608-3.62-1.918-4.656-3.688l-0.41-0.7
					l0.808-0.072c15.018-1.35,26.781-14.226,26.781-29.316V42.36c0-23.082-18.778-41.86-41.86-41.86h-1.977
					c-23.082,0-41.86,18.778-41.86,41.86v14.316c0,15.088,11.762,27.965,26.777,29.316l0.918,0.082l-0.552,0.739
					c-1.06,1.77-2.693,3.043-4.621,3.641L34.554,95.752z M85.001,138.902h-9.432l13.722-44.693l0.522,0.217
					c0.375,0.156,0.759,0.298,1.153,0.42l14.557,4.504l-10.648,16.122c-0.512,0.774-0.508,1.773,0.009,2.545l5.09,7.605
					L85.001,138.902z M68.89,138.902h-9.431l-14.974-13.279l5.091-7.606c0.516-0.771,0.52-1.771,0.008-2.545l-10.726-16.24
					l14.174-4.386c0.522-0.161,1.041-0.359,1.543-0.588l0.534-0.243L68.89,138.902z M52.531,138.902H20.697v-18.104
					c0-8.738,5.194-16.562,13.231-19.929l0.393-0.165l10.583,16.024l-5.356,8.003c-0.637,0.95-0.471,2.239,0.385,2.998
					L52.531,138.902z M72.23,134.117l-7.861-25.603L72,99.246l7.965,9.674L72.23,134.117z M81.582,103.653l-6.119-7.433l9.259-5.607
					l0.623,0.709l-0.067,0.295L81.582,103.653z M62.752,103.245l-3.787-12.333l9.519,5.373L62.752,103.245z M71.959,92.968
					l-10.651-6.013l0.128-0.398c0.408-1.271,0.614-2.598,0.614-3.94v-1.052l0.673,0.218c5.988,1.938,12.568,1.938,18.555,0
					l0.673-0.218v1.052c0,1.21,0.167,2.406,0.496,3.557l0.108,0.378L71.959,92.968z M86.547,81.496v-1.994l0.262-0.147
					c9.441-5.334,15.34-15.357,15.396-26.161l0.002-15.201c0-1.268-1.031-2.299-2.299-2.299s-2.299,1.031-2.299,2.299v1.284H96.45
					c-4.658,0-9.109-1.426-12.874-4.124l-0.599-0.43l0.609-0.414c2.931-1.992,5.69-4.277,8.203-6.789
					c0.435-0.434,0.673-1.012,0.673-1.625c0-0.614-0.238-1.192-0.673-1.626c-0.869-0.868-2.383-0.868-3.251,0
					c-9.825,9.826-22.891,15.237-36.787,15.237H46.39v-1.514c0-1.268-1.031-2.299-2.298-2.299s-2.299,1.031-2.299,2.299
					l0.002,15.194c0.089,10.863,5.988,20.853,15.396,26.168l0.261,0.147v1.993l-0.549-0.037
					c-12.984-0.874-23.154-11.759-23.154-24.781V42.36c0-20.546,16.716-37.263,37.263-37.263h1.977
					c20.547,0,37.264,16.717,37.264,37.263v14.316c0,13.021-10.171,23.907-23.155,24.782L86.547,81.496z M72,78.644
					c-12.955,0-23.886-9.691-25.426-22.544l-0.068-0.576h2.312l0.011,0.504c0.08,3.89,3.311,7.055,7.2,7.055h8.325
					c3.973,0,7.204-3.232,7.204-7.205v-3.602c0-3.973-3.231-7.204-7.204-7.204h-8.325c-3.315,0-6.19,2.247-6.991,5.465l-0.098,0.39
					h-2.55v-6.822h5.362c7.472,0,14.763-1.449,21.668-4.311c1.723-0.713,3.428-1.52,5.069-2.396l0.311-0.167l0.267,0.229
					c4.826,4.137,11,6.414,17.385,6.414h1.16v6.984h-2.35l-0.1-0.387c-0.823-3.18-3.691-5.399-6.977-5.399H79.86
					c-3.973,0-7.204,3.23-7.204,7.203v3.602c0,3.973,3.231,7.204,7.204,7.204h8.325c3.925,0,7.156-3.192,7.203-7.117l0.006-0.509
					h2.107l-0.067,0.575C95.925,68.922,84.99,78.644,72,78.644z M88.186,58.484H79.86c-1.438,0-2.607-1.17-2.607-2.607v-3.602
					c0-1.438,1.17-2.607,2.607-2.607h8.325c1.438,0,2.607,1.17,2.607,2.607v3.602C90.793,57.314,89.623,58.484,88.186,58.484z
					 M64.353,58.484h-8.324c-1.438,0-2.607-1.17-2.607-2.607v-3.602c0-1.438,1.17-2.607,2.607-2.607h8.324
					c1.438,0,2.607,1.17,2.607,2.607v3.602C66.96,57.314,65.791,58.484,64.353,58.484z"/>
			</g>
		</g>
	</g>
	<g>
		<g>
			<g>
				<path d="M70.892,9.685c-1.268,0-2.299,1.031-2.299,2.299s1.031,2.299,2.299,2.299h0.12c1.268,0,2.298-1.031,2.298-2.299
					s-1.03-2.299-2.298-2.299H70.892z"/>
			</g>
		</g>
	</g>
	<g>
		<g>
			<g>
				<path d="M60.995,11.373c-0.257,0-0.512,0.044-0.757,0.129c-3.435,1.199-6.627,2.957-9.489,5.223
					c-0.481,0.382-0.786,0.927-0.856,1.537c-0.072,0.609,0.1,1.211,0.48,1.691c0.763,0.964,2.266,1.14,3.228,0.376
					c2.464-1.948,5.206-3.457,8.152-4.485c1.196-0.418,1.83-1.731,1.413-2.927C62.844,11.993,61.972,11.373,60.995,11.373z"/>
			</g>
		</g>
	</g>
</g>
</svg>
