<svg width="92" height="92" viewBox="0 0 92 92" fill="none" xmlns="http://www.w3.org/2000/svg">
<path d="M80.2452 75.708C79.4351 75.708 78.7764 76.3667 78.7764 77.1768V77.3167C78.7764 78.1268 79.4351 78.7855 80.2452 78.7855C81.0553 78.7855 81.714 78.1268 81.714 77.3167V77.1768C81.7133 76.3667 81.0546 75.708 80.2452 75.708Z" fill="#11305D"/>
<path d="M22.0765 61.1748C18.6214 62.2532 15.687 64.3443 13.5563 67.234C11.4173 70.1346 10.2871 73.5731 10.2871 77.1764V90.211C10.2871 91.0211 10.9458 91.6798 11.7553 91.6798H80.2454C81.0556 91.6798 81.7142 91.0211 81.7142 90.211V84.2802C81.7142 83.4701 81.0556 82.8114 80.2454 82.8114C79.4353 82.8114 78.7766 83.4701 78.7766 84.2802V88.7422H58.7328L66.7809 81.6039C67.3271 81.1196 67.4332 80.2967 67.0275 79.6879L63.6049 74.5761L70.3037 64.4344L70.5573 64.5468C73.2573 65.7396 75.4634 67.7253 76.9373 70.2866C77.3264 70.9619 78.2655 71.2162 78.9427 70.8271C79.2826 70.631 79.5261 70.3147 79.6283 69.9359C79.7305 69.557 79.6787 69.1609 79.4832 68.8216C77.3647 65.141 73.9658 62.4238 69.9127 61.1697L58.9864 57.7887C57.7304 57.4002 56.6736 56.5633 56.0117 55.4324L55.7498 54.9852L56.266 54.9392C65.8609 54.0767 73.3761 45.8504 73.3761 36.2096V27.0632C73.3761 12.3164 61.3791 0.319336 46.6322 0.319336H45.3691C30.6223 0.319336 18.6252 12.3164 18.6252 27.0632V36.2096C18.6252 45.8491 26.1399 54.0761 35.7328 54.9392L36.3193 54.9916L35.9666 55.4638C35.2894 56.5946 34.2461 57.4079 33.0143 57.7899L22.0765 61.1748ZM54.3066 88.7428H48.2806L57.0474 60.189L57.3809 60.3276C57.6205 60.4273 57.8658 60.518 58.1175 60.5959L67.4178 63.4735L60.6149 73.7737C60.2878 74.2682 60.2904 74.9064 60.6207 75.3996L63.8726 80.2584L54.3066 88.7428ZM44.0134 88.7428H37.9881L28.4213 80.259L31.6739 75.3996C32.0036 74.9071 32.0061 74.2682 31.679 73.7737L24.8263 63.3981L33.8819 60.5959C34.2154 60.4931 34.547 60.3666 34.8677 60.2203L35.2089 60.065L44.0134 88.7428ZM33.5618 88.7428H13.2234V77.1764C13.2234 71.5938 16.5418 66.5951 21.6766 64.444L21.9277 64.3386L28.689 74.5761L25.2671 79.6891C24.8602 80.2961 24.9662 81.1196 25.5131 81.6045L33.5618 88.7428ZM46.1473 85.6858L41.125 69.3283L46.0004 63.4071L51.0891 69.5877L46.1473 85.6858ZM52.1222 66.2226L48.2128 61.4738L54.1283 57.8915L54.5263 58.3445L54.4835 58.533L52.1222 66.2226ZM40.0919 65.962L37.6724 58.0826L43.754 61.5153L40.0919 65.962ZM45.9742 59.3961L39.1694 55.5545L39.2511 55.3002C39.5118 54.4882 39.6434 53.6404 39.6434 52.783V52.1109L40.0734 52.2501C43.8991 53.4883 48.1029 53.4883 51.928 52.2501L52.3579 52.1109V52.783C52.3579 53.556 52.4646 54.3201 52.6748 55.0555L52.7438 55.297L45.9742 59.3961ZM55.2943 52.0668V50.7928L55.4617 50.6989C61.4934 47.2911 65.2622 40.8875 65.298 33.9849L65.2993 24.2732C65.2993 23.4631 64.6406 22.8044 63.8305 22.8044C63.0204 22.8044 62.3617 23.4631 62.3617 24.2732V25.0935H61.6212C58.6452 25.0935 55.8016 24.1825 53.3961 22.4588L53.0134 22.184L53.4025 21.9195C55.2751 20.6469 57.0378 19.187 58.6433 17.5821C58.9212 17.3048 59.0733 16.9356 59.0733 16.5439C59.0733 16.1516 58.9212 15.7824 58.6433 15.5051C58.0881 14.9505 57.1209 14.9505 56.5663 15.5051C50.2892 21.7828 41.9415 25.2398 33.0635 25.2398H29.6384V24.2726C29.6384 23.4624 28.9797 22.8038 28.1702 22.8038C27.3608 22.8038 26.7014 23.4624 26.7014 24.2726L26.7027 33.9798C26.7596 40.9201 30.5284 47.3026 36.5391 50.6983L36.7058 50.7922V52.0655L36.3551 52.0419C28.0597 51.4835 21.5622 44.5292 21.5622 36.2096V27.0632C21.5622 13.9366 32.2419 3.25631 45.3691 3.25631H46.6322C59.7595 3.25631 70.4398 13.9366 70.4398 27.0632V36.2096C70.4398 44.5285 63.9416 51.4835 55.6463 52.0425L55.2943 52.0668ZM46.0004 50.2447C37.7236 50.2447 30.7399 44.0532 29.756 35.8416L29.7125 35.4736H31.1896L31.1967 35.7956C31.2478 38.2808 33.312 40.3029 35.7967 40.3029H41.1154C43.6537 40.3029 45.718 38.238 45.718 35.6997V33.3984C45.718 30.8601 43.6537 28.7959 41.1154 28.7959H35.7967C33.6787 28.7959 31.8419 30.2315 31.3302 32.2874L31.2676 32.5366H29.6384V28.1781H33.0641C37.8379 28.1781 42.4961 27.2523 46.9076 25.4238C48.0084 24.9683 49.0977 24.4527 50.1461 23.8931L50.3448 23.7864L50.5154 23.9327C53.5987 26.5758 57.5432 28.0305 61.6225 28.0305H62.3636V32.4925H60.8622L60.7983 32.2453C60.2725 30.2136 58.4402 28.7959 56.3408 28.7959H51.022C48.4837 28.7959 46.4195 30.8595 46.4195 33.3978V35.6991C46.4195 38.2374 48.4837 40.3016 51.022 40.3016H56.3408C58.8484 40.3016 60.9127 38.2623 60.9427 35.7547L60.9465 35.4295H62.2927L62.2499 35.7968C61.2858 44.0334 54.2995 50.2447 46.0004 50.2447ZM56.3414 37.3647H51.022C50.1033 37.3647 49.3564 36.6172 49.3564 35.6991V33.3978C49.3564 32.4791 50.1039 31.7322 51.022 31.7322H56.3408C57.2595 31.7322 58.0064 32.4797 58.0064 33.3978V35.6991C58.007 36.6172 57.2595 37.3647 56.3414 37.3647ZM41.1148 37.3647H35.7967C34.8779 37.3647 34.1311 36.6172 34.1311 35.6991V33.3978C34.1311 32.4791 34.8786 31.7322 35.7967 31.7322H41.1148C42.0335 31.7322 42.7804 32.4797 42.7804 33.3978V35.6991C42.7804 36.6172 42.0335 37.3647 41.1148 37.3647Z" fill="#11305D"/>
<path d="M45.292 6.1875C44.4819 6.1875 43.8232 6.84619 43.8232 7.65631C43.8232 8.46642 44.4819 9.12511 45.292 9.12511H45.3687C46.1788 9.12511 46.8369 8.46642 46.8369 7.65631C46.8369 6.84619 46.1788 6.1875 45.3687 6.1875H45.292Z" fill="#11305D"/>
<path d="M38.9694 7.26562C38.8052 7.26562 38.6423 7.29374 38.4858 7.34804C36.2912 8.11407 34.2519 9.23724 32.4234 10.685C32.116 10.929 31.9212 11.2772 31.8765 11.6669C31.8305 12.056 31.9404 12.4406 32.1831 12.7473C32.6706 13.3632 33.6309 13.4756 34.2455 12.9875C35.8197 11.743 37.5715 10.7789 39.4537 10.1221C40.2178 9.85504 40.6229 9.01618 40.3564 8.25207C40.1507 7.66174 39.5936 7.26562 38.9694 7.26562Z" fill="#11305D"/>
</svg>
