<?xml version="1.0" encoding="utf-8"?>
<!-- Generator: Adobe Illustrator 15.0.2, SVG Export Plug-In . SVG Version: 6.00 Build 0)  -->
<!DOCTYPE svg PUBLIC "-//W3C//DTD SVG 1.1//EN" "http://www.w3.org/Graphics/SVG/1.1/DTD/svg11.dtd">
<svg version="1.1" id="Layer_1" xmlns="http://www.w3.org/2000/svg" xmlns:xlink="http://www.w3.org/1999/xlink" x="0px" y="0px"
	 width="200px" height="200px" viewBox="0 0 200 200" enable-background="new 0 0 200 200" xml:space="preserve">
<g id="Layer_1_1_">
</g>
<g id="Layer_2">
	<g>
		<path fill="#11305D" d="M157.053,155.086H58.075c-0.275,0-0.5,0.225-0.5,0.5c0,0.277,0.225,0.5,0.5,0.5h98.978
			c0.275,0,0.5-0.223,0.5-0.5C157.553,155.311,157.328,155.086,157.053,155.086z"/>
		<path fill="#11305D" d="M178.373,155.086H163.07c-0.273,0-0.5,0.225-0.5,0.5c0,0.277,0.227,0.5,0.5,0.5h15.303
			c0.275,0,0.5-0.223,0.5-0.5C178.873,155.311,178.648,155.086,178.373,155.086z"/>
		<path fill="#11305D" d="M106.684,88.522V67.451c0-2.644-2.154-4.793-4.801-4.793H50.638c-2.646,0-4.8,2.149-4.8,4.793v21.071
			c0,2.644,2.152,4.793,4.8,4.793h51.243C104.529,93.315,106.684,91.166,106.684,88.522z M46.839,88.522V67.451
			c0-2.093,1.704-3.793,3.8-3.793h51.244c2.096,0,3.801,1.7,3.801,3.793v21.071c0,2.093-1.705,3.793-3.801,3.793H50.638
			C48.543,92.315,46.839,90.615,46.839,88.522z"/>
		<path fill="#11305D" d="M43.718,131.811h11.871c0.276,0,0.5-0.225,0.5-0.5c0-0.276-0.224-0.5-0.5-0.5H43.718
			c-0.276,0-0.5,0.224-0.5,0.5C43.218,131.586,43.442,131.811,43.718,131.811z"/>
		<path fill="#11305D" d="M96.932,131.811h11.871c0.275,0,0.5-0.225,0.5-0.5c0-0.276-0.225-0.5-0.5-0.5H96.932
			c-0.275,0-0.5,0.224-0.5,0.5C96.432,131.586,96.657,131.811,96.932,131.811z"/>
		<path fill="#11305D" d="M99.823,112.264v-5.758c0-0.277-0.225-0.5-0.5-0.5H53.202c-0.276,0-0.5,0.223-0.5,0.5v5.758
			c0,0.275,0.224,0.5,0.5,0.5h46.121C99.598,112.764,99.823,112.539,99.823,112.264z M98.823,111.764H53.702v-4.758h45.121V111.764z
			"/>
		<path fill="#11305D" d="M59.548,151.305v-8.055h33.425v8.055c0,0.275,0.225,0.5,0.5,0.5h16.943c0.277,0,0.5-0.225,0.5-0.5v-8.137
			c3.404-0.498,6.029-3.422,6.029-6.955v-17.297V94.478c0.092,0.094,0.217,0.153,0.359,0.153h1.594c3.887,0,7.051-3.156,7.051-7.035
			V74.794c0-3.881-3.164-7.037-7.051-7.037h-1.594c-0.144,0-0.269,0.06-0.359,0.152v-7.552V43.063c0-3.88-3.162-7.037-7.051-7.037
			h-67.27c-3.889,0-7.051,3.157-7.051,7.037v17.295v7.552c-0.092-0.094-0.217-0.152-0.358-0.152H33.62
			c-3.887,0-7.051,3.156-7.051,7.037v12.803c0,3.879,3.164,7.035,7.051,7.035h1.597c0.142,0,0.269-0.061,0.358-0.153v24.437v17.297
			c0,3.531,2.623,6.455,6.026,6.953v8.14c0,0.274,0.224,0.5,0.5,0.5h16.946C59.325,151.805,59.548,151.58,59.548,151.305z
			 M109.916,143.25v7.555H93.972v-7.555h15.922H109.916z M36.575,118.916V60.358c0-3.327,2.715-6.034,6.051-6.034h67.269
			c3.336,0,6.051,2.707,6.051,6.034v58.558v2.359H92.5c-0.133,0-0.26,0.055-0.354,0.146l-7.699,7.685H68.073l-7.697-7.685
			c-0.094-0.094-0.221-0.146-0.354-0.146H36.575V118.916z M117.305,68.757h1.594c3.336,0,6.052,2.708,6.052,6.037v12.803
			c0,3.328-2.716,6.035-6.052,6.035h-1.594c-0.143,0-0.268,0.06-0.359,0.152V68.603C117.037,68.697,117.162,68.757,117.305,68.757z
			 M36.575,43.063c0-3.329,2.715-6.037,6.051-6.037h67.269c3.336,0,6.051,2.708,6.051,6.037v13.702
			c-1.229-2.059-3.479-3.441-6.051-3.441h-67.27c-2.571,0-4.818,1.385-6.051,3.441L36.575,43.063L36.575,43.063z M35.216,93.632
			H33.62c-3.336,0-6.051-2.707-6.051-6.035V74.794c0-3.329,2.715-6.037,6.051-6.037h1.597c0.142,0,0.269-0.061,0.358-0.153v25.183
			C35.483,93.691,35.358,93.632,35.216,93.632z M36.575,136.213v-13.936h23.239l7.697,7.684c0.094,0.094,0.222,0.145,0.354,0.145
			h16.789c0.133,0,0.26-0.053,0.354-0.145l7.698-7.684h23.237v13.936c0,3.328-2.715,6.037-6.051,6.037h-16.42H59.048H42.625
			C39.29,142.25,36.575,139.541,36.575,136.213z M58.548,150.805H42.601v-7.555h0.024h15.922L58.548,150.805L58.548,150.805z"/>
		<path fill="#11305D" d="M125.449,128.162c-0.275,0-0.5,0.223-0.5,0.5v22.643c0,0.275,0.225,0.5,0.5,0.5h29.475
			c0.273,0,0.5-0.225,0.5-0.5v-22.643c0-0.277-0.227-0.5-0.5-0.5H125.449z M125.949,129.162h17.932v21.643h-17.932V129.162z"/>
		<path fill="#11305D" d="M136.5,124.4h29.469c0.277,0,0.5-0.226,0.5-0.5v-22.646c0-0.276-0.223-0.5-0.5-0.5H136.5
			c-0.277,0-0.5,0.224-0.5,0.5V123.9C136,124.176,136.223,124.4,136.5,124.4z M137,101.756h20.625V123.4H137V101.756z"/>
		<path fill="#11305D" d="M174.797,151.305v-22.643c0-0.277-0.225-0.5-0.5-0.5h-14.488c-0.274,0-0.5,0.223-0.5,0.5v22.643
			c0,0.275,0.226,0.5,0.5,0.5h14.488C174.572,151.805,174.797,151.58,174.797,151.305z"/>
	</g>
</g>
</svg>
