<?xml version="1.0" encoding="utf-8"?>
<!-- Generator: Adobe Illustrator 15.0.2, SVG Export Plug-In . SVG Version: 6.00 Build 0)  -->
<!DOCTYPE svg PUBLIC "-//W3C//DTD SVG 1.1//EN" "http://www.w3.org/Graphics/SVG/1.1/DTD/svg11.dtd">
<svg version="1.1" id="Layer_1" xmlns="http://www.w3.org/2000/svg" xmlns:xlink="http://www.w3.org/1999/xlink" x="0px" y="0px"
	 width="144px" height="144px" viewBox="0 0 144 144" enable-background="new 0 0 144 144" xml:space="preserve">
<g>
	<path d="M139.171,92.044l-14.023-2.845l-14.319-24.33c-0.407-0.69-1.158-1.119-1.96-1.119h-6.649v-6.818
		c0-1.254-1.021-2.273-2.274-2.273h-7.054c-1.254,0-2.273,1.02-2.273,2.273v6.818h-7.066c-1.254,0-2.274,1.02-2.274,2.273v30.781
		h-8.361V56.928c0-1.254-1.02-2.273-2.273-2.273H18.196c-1.254,0-2.273,1.02-2.273,2.273v39.877H5.284
		c-1.251,0-2.27,1.019-2.271,2.273v33.604c0,1.254,1.021,2.273,2.273,2.273h12.008c3.223,5.274,9.051,8.545,15.244,8.545
		c3.221,0,6.391-0.881,9.166-2.547c2.461-1.476,4.549-3.548,6.046-5.998h48.504c3.224,5.274,9.051,8.545,15.244,8.545
		c3.221,0,6.391-0.881,9.167-2.547c2.461-1.477,4.549-3.548,6.046-5.998h12c1.254,0,2.274-1.02,2.274-2.273v-38.41
		C140.986,93.197,140.224,92.261,139.171,92.044z M112.64,76.915l7.079,12.038H95.164V76.915H112.64z M95.164,59.201h2.507v4.545
		h-2.507V59.201z M46.696,59.201h21.672v21.68H46.696V59.201z M46.696,85.428h21.672v11.377H46.696V85.428z M20.47,59.201h21.68
		v21.68H20.47V59.201z M20.47,85.428h21.68v11.377H20.47V85.428z M7.562,130.408v-9.553h7.714c-0.872,3.134-0.867,6.422,0.016,9.553
		H7.562z M32.691,138.953l-0.171-0.004c-7.36,0-13.35-5.988-13.35-13.349s5.988-13.349,13.35-13.349
		c7.36,0,13.349,5.988,13.349,13.35C45.864,132.899,39.969,138.854,32.691,138.953z M32.503,107.702
		c-3.195,0-6.343,0.868-9.104,2.51c-2.511,1.493-4.633,3.6-6.146,6.097H7.562v-14.957h73.715v14.957h-33.49
		C44.569,110.996,38.727,107.702,32.503,107.702z M49.756,130.408c0.883-3.131,0.888-6.419,0.016-9.553h44.464
		c-0.873,3.134-0.868,6.422,0.015,9.553H49.756z M111.481,138.954c-7.36,0-13.349-5.987-13.349-13.348
		c-0.001-7.36,5.987-13.35,13.348-13.351c7.36,0,13.349,5.987,13.351,13.346C124.825,132.955,118.838,138.945,111.481,138.954z
		 M136.442,130.413h-7.729c0.883-3.13,0.888-6.418,0.015-9.552h7.715V130.413z M136.444,99.092h-7.339
		c-1.254,0-2.274,1.021-2.274,2.274v7.795c0,1.254,1.021,2.273,2.274,2.273h7.339v4.874h-9.695
		c-3.218-5.312-9.06-8.605-15.283-8.605c-3.195,0-6.344,0.867-9.104,2.51c-2.511,1.492-4.633,3.599-6.146,6.096H85.824V68.293
		h21.743l2.396,4.069H92.891c-1.254,0-2.273,1.021-2.273,2.274v16.59c0,1.254,1.02,2.273,2.273,2.273l30.56-0.005l12.994,2.635
		V99.092z M136.444,103.64l-0.002,3.248h-5.063v-3.248H136.444z"/>
	<path d="M32.522,117.513c-4.46,0-8.089,3.629-8.089,8.089c0,4.461,3.629,8.09,8.089,8.09c4.461,0,8.09-3.629,8.09-8.09
		C40.607,121.146,36.979,117.517,32.522,117.513z M32.522,129.143c-1.953,0-3.542-1.589-3.542-3.542s1.589-3.542,3.542-3.542
		s3.542,1.59,3.542,3.543C36.062,127.552,34.474,129.141,32.522,129.143z"/>
	<path d="M111.481,117.513c-4.459,0-8.089,3.628-8.09,8.087c-0.002,4.46,3.626,8.09,8.087,8.092c4.461,0,8.09-3.628,8.091-8.09
		C119.564,121.147,115.938,117.519,111.481,117.513z M111.481,129.143c-1.952,0-3.541-1.588-3.543-3.539
		c-0.001-1.953,1.588-3.543,3.54-3.545l0.002-0.25v0.25c1.952,0,3.541,1.588,3.542,3.543
		C115.02,127.55,113.432,129.139,111.481,129.143z"/>
	<path d="M97.522,96.805h-4.632c-1.254,0-2.273,1.02-2.273,2.273s1.02,2.273,2.273,2.273h4.632c1.254,0,2.274-1.02,2.274-2.273
		S98.776,96.805,97.522,96.805z"/>
	<path d="M18.209,50.315h33.744c1.254,0,2.271-1.018,2.271-2.272c0-1.256-1.018-2.273-2.271-2.273H18.209
		c-1.256,0-2.273,1.018-2.273,2.273C15.936,49.298,16.953,50.315,18.209,50.315z"/>
	<path d="M18.209,41.649h33.744c1.254,0,2.271-1.018,2.271-2.272c0-1.256-1.018-2.273-2.271-2.273H18.209
		c-1.256,0-2.273,1.018-2.273,2.273C15.936,40.632,16.953,41.649,18.209,41.649z"/>
	<path d="M18.209,32.983h33.744c1.254,0,2.271-1.018,2.271-2.272c0-1.256-1.018-2.273-2.271-2.273H18.209
		c-1.256,0-2.273,1.018-2.273,2.273C15.936,31.966,16.953,32.983,18.209,32.983z"/>
</g>
</svg>
