<svg width="92" height="92" viewBox="0 0 92 92" fill="none" xmlns="http://www.w3.org/2000/svg">
<path d="M88.9146 58.8064L79.9555 56.9887L70.8073 41.4446C70.5472 41.0037 70.0674 40.7296 69.555 40.7296H65.3071V36.3737C65.3071 35.5725 64.6548 34.9215 63.8542 34.9215H59.3475C58.5463 34.9215 57.8953 35.5732 57.8953 36.3737V40.7296H53.3809C52.5798 40.7296 51.9281 41.3813 51.9281 42.1818V61.8475H46.5863V36.3711C46.5863 35.57 45.9347 34.9189 45.1341 34.9189H11.6251C10.8239 34.9189 10.1729 35.5706 10.1729 36.3711V61.8481H3.37572C2.57647 61.8481 1.92544 62.4991 1.9248 63.3003V84.7695C1.9248 85.5707 2.57711 86.2217 3.377 86.2217H11.0488C13.1079 89.5912 16.8314 91.681 20.788 91.681C22.8459 91.681 24.8711 91.1182 26.6441 90.0538C28.2164 89.1108 29.5504 87.787 30.5068 86.2217H61.4954C63.5552 89.5912 67.278 91.681 71.2347 91.681C73.2925 91.681 75.3178 91.1182 77.0914 90.0538C78.6637 89.1101 79.9977 87.787 80.9541 86.2217H88.6208C89.4219 86.2217 90.0736 85.5701 90.0736 84.7695V60.2298C90.0742 59.543 89.5874 58.945 88.9146 58.8064ZM71.9643 49.1406L76.487 56.8316H60.7991V49.1406H71.9643ZM60.7991 37.8233H62.4007V40.7271H60.7991V37.8233ZM29.8334 37.8233H43.6794V51.6744H29.8334V37.8233ZM29.8334 54.5795H43.6794V61.8481H29.8334V54.5795ZM13.0779 37.8233H26.929V51.6744H13.0779V37.8233ZM13.0779 54.5795H26.929V61.8481H13.0779V54.5795ZM4.83111 83.3167V77.2134H9.7595C9.20239 79.2157 9.20558 81.3163 9.76972 83.3167H4.83111ZM20.8857 88.776L20.7765 88.7735C16.0743 88.7735 12.2473 84.9478 12.2473 80.2449C12.2473 75.5421 16.073 71.7164 20.7765 71.7164C25.4787 71.7164 29.305 75.5421 29.305 80.2456C29.3018 84.9082 25.5356 88.7128 20.8857 88.776ZM20.7656 68.8101C18.7244 68.8101 16.7132 69.3646 14.9492 70.4137C13.3449 71.3676 11.9892 72.7137 11.0226 74.309H4.83111V64.7531H51.9268V74.309H30.5304C28.4745 70.9146 24.7421 68.8101 20.7656 68.8101ZM31.7884 83.3167C32.3525 81.3163 32.3557 79.2157 31.7986 77.2134H60.2062C59.6484 79.2157 59.6516 81.3163 60.2157 83.3167H31.7884ZM71.2238 88.7766C66.5216 88.7766 62.6953 84.9516 62.6953 80.2488C62.6946 75.5465 66.5203 71.7196 71.2232 71.7189C75.9254 71.7189 79.7517 75.544 79.753 80.2456C79.7491 84.944 75.9241 88.7709 71.2238 88.7766ZM87.1711 83.3199H82.2331C82.7973 81.3202 82.8005 79.2195 82.2427 77.2172H87.1717V83.3199H87.1711ZM87.1724 63.3093H82.4836C81.6824 63.3093 81.0308 63.9616 81.0308 64.7621V69.7422C81.0308 70.5434 81.6831 71.1944 82.4836 71.1944H87.1724V74.3084H80.9784C78.9224 70.9146 75.19 68.8107 71.2142 68.8107C69.173 68.8107 67.1611 69.3646 65.3978 70.4143C63.7935 71.3676 62.4378 72.7137 61.4712 74.309H54.8318V43.6321H68.7232L70.254 46.2318H59.3469C58.5457 46.2318 57.8947 46.8841 57.8947 47.6846V58.2838C57.8947 59.0849 58.5463 59.7359 59.3469 59.7359L78.8713 59.7328L87.173 61.4162V63.3093H87.1724ZM87.1724 66.2149L87.1711 68.29H83.9364V66.2149H87.1724Z" fill="#11305D"/>
<path d="M20.7773 75.0781C17.9279 75.0781 15.6094 77.3967 15.6094 80.2461C15.6094 83.0962 17.9279 85.4147 20.7773 85.4147C23.6274 85.4147 25.946 83.0962 25.946 80.2461C25.9428 77.3992 23.6249 75.0807 20.7773 75.0781ZM20.7773 82.5084C19.5296 82.5084 18.5144 81.4932 18.5144 80.2455C18.5144 78.9977 19.5296 77.9825 20.7773 77.9825C22.0251 77.9825 23.0403 78.9983 23.0403 80.2461C23.039 81.4919 22.0245 82.5071 20.7773 82.5084Z" fill="#11305D"/>
<path d="M71.2243 75.0781C68.3755 75.0781 66.0563 77.396 66.0557 80.2448C66.0544 83.0943 68.3723 85.4134 71.2224 85.4147C74.0724 85.4147 76.391 83.0968 76.3916 80.2461C76.3884 77.3998 74.0718 75.082 71.2243 75.0781ZM71.2243 82.5084C69.9772 82.5084 68.962 81.4938 68.9607 80.2474C68.9601 78.9996 69.9752 77.9838 71.2224 77.9825L71.2236 77.8228V77.9825C72.4708 77.9825 73.4859 78.9971 73.4866 80.2461C73.4853 81.4907 72.4708 82.5059 71.2243 82.5084Z" fill="#11305D"/>
<path d="M62.3061 61.8477H59.3467C58.5456 61.8477 57.8945 62.4993 57.8945 63.2999C57.8945 64.1004 58.5462 64.752 59.3467 64.752H62.3061C63.1072 64.752 63.7589 64.1004 63.7589 63.2999C63.7589 62.4993 63.1072 61.8477 62.3061 61.8477Z" fill="#11305D"/>
<path d="M11.6338 32.1459H33.1925C33.9937 32.1459 34.6434 31.4955 34.6434 30.6944C34.6434 29.8919 33.993 29.2422 33.1925 29.2422H11.6338C10.8314 29.2422 10.1816 29.8926 10.1816 30.6944C10.1816 31.4962 10.8314 32.1459 11.6338 32.1459Z" fill="#11305D"/>
<path d="M11.6338 26.6088H33.1925C33.9937 26.6088 34.6434 25.9584 34.6434 25.1573C34.6434 24.3548 33.993 23.7051 33.1925 23.7051H11.6338C10.8314 23.7051 10.1816 24.3555 10.1816 25.1573C10.1816 25.9591 10.8314 26.6088 11.6338 26.6088Z" fill="#11305D"/>
<path d="M11.6338 21.0727H33.1925C33.9937 21.0727 34.6434 20.4223 34.6434 19.6211C34.6434 18.8187 33.993 18.1689 33.1925 18.1689H11.6338C10.8314 18.1689 10.1816 18.8193 10.1816 19.6211C10.1816 20.4229 10.8314 21.0727 11.6338 21.0727Z" fill="#11305D"/>
</svg>
