<?xml version="1.0" encoding="utf-8"?>
<!-- Generator: Adobe Illustrator 15.0.2, SVG Export Plug-In . SVG Version: 6.00 Build 0)  -->
<!DOCTYPE svg PUBLIC "-//W3C//DTD SVG 1.1//EN" "http://www.w3.org/Graphics/SVG/1.1/DTD/svg11.dtd">
<svg version="1.1" id="Layer_1" xmlns="http://www.w3.org/2000/svg" xmlns:xlink="http://www.w3.org/1999/xlink" x="0px" y="0px"
	 width="144px" height="144px" viewBox="0 0 144 144" enable-background="new 0 0 144 144" xml:space="preserve">
<g>
	<g>
		<path d="M118.198,55.141c-8.409,0-15.25-6.817-15.25-15.197c0-8.379,6.841-15.196,15.25-15.196
			c8.408,0,15.248,6.817,15.248,15.196C133.446,48.323,126.606,55.141,118.198,55.141z M118.198,29.747
			c-5.652,0-10.25,4.574-10.25,10.196c0,5.623,4.598,10.197,10.25,10.197c5.65,0,10.248-4.574,10.248-10.197
			C128.446,34.321,123.849,29.747,118.198,29.747z"/>
		<path d="M17.413,143.5c-2.248,0-4.363-0.873-5.953-2.457c-1.594-1.589-2.47-3.699-2.469-5.944
			c0.001-2.244,0.879-4.354,2.473-5.939l72.924-72.602l-7.969-8.152l-11.166,9.752c-1.318,1.15-3.007,1.784-4.756,1.784
			c-2.079,0-4.058-0.893-5.43-2.448c-1.274-1.449-1.906-3.304-1.779-5.225c0.125-1.921,0.995-3.678,2.448-4.947l18.112-15.82
			c0.07-0.062,0.156-0.13,0.243-0.195c0.048-0.038,0.097-0.076,0.147-0.113c0.092-0.074,0.25-0.186,0.411-0.291l0.114-0.075
			c0.215-0.131,0.358-0.213,0.506-0.289c0.023-0.014,0.105-0.056,0.184-0.093c0.141-0.067,0.273-0.127,0.409-0.182
			c0.058-0.024,0.114-0.047,0.171-0.069c0.022-0.009,0.087-0.033,0.109-0.041c0.142-0.05,0.281-0.097,0.424-0.137
			c0.043-0.015,0.139-0.041,0.232-0.065c0.125-0.032,0.255-0.062,0.387-0.089l0.229-0.041c0.193-0.032,0.336-0.05,0.476-0.063
			c0.083-0.009,0.198-0.018,0.315-0.023c0.111-0.006,0.219-0.011,0.325-0.013c0.159-0.009,0.275,0.002,0.396,0.008
			c0.096,0.004,0.196,0.01,0.3,0.019c0.127,0.011,0.262,0.027,0.396,0.046c0.056,0.007,0.156,0.021,0.256,0.039
			c0.147,0.026,0.293,0.058,0.439,0.093l0.254,0.066c0.131,0.038,0.271,0.081,0.409,0.128c0.085,0.03,0.151,0.055,0.21,0.078
			c0.157,0.058,0.312,0.125,0.469,0.197c0.102,0.047,0.168,0.079,0.233,0.114c0.091,0.044,0.241,0.126,0.388,0.213
			c0.061,0.034,0.117,0.069,0.174,0.105c0.154,0.095,0.305,0.198,0.453,0.309c0.033,0.024,0.08,0.06,0.132,0.101
			c0.142,0.108,0.276,0.225,0.413,0.346c0.016,0.015,0.046,0.043,0.077,0.072c0.093,0.083,0.169,0.152,0.241,0.227l25.047,25.616
			c1.284,1.314,2.02,3.093,2.047,4.925c0.008,0.083,0.013,0.168,0.013,0.254V77.67l15.964-0.944
			c4.301-0.238,7.902,3.013,8.152,7.219c0.123,2.053-0.564,4.029-1.934,5.565c-1.367,1.533-3.252,2.444-5.307,2.565l-26.533,1.568
			c-4.262,0.242-7.902-3.011-8.152-7.218c-0.027-0.467-0.012-0.936,0.045-1.398V83.28l-6.609,6.581l20.159,21.919
			c1.526,1.581,2.364,3.718,2.319,5.972c-0.045,2.255-0.969,4.356-2.6,5.919c-1.381,1.321-3.18,2.138-5.08,2.31
			c-0.082,0.012-0.166,0.019-0.249,0.021l-38.647,1.426c-4.288,0.177-7.801-3.14-7.957-7.371c-0.156-4.22,3.16-7.779,7.393-7.936
			l21.455-0.791L68.917,95.692l-45.555,45.355C21.771,142.63,19.659,143.5,17.413,143.5z M76.554,42.468
			c0.65,0,1.299,0.253,1.787,0.752l11.354,11.613c0.959,0.981,0.949,2.552-0.023,3.52l-74.68,74.351c-0.645,0.642-1,1.493-1,2.398
			s0.354,1.758,0.998,2.399c1.291,1.286,3.553,1.288,4.848,0.002l47.396-47.188c0.48-0.479,1.111-0.781,1.818-0.728
			c0.68,0.015,1.324,0.306,1.785,0.807l19.812,21.543c0.66,0.718,0.842,1.755,0.467,2.655c-0.376,0.899-1.24,1.5-2.215,1.535
			l-26.875,0.99c-1.477,0.055-2.634,1.29-2.58,2.755c0.053,1.436,1.228,2.562,2.674,2.562l0.102-0.002l38.508-1.421
			c0.019-0.002,0.038-0.003,0.057-0.005c0.812-0.057,1.552-0.384,2.14-0.947c0.665-0.637,1.041-1.491,1.06-2.407
			c0.018-0.914-0.323-1.782-0.961-2.443l-21.826-23.73c-0.908-0.988-0.875-2.517,0.076-3.464l12.576-12.521
			c0.716-0.714,1.789-0.926,2.724-0.537c0.933,0.388,1.54,1.299,1.54,2.309v7.934c0,0.126-0.009,0.251-0.027,0.375
			c-0.029,0.186-0.037,0.374-0.027,0.56c0.085,1.415,1.271,2.524,2.701,2.525l0.166-0.006l26.534-1.568
			c0.725-0.042,1.388-0.362,1.868-0.901c0.479-0.535,0.719-1.225,0.676-1.939c-0.084-1.419-1.271-2.529-2.701-2.529l-0.166,0.005
			l-18.611,1.101c-0.695,0.037-1.361-0.205-1.862-0.677c-0.501-0.473-0.785-1.131-0.785-1.819V62.94
			c-0.013-0.114-0.017-0.23-0.013-0.347c0.02-0.602-0.201-1.17-0.623-1.602L80.208,35.387c-0.033-0.03-0.093-0.081-0.124-0.113
			c-0.008-0.004-0.045-0.039-0.085-0.069c-0.039-0.028-0.076-0.058-0.113-0.089c0-0.005-0.031-0.02-0.066-0.039
			c-0.041-0.025-0.08-0.051-0.12-0.078c0.003,0.01-0.047-0.021-0.103-0.049l-0.142-0.064c-0.028-0.01-0.086-0.032-0.113-0.043
			l-0.552-0.113c-0.003-0.001-0.098-0.006-0.101-0.006l-0.125-0.002l-0.093,0.005c-0.012,0.002-0.102,0.009-0.112,0.01
			c-0.003,0-0.147,0.021-0.149,0.021l-0.168,0.037c-0.018,0.005-0.083,0.023-0.1,0.028l-0.092,0.031
			c-0.033,0.014-0.072,0.027-0.097,0.038c-0.047,0.019-0.093,0.039-0.138,0.061c-0.106,0.056-0.154,0.085-0.201,0.113l-0.02,0.015
			c-0.047,0.03-0.082,0.054-0.115,0.08c-0.034,0.029-0.075,0.06-0.111,0.087c-0.008,0.007-0.047,0.036-0.068,0.053L59.025,51.087
			c-0.444,0.389-0.71,0.925-0.749,1.51c-0.038,0.585,0.154,1.149,0.544,1.592c0.774,0.878,2.253,0.98,3.144,0.203l12.945-11.307
			C75.382,42.672,75.968,42.468,76.554,42.468z"/>
	</g>
	<g>
		<path fill="#7DBB00" d="M45.541,86.925c-0.642,0-1.284-0.246-1.772-0.736L24.965,67.286c-0.974-0.979-0.97-2.562,0.009-3.535
			L38.6,50.195c0.468-0.466,1.103-0.728,1.763-0.728c0.002,0,0.005,0,0.007,0c0.663,0.002,1.298,0.267,1.767,0.736L60.94,69.107
			c0.467,0.47,0.729,1.106,0.727,1.77s-0.266,1.298-0.736,1.766L47.304,86.197C46.816,86.683,46.179,86.925,45.541,86.925z
			 M30.272,65.532L45.55,80.89l10.082-10.028L40.354,55.503L30.272,65.532z"/>
		<path fill="#7DBB00" d="M47.861,73.914c-0.642,0-1.284-0.246-1.772-0.737l-8.104-8.148c-0.975-0.979-0.97-2.562,0.01-3.535
			c0.978-0.975,2.562-0.969,3.535,0.01l8.104,8.148c0.974,0.979,0.969,2.562-0.01,3.535C49.137,73.672,48.499,73.914,47.861,73.914z
			"/>
	</g>
</g>
</svg>
