<svg width="92" height="100" viewBox="0 0 92 100" fill="none" xmlns="http://www.w3.org/2000/svg">
<g filter="url(#filter0_d_110:143)">
<path d="M75.5155 35.2293C70.1431 35.2293 65.7725 30.874 65.7725 25.5201C65.7725 20.1668 70.1431 15.8115 75.5155 15.8115C80.8873 15.8115 85.2573 20.1668 85.2573 25.5201C85.2573 30.8733 80.8873 35.2293 75.5155 35.2293ZM75.5155 19.0053C71.9045 19.0053 68.9669 21.9276 68.9669 25.5194C68.9669 29.1119 71.9045 32.0342 75.5155 32.0342C79.1252 32.0342 82.0628 29.1119 82.0628 25.5194C82.0628 21.9276 79.1259 19.0053 75.5155 19.0053Z" fill="#11305D"/>
<path d="M11.1249 91.6803C9.68864 91.6803 8.33739 91.1226 7.32156 90.1106C6.30317 89.0954 5.7435 87.7473 5.74414 86.313C5.74478 84.8794 6.30572 83.5313 7.32411 82.5187L53.9145 36.1341L48.8231 30.9258L41.6893 37.1563C40.8473 37.891 39.7682 38.2961 38.6508 38.2961C37.3225 38.2961 36.0581 37.7255 35.1816 36.7321C34.3676 35.8063 33.9639 34.6212 34.045 33.3939C34.1249 32.1666 34.6807 31.044 35.609 30.2333L47.1806 20.1261C47.2253 20.0865 47.2802 20.043 47.3358 20.0015C47.3665 19.9772 47.3978 19.9529 47.4297 19.9293C47.4885 19.882 47.5895 19.8105 47.6923 19.7434L47.7651 19.6955C47.9025 19.6118 47.9939 19.5594 48.0884 19.5108C48.1031 19.5019 48.1555 19.475 48.206 19.4514C48.2961 19.4086 48.3804 19.3703 48.4673 19.3351C48.5043 19.3198 48.5401 19.3051 48.5765 19.291C48.5906 19.2853 48.6321 19.27 48.6462 19.2648C48.7369 19.2329 48.8257 19.2029 48.9171 19.1773C48.9445 19.1677 49.0059 19.1511 49.0653 19.1358C49.1451 19.1153 49.2282 19.0962 49.3125 19.0789L49.4588 19.0527C49.5821 19.0323 49.6735 19.0208 49.763 19.0125C49.816 19.0067 49.8895 19.001 49.9642 18.9978C50.0351 18.994 50.1041 18.9908 50.1718 18.9895C50.2734 18.9837 50.3475 18.9908 50.4248 18.9946C50.4862 18.9971 50.5501 19.001 50.6165 19.0067C50.6976 19.0138 50.7839 19.024 50.8695 19.0361C50.9053 19.0406 50.9692 19.0495 51.0331 19.061C51.127 19.0776 51.2203 19.0981 51.3135 19.1205L51.4758 19.1626C51.5595 19.1869 51.649 19.2144 51.7371 19.2444C51.7914 19.2636 51.8336 19.2795 51.8713 19.2942C51.9716 19.3313 52.0706 19.3741 52.1709 19.4201C52.2361 19.4501 52.2783 19.4706 52.3198 19.4929C52.3779 19.521 52.4738 19.5734 52.5677 19.629C52.6066 19.6507 52.6424 19.6731 52.6788 19.6961C52.7772 19.7568 52.8737 19.8226 52.9683 19.8935C52.9893 19.9088 53.0194 19.9318 53.0526 19.958C53.1433 20.027 53.2289 20.1018 53.3165 20.1791C53.3267 20.1887 53.3458 20.2066 53.3656 20.2251C53.4251 20.2781 53.4736 20.3222 53.5196 20.3701L69.5219 36.7359C70.3422 37.5754 70.8124 38.712 70.8297 39.8824C70.8348 39.9355 70.838 39.9898 70.838 40.0447V49.6223L81.0372 49.0192C83.7851 48.8671 86.0857 50.9441 86.2454 53.6313C86.324 54.943 85.8851 56.2054 85.0098 57.1867C84.1365 58.1661 82.9321 58.7482 81.6192 58.8255L64.6676 59.8273C61.9446 59.9819 59.6191 57.9036 59.4594 55.2158C59.4421 54.9174 59.4517 54.6178 59.4881 54.3226V53.2065L55.2657 57.411L68.1451 71.4148C69.12 72.4249 69.6554 73.7902 69.6267 75.2302C69.5979 76.6709 69.0076 78.0132 67.9655 79.0118C67.0832 79.8558 65.9339 80.3778 64.72 80.4877C64.6676 80.4953 64.6139 80.4998 64.5609 80.5011L39.8698 81.4121C37.1302 81.5252 34.8858 79.406 34.7861 76.7029C34.6864 74.0068 36.805 71.733 39.5094 71.6327L53.2168 71.1273L44.0302 61.1363L14.9256 90.1131C13.9091 91.1245 12.5598 91.6803 11.1249 91.6803ZM48.9094 27.1321C49.3247 27.1321 49.7393 27.2938 50.0511 27.6126L57.305 35.032C57.9177 35.6587 57.9113 36.6624 57.2903 37.2809L9.57811 84.7829C9.16603 85.1931 8.93922 85.7368 8.93922 86.315C8.93922 86.8932 9.16539 87.4381 9.57684 87.8477C10.4016 88.6693 11.8468 88.6705 12.6742 87.8489L42.955 57.701C43.2616 57.395 43.6648 57.2021 44.1165 57.2359C44.5509 57.2455 44.9623 57.4314 45.2569 57.7515L57.9145 71.5151C58.3362 71.9738 58.4525 72.6363 58.2129 73.2113C57.9727 73.7857 57.4207 74.1697 56.7978 74.192L39.6276 74.8245C38.684 74.8597 37.9448 75.6487 37.9793 76.5847C38.0131 77.5021 38.7638 78.2215 39.6877 78.2215L39.7528 78.2202L64.3552 77.3124C64.3673 77.3111 64.3795 77.3105 64.3916 77.3092C64.9104 77.2728 65.3831 77.0638 65.7588 76.7041C66.1837 76.2972 66.4239 75.7516 66.436 75.1663C66.4475 74.5824 66.2297 74.0278 65.8221 73.6055L51.8777 58.4447C51.2976 57.8135 51.3186 56.8366 51.9262 56.2316L59.9609 48.2321C60.4183 47.7759 61.1039 47.6405 61.7012 47.889C62.2973 48.1369 62.6851 48.7189 62.6851 49.3642V54.4331C62.6851 54.5136 62.6794 54.5935 62.6679 54.6727C62.6493 54.7915 62.6442 54.9116 62.6506 55.0305C62.7049 55.9345 63.4626 56.643 64.3763 56.6437L64.4823 56.6398L81.4346 55.6381C81.8978 55.6112 82.3214 55.4068 82.628 55.0624C82.9341 54.7206 83.0874 54.2798 83.0599 53.8236C83.0063 52.917 82.2479 52.2079 81.3343 52.2079L81.2282 52.2111L69.3379 52.9145C68.8938 52.9381 68.4683 52.7835 68.1483 52.482C67.8282 52.1798 67.6467 51.7594 67.6467 51.3198V40.2115C67.6384 40.1386 67.6359 40.0645 67.6384 39.9898C67.6512 39.6051 67.51 39.2423 67.2404 38.9663L51.2439 22.6081C51.2228 22.589 51.1845 22.5564 51.1647 22.536C51.1596 22.5334 51.1359 22.511 51.1104 22.4919C51.0855 22.474 51.0618 22.4548 51.0382 22.435C51.0382 22.4318 51.0184 22.4222 50.996 22.4101C50.9698 22.3941 50.9449 22.3775 50.9193 22.3603C50.9213 22.3666 50.8893 22.3468 50.8535 22.329L50.7628 22.2881C50.7449 22.2817 50.7079 22.2676 50.6906 22.2606L50.338 22.1884C50.336 22.1878 50.2753 22.1846 50.2734 22.1846L50.1936 22.1833L50.1341 22.1865C50.1265 22.1878 50.069 22.1922 50.0626 22.1929C50.0607 22.1929 49.9687 22.2063 49.9674 22.2063L49.8601 22.2299C49.8486 22.2331 49.807 22.2446 49.7962 22.2478L49.7374 22.2676C49.7163 22.2766 49.6914 22.2849 49.6754 22.2919C49.6454 22.304 49.616 22.3168 49.5873 22.3309C49.5195 22.3666 49.4889 22.3852 49.4588 22.4031L49.4461 22.4126C49.416 22.4318 49.3937 22.4471 49.3726 22.4638C49.3509 22.4823 49.3247 22.5021 49.3017 22.5193C49.2966 22.5238 49.2716 22.5423 49.2582 22.5532L37.7103 32.6387C37.4266 32.8872 37.2567 33.2297 37.2318 33.6034C37.2075 33.9772 37.3302 34.3375 37.5793 34.6205C38.0738 35.1815 39.0188 35.2466 39.588 34.7502L47.8584 27.5263C48.1606 27.2625 48.535 27.1321 48.9094 27.1321Z" fill="#11305D"/>
<path d="M29.0952 55.536C28.685 55.536 28.2749 55.3788 27.9631 55.0658L15.9494 42.9889C15.3271 42.3634 15.3297 41.352 15.9552 40.7304L24.6607 32.0696C24.9597 31.7719 25.3654 31.6045 25.787 31.6045C25.7883 31.6045 25.7902 31.6045 25.7915 31.6045C26.2151 31.6058 26.6208 31.7751 26.9204 32.0747L38.9334 44.1523C39.2318 44.4525 39.3992 44.8589 39.3979 45.2831C39.3966 45.7073 39.228 46.1124 38.9277 46.4114L30.2215 55.0709C29.9098 55.3814 29.5028 55.536 29.0952 55.536ZM19.34 41.8682L29.1009 51.6803L35.5422 45.2735L25.7813 35.4608L19.34 41.8682Z" fill="#7DBB00"/>
<path d="M30.5776 47.2232C30.1674 47.2232 29.7573 47.066 29.4455 46.7523L24.2679 41.5467C23.645 40.9212 23.6482 39.9098 24.2743 39.2882C24.8992 38.6653 25.9112 38.6691 26.5328 39.2946L31.7103 44.5003C32.3326 45.1257 32.3294 46.1371 31.704 46.7587C31.3928 47.0686 30.9852 47.2232 30.5776 47.2232Z" fill="#7DBB00"/>
</g>
<defs>
<filter id="filter0_d_110:143" x="-4" y="0" width="100" height="100" filterUnits="userSpaceOnUse" color-interpolation-filters="sRGB">
<feFlood flood-opacity="0" result="BackgroundImageFix"/>
<feColorMatrix in="SourceAlpha" type="matrix" values="0 0 0 0 0 0 0 0 0 0 0 0 0 0 0 0 0 0 127 0" result="hardAlpha"/>
<feOffset dy="4"/>
<feGaussianBlur stdDeviation="2"/>
<feComposite in2="hardAlpha" operator="out"/>
<feColorMatrix type="matrix" values="0 0 0 0 0 0 0 0 0 0 0 0 0 0 0 0 0 0 0.25 0"/>
<feBlend mode="normal" in2="BackgroundImageFix" result="effect1_dropShadow_110:143"/>
<feBlend mode="normal" in="SourceGraphic" in2="effect1_dropShadow_110:143" result="shape"/>
</filter>
</defs>
</svg>
