<?xml version="1.0" encoding="utf-8"?>
<!-- Generator: Adobe Illustrator 15.0.2, SVG Export Plug-In . SVG Version: 6.00 Build 0)  -->
<!DOCTYPE svg PUBLIC "-//W3C//DTD SVG 1.1//EN" "http://www.w3.org/Graphics/SVG/1.1/DTD/svg11.dtd">
<svg version="1.1" id="Layer_1" xmlns="http://www.w3.org/2000/svg" xmlns:xlink="http://www.w3.org/1999/xlink" x="0px" y="0px"
	 width="44px" height="44px" viewBox="0 0 44 44" enable-background="new 0 0 44 44" xml:space="preserve">
<path fill="#222020" d="M22,43C10.421,43,1,33.579,1,22C1,10.42,10.421,1,22,1s21,9.42,21,21C43,33.579,33.579,43,22,43z M22,2
	C10.972,2,2,10.972,2,22c0,11.028,8.972,20,20,20s20-8.972,20-20C42,10.972,33.028,2,22,2z"/>
<g>
	<g>
		<path d="M22.761,18.377h3.504v2.881h-3.4V31h-3.961v-9.742h-2.107v-2.881h2.107v-0.576c0-1.475,0.459-2.639,1.382-3.504
			c0.921-0.865,2.224-1.297,3.9-1.297c0.588,0,1.153,0.062,1.688,0.182c0.53,0.117,0.976,0.289,1.332,0.516l-1.042,2.713
			c-0.458-0.303-0.988-0.457-1.6-0.457c-1.204,0-1.805,0.623-1.805,1.873v0.551H22.761z"/>
	</g>
</g>
</svg>
