<?xml version="1.0" encoding="utf-8"?>
<!-- Generator: Adobe Illustrator 15.0.2, SVG Export Plug-In . SVG Version: 6.00 Build 0)  -->
<!DOCTYPE svg PUBLIC "-//W3C//DTD SVG 1.1//EN" "http://www.w3.org/Graphics/SVG/1.1/DTD/svg11.dtd">
<svg version="1.1" id="Layer_1" xmlns="http://www.w3.org/2000/svg" xmlns:xlink="http://www.w3.org/1999/xlink" x="0px" y="0px"
	 width="44px" height="44px" viewBox="0 0 44 44" enable-background="new 0 0 44 44" xml:space="preserve">
<path d="M22,1C10.42,1,1,10.42,1,22c0,11.579,9.42,21,21,21c11.579,0,21-9.421,21-21C43,10.42,33.579,1,22,1z"/>
<path fill="#FFFFFF" d="M25.757,12.5c-1.437,0-6.08,0-7.515,0c-3.169,0-5.742,2.562-5.742,5.729c0,1.445,0,6.095,0,7.537
	c0,3.167,2.573,5.733,5.742,5.733c1.435,0,6.078,0,7.515,0c3.169,0,5.743-2.566,5.743-5.733c0-1.445,0-6.095,0-7.537
	C31.5,15.062,28.926,12.5,25.757,12.5z M29.61,25.798c0,2.101-1.707,3.802-3.806,3.802h-7.609c-2.103,0-3.808-1.701-3.808-3.802
	v-7.597c0-2.096,1.705-3.799,3.808-3.799h7.609c2.099,0,3.806,1.703,3.806,3.799V25.798z"/>
<circle fill="#FFFFFF" cx="26.977" cy="17.073" r="1.072"/>
<path fill="#FFFFFF" d="M22,17.166c-2.674,0-4.842,2.164-4.842,4.832c0,2.676,2.168,4.839,4.842,4.839
	c2.675,0,4.842-2.163,4.842-4.839C26.844,19.33,24.675,17.166,22,17.166z M22,24.932c-1.62,0-2.938-1.311-2.938-2.934
	c0-1.618,1.318-2.928,2.938-2.928c1.623,0,2.933,1.307,2.933,2.928C24.935,23.621,23.623,24.932,22,24.932z"/>
</svg>
