<?xml version="1.0" encoding="utf-8"?>
<!-- Generator: Adobe Illustrator 15.0.2, SVG Export Plug-In . SVG Version: 6.00 Build 0)  -->
<!DOCTYPE svg PUBLIC "-//W3C//DTD SVG 1.1//EN" "http://www.w3.org/Graphics/SVG/1.1/DTD/svg11.dtd">
<svg version="1.1" id="Layer_1" xmlns="http://www.w3.org/2000/svg" xmlns:xlink="http://www.w3.org/1999/xlink" x="0px" y="0px"
	 width="44px" height="44px" viewBox="0 0 44 44" enable-background="new 0 0 44 44" xml:space="preserve">
<g>
	<path fill="#222020" d="M22,1C10.42,1,1,10.42,1,22c0,11.579,9.42,21,21,21c11.579,0,21-9.421,21-21C43,10.42,33.579,1,22,1z"/>
	<path fill="#FFFFFF" d="M28.049,13.068c0,0-4.387,1.799-5.681,2.361L9.264,20.828c-2.306,0.901-0.955,1.744-0.955,1.744
		s1.968,0.674,3.654,1.181c1.688,0.506,2.588-0.056,2.588-0.056l7.931-5.345c2.813-1.909,2.138-0.337,1.463,0.338
		c-1.463,1.464-3.882,3.769-5.905,5.624c-0.9,0.788-0.451,1.463-0.056,1.801c1.461,1.238,5.454,3.77,5.681,3.936
		c0.28,0.227,1.854,1.238,2.812,1.013c0.954-0.225,1.066-1.518,1.066-1.518l1.406-8.83c0.448-2.979,0.898-5.737,0.956-6.524
		C30.072,12.281,28.049,13.068,28.049,13.068z"/>
</g>
</svg>
