<?xml version="1.0" encoding="utf-8"?>
<!-- Generator: Adobe Illustrator 15.0.2, SVG Export Plug-In . SVG Version: 6.00 Build 0)  -->
<!DOCTYPE svg PUBLIC "-//W3C//DTD SVG 1.1//EN" "http://www.w3.org/Graphics/SVG/1.1/DTD/svg11.dtd">
<svg version="1.1" id="Layer_1" xmlns="http://www.w3.org/2000/svg" xmlns:xlink="http://www.w3.org/1999/xlink" x="0px" y="0px"
	 width="44px" height="44px" viewBox="0 0 44 44" enable-background="new 0 0 44 44" xml:space="preserve">
<g>
	<path d="M21.999,1C10.42,1,1,10.42,1,22c0,4.139,1.199,8.131,3.469,11.563l-3.397,9.34l8.006-4.358
		C12.802,41.461,17.262,43,21.999,43C33.579,43,43,33.579,43,22C43,10.42,33.579,1,21.999,1z"/>
	<path fill="#FFFFFF" d="M31.904,26.775c-0.541-0.297-3.199-1.73-3.697-1.935s-0.858-0.308-1.252,0.229
		c-0.387,0.535-1.488,1.736-1.824,2.095c-0.336,0.354-0.657,0.389-1.198,0.092c-0.541-0.295-2.293-0.944-4.328-2.897
		c-1.584-1.523-2.621-3.367-2.922-3.933c-0.303-0.562-0.002-0.853,0.283-1.114c0.256-0.236,0.576-0.623,0.863-0.935
		s0.389-0.537,0.586-0.897c0.196-0.361,0.117-0.687-0.013-0.968c-0.127-0.278-1.127-3.032-1.543-4.153
		c-0.42-1.119-0.883-0.953-1.207-0.966c-0.319-0.012-0.686-0.069-1.055-0.086c-0.367-0.014-0.969,0.103-1.494,0.636
		c-0.524,0.53-1.998,1.812-2.1,4.521c-0.103,2.713,1.772,5.405,2.035,5.785c0.262,0.377,3.582,6.254,9.1,8.67
		c5.52,2.416,5.549,1.682,6.562,1.625c1.012-0.052,3.309-1.211,3.815-2.479c0.509-1.268,0.55-2.371,0.421-2.605
		C32.809,27.223,32.445,27.07,31.904,26.775z"/>
</g>
</svg>
