<svg width="19" height="25" viewBox="0 0 19 25" fill="none" xmlns="http://www.w3.org/2000/svg">
<path d="M14.737 17.996V22.192C14.737 23.191 13.943 24.001 12.965 24.001H2.772C1.793 24.001 1 23.191 1 22.192V2.81C1 1.811 1.794 1 2.772 1H12.965C13.944 1 14.737 1.811 14.737 2.81V5.944" stroke="#11305D" stroke-miterlimit="10" stroke-linecap="round" stroke-linejoin="round"/>
<path d="M1.08813 4.16479H14.5601" stroke="#11305D" stroke-miterlimit="10" stroke-linecap="round" stroke-linejoin="round"/>
<path d="M1.08813 19.9768H14.5601" stroke="#11305D" stroke-miterlimit="10" stroke-linecap="round" stroke-linejoin="round"/>
<path d="M6.58008 21.7559H9.15608" stroke="#11305D" stroke-miterlimit="10" stroke-linecap="round" stroke-linejoin="round"/>
<path d="M14.9161 8.65283C13.1541 8.65283 11.7261 10.1108 11.7261 11.9088C11.7261 12.3918 11.8341 12.8468 12.0201 13.2588L11.0911 15.8138L13.5941 14.8668C13.9981 15.0548 14.4441 15.1668 14.9161 15.1668C16.6781 15.1668 18.1071 13.7088 18.1071 11.9098C18.1081 10.1108 16.6781 8.65283 14.9161 8.65283Z" stroke="#11305D" stroke-miterlimit="10" stroke-linecap="round" stroke-linejoin="round"/>
</svg>
