<svg width="15" height="24" viewBox="0 0 15 24" fill="none" xmlns="http://www.w3.org/2000/svg">
<path d="M12.466 0H2.272C1.019 0 0 1.036 0 2.309V21.69C0 22.963 1.02 24 2.272 24H12.465C13.718 24 14.737 22.964 14.737 21.69V11.689C14.737 11.413 14.513 11.189 14.237 11.189C13.961 11.189 13.737 11.413 13.737 11.689V18.975H1V4.163H13.738V5.442C13.738 5.718 13.962 5.942 14.238 5.942C14.514 5.942 14.738 5.718 14.738 5.442V2.309C14.738 1.036 13.719 0 12.466 0ZM13.738 19.976V21.691C13.738 22.413 13.167 23.001 12.466 23.001H2.272C1.57 23.001 1 22.413 1 21.691V19.976H13.738ZM1 3.163V2.309C1 1.587 1.571 1 2.272 1H12.465C13.166 1 13.737 1.587 13.737 2.309V3.163H1Z" fill="#11305D"/>
<path d="M6.08105 21.7549H8.65705C8.93305 21.7549 9.15705 21.5309 9.15705 21.2549C9.15705 20.9789 8.93305 20.7549 8.65705 20.7549H6.08105C5.80505 20.7549 5.58105 20.9789 5.58105 21.2549C5.58105 21.5309 5.80505 21.7549 6.08105 21.7549Z" fill="#11305D"/>
<path d="M14.2383 7.27686C13.9623 7.27686 13.7383 7.50086 13.7383 7.77686V9.36086C13.7383 9.63686 13.9623 9.86086 14.2383 9.86086C14.5143 9.86086 14.7383 9.63686 14.7383 9.36086V7.77686C14.7383 7.50086 14.5153 7.27686 14.2383 7.27686Z" fill="#11305D"/>
</svg>
