<svg width="15" height="24" viewBox="0 0 15 24" fill="none" xmlns="http://www.w3.org/2000/svg">
<path d="M12.466 0H2.272C1.019 0 0 1.036 0 2.309V21.69C0 22.963 1.02 24 2.272 24H12.465C13.719 24 14.738 22.964 14.738 21.69V11.689C14.738 11.413 14.513 11.189 14.238 11.189C13.961 11.189 13.738 11.413 13.738 11.689V18.975H1V4.163H13.739V5.442C13.739 5.718 13.962 5.942 14.239 5.942C14.514 5.942 14.739 5.718 14.739 5.442V2.309C14.739 1.036 13.72 0 12.466 0ZM13.739 19.976V21.691C13.739 22.413 13.167 23.001 12.466 23.001H2.272C1.57 23.001 1 22.413 1 21.691V19.976H13.739ZM1 3.163V2.309C1 1.587 1.571 1 2.272 1H12.465C13.166 1 13.738 1.587 13.738 2.309V3.163H1Z" fill="#fff"/>
<path d="M6.08105 21.7549H8.65705C8.93405 21.7549 9.15705 21.5309 9.15705 21.2549C9.15705 20.9789 8.93405 20.7549 8.65705 20.7549H6.08105C5.80505 20.7549 5.58105 20.9789 5.58105 21.2549C5.58105 21.5309 5.80505 21.7549 6.08105 21.7549Z" fill="#fff"/>
<path d="M14.2393 7.27686C13.9623 7.27686 13.7393 7.50086 13.7393 7.77686V9.36086C13.7393 9.63686 13.9623 9.86086 14.2393 9.86086C14.5143 9.86086 14.7393 9.63686 14.7393 9.36086V7.77686C14.7393 7.50086 14.5153 7.27686 14.2393 7.27686Z" fill="#fff"/>
<path d="M7.37014 17.518C5.71514 17.518 4.36914 16.172 4.36914 14.519C4.36914 12.865 5.71514 11.519 7.37014 11.519C9.02414 11.519 10.3691 12.865 10.3691 14.519C10.3691 16.172 9.02414 17.518 7.37014 17.518ZM7.37014 12.518C6.26614 12.518 5.36914 13.415 5.36914 14.518C5.36914 15.621 6.26614 16.517 7.37014 16.517C8.47214 16.517 9.36914 15.621 9.36914 14.518C9.36914 13.415 8.47314 12.518 7.37014 12.518Z" fill="#fff"/>
</svg>
