<svg width="232" height="32" viewBox="0 0 232 32" fill="none" xmlns="http://www.w3.org/2000/svg">
<rect x="206.477" y="32" width="182.857" height="32" transform="rotate(-180 206.477 32)" fill="#11305D"/>
<circle cx="16" cy="16" r="16" fill="#11305D"/>
<rect x="16" width="16" height="32" fill="#11305D"/>
<circle cx="215.619" cy="16" r="16" transform="rotate(-180 215.619 16)" fill="#11305D"/>
<rect x="215.619" y="32" width="16" height="32" transform="rotate(-180 215.619 32)" fill="#11305D"/>
<path d="M24.9184 12.96V20H26.1084V14.03H29.4184V20H30.6084V12.96H24.9184ZM40.1929 12.84C38.2129 12.84 36.8929 14.35 36.8929 16.48C36.8929 18.61 38.2129 20.12 40.1929 20.12C42.1729 20.12 43.4929 18.61 43.4929 16.48C43.4929 14.35 42.1729 12.84 40.1929 12.84ZM40.1929 19.03C38.8929 19.03 38.1129 17.97 38.1129 16.48C38.1129 14.99 38.8929 13.93 40.1929 13.93C41.4929 13.93 42.2829 14.99 42.2829 16.48C42.2829 17.97 41.4929 19.03 40.1929 19.03ZM50.9717 20V16.76L53.8017 20H55.3017L52.1517 16.33L55.2417 12.96H53.7917L50.9717 16.01V12.96H49.7817V20H50.9717ZM63.1872 12.96L60.5772 20H61.8272L62.4072 18.33H65.1872L65.7972 20H67.0472L64.4272 12.96H63.1872ZM63.7972 14.38L64.8272 17.3H62.7772L63.7972 14.38ZM72.6641 14.85H73.8241C73.9441 14.25 74.4541 13.91 75.1841 13.91C75.9041 13.91 76.3841 14.29 76.3841 14.89C76.3841 15.46 76.0041 15.88 75.1841 15.88H74.2741V16.92H75.2841C76.0741 16.92 76.6441 17.23 76.6441 17.95C76.6441 18.62 76.1241 19.05 75.2841 19.05C74.4041 19.05 73.8941 18.62 73.7741 18.04H72.5941C72.7241 19.34 73.7741 20.12 75.2841 20.12C76.8141 20.12 77.8541 19.24 77.8541 17.97C77.8541 16.93 77.0741 16.43 76.6041 16.31C77.0941 16.14 77.5941 15.61 77.5941 14.81C77.5941 13.65 76.6441 12.84 75.1941 12.84C73.9241 12.84 72.7941 13.53 72.6641 14.85ZM86.0681 12.96L83.4581 20H84.7081L85.2881 18.33H88.0681L88.6781 20H89.9281L87.3081 12.96H86.0681ZM86.6781 14.38L87.7081 17.3H85.6581L86.6781 14.38ZM94.6435 14.03H96.8635V20H98.0535V14.03H100.263V12.96H94.6435V14.03ZM108.953 15.45H107.593V12.96H106.403V20H108.983C110.453 20 111.373 18.99 111.373 17.72C111.373 16.44 110.493 15.45 108.953 15.45ZM108.833 16.5C109.683 16.5 110.163 16.98 110.163 17.72C110.163 18.45 109.663 18.95 108.833 18.95H107.593V16.5H108.833ZM125.962 20V16.93H129.302V20H130.492V12.96H129.302V15.85H125.962V12.96H124.772V20H125.962ZM139.086 12.96L136.476 20H137.726L138.306 18.33H141.086L141.696 20H142.946L140.326 12.96H139.086ZM139.696 14.38L140.726 17.3H138.676L139.696 14.38ZM157.28 20V16.76L160.11 20H161.61L158.46 16.33L161.55 12.96H160.1L157.28 16.01V12.96H156.09V20H157.28ZM169.496 12.96L166.886 20H168.136L168.716 18.33H171.496L172.106 20H173.356L170.736 12.96H169.496ZM170.106 14.38L171.136 17.3H169.086L170.106 14.38ZM181.883 12.96H179.323V20H180.513V17.57H181.913C183.403 17.57 184.313 16.53 184.313 15.26C184.313 13.98 183.443 12.96 181.883 12.96ZM181.763 14.01C182.633 14.01 183.103 14.52 183.103 15.26C183.103 16 182.613 16.53 181.763 16.53H180.513V14.01H181.763ZM189.995 14.03H192.215V20H193.405V14.03H195.615V12.96H189.995V14.03ZM206.344 14.03V12.96H201.754V20H206.344V18.93H202.944V16.92H206.154V15.88H202.944V14.03H206.344Z" fill="white"/>
</svg>
