<svg width="88" height="21" viewBox="0 0 88 21" fill="none" xmlns="http://www.w3.org/2000/svg">
<path d="M4.365 9.525C4.825 9.665 5.135 9.95 5.295 10.38C5.465 10.8 5.55 11.315 5.55 11.925C5.55 13.005 5.325 13.79 4.875 14.28C4.435 14.76 3.745 15 2.805 15H0.795V4.56H3C3.9 4.56 4.535 4.8 4.905 5.28C5.275 5.76 5.46 6.44 5.46 7.32C5.46 7.87 5.38 8.31 5.22 8.64C5.06 8.96 4.775 9.235 4.365 9.465V9.525ZM4.41 11.805C4.41 11.235 4.3 10.795 4.08 10.485C3.87 10.175 3.46 10.02 2.85 10.02H1.98V13.935H2.91C3.24 13.935 3.5 13.88 3.69 13.77C3.89 13.65 4.04 13.495 4.14 13.305C4.25 13.105 4.32 12.88 4.35 12.63C4.39 12.37 4.41 12.095 4.41 11.805ZM4.32 7.305C4.32 6.765 4.2 6.355 3.96 6.075C3.73 5.785 3.34 5.64 2.79 5.64H1.98V8.985H2.775C3.325 8.985 3.72 8.84 3.96 8.55C4.2 8.26 4.32 7.845 4.32 7.305ZM10.0209 4.47C10.8309 4.47 11.4159 4.69 11.7759 5.13C12.1459 5.57 12.3309 6.145 12.3309 6.855L11.1459 7.065C11.1559 6.605 11.0709 6.24 10.8909 5.97C10.7209 5.7 10.4259 5.565 10.0059 5.565C9.76594 5.565 9.57094 5.62 9.42094 5.73C9.27094 5.84 9.15094 5.98 9.06094 6.15C8.98094 6.31 8.92594 6.49 8.89594 6.69C8.86594 6.89 8.85094 7.08 8.85094 7.26V12.525C8.85094 12.675 8.86594 12.84 8.89594 13.02C8.92594 13.19 8.98094 13.35 9.06094 13.5C9.15094 13.64 9.26594 13.76 9.40594 13.86C9.55594 13.96 9.75094 14.01 9.99094 14.01C10.3809 14.01 10.6659 13.89 10.8459 13.65C11.0359 13.41 11.1359 13.03 11.1459 12.51L12.3609 12.72C12.3409 13.47 12.1359 14.055 11.7459 14.475C11.3659 14.895 10.7909 15.105 10.0209 15.105C9.23094 15.105 8.64094 14.885 8.25094 14.445C7.86094 14.005 7.66594 13.385 7.66594 12.585V7.425C7.66594 7.055 7.69594 6.695 7.75594 6.345C7.82594 5.985 7.94594 5.67 8.11594 5.4C8.28594 5.12 8.52594 4.895 8.83594 4.725C9.14594 4.555 9.54094 4.47 10.0209 4.47ZM14.2628 15V4.56H18.7328V5.655H15.4478V9.15H18.2978V10.245H15.4478V13.92H18.7328V15H14.2628ZM31.8356 4.56V15H24.1856V4.56H25.3706V13.86H27.4106V4.56H28.5956V13.86H30.6506V4.56H31.8356ZM36.4288 5.64V15H35.2288V5.64H33.4588V4.56H38.1988V5.64H36.4288ZM41.9514 4.56C42.4814 4.56 42.9164 4.63 43.2564 4.77C43.5964 4.91 43.8664 5.115 44.0664 5.385C44.2664 5.645 44.4014 5.97 44.4714 6.36C44.5514 6.74 44.5914 7.175 44.5914 7.665C44.5914 8.105 44.5564 8.515 44.4864 8.895C44.4164 9.275 44.2814 9.61 44.0814 9.9C43.8814 10.18 43.6014 10.4 43.2414 10.56C42.8914 10.72 42.4314 10.8 41.8614 10.8H41.0064V15H39.8214V4.56H41.9514ZM41.0064 9.69H41.8164C42.1764 9.69 42.4614 9.635 42.6714 9.525C42.8914 9.415 43.0564 9.27 43.1664 9.09C43.2864 8.91 43.3614 8.7 43.3914 8.46C43.4214 8.22 43.4364 7.965 43.4364 7.695C43.4364 7.415 43.4164 7.15 43.3764 6.9C43.3464 6.65 43.2764 6.435 43.1664 6.255C43.0564 6.065 42.8964 5.92 42.6864 5.82C42.4764 5.71 42.1964 5.655 41.8464 5.655H41.0064V9.69ZM50.2993 15L49.8193 12.675H47.4943L47.0293 15H45.8893L48.1093 4.56H49.2193L51.4693 15H50.2993ZM48.6193 6.69L48.1843 9.12L47.6893 11.565H49.6093L49.0993 9.09L48.6793 6.69H48.6193ZM59.1873 11.76C59.1873 12.17 59.1123 12.525 58.9623 12.825C58.8123 13.125 58.6173 13.375 58.3773 13.575C58.1373 13.775 57.8673 13.93 57.5673 14.04C57.2773 14.14 56.9873 14.2 56.6973 14.22V15H55.5123V14.22C55.2023 14.21 54.8973 14.15 54.5973 14.04C54.3073 13.93 54.0423 13.775 53.8023 13.575C53.5723 13.375 53.3823 13.125 53.2323 12.825C53.0923 12.525 53.0223 12.17 53.0223 11.76V7.605C53.0223 7.195 53.0923 6.84 53.2323 6.54C53.3823 6.23 53.5723 5.975 53.8023 5.775C54.0323 5.575 54.2973 5.425 54.5973 5.325C54.8973 5.215 55.1973 5.15 55.4973 5.13V4.56H56.6973L56.7123 5.13C57.0023 5.15 57.2923 5.215 57.5823 5.325C57.8823 5.425 58.1473 5.575 58.3773 5.775C58.6173 5.975 58.8123 6.23 58.9623 6.54C59.1123 6.84 59.1873 7.195 59.1873 7.605V11.76ZM58.0473 7.605C58.0473 7.185 57.9123 6.85 57.6423 6.6C57.3723 6.34 57.0573 6.2 56.6973 6.18V13.185C57.0673 13.165 57.3823 13.03 57.6423 12.78C57.9123 12.52 58.0473 12.18 58.0473 11.76V7.605ZM55.5123 6.18C55.1223 6.22 54.7973 6.365 54.5373 6.615C54.2873 6.855 54.1623 7.185 54.1623 7.605V11.76C54.1623 12.18 54.2673 12.515 54.4773 12.765C54.6873 13.005 55.0323 13.145 55.5123 13.185V6.18ZM61.2894 15V4.56H62.4744V8.76H63.3294C63.8994 8.76 64.3594 8.835 64.7094 8.985C65.0694 9.135 65.3494 9.345 65.5494 9.615C65.7494 9.885 65.8844 10.205 65.9544 10.575C66.0244 10.945 66.0594 11.35 66.0594 11.79C66.0594 12.28 66.0194 12.725 65.9394 13.125C65.8694 13.515 65.7344 13.85 65.5344 14.13C65.3344 14.41 65.0644 14.625 64.7244 14.775C64.3844 14.925 63.9494 15 63.4194 15H61.2894ZM62.4744 13.875H63.3144C63.6644 13.875 63.9444 13.825 64.1544 13.725C64.3644 13.615 64.5244 13.47 64.6344 13.29C64.7444 13.1 64.8144 12.88 64.8444 12.63C64.8844 12.38 64.9044 12.115 64.9044 11.835C64.9044 11.565 64.8894 11.315 64.8594 11.085C64.8294 10.845 64.7544 10.635 64.6344 10.455C64.5244 10.275 64.3594 10.135 64.1394 10.035C63.9294 9.925 63.6444 9.87 63.2844 9.87H62.4744V13.875ZM66.8844 15V4.56H68.0844V15H66.8844Z" fill="#96A9C6"/>
<rect y="20" width="68" height="1" fill="#11305D"/>
</svg>
