<svg width="99" height="32" viewBox="0 0 99 32" fill="none" xmlns="http://www.w3.org/2000/svg">
<rect y="30" width="98" height="2" fill="#11305D"/>
<path d="M6.111 13.335C6.755 13.531 7.189 13.93 7.413 14.532C7.651 15.12 7.77 15.841 7.77 16.695C7.77 18.207 7.455 19.306 6.825 19.992C6.209 20.664 5.243 21 3.927 21H1.113V6.384H4.2C5.46 6.384 6.349 6.72 6.867 7.392C7.385 8.064 7.644 9.016 7.644 10.248C7.644 11.018 7.532 11.634 7.308 12.096C7.084 12.544 6.685 12.929 6.111 13.251V13.335ZM6.174 16.527C6.174 15.729 6.02 15.113 5.712 14.679C5.418 14.245 4.844 14.028 3.99 14.028H2.772V19.509H4.074C4.536 19.509 4.9 19.432 5.166 19.278C5.446 19.11 5.656 18.893 5.796 18.627C5.95 18.347 6.048 18.032 6.09 17.682C6.146 17.318 6.174 16.933 6.174 16.527ZM6.048 10.227C6.048 9.471 5.88 8.897 5.544 8.505C5.222 8.099 4.676 7.896 3.906 7.896H2.772V12.579H3.885C4.655 12.579 5.208 12.376 5.544 11.97C5.88 11.564 6.048 10.983 6.048 10.227ZM14.0293 6.258C15.1633 6.258 15.9823 6.566 16.4863 7.182C17.0043 7.798 17.2633 8.603 17.2633 9.597L15.6043 9.891C15.6183 9.247 15.4993 8.736 15.2473 8.358C15.0093 7.98 14.5963 7.791 14.0083 7.791C13.6723 7.791 13.3993 7.868 13.1893 8.022C12.9793 8.176 12.8113 8.372 12.6853 8.61C12.5733 8.834 12.4963 9.086 12.4543 9.366C12.4123 9.646 12.3913 9.912 12.3913 10.164V17.535C12.3913 17.745 12.4123 17.976 12.4543 18.228C12.4963 18.466 12.5733 18.69 12.6853 18.9C12.8113 19.096 12.9723 19.264 13.1683 19.404C13.3783 19.544 13.6513 19.614 13.9873 19.614C14.5333 19.614 14.9323 19.446 15.1843 19.11C15.4503 18.774 15.5903 18.242 15.6043 17.514L17.3053 17.808C17.2773 18.858 16.9903 19.677 16.4443 20.265C15.9123 20.853 15.1073 21.147 14.0293 21.147C12.9233 21.147 12.0973 20.839 11.5513 20.223C11.0053 19.607 10.7323 18.739 10.7323 17.619V10.395C10.7323 9.877 10.7743 9.373 10.8583 8.883C10.9563 8.379 11.1243 7.938 11.3623 7.56C11.6003 7.168 11.9363 6.853 12.3703 6.615C12.8043 6.377 13.3573 6.258 14.0293 6.258ZM19.9679 21V6.384H26.2259V7.917H21.6269V12.81H25.6169V14.343H21.6269V19.488H26.2259V21H19.9679ZM38.9209 21V14.259H35.5189V21H33.8599V6.384H35.5189V12.81H38.9209V6.384H40.5799V21H38.9209ZM50.4658 17.073C50.4658 18.375 50.2068 19.383 49.6888 20.097C49.1848 20.797 48.3168 21.147 47.0848 21.147C45.8808 21.147 45.0198 20.818 44.5018 20.16C43.9978 19.502 43.7458 18.634 43.7458 17.556V10.353C43.7458 9.835 43.7878 9.331 43.8718 8.841C43.9698 8.351 44.1378 7.917 44.3758 7.539C44.6278 7.147 44.9708 6.839 45.4048 6.615C45.8388 6.377 46.4058 6.258 47.1058 6.258C47.8338 6.258 48.4148 6.363 48.8488 6.573C49.2968 6.769 49.6398 7.049 49.8778 7.413C50.1158 7.777 50.2698 8.204 50.3398 8.694C50.4238 9.184 50.4658 9.723 50.4658 10.311V17.073ZM48.8068 10.038C48.8068 9.786 48.7858 9.527 48.7438 9.261C48.7158 8.995 48.6458 8.757 48.5338 8.547C48.4218 8.323 48.2468 8.141 48.0088 8.001C47.7848 7.847 47.4838 7.77 47.1058 7.77C46.6858 7.77 46.3638 7.875 46.1398 8.085C45.9158 8.281 45.7478 8.519 45.6358 8.799C45.5238 9.079 45.4538 9.38 45.4258 9.702C45.4118 10.01 45.4048 10.269 45.4048 10.479V17.577C45.4048 17.787 45.4258 18.011 45.4678 18.249C45.5098 18.487 45.5938 18.711 45.7198 18.921C45.8458 19.131 46.0138 19.306 46.2238 19.446C46.4478 19.572 46.7348 19.635 47.0848 19.635C47.4348 19.635 47.7218 19.565 47.9458 19.425C48.1698 19.285 48.3448 19.11 48.4708 18.9C48.5968 18.676 48.6808 18.424 48.7228 18.144C48.7788 17.864 48.8068 17.577 48.8068 17.283V10.038ZM58.6151 13.335C59.2591 13.531 59.6931 13.93 59.9171 14.532C60.1551 15.12 60.2741 15.841 60.2741 16.695C60.2741 18.207 59.9591 19.306 59.3291 19.992C58.7131 20.664 57.7471 21 56.4311 21H53.6171V6.384H56.7041C57.9641 6.384 58.8531 6.72 59.3711 7.392C59.8891 8.064 60.1481 9.016 60.1481 10.248C60.1481 11.018 60.0361 11.634 59.8121 12.096C59.5881 12.544 59.1891 12.929 58.6151 13.251V13.335ZM58.6781 16.527C58.6781 15.729 58.5241 15.113 58.2161 14.679C57.9221 14.245 57.3481 14.028 56.4941 14.028H55.2761V19.509H56.5781C57.0401 19.509 57.4041 19.432 57.6701 19.278C57.9501 19.11 58.1601 18.893 58.3001 18.627C58.4541 18.347 58.5521 18.032 58.5941 17.682C58.6501 17.318 58.6781 16.933 58.6781 16.527ZM58.5521 10.227C58.5521 9.471 58.3841 8.897 58.0481 8.505C57.7261 8.099 57.1801 7.896 56.4101 7.896H55.2761V12.579H56.3891C57.1591 12.579 57.7121 12.376 58.0481 11.97C58.3841 11.564 58.5521 10.983 58.5521 10.227ZM69.9564 17.073C69.9564 18.375 69.6974 19.383 69.1794 20.097C68.6754 20.797 67.8074 21.147 66.5754 21.147C65.3714 21.147 64.5104 20.818 63.9924 20.16C63.4884 19.502 63.2364 18.634 63.2364 17.556V10.353C63.2364 9.835 63.2784 9.331 63.3624 8.841C63.4604 8.351 63.6284 7.917 63.8664 7.539C64.1184 7.147 64.4614 6.839 64.8954 6.615C65.3294 6.377 65.8964 6.258 66.5964 6.258C67.3244 6.258 67.9054 6.363 68.3394 6.573C68.7874 6.769 69.1304 7.049 69.3684 7.413C69.6064 7.777 69.7604 8.204 69.8304 8.694C69.9144 9.184 69.9564 9.723 69.9564 10.311V17.073ZM68.2974 10.038C68.2974 9.786 68.2764 9.527 68.2344 9.261C68.2064 8.995 68.1364 8.757 68.0244 8.547C67.9124 8.323 67.7374 8.141 67.4994 8.001C67.2754 7.847 66.9744 7.77 66.5964 7.77C66.1764 7.77 65.8544 7.875 65.6304 8.085C65.4064 8.281 65.2384 8.519 65.1264 8.799C65.0144 9.079 64.9444 9.38 64.9164 9.702C64.9024 10.01 64.8954 10.269 64.8954 10.479V17.577C64.8954 17.787 64.9164 18.011 64.9584 18.249C65.0004 18.487 65.0844 18.711 65.2104 18.921C65.3364 19.131 65.5044 19.306 65.7144 19.446C65.9384 19.572 66.2254 19.635 66.5754 19.635C66.9254 19.635 67.2124 19.565 67.4364 19.425C67.6604 19.285 67.8354 19.11 67.9614 18.9C68.0874 18.676 68.1714 18.424 68.2134 18.144C68.2694 17.864 68.2974 17.577 68.2974 17.283V10.038ZM76.2787 6.258C77.4127 6.258 78.2317 6.566 78.7357 7.182C79.2537 7.798 79.5127 8.603 79.5127 9.597L77.8537 9.891C77.8677 9.247 77.7487 8.736 77.4967 8.358C77.2587 7.98 76.8457 7.791 76.2577 7.791C75.9217 7.791 75.6487 7.868 75.4387 8.022C75.2287 8.176 75.0607 8.372 74.9347 8.61C74.8227 8.834 74.7457 9.086 74.7037 9.366C74.6617 9.646 74.6407 9.912 74.6407 10.164V17.535C74.6407 17.745 74.6617 17.976 74.7037 18.228C74.7457 18.466 74.8227 18.69 74.9347 18.9C75.0607 19.096 75.2217 19.264 75.4177 19.404C75.6277 19.544 75.9007 19.614 76.2367 19.614C76.7827 19.614 77.1817 19.446 77.4337 19.11C77.6997 18.774 77.8397 18.242 77.8537 17.514L79.5547 17.808C79.5267 18.858 79.2397 19.677 78.6937 20.265C78.1617 20.853 77.3567 21.147 76.2787 21.147C75.1727 21.147 74.3467 20.839 73.8007 20.223C73.2547 19.607 72.9817 18.739 72.9817 17.619V10.395C72.9817 9.877 73.0237 9.373 73.1077 8.883C73.2057 8.379 73.3737 7.938 73.6117 7.56C73.8497 7.168 74.1857 6.853 74.6197 6.615C75.0537 6.377 75.6067 6.258 76.2787 6.258ZM85.3673 7.896V21H83.6873V7.896H81.2093V6.384H87.8453V7.896H85.3673ZM95.3039 10.731L91.6079 21H90.0539V6.384H91.6499V16.716L91.7339 16.737L95.3879 6.384H96.9629V21H95.3669V10.731H95.3039Z" fill="#11305D"/>
</svg>
