<svg width="111" height="32" viewBox="0 0 111 32" fill="none" xmlns="http://www.w3.org/2000/svg">
<path d="M5.922 21V7.938H2.772V21H1.113V6.384H7.581V21H5.922ZM17.4523 17.073C17.4523 18.375 17.1933 19.383 16.6753 20.097C16.1713 20.797 15.3033 21.147 14.0713 21.147C12.8673 21.147 12.0063 20.818 11.4883 20.16C10.9843 19.502 10.7323 18.634 10.7323 17.556V10.353C10.7323 9.835 10.7743 9.331 10.8583 8.841C10.9563 8.351 11.1243 7.917 11.3623 7.539C11.6143 7.147 11.9573 6.839 12.3913 6.615C12.8253 6.377 13.3923 6.258 14.0923 6.258C14.8203 6.258 15.4013 6.363 15.8353 6.573C16.2833 6.769 16.6263 7.049 16.8643 7.413C17.1023 7.777 17.2563 8.204 17.3263 8.694C17.4103 9.184 17.4523 9.723 17.4523 10.311V17.073ZM15.7933 10.038C15.7933 9.786 15.7723 9.527 15.7303 9.261C15.7023 8.995 15.6323 8.757 15.5203 8.547C15.4083 8.323 15.2333 8.141 14.9953 8.001C14.7713 7.847 14.4703 7.77 14.0923 7.77C13.6723 7.77 13.3503 7.875 13.1263 8.085C12.9023 8.281 12.7343 8.519 12.6223 8.799C12.5103 9.079 12.4403 9.38 12.4123 9.702C12.3983 10.01 12.3913 10.269 12.3913 10.479V17.577C12.3913 17.787 12.4123 18.011 12.4543 18.249C12.4963 18.487 12.5803 18.711 12.7063 18.921C12.8323 19.131 13.0003 19.306 13.2103 19.446C13.4343 19.572 13.7213 19.635 14.0713 19.635C14.4213 19.635 14.7083 19.565 14.9323 19.425C15.1563 19.285 15.3313 19.11 15.4573 18.9C15.5833 18.676 15.6673 18.424 15.7093 18.144C15.7653 17.864 15.7933 17.577 15.7933 17.283V10.038ZM20.6036 21V6.384H22.2626V12.747H23.0186C23.2286 12.747 23.4456 12.726 23.6696 12.684C23.9076 12.642 24.1316 12.551 24.3416 12.411C24.5656 12.257 24.7686 12.04 24.9506 11.76C25.1466 11.48 25.3006 11.095 25.4126 10.605L26.4206 6.384H27.9326L26.9666 10.668C26.8126 11.382 26.5816 11.984 26.2736 12.474C25.9656 12.95 25.6016 13.265 25.1816 13.419C25.7276 13.615 26.1476 13.965 26.4416 14.469C26.7356 14.959 26.9596 15.568 27.1136 16.296L28.1636 21H26.5046L25.5596 16.59C25.4476 16.1 25.3076 15.708 25.1396 15.414C24.9716 15.106 24.7756 14.875 24.5516 14.721C24.3276 14.553 24.0896 14.448 23.8376 14.406C23.5996 14.35 23.3546 14.322 23.1026 14.322H22.2626V21H20.6036ZM35.8675 21L35.1955 17.745H31.9405L31.2895 21H29.6935L32.8015 6.384H34.3555L37.5055 21H35.8675ZM33.5155 9.366L32.9065 12.768L32.2135 16.191H34.9015L34.1875 12.726L33.5995 9.366H33.5155ZM42.2837 6.258C42.8017 6.258 43.2637 6.321 43.6697 6.447C44.0897 6.559 44.4467 6.762 44.7407 7.056C45.0347 7.336 45.2587 7.721 45.4127 8.211C45.5807 8.687 45.6647 9.296 45.6647 10.038C45.6647 10.29 45.6437 10.584 45.6017 10.92C45.5737 11.242 45.5107 11.564 45.4127 11.886C45.3147 12.208 45.1817 12.502 45.0137 12.768C44.8597 13.034 44.6497 13.237 44.3837 13.377V13.44C44.6777 13.608 44.9087 13.825 45.0767 14.091C45.2587 14.343 45.3917 14.623 45.4757 14.931C45.5597 15.225 45.6087 15.54 45.6227 15.876C45.6507 16.198 45.6647 16.513 45.6647 16.821C45.6647 18.221 45.3987 19.292 44.8667 20.034C44.3347 20.776 43.4737 21.147 42.2837 21.147C41.7937 21.147 41.3457 21.084 40.9397 20.958C40.5337 20.818 40.1837 20.615 39.8897 20.349C39.5957 20.069 39.3717 19.726 39.2177 19.32C39.0637 18.9 39.0007 18.403 39.0287 17.829L40.6457 17.514C40.6457 18.312 40.7857 18.865 41.0657 19.173C41.3457 19.467 41.7587 19.614 42.3047 19.614C42.5287 19.614 42.7387 19.572 42.9347 19.488C43.1447 19.404 43.3197 19.257 43.4597 19.047C43.6137 18.823 43.7327 18.529 43.8167 18.165C43.9147 17.801 43.9637 17.339 43.9637 16.779C43.9637 16.429 43.9357 16.093 43.8797 15.771C43.8377 15.449 43.7537 15.176 43.6277 14.952C43.5017 14.714 43.3337 14.525 43.1237 14.385C42.9277 14.245 42.6757 14.175 42.3677 14.175H41.4227V12.726H42.4097C42.7037 12.726 42.9487 12.663 43.1447 12.537C43.3547 12.397 43.5227 12.208 43.6487 11.97C43.7747 11.732 43.8657 11.452 43.9217 11.13C43.9777 10.808 44.0057 10.465 44.0057 10.101C44.0057 9.639 43.9567 9.261 43.8587 8.967C43.7747 8.659 43.6487 8.421 43.4807 8.253C43.3267 8.071 43.1447 7.945 42.9347 7.875C42.7247 7.805 42.5007 7.77 42.2627 7.77C41.6747 7.77 41.2547 7.98 41.0027 8.4C40.7647 8.806 40.6457 9.303 40.6457 9.891L39.0287 9.534C39.0707 8.484 39.3927 7.679 39.9947 7.119C40.5967 6.545 41.3597 6.258 42.2837 6.258ZM54.2302 21L53.5582 17.745H50.3032L49.6522 21H48.0562L51.1642 6.384H52.7182L55.8682 21H54.2302ZM51.8782 9.366L51.2692 12.768L50.5762 16.191H53.2642L52.5502 12.726L51.9622 9.366H51.8782ZM61.3814 7.896V21H59.7014V7.896H57.2234V6.384H63.8594V7.896H61.3814ZM66.089 21V6.384H67.748V12.264H68.945C69.743 12.264 70.387 12.369 70.877 12.579C71.381 12.789 71.773 13.083 72.053 13.461C72.333 13.839 72.522 14.287 72.62 14.805C72.718 15.323 72.767 15.89 72.767 16.506C72.767 17.192 72.711 17.815 72.599 18.375C72.501 18.921 72.312 19.39 72.032 19.782C71.752 20.174 71.374 20.475 70.898 20.685C70.422 20.895 69.813 21 69.071 21H66.089ZM67.748 19.425H68.924C69.414 19.425 69.806 19.355 70.1 19.215C70.394 19.061 70.618 18.858 70.772 18.606C70.926 18.34 71.024 18.032 71.066 17.682C71.122 17.332 71.15 16.961 71.15 16.569C71.15 16.191 71.129 15.841 71.087 15.519C71.045 15.183 70.94 14.889 70.772 14.637C70.618 14.385 70.387 14.189 70.079 14.049C69.785 13.895 69.386 13.818 68.882 13.818H67.748V19.425ZM80.6177 21V6.384H86.8757V7.917H82.2767V12.81H86.2667V14.343H82.2767V19.488H86.8757V21H80.6177ZM100.068 19.425H100.845V23.751H99.3751V21H89.3581V6.384H91.0171V19.425H93.8731V6.384H95.5321V19.425H98.4091V6.384H100.068V19.425ZM103.533 21V6.384H109.791V7.917H105.192V12.81H109.182V14.343H105.192V19.488H109.791V21H103.533Z" fill="#11305D"/>
<rect y="30" width="111" height="2" fill="#11305D"/>
</svg>
