<svg width="156" height="32" viewBox="0 0 156 32" fill="none" xmlns="http://www.w3.org/2000/svg">
<circle cx="139.429" cy="16" r="16" transform="rotate(-180 139.429 16)" fill="#96A9C6"/>
<rect x="139.429" y="32" width="16" height="32" transform="rotate(-180 139.429 32)" fill="#96A9C6"/>
<rect x="129.523" y="32" width="105.905" height="32" transform="rotate(-180 129.523 32)" fill="#96A9C6"/>
<circle cx="16" cy="16" r="16" fill="#96A9C6"/>
<rect x="16" width="16" height="32" fill="#96A9C6"/>
<path d="M27.5922 12.96V20H28.7822V14.03H32.0922V20H33.2822V12.96H27.5922ZM42.8667 12.84C40.8867 12.84 39.5667 14.35 39.5667 16.48C39.5667 18.61 40.8867 20.12 42.8667 20.12C44.8467 20.12 46.1667 18.61 46.1667 16.48C46.1667 14.35 44.8467 12.84 42.8667 12.84ZM42.8667 19.03C41.5667 19.03 40.7867 17.97 40.7867 16.48C40.7867 14.99 41.5667 13.93 42.8667 13.93C44.1667 13.93 44.9567 14.99 44.9567 16.48C44.9567 17.97 44.1667 19.03 42.8667 19.03ZM58.7386 18.92H57.8786V12.96H53.1686L52.9386 16.52C52.8486 17.84 52.6686 18.58 52.1686 18.92H51.6186V21.34H52.7586V20H57.5986V21.34H58.7386V18.92ZM54.0786 16.52L54.2386 14.03H56.6886V18.92H53.4786C53.8586 18.48 53.9886 17.85 54.0786 16.52ZM67.3788 12.96H64.8188V20H66.0088V17.57H67.4088C68.8988 17.57 69.8088 16.53 69.8088 15.26C69.8088 13.98 68.9388 12.96 67.3788 12.96ZM67.2588 14.01C68.1288 14.01 68.5988 14.52 68.5988 15.26C68.5988 16 68.1088 16.53 67.2588 16.53H66.0088V14.01H67.2588ZM78.9995 12.84C77.0195 12.84 75.6995 14.35 75.6995 16.48C75.6995 18.61 77.0195 20.12 78.9995 20.12C80.9795 20.12 82.2995 18.61 82.2995 16.48C82.2995 14.35 80.9795 12.84 78.9995 12.84ZM78.9995 19.03C77.6995 19.03 76.9195 17.97 76.9195 16.48C76.9195 14.99 77.6995 13.93 78.9995 13.93C80.2995 13.93 81.0895 14.99 81.0895 16.48C81.0895 17.97 80.2995 19.03 78.9995 19.03ZM93.0483 14.03V12.96H88.5883V20H91.2683C92.6683 20 93.5583 19.07 93.5583 17.83C93.5583 16.54 92.6883 15.68 91.2583 15.68H89.7783V14.03H93.0483ZM91.0983 16.69C91.8783 16.69 92.3483 17.12 92.3483 17.82C92.3483 18.52 91.8783 18.96 91.0983 18.96H89.7783V16.69H91.0983ZM100.979 20V16.93H104.319V20H105.509V12.96H104.319V15.85H100.979V12.96H99.7895V20H100.979ZM116.723 14.03V12.96H112.133V20H116.723V18.93H113.323V16.92H116.533V15.88H113.323V14.03H116.723ZM127.671 14.03V12.96H123.081V20H127.671V18.93H124.271V16.92H127.481V15.88H124.271V14.03H127.671Z" fill="#11305D"/>
</svg>
