<svg width="88" height="21" viewBox="0 0 88 21" fill="none" xmlns="http://www.w3.org/2000/svg">
<path d="M4.365 9.525C4.825 9.665 5.135 9.95 5.295 10.38C5.465 10.8 5.55 11.315 5.55 11.925C5.55 13.005 5.325 13.79 4.875 14.28C4.435 14.76 3.745 15 2.805 15H0.795V4.56H3C3.9 4.56 4.535 4.8 4.905 5.28C5.275 5.76 5.46 6.44 5.46 7.32C5.46 7.87 5.38 8.31 5.22 8.64C5.06 8.96 4.775 9.235 4.365 9.465V9.525ZM4.41 11.805C4.41 11.235 4.3 10.795 4.08 10.485C3.87 10.175 3.46 10.02 2.85 10.02H1.98V13.935H2.91C3.24 13.935 3.5 13.88 3.69 13.77C3.89 13.65 4.04 13.495 4.14 13.305C4.25 13.105 4.32 12.88 4.35 12.63C4.39 12.37 4.41 12.095 4.41 11.805ZM4.32 7.305C4.32 6.765 4.2 6.355 3.96 6.075C3.73 5.785 3.34 5.64 2.79 5.64H1.98V8.985H2.775C3.325 8.985 3.72 8.84 3.96 8.55C4.2 8.26 4.32 7.845 4.32 7.305ZM10.0209 4.47C10.8309 4.47 11.4159 4.69 11.7759 5.13C12.1459 5.57 12.3309 6.145 12.3309 6.855L11.1459 7.065C11.1559 6.605 11.0709 6.24 10.8909 5.97C10.7209 5.7 10.4259 5.565 10.0059 5.565C9.76594 5.565 9.57094 5.62 9.42094 5.73C9.27094 5.84 9.15094 5.98 9.06094 6.15C8.98094 6.31 8.92594 6.49 8.89594 6.69C8.86594 6.89 8.85094 7.08 8.85094 7.26V12.525C8.85094 12.675 8.86594 12.84 8.89594 13.02C8.92594 13.19 8.98094 13.35 9.06094 13.5C9.15094 13.64 9.26594 13.76 9.40594 13.86C9.55594 13.96 9.75094 14.01 9.99094 14.01C10.3809 14.01 10.6659 13.89 10.8459 13.65C11.0359 13.41 11.1359 13.03 11.1459 12.51L12.3609 12.72C12.3409 13.47 12.1359 14.055 11.7459 14.475C11.3659 14.895 10.7909 15.105 10.0209 15.105C9.23094 15.105 8.64094 14.885 8.25094 14.445C7.86094 14.005 7.66594 13.385 7.66594 12.585V7.425C7.66594 7.055 7.69594 6.695 7.75594 6.345C7.82594 5.985 7.94594 5.67 8.11594 5.4C8.28594 5.12 8.52594 4.895 8.83594 4.725C9.14594 4.555 9.54094 4.47 10.0209 4.47ZM14.2628 15V4.56H18.7328V5.655H15.4478V9.15H18.2978V10.245H15.4478V13.92H18.7328V15H14.2628ZM24.5306 16.995H23.4806V14.04L23.9306 13.965C24.0606 13.885 24.1756 13.775 24.2756 13.635C24.3756 13.485 24.4606 13.29 24.5306 13.05C24.6106 12.81 24.6706 12.51 24.7106 12.15C24.7506 11.78 24.7806 11.34 24.8006 10.83L24.9806 4.56H29.4056V13.98H29.9306V16.995H28.8806V15H24.5306V16.995ZM28.2206 13.98V5.595H26.0306L25.8656 10.905C25.8456 11.655 25.7906 12.275 25.7006 12.765C25.6106 13.255 25.4606 13.66 25.2506 13.98H28.2206ZM36.3839 12.195C36.3839 13.125 36.1989 13.845 35.8289 14.355C35.4689 14.855 34.8489 15.105 33.9689 15.105C33.1089 15.105 32.4939 14.87 32.1239 14.4C31.7639 13.93 31.5839 13.31 31.5839 12.54V7.395C31.5839 7.025 31.6139 6.665 31.6739 6.315C31.7439 5.965 31.8639 5.655 32.0339 5.385C32.2139 5.105 32.4589 4.885 32.7689 4.725C33.0789 4.555 33.4839 4.47 33.9839 4.47C34.5039 4.47 34.9189 4.545 35.2289 4.695C35.5489 4.835 35.7939 5.035 35.9639 5.295C36.1339 5.555 36.2439 5.86 36.2939 6.21C36.3539 6.56 36.3839 6.945 36.3839 7.365V12.195ZM35.1989 7.17C35.1989 6.99 35.1839 6.805 35.1539 6.615C35.1339 6.425 35.0839 6.255 35.0039 6.105C34.9239 5.945 34.7989 5.815 34.6289 5.715C34.4689 5.605 34.2539 5.55 33.9839 5.55C33.6839 5.55 33.4539 5.625 33.2939 5.775C33.1339 5.915 33.0139 6.085 32.9339 6.285C32.8539 6.485 32.8039 6.7 32.7839 6.93C32.7739 7.15 32.7689 7.335 32.7689 7.485V12.555C32.7689 12.705 32.7839 12.865 32.8139 13.035C32.8439 13.205 32.9039 13.365 32.9939 13.515C33.0839 13.665 33.2039 13.79 33.3539 13.89C33.5139 13.98 33.7189 14.025 33.9689 14.025C34.2189 14.025 34.4239 13.975 34.5839 13.875C34.7439 13.775 34.8689 13.65 34.9589 13.5C35.0489 13.34 35.1089 13.16 35.1389 12.96C35.1789 12.76 35.1989 12.555 35.1989 12.345V7.17ZM38.6348 15V4.56H39.8198V9.105H40.3598C40.5098 9.105 40.6648 9.09 40.8248 9.06C40.9948 9.03 41.1548 8.965 41.3048 8.865C41.4648 8.755 41.6098 8.6 41.7398 8.4C41.8798 8.2 41.9898 7.925 42.0698 7.575L42.7898 4.56H43.8698L43.1798 7.62C43.0698 8.13 42.9048 8.56 42.6848 8.91C42.4648 9.25 42.2048 9.475 41.9048 9.585C42.2948 9.725 42.5948 9.975 42.8048 10.335C43.0148 10.685 43.1748 11.12 43.2848 11.64L44.0348 15H42.8498L42.1748 11.85C42.0948 11.5 41.9948 11.22 41.8748 11.01C41.7548 10.79 41.6148 10.625 41.4548 10.515C41.2948 10.395 41.1248 10.32 40.9448 10.29C40.7748 10.25 40.5998 10.23 40.4198 10.23H39.8198V15H38.6348ZM47.7826 10.395L49.1626 4.56H50.3026L48.2026 12.585C48.0526 13.175 47.8926 13.64 47.7226 13.98C47.5526 14.31 47.3776 14.56 47.1976 14.73C47.0176 14.89 46.8326 14.99 46.6426 15.03C46.4526 15.08 46.2576 15.11 46.0576 15.12H45.4876V14.19H46.0276C46.2376 14.19 46.4326 14.085 46.6126 13.875C46.8026 13.655 46.9576 13.315 47.0776 12.855L47.2426 12.225L44.9776 4.575H46.1476L47.7226 10.41L47.7826 10.395ZM57.5368 7.77L56.7118 9.93L55.6318 12.465H55.0768L53.9968 9.93L53.1718 7.77H53.1118V15H51.9268V4.56H53.1268L54.3718 7.815L55.3318 10.365H55.3768L56.3668 7.74L57.5818 4.56H58.7968V15H57.6118V7.77H57.5368ZM61.1436 15V4.56H65.6136V5.655H62.3286V9.15H65.1786V10.245H62.3286V13.92H65.6136V15H61.1436ZM71.0018 15V10.185H68.5718V15H67.3868V4.56H68.5718V9.15H71.0018V4.56H72.1868V15H71.0018ZM76.7882 5.64V15H75.5882V5.64H73.8182V4.56H78.5582V5.64H76.7882ZM80.1507 15V4.56H81.3357V8.76H82.1907C82.7607 8.76 83.2207 8.835 83.5707 8.985C83.9307 9.135 84.2107 9.345 84.4107 9.615C84.6107 9.885 84.7457 10.205 84.8157 10.575C84.8857 10.945 84.9207 11.35 84.9207 11.79C84.9207 12.28 84.8807 12.725 84.8007 13.125C84.7307 13.515 84.5957 13.85 84.3957 14.13C84.1957 14.41 83.9257 14.625 83.5857 14.775C83.2457 14.925 82.8107 15 82.2807 15H80.1507ZM81.3357 13.875H82.1757C82.5257 13.875 82.8057 13.825 83.0157 13.725C83.2257 13.615 83.3857 13.47 83.4957 13.29C83.6057 13.1 83.6757 12.88 83.7057 12.63C83.7457 12.38 83.7657 12.115 83.7657 11.835C83.7657 11.565 83.7507 11.315 83.7207 11.085C83.6907 10.845 83.6157 10.635 83.4957 10.455C83.3857 10.275 83.2207 10.135 83.0007 10.035C82.7907 9.925 82.5057 9.87 82.1457 9.87H81.3357V13.875ZM85.7457 15V4.56H86.9457V15H85.7457Z" fill="#11305D"/>
<rect y="20" width="88" height="1" fill="#11305D"/>
</svg>
