<svg width="71" height="21" viewBox="0 0 71 21" fill="none" xmlns="http://www.w3.org/2000/svg">
<path d="M4.365 9.525C4.825 9.665 5.135 9.95 5.295 10.38C5.465 10.8 5.55 11.315 5.55 11.925C5.55 13.005 5.325 13.79 4.875 14.28C4.435 14.76 3.745 15 2.805 15H0.795V4.56H3C3.9 4.56 4.535 4.8 4.905 5.28C5.275 5.76 5.46 6.44 5.46 7.32C5.46 7.87 5.38 8.31 5.22 8.64C5.06 8.96 4.775 9.235 4.365 9.465V9.525ZM4.41 11.805C4.41 11.235 4.3 10.795 4.08 10.485C3.87 10.175 3.46 10.02 2.85 10.02H1.98V13.935H2.91C3.24 13.935 3.5 13.88 3.69 13.77C3.89 13.65 4.04 13.495 4.14 13.305C4.25 13.105 4.32 12.88 4.35 12.63C4.39 12.37 4.41 12.095 4.41 11.805ZM4.32 7.305C4.32 6.765 4.2 6.355 3.96 6.075C3.73 5.785 3.34 5.64 2.79 5.64H1.98V8.985H2.775C3.325 8.985 3.72 8.84 3.96 8.55C4.2 8.26 4.32 7.845 4.32 7.305ZM10.0209 4.47C10.8309 4.47 11.4159 4.69 11.7759 5.13C12.1459 5.57 12.3309 6.145 12.3309 6.855L11.1459 7.065C11.1559 6.605 11.0709 6.24 10.8909 5.97C10.7209 5.7 10.4259 5.565 10.0059 5.565C9.76594 5.565 9.57094 5.62 9.42094 5.73C9.27094 5.84 9.15094 5.98 9.06094 6.15C8.98094 6.31 8.92594 6.49 8.89594 6.69C8.86594 6.89 8.85094 7.08 8.85094 7.26V12.525C8.85094 12.675 8.86594 12.84 8.89594 13.02C8.92594 13.19 8.98094 13.35 9.06094 13.5C9.15094 13.64 9.26594 13.76 9.40594 13.86C9.55594 13.96 9.75094 14.01 9.99094 14.01C10.3809 14.01 10.6659 13.89 10.8459 13.65C11.0359 13.41 11.1359 13.03 11.1459 12.51L12.3609 12.72C12.3409 13.47 12.1359 14.055 11.7459 14.475C11.3659 14.895 10.7909 15.105 10.0209 15.105C9.23094 15.105 8.64094 14.885 8.25094 14.445C7.86094 14.005 7.66594 13.385 7.66594 12.585V7.425C7.66594 7.055 7.69594 6.695 7.75594 6.345C7.82594 5.985 7.94594 5.67 8.11594 5.4C8.28594 5.12 8.52594 4.895 8.83594 4.725C9.14594 4.555 9.54094 4.47 10.0209 4.47ZM14.2628 15V4.56H18.7328V5.655H15.4478V9.15H18.2978V10.245H15.4478V13.92H18.7328V15H14.2628ZM27.8006 15V10.185H25.3706V15H24.1856V4.56H25.3706V9.15H27.8006V4.56H28.9856V15H27.8006ZM36.047 12.195C36.047 13.125 35.862 13.845 35.492 14.355C35.132 14.855 34.512 15.105 33.632 15.105C32.772 15.105 32.157 14.87 31.787 14.4C31.427 13.93 31.247 13.31 31.247 12.54V7.395C31.247 7.025 31.277 6.665 31.337 6.315C31.407 5.965 31.527 5.655 31.697 5.385C31.877 5.105 32.122 4.885 32.432 4.725C32.742 4.555 33.147 4.47 33.647 4.47C34.167 4.47 34.582 4.545 34.892 4.695C35.212 4.835 35.457 5.035 35.627 5.295C35.797 5.555 35.907 5.86 35.957 6.21C36.017 6.56 36.047 6.945 36.047 7.365V12.195ZM34.862 7.17C34.862 6.99 34.847 6.805 34.817 6.615C34.797 6.425 34.747 6.255 34.667 6.105C34.587 5.945 34.462 5.815 34.292 5.715C34.132 5.605 33.917 5.55 33.647 5.55C33.347 5.55 33.117 5.625 32.957 5.775C32.797 5.915 32.677 6.085 32.597 6.285C32.517 6.485 32.467 6.7 32.447 6.93C32.437 7.15 32.432 7.335 32.432 7.485V12.555C32.432 12.705 32.447 12.865 32.477 13.035C32.507 13.205 32.567 13.365 32.657 13.515C32.747 13.665 32.867 13.79 33.017 13.89C33.177 13.98 33.382 14.025 33.632 14.025C33.882 14.025 34.087 13.975 34.247 13.875C34.407 13.775 34.532 13.65 34.622 13.5C34.712 13.34 34.772 13.16 34.802 12.96C34.842 12.76 34.862 12.555 34.862 12.345V7.17ZM41.8679 9.525C42.3279 9.665 42.6379 9.95 42.7979 10.38C42.9679 10.8 43.0529 11.315 43.0529 11.925C43.0529 13.005 42.8279 13.79 42.3779 14.28C41.9379 14.76 41.2479 15 40.3079 15H38.2979V4.56H40.5029C41.4029 4.56 42.0379 4.8 42.4079 5.28C42.7779 5.76 42.9629 6.44 42.9629 7.32C42.9629 7.87 42.8829 8.31 42.7229 8.64C42.5629 8.96 42.2779 9.235 41.8679 9.465V9.525ZM41.9129 11.805C41.9129 11.235 41.8029 10.795 41.5829 10.485C41.3729 10.175 40.9629 10.02 40.3529 10.02H39.4829V13.935H40.4129C40.7429 13.935 41.0029 13.88 41.1929 13.77C41.3929 13.65 41.5429 13.495 41.6429 13.305C41.7529 13.105 41.8229 12.88 41.8529 12.63C41.8929 12.37 41.9129 12.095 41.9129 11.805ZM41.8229 7.305C41.8229 6.765 41.7029 6.355 41.4629 6.075C41.2329 5.785 40.8429 5.64 40.2929 5.64H39.4829V8.985H40.2779C40.8279 8.985 41.2229 8.84 41.4629 8.55C41.7029 8.26 41.8229 7.845 41.8229 7.305ZM49.9689 12.195C49.9689 13.125 49.7839 13.845 49.4139 14.355C49.0539 14.855 48.4339 15.105 47.5539 15.105C46.6939 15.105 46.0789 14.87 45.7089 14.4C45.3489 13.93 45.1689 13.31 45.1689 12.54V7.395C45.1689 7.025 45.1989 6.665 45.2589 6.315C45.3289 5.965 45.4489 5.655 45.6189 5.385C45.7989 5.105 46.0439 4.885 46.3539 4.725C46.6639 4.555 47.0689 4.47 47.5689 4.47C48.0889 4.47 48.5039 4.545 48.8139 4.695C49.1339 4.835 49.3789 5.035 49.5489 5.295C49.7189 5.555 49.8289 5.86 49.8789 6.21C49.9389 6.56 49.9689 6.945 49.9689 7.365V12.195ZM48.7839 7.17C48.7839 6.99 48.7689 6.805 48.7389 6.615C48.7189 6.425 48.6689 6.255 48.5889 6.105C48.5089 5.945 48.3839 5.815 48.2139 5.715C48.0539 5.605 47.8389 5.55 47.5689 5.55C47.2689 5.55 47.0389 5.625 46.8789 5.775C46.7189 5.915 46.5989 6.085 46.5189 6.285C46.4389 6.485 46.3889 6.7 46.3689 6.93C46.3589 7.15 46.3539 7.335 46.3539 7.485V12.555C46.3539 12.705 46.3689 12.865 46.3989 13.035C46.4289 13.205 46.4889 13.365 46.5789 13.515C46.6689 13.665 46.7889 13.79 46.9389 13.89C47.0989 13.98 47.3039 14.025 47.5539 14.025C47.8039 14.025 48.0089 13.975 48.1689 13.875C48.3289 13.775 48.4539 13.65 48.5439 13.5C48.6339 13.34 48.6939 13.16 48.7239 12.96C48.7639 12.76 48.7839 12.555 48.7839 12.345V7.17ZM54.4848 4.47C55.2948 4.47 55.8798 4.69 56.2398 5.13C56.6098 5.57 56.7948 6.145 56.7948 6.855L55.6098 7.065C55.6198 6.605 55.5348 6.24 55.3548 5.97C55.1848 5.7 54.8898 5.565 54.4698 5.565C54.2298 5.565 54.0348 5.62 53.8848 5.73C53.7348 5.84 53.6148 5.98 53.5248 6.15C53.4448 6.31 53.3898 6.49 53.3598 6.69C53.3298 6.89 53.3148 7.08 53.3148 7.26V12.525C53.3148 12.675 53.3298 12.84 53.3598 13.02C53.3898 13.19 53.4448 13.35 53.5248 13.5C53.6148 13.64 53.7298 13.76 53.8698 13.86C54.0198 13.96 54.2148 14.01 54.4548 14.01C54.8448 14.01 55.1298 13.89 55.3098 13.65C55.4998 13.41 55.5998 13.03 55.6098 12.51L56.8248 12.72C56.8048 13.47 56.5998 14.055 56.2098 14.475C55.8298 14.895 55.2548 15.105 54.4848 15.105C53.6948 15.105 53.1048 14.885 52.7148 14.445C52.3248 14.005 52.1298 13.385 52.1298 12.585V7.425C52.1298 7.055 52.1598 6.695 52.2198 6.345C52.2898 5.985 52.4098 5.67 52.5798 5.4C52.7498 5.12 52.9898 4.895 53.2998 4.725C53.6098 4.555 54.0048 4.47 54.4848 4.47ZM60.9766 5.64V15H59.7766V5.64H58.0066V4.56H62.7466V5.64H60.9766ZM68.0742 7.665L65.4342 15H64.3242V4.56H65.4642V11.94L65.5242 11.955L68.1342 4.56H69.2592V15H68.1192V7.665H68.0742Z" fill="#96A9C6"/>
<rect y="20" width="70" height="1" fill="#11305D"/>
</svg>
