<svg width="160" height="42" viewBox="0 0 160 42" fill="none" xmlns="http://www.w3.org/2000/svg">
<path fill-rule="evenodd" clip-rule="evenodd" d="M31 42H21C9.40202 42 0 32.598 0 21C0 9.40202 9.40202 0 21 0H31H42H118H129H139C150.598 0 160 9.40202 160 21C160 32.598 150.598 42 139 42H129H118H42H31Z" fill="#96A9C6"/>
<path d="M31.972 16.552V25H33.4V17.836H37.372V25H38.8V16.552H31.972ZM47.3013 16.408C44.9253 16.408 43.3413 18.22 43.3413 20.776C43.3413 23.332 44.9253 25.144 47.3013 25.144C49.6773 25.144 51.2613 23.332 51.2613 20.776C51.2613 18.22 49.6773 16.408 47.3013 16.408ZM47.3013 23.836C45.7413 23.836 44.8053 22.564 44.8053 20.776C44.8053 18.988 45.7413 17.716 47.3013 17.716C48.8613 17.716 49.8093 18.988 49.8093 20.776C49.8093 22.564 48.8613 23.836 47.3013 23.836ZM63.3476 23.704H62.3156V16.552H56.6636L56.3876 20.824C56.2796 22.408 56.0636 23.296 55.4636 23.704H54.8036V26.608H56.1716V25H61.9796V26.608H63.3476V23.704ZM57.7556 20.824L57.9476 17.836H60.8876V23.704H57.0356C57.4916 23.176 57.6476 22.42 57.7556 20.824ZM70.7159 16.552H67.6439V25H69.0719V22.084H70.7519C72.5399 22.084 73.6319 20.836 73.6319 19.312C73.6319 17.776 72.5879 16.552 70.7159 16.552ZM70.5719 17.812C71.6159 17.812 72.1799 18.424 72.1799 19.312C72.1799 20.2 71.5919 20.836 70.5719 20.836H69.0719V17.812H70.5719ZM81.6607 16.408C79.2847 16.408 77.7007 18.22 77.7007 20.776C77.7007 23.332 79.2847 25.144 81.6607 25.144C84.0367 25.144 85.6207 23.332 85.6207 20.776C85.6207 18.22 84.0367 16.408 81.6607 16.408ZM81.6607 23.836C80.1007 23.836 79.1647 22.564 79.1647 20.776C79.1647 18.988 80.1007 17.716 81.6607 17.716C83.2207 17.716 84.1687 18.988 84.1687 20.776C84.1687 22.564 83.2207 23.836 81.6607 23.836ZM95.5193 17.836V16.552H90.1673V25H93.3833C95.0633 25 96.1313 23.884 96.1313 22.396C96.1313 20.848 95.0873 19.816 93.3713 19.816H91.5953V17.836H95.5193ZM93.1793 21.028C94.1153 21.028 94.6793 21.544 94.6793 22.384C94.6793 23.224 94.1153 23.752 93.1793 23.752H91.5953V21.028H93.1793ZM102.037 25V21.316H106.045V25H107.473V16.552H106.045V20.02H102.037V16.552H100.609V25H102.037ZM117.929 17.836V16.552H112.421V25H117.929V23.716H113.849V21.304H117.701V20.056H113.849V17.836H117.929ZM128.066 17.836V16.552H122.558V25H128.066V23.716H123.986V21.304H127.838V20.056H123.986V17.836H128.066Z" fill="#11305D"/>
</svg>
