<svg width="304" height="42" viewBox="0 0 304 42" fill="none" xmlns="http://www.w3.org/2000/svg">
<rect x="271" y="42" width="240" height="42" transform="rotate(-180 271 42)" fill="#96A9C6"/>
<circle cx="21" cy="21" r="21" fill="#96A9C6"/>
<rect x="21" width="21" height="42" fill="#96A9C6"/>
<circle cx="283" cy="21" r="21" transform="rotate(-180 283 21)" fill="#96A9C6"/>
<rect x="283" y="42" width="21" height="42" transform="rotate(-180 283 42)" fill="#96A9C6"/>
<path d="M42.972 16.552V25H44.4V17.836H48.372V25H49.8V16.552H42.972ZM61.3013 16.408C58.9253 16.408 57.3413 18.22 57.3413 20.776C57.3413 23.332 58.9253 25.144 61.3013 25.144C63.6773 25.144 65.2613 23.332 65.2613 20.776C65.2613 18.22 63.6773 16.408 61.3013 16.408ZM61.3013 23.836C59.7413 23.836 58.8053 22.564 58.8053 20.776C58.8053 18.988 59.7413 17.716 61.3013 17.716C62.8613 17.716 63.8093 18.988 63.8093 20.776C63.8093 22.564 62.8613 23.836 61.3013 23.836ZM74.2359 25V21.112L77.6319 25H79.4319L75.6519 20.596L79.3599 16.552H77.6199L74.2359 20.212V16.552H72.8079V25H74.2359ZM88.8946 16.552L85.7626 25H87.2626L87.9586 22.996H91.2946L92.0266 25H93.5266L90.3826 16.552H88.8946ZM89.6266 18.256L90.8626 21.76H88.4026L89.6266 18.256ZM100.267 18.82H101.659C101.803 18.1 102.415 17.692 103.291 17.692C104.155 17.692 104.731 18.148 104.731 18.868C104.731 19.552 104.275 20.056 103.291 20.056H102.199V21.304H103.411C104.359 21.304 105.043 21.676 105.043 22.54C105.043 23.344 104.419 23.86 103.411 23.86C102.355 23.86 101.743 23.344 101.599 22.648H100.183C100.339 24.208 101.599 25.144 103.411 25.144C105.247 25.144 106.495 24.088 106.495 22.564C106.495 21.316 105.559 20.716 104.995 20.572C105.583 20.368 106.183 19.732 106.183 18.772C106.183 17.38 105.043 16.408 103.303 16.408C101.779 16.408 100.423 17.236 100.267 18.82ZM116.352 16.552L113.22 25H114.72L115.416 22.996H118.752L119.484 25H120.984L117.84 16.552H116.352ZM117.084 18.256L118.32 21.76H115.86L117.084 18.256ZM126.642 17.836H129.306V25H130.734V17.836H133.386V16.552H126.642V17.836ZM143.813 19.54H142.181V16.552H140.753V25H143.849C145.613 25 146.717 23.788 146.717 22.264C146.717 20.728 145.661 19.54 143.813 19.54ZM143.669 20.8C144.689 20.8 145.265 21.376 145.265 22.264C145.265 23.14 144.665 23.74 143.669 23.74H142.181V20.8H143.669ZM164.224 25V21.316H168.232V25H169.66V16.552H168.232V20.02H164.224V16.552H162.796V25H164.224ZM179.973 16.552L176.841 25H178.341L179.037 22.996H182.373L183.105 25H184.605L181.461 16.552H179.973ZM180.705 18.256L181.941 21.76H179.481L180.705 18.256ZM201.806 25V21.112L205.202 25H207.002L203.222 20.596L206.93 16.552H205.19L201.806 20.212V16.552H200.378V25H201.806ZM216.465 16.552L213.333 25H214.833L215.529 22.996H218.865L219.597 25H221.097L217.953 16.552H216.465ZM217.197 18.256L218.433 21.76H215.973L217.197 18.256ZM231.329 16.552H228.257V25H229.685V22.084H231.365C233.153 22.084 234.245 20.836 234.245 19.312C234.245 17.776 233.201 16.552 231.329 16.552ZM231.185 17.812C232.229 17.812 232.793 18.424 232.793 19.312C232.793 20.2 232.205 20.836 231.185 20.836H229.685V17.812H231.185ZM241.064 17.836H243.728V25H245.156V17.836H247.808V16.552H241.064V17.836ZM260.683 17.836V16.552H255.175V25H260.683V23.716H256.603V21.304H260.455V20.056H256.603V17.836H260.683Z" fill="white"/>
</svg>
