<svg width="136" height="32" viewBox="0 0 136 32" fill="none" xmlns="http://www.w3.org/2000/svg">
<rect y="30" width="123" height="2" fill="#11305D"/>
<path d="M6.111 13.335C6.755 13.531 7.189 13.93 7.413 14.532C7.651 15.12 7.77 15.841 7.77 16.695C7.77 18.207 7.455 19.306 6.825 19.992C6.209 20.664 5.243 21 3.927 21H1.113V6.384H4.2C5.46 6.384 6.349 6.72 6.867 7.392C7.385 8.064 7.644 9.016 7.644 10.248C7.644 11.018 7.532 11.634 7.308 12.096C7.084 12.544 6.685 12.929 6.111 13.251V13.335ZM6.174 16.527C6.174 15.729 6.02 15.113 5.712 14.679C5.418 14.245 4.844 14.028 3.99 14.028H2.772V19.509H4.074C4.536 19.509 4.9 19.432 5.166 19.278C5.446 19.11 5.656 18.893 5.796 18.627C5.95 18.347 6.048 18.032 6.09 17.682C6.146 17.318 6.174 16.933 6.174 16.527ZM6.048 10.227C6.048 9.471 5.88 8.897 5.544 8.505C5.222 8.099 4.676 7.896 3.906 7.896H2.772V12.579H3.885C4.655 12.579 5.208 12.376 5.544 11.97C5.88 11.564 6.048 10.983 6.048 10.227ZM14.0293 6.258C15.1633 6.258 15.9823 6.566 16.4863 7.182C17.0043 7.798 17.2633 8.603 17.2633 9.597L15.6043 9.891C15.6183 9.247 15.4993 8.736 15.2473 8.358C15.0093 7.98 14.5963 7.791 14.0083 7.791C13.6723 7.791 13.3993 7.868 13.1893 8.022C12.9793 8.176 12.8113 8.372 12.6853 8.61C12.5733 8.834 12.4963 9.086 12.4543 9.366C12.4123 9.646 12.3913 9.912 12.3913 10.164V17.535C12.3913 17.745 12.4123 17.976 12.4543 18.228C12.4963 18.466 12.5733 18.69 12.6853 18.9C12.8113 19.096 12.9723 19.264 13.1683 19.404C13.3783 19.544 13.6513 19.614 13.9873 19.614C14.5333 19.614 14.9323 19.446 15.1843 19.11C15.4503 18.774 15.5903 18.242 15.6043 17.514L17.3053 17.808C17.2773 18.858 16.9903 19.677 16.4443 20.265C15.9123 20.853 15.1073 21.147 14.0293 21.147C12.9233 21.147 12.0973 20.839 11.5513 20.223C11.0053 19.607 10.7323 18.739 10.7323 17.619V10.395C10.7323 9.877 10.7743 9.373 10.8583 8.883C10.9563 8.379 11.1243 7.938 11.3623 7.56C11.6003 7.168 11.9363 6.853 12.3703 6.615C12.8043 6.377 13.3573 6.258 14.0293 6.258ZM19.9679 21V6.384H26.2259V7.917H21.6269V12.81H25.6169V14.343H21.6269V19.488H26.2259V21H19.9679ZM34.3429 23.793H32.8729V19.656L33.5029 19.551C33.6849 19.439 33.8459 19.285 33.9859 19.089C34.1259 18.879 34.2449 18.606 34.3429 18.27C34.4549 17.934 34.5389 17.514 34.5949 17.01C34.6509 16.492 34.6929 15.876 34.7209 15.162L34.9729 6.384H41.1679V19.572H41.9029V23.793H40.4329V21H34.3429V23.793ZM39.5089 19.572V7.833H36.4429L36.2119 15.267C36.1839 16.317 36.1069 17.185 35.9809 17.871C35.8549 18.557 35.6449 19.124 35.3509 19.572H39.5089ZM50.9375 17.073C50.9375 18.375 50.6785 19.383 50.1605 20.097C49.6565 20.797 48.7885 21.147 47.5565 21.147C46.3525 21.147 45.4915 20.818 44.9735 20.16C44.4695 19.502 44.2175 18.634 44.2175 17.556V10.353C44.2175 9.835 44.2595 9.331 44.3435 8.841C44.4415 8.351 44.6095 7.917 44.8475 7.539C45.0995 7.147 45.4425 6.839 45.8765 6.615C46.3105 6.377 46.8775 6.258 47.5775 6.258C48.3055 6.258 48.8865 6.363 49.3205 6.573C49.7685 6.769 50.1115 7.049 50.3495 7.413C50.5875 7.777 50.7415 8.204 50.8115 8.694C50.8955 9.184 50.9375 9.723 50.9375 10.311V17.073ZM49.2785 10.038C49.2785 9.786 49.2575 9.527 49.2155 9.261C49.1875 8.995 49.1175 8.757 49.0055 8.547C48.8935 8.323 48.7185 8.141 48.4805 8.001C48.2565 7.847 47.9555 7.77 47.5775 7.77C47.1575 7.77 46.8355 7.875 46.6115 8.085C46.3875 8.281 46.2195 8.519 46.1075 8.799C45.9955 9.079 45.9255 9.38 45.8975 9.702C45.8835 10.01 45.8765 10.269 45.8765 10.479V17.577C45.8765 17.787 45.8975 18.011 45.9395 18.249C45.9815 18.487 46.0655 18.711 46.1915 18.921C46.3175 19.131 46.4855 19.306 46.6955 19.446C46.9195 19.572 47.2065 19.635 47.5565 19.635C47.9065 19.635 48.1935 19.565 48.4175 19.425C48.6415 19.285 48.8165 19.11 48.9425 18.9C49.0685 18.676 49.1525 18.424 49.1945 18.144C49.2505 17.864 49.2785 17.577 49.2785 17.283V10.038ZM54.0888 21V6.384H55.7478V12.747H56.5038C56.7138 12.747 56.9308 12.726 57.1548 12.684C57.3928 12.642 57.6168 12.551 57.8268 12.411C58.0508 12.257 58.2538 12.04 58.4358 11.76C58.6318 11.48 58.7858 11.095 58.8978 10.605L59.9058 6.384H61.4178L60.4518 10.668C60.2978 11.382 60.0668 11.984 59.7588 12.474C59.4508 12.95 59.0868 13.265 58.6668 13.419C59.2128 13.615 59.6328 13.965 59.9268 14.469C60.2208 14.959 60.4448 15.568 60.5988 16.296L61.6488 21H59.9898L59.0448 16.59C58.9328 16.1 58.7928 15.708 58.6248 15.414C58.4568 15.106 58.2608 14.875 58.0368 14.721C57.8128 14.553 57.5748 14.448 57.3228 14.406C57.0848 14.35 56.8398 14.322 56.5878 14.322H55.7478V21H54.0888ZM66.8957 14.553L68.8277 6.384H70.4237L67.4837 17.619C67.2737 18.445 67.0497 19.096 66.8117 19.572C66.5737 20.034 66.3287 20.384 66.0767 20.622C65.8247 20.846 65.5657 20.986 65.2997 21.042C65.0337 21.112 64.7607 21.154 64.4807 21.168H63.6827V19.866H64.4387C64.7327 19.866 65.0057 19.719 65.2577 19.425C65.5237 19.117 65.7407 18.641 65.9087 17.997L66.1397 17.115L62.9687 6.405H64.6067L66.8117 14.574L66.8957 14.553ZM80.5516 10.878L79.3966 13.902L77.8846 17.451H77.1076L75.5956 13.902L74.4406 10.878H74.3566V21H72.6976V6.384H74.3776L76.1206 10.941L77.4646 14.511H77.5276L78.9136 10.836L80.6146 6.384H82.3156V21H80.6566V10.878H80.5516ZM85.6011 21V6.384H91.8591V7.917H87.2601V12.81H91.2501V14.343H87.2601V19.488H91.8591V21H85.6011ZM99.4025 21V14.259H96.0005V21H94.3415V6.384H96.0005V12.81H99.4025V6.384H101.062V21H99.4025ZM107.503 7.896V21H105.823V7.896H103.345V6.384H109.981V7.896H107.503ZM112.211 21V6.384H113.87V12.264H115.067C115.865 12.264 116.509 12.369 116.999 12.579C117.503 12.789 117.895 13.083 118.175 13.461C118.455 13.839 118.644 14.287 118.742 14.805C118.84 15.323 118.889 15.89 118.889 16.506C118.889 17.192 118.833 17.815 118.721 18.375C118.623 18.921 118.434 19.39 118.154 19.782C117.874 20.174 117.496 20.475 117.02 20.685C116.544 20.895 115.935 21 115.193 21H112.211ZM113.87 19.425H115.046C115.536 19.425 115.928 19.355 116.222 19.215C116.516 19.061 116.74 18.858 116.894 18.606C117.048 18.34 117.146 18.032 117.188 17.682C117.244 17.332 117.272 16.961 117.272 16.569C117.272 16.191 117.251 15.841 117.209 15.519C117.167 15.183 117.062 14.889 116.894 14.637C116.74 14.385 116.509 14.189 116.201 14.049C115.907 13.895 115.508 13.818 115.004 13.818H113.87V19.425ZM120.044 21V6.384H121.724V21H120.044Z" fill="#96A9C6"/>
</svg>
