<svg width="88" height="21" viewBox="0 0 88 21" fill="none" xmlns="http://www.w3.org/2000/svg">
<path d="M4.23 15V5.67H1.98V15H0.795V4.56H5.415V15H4.23ZM12.4659 12.195C12.4659 13.125 12.2809 13.845 11.9109 14.355C11.5509 14.855 10.9309 15.105 10.0509 15.105C9.19094 15.105 8.57594 14.87 8.20594 14.4C7.84594 13.93 7.66594 13.31 7.66594 12.54V7.395C7.66594 7.025 7.69594 6.665 7.75594 6.315C7.82594 5.965 7.94594 5.655 8.11594 5.385C8.29594 5.105 8.54094 4.885 8.85094 4.725C9.16094 4.555 9.56594 4.47 10.0659 4.47C10.5859 4.47 11.0009 4.545 11.3109 4.695C11.6309 4.835 11.8759 5.035 12.0459 5.295C12.2159 5.555 12.3259 5.86 12.3759 6.21C12.4359 6.56 12.4659 6.945 12.4659 7.365V12.195ZM11.2809 7.17C11.2809 6.99 11.2659 6.805 11.2359 6.615C11.2159 6.425 11.1659 6.255 11.0859 6.105C11.0059 5.945 10.8809 5.815 10.7109 5.715C10.5509 5.605 10.3359 5.55 10.0659 5.55C9.76594 5.55 9.53594 5.625 9.37594 5.775C9.21594 5.915 9.09594 6.085 9.01594 6.285C8.93594 6.485 8.88594 6.7 8.86594 6.93C8.85594 7.15 8.85094 7.335 8.85094 7.485V12.555C8.85094 12.705 8.86594 12.865 8.89594 13.035C8.92594 13.205 8.98594 13.365 9.07594 13.515C9.16594 13.665 9.28594 13.79 9.43594 13.89C9.59594 13.98 9.80094 14.025 10.0509 14.025C10.3009 14.025 10.5059 13.975 10.6659 13.875C10.8259 13.775 10.9509 13.65 11.0409 13.5C11.1309 13.34 11.1909 13.16 11.2209 12.96C11.2609 12.76 11.2809 12.555 11.2809 12.345V7.17ZM14.7169 15V4.56H15.9019V9.105H16.4419C16.5919 9.105 16.7469 9.09 16.9069 9.06C17.0769 9.03 17.2369 8.965 17.3869 8.865C17.5469 8.755 17.6919 8.6 17.8219 8.4C17.9619 8.2 18.0719 7.925 18.1519 7.575L18.8719 4.56H19.9519L19.2619 7.62C19.1519 8.13 18.9869 8.56 18.7669 8.91C18.5469 9.25 18.2869 9.475 17.9869 9.585C18.3769 9.725 18.6769 9.975 18.8869 10.335C19.0969 10.685 19.2569 11.12 19.3669 11.64L20.1169 15H18.9319L18.2569 11.85C18.1769 11.5 18.0769 11.22 17.9569 11.01C17.8369 10.79 17.6969 10.625 17.5369 10.515C17.3769 10.395 17.2069 10.32 17.0269 10.29C16.8569 10.25 16.6819 10.23 16.5019 10.23H15.9019V15H14.7169ZM25.6196 15L25.1396 12.675H22.8146L22.3496 15H21.2096L23.4296 4.56H24.5396L26.7896 15H25.6196ZM23.9396 6.69L23.5046 9.12L23.0096 11.565H24.9296L24.4196 9.09L23.9996 6.69H23.9396ZM30.2026 4.47C30.5726 4.47 30.9026 4.515 31.1926 4.605C31.4926 4.685 31.7476 4.83 31.9576 5.04C32.1676 5.24 32.3276 5.515 32.4376 5.865C32.5576 6.205 32.6176 6.64 32.6176 7.17C32.6176 7.35 32.6026 7.56 32.5726 7.8C32.5526 8.03 32.5076 8.26 32.4376 8.49C32.3676 8.72 32.2726 8.93 32.1526 9.12C32.0426 9.31 31.8926 9.455 31.7026 9.555V9.6C31.9126 9.72 32.0776 9.875 32.1976 10.065C32.3276 10.245 32.4226 10.445 32.4826 10.665C32.5426 10.875 32.5776 11.1 32.5876 11.34C32.6076 11.57 32.6176 11.795 32.6176 12.015C32.6176 13.015 32.4276 13.78 32.0476 14.31C31.6676 14.84 31.0526 15.105 30.2026 15.105C29.8526 15.105 29.5326 15.06 29.2426 14.97C28.9526 14.87 28.7026 14.725 28.4926 14.535C28.2826 14.335 28.1226 14.09 28.0126 13.8C27.9026 13.5 27.8576 13.145 27.8776 12.735L29.0326 12.51C29.0326 13.08 29.1326 13.475 29.3326 13.695C29.5326 13.905 29.8276 14.01 30.2176 14.01C30.3776 14.01 30.5276 13.98 30.6676 13.92C30.8176 13.86 30.9426 13.755 31.0426 13.605C31.1526 13.445 31.2376 13.235 31.2976 12.975C31.3676 12.715 31.4026 12.385 31.4026 11.985C31.4026 11.735 31.3826 11.495 31.3426 11.265C31.3126 11.035 31.2526 10.84 31.1626 10.68C31.0726 10.51 30.9526 10.375 30.8026 10.275C30.6626 10.175 30.4826 10.125 30.2626 10.125H29.5876V9.09H30.2926C30.5026 9.09 30.6776 9.045 30.8176 8.955C30.9676 8.855 31.0876 8.72 31.1776 8.55C31.2676 8.38 31.3326 8.18 31.3726 7.95C31.4126 7.72 31.4326 7.475 31.4326 7.215C31.4326 6.885 31.3976 6.615 31.3276 6.405C31.2676 6.185 31.1776 6.015 31.0576 5.895C30.9476 5.765 30.8176 5.675 30.6676 5.625C30.5176 5.575 30.3576 5.55 30.1876 5.55C29.7676 5.55 29.4676 5.7 29.2876 6C29.1176 6.29 29.0326 6.645 29.0326 7.065L27.8776 6.81C27.9076 6.06 28.1376 5.485 28.5676 5.085C28.9976 4.675 29.5426 4.47 30.2026 4.47ZM38.7359 15L38.2559 12.675H35.9309L35.4659 15H34.3259L36.5459 4.56H37.6559L39.9059 15H38.7359ZM37.0559 6.69L36.6209 9.12L36.1259 11.565H38.0459L37.5359 9.09L37.1159 6.69H37.0559ZM43.8438 5.64V15H42.6438V5.64H40.8738V4.56H45.6138V5.64H43.8438ZM47.2064 15V4.56H48.3914V8.76H49.2464C49.8164 8.76 50.2764 8.835 50.6264 8.985C50.9864 9.135 51.2664 9.345 51.4664 9.615C51.6664 9.885 51.8014 10.205 51.8714 10.575C51.9414 10.945 51.9764 11.35 51.9764 11.79C51.9764 12.28 51.9364 12.725 51.8564 13.125C51.7864 13.515 51.6514 13.85 51.4514 14.13C51.2514 14.41 50.9814 14.625 50.6414 14.775C50.3014 14.925 49.8664 15 49.3364 15H47.2064ZM48.3914 13.875H49.2314C49.5814 13.875 49.8614 13.825 50.0714 13.725C50.2814 13.615 50.4414 13.47 50.5514 13.29C50.6614 13.1 50.7314 12.88 50.7614 12.63C50.8014 12.38 50.8214 12.115 50.8214 11.835C50.8214 11.565 50.8064 11.315 50.7764 11.085C50.7464 10.845 50.6714 10.635 50.5514 10.455C50.4414 10.275 50.2764 10.135 50.0564 10.035C49.8464 9.925 49.5614 9.87 49.2014 9.87H48.3914V13.875ZM57.5841 15V4.56H62.0541V5.655H58.7691V9.15H61.6191V10.245H58.7691V13.92H62.0541V15H57.5841ZM71.4772 13.875H72.0322V16.965H70.9822V15H63.8272V4.56H65.0122V13.875H67.0522V4.56H68.2372V13.875H70.2922V4.56H71.4772V13.875ZM73.9522 15V4.56H78.4222V5.655H75.1372V9.15H77.9872V10.245H75.1372V13.92H78.4222V15H73.9522Z" fill="#96A9C6"/>
<rect y="20" width="79" height="1" fill="#11305D"/>
</svg>
