<svg width="136" height="32" viewBox="0 0 136 32" fill="none" xmlns="http://www.w3.org/2000/svg">
<rect y="30" width="96" height="2" fill="#11305D"/>
<path d="M6.111 13.335C6.755 13.531 7.189 13.93 7.413 14.532C7.651 15.12 7.77 15.841 7.77 16.695C7.77 18.207 7.455 19.306 6.825 19.992C6.209 20.664 5.243 21 3.927 21H1.113V6.384H4.2C5.46 6.384 6.349 6.72 6.867 7.392C7.385 8.064 7.644 9.016 7.644 10.248C7.644 11.018 7.532 11.634 7.308 12.096C7.084 12.544 6.685 12.929 6.111 13.251V13.335ZM6.174 16.527C6.174 15.729 6.02 15.113 5.712 14.679C5.418 14.245 4.844 14.028 3.99 14.028H2.772V19.509H4.074C4.536 19.509 4.9 19.432 5.166 19.278C5.446 19.11 5.656 18.893 5.796 18.627C5.95 18.347 6.048 18.032 6.09 17.682C6.146 17.318 6.174 16.933 6.174 16.527ZM6.048 10.227C6.048 9.471 5.88 8.897 5.544 8.505C5.222 8.099 4.676 7.896 3.906 7.896H2.772V12.579H3.885C4.655 12.579 5.208 12.376 5.544 11.97C5.88 11.564 6.048 10.983 6.048 10.227ZM14.0293 6.258C15.1633 6.258 15.9823 6.566 16.4863 7.182C17.0043 7.798 17.2633 8.603 17.2633 9.597L15.6043 9.891C15.6183 9.247 15.4993 8.736 15.2473 8.358C15.0093 7.98 14.5963 7.791 14.0083 7.791C13.6723 7.791 13.3993 7.868 13.1893 8.022C12.9793 8.176 12.8113 8.372 12.6853 8.61C12.5733 8.834 12.4963 9.086 12.4543 9.366C12.4123 9.646 12.3913 9.912 12.3913 10.164V17.535C12.3913 17.745 12.4123 17.976 12.4543 18.228C12.4963 18.466 12.5733 18.69 12.6853 18.9C12.8113 19.096 12.9723 19.264 13.1683 19.404C13.3783 19.544 13.6513 19.614 13.9873 19.614C14.5333 19.614 14.9323 19.446 15.1843 19.11C15.4503 18.774 15.5903 18.242 15.6043 17.514L17.3053 17.808C17.2773 18.858 16.9903 19.677 16.4443 20.265C15.9123 20.853 15.1073 21.147 14.0293 21.147C12.9233 21.147 12.0973 20.839 11.5513 20.223C11.0053 19.607 10.7323 18.739 10.7323 17.619V10.395C10.7323 9.877 10.7743 9.373 10.8583 8.883C10.9563 8.379 11.1243 7.938 11.3623 7.56C11.6003 7.168 11.9363 6.853 12.3703 6.615C12.8043 6.377 13.3573 6.258 14.0293 6.258ZM19.9679 21V6.384H26.2259V7.917H21.6269V12.81H25.6169V14.343H21.6269V19.488H26.2259V21H19.9679ZM44.5699 6.384V21H33.8599V6.384H35.5189V19.404H38.3749V6.384H40.0339V19.404H42.9109V6.384H44.5699ZM51.0003 7.896V21H49.3203V7.896H46.8423V6.384H53.4783V7.896H51.0003ZM58.7319 6.384C59.4739 6.384 60.0829 6.482 60.5589 6.678C61.0349 6.874 61.4129 7.161 61.6929 7.539C61.9729 7.903 62.1619 8.358 62.2599 8.904C62.3719 9.436 62.4279 10.045 62.4279 10.731C62.4279 11.347 62.3789 11.921 62.2809 12.453C62.1829 12.985 61.9939 13.454 61.7139 13.86C61.4339 14.252 61.0419 14.56 60.5379 14.784C60.0479 15.008 59.4039 15.12 58.6059 15.12H57.4089V21H55.7499V6.384H58.7319ZM57.4089 13.566H58.5429C59.0469 13.566 59.4459 13.489 59.7399 13.335C60.0479 13.181 60.2789 12.978 60.4329 12.726C60.6009 12.474 60.7059 12.18 60.7479 11.844C60.7899 11.508 60.8109 11.151 60.8109 10.773C60.8109 10.381 60.7829 10.01 60.7269 9.66C60.6849 9.31 60.5869 9.009 60.4329 8.757C60.2789 8.491 60.0549 8.288 59.7609 8.148C59.4669 7.994 59.0749 7.917 58.5849 7.917H57.4089V13.566ZM70.4191 21L69.7471 17.745H66.4921L65.8411 21H64.2451L67.3531 6.384H68.9071L72.0571 21H70.4191ZM68.0671 9.366L67.4581 12.768L66.7651 16.191H69.4531L68.7391 12.726L68.1511 9.366H68.0671ZM82.8622 16.464C82.8622 17.038 82.7572 17.535 82.5472 17.955C82.3372 18.375 82.0642 18.725 81.7282 19.005C81.3922 19.285 81.0142 19.502 80.5942 19.656C80.1882 19.796 79.7822 19.88 79.3762 19.908V21H77.7172V19.908C77.2832 19.894 76.8562 19.81 76.4362 19.656C76.0302 19.502 75.6592 19.285 75.3232 19.005C75.0012 18.725 74.7352 18.375 74.5252 17.955C74.3292 17.535 74.2312 17.038 74.2312 16.464V10.647C74.2312 10.073 74.3292 9.576 74.5252 9.156C74.7352 8.722 75.0012 8.365 75.3232 8.085C75.6452 7.805 76.0162 7.595 76.4362 7.455C76.8562 7.301 77.2762 7.21 77.6962 7.182V6.384H79.3762L79.3972 7.182C79.8032 7.21 80.2092 7.301 80.6152 7.455C81.0352 7.595 81.4062 7.805 81.7282 8.085C82.0642 8.365 82.3372 8.722 82.5472 9.156C82.7572 9.576 82.8622 10.073 82.8622 10.647V16.464ZM81.2662 10.647C81.2662 10.059 81.0772 9.59 80.6992 9.24C80.3212 8.876 79.8802 8.68 79.3762 8.652V18.459C79.8942 18.431 80.3352 18.242 80.6992 17.892C81.0772 17.528 81.2662 17.052 81.2662 16.464V10.647ZM77.7172 8.652C77.1712 8.708 76.7162 8.911 76.3522 9.261C76.0022 9.597 75.8272 10.059 75.8272 10.647V16.464C75.8272 17.052 75.9742 17.521 76.2682 17.871C76.5622 18.207 77.0452 18.403 77.7172 18.459V8.652ZM85.8052 21V6.384H87.4642V12.264H88.6612C89.4592 12.264 90.1032 12.369 90.5932 12.579C91.0972 12.789 91.4892 13.083 91.7692 13.461C92.0492 13.839 92.2382 14.287 92.3362 14.805C92.4342 15.323 92.4832 15.89 92.4832 16.506C92.4832 17.192 92.4272 17.815 92.3152 18.375C92.2172 18.921 92.0282 19.39 91.7482 19.782C91.4682 20.174 91.0902 20.475 90.6142 20.685C90.1382 20.895 89.5292 21 88.7872 21H85.8052ZM87.4642 19.425H88.6402C89.1302 19.425 89.5222 19.355 89.8162 19.215C90.1102 19.061 90.3342 18.858 90.4882 18.606C90.6422 18.34 90.7402 18.032 90.7822 17.682C90.8382 17.332 90.8662 16.961 90.8662 16.569C90.8662 16.191 90.8452 15.841 90.8032 15.519C90.7612 15.183 90.6562 14.889 90.4882 14.637C90.3342 14.385 90.1032 14.189 89.7952 14.049C89.5012 13.895 89.1022 13.818 88.5982 13.818H87.4642V19.425ZM93.6382 21V6.384H95.3182V21H93.6382Z" fill="#11305D"/>
</svg>
