<svg width="28" height="28" viewBox="0 0 28 28" fill="none" xmlns="http://www.w3.org/2000/svg">
<path d="M14 0C21.7195 0 28 6.28046 28 14C28 21.7195 21.7195 28 14 28C6.28046 28 0 21.7195 0 14C0 6.28046 6.28046 0 14 0Z" fill="#fff"/>
<path d="M13.9999 9.17822L20.4848 15.6631C20.6118 15.7901 20.6118 15.9965 20.4848 16.1235C20.3579 16.2505 20.1515 16.2505 20.0245 16.1235L13.9999 10.099L7.97601 16.1235C7.84903 16.2505 7.64261 16.2505 7.51564 16.1235C7.38866 15.9965 7.38866 15.7901 7.51564 15.6631L13.9999 9.17822Z" fill="black"/>
</svg>
