<svg width="43" height="43" viewBox="0 0 43 43" fill="none" xmlns="http://www.w3.org/2000/svg">
<path d="M21.5 0C33.355 0 43 9.645 43 21.5C43 33.355 33.355 43 21.5 43C9.645 43 0 33.355 0 21.5C0 9.645 9.645 0 21.5 0Z" fill="#fff"/>
<path d="M21.5002 14.094L31.4592 24.053C31.6542 24.248 31.6542 24.565 31.4592 24.76C31.2642 24.955 30.9472 24.955 30.7522 24.76L21.5002 15.508L12.2492 24.76C12.0542 24.955 11.7372 24.955 11.5422 24.76C11.3472 24.565 11.3472 24.248 11.5422 24.053L21.5002 14.094Z" fill="black"/>
</svg>
