<svg width="32" height="32" viewBox="0 0 32 32" fill="none" xmlns="http://www.w3.org/2000/svg">
<path d="M16 32C24.8366 32 32 24.8366 32 16C32 7.16344 24.8366 0 16 0C7.16344 0 0 7.16344 0 16C0 24.8366 7.16344 32 16 32Z" fill="#11305D"/>
<path d="M22.302 17.0617C22.1534 16.9131 21.9119 16.9131 21.7633 17.0617L16.3812 22.443V4.87119C16.3812 4.6609 16.2106 4.49023 16.0003 4.49023C15.79 4.49023 15.6193 4.6609 15.6193 4.87119V22.443L10.238 17.0617C10.0894 16.9131 9.84789 16.9131 9.69932 17.0617C9.55075 17.2102 9.55075 17.4518 9.69932 17.6003L15.7313 23.6323C15.8029 23.7039 15.8997 23.7436 16.001 23.7436C16.1024 23.7436 16.1991 23.7032 16.2707 23.6323L22.3027 17.6003C22.4506 17.451 22.4506 17.2102 22.302 17.0617Z" fill="white"/>
<path d="M19.2854 24.9785H12.714C12.5037 24.9785 12.333 25.1492 12.333 25.3595C12.333 25.5698 12.5037 25.7404 12.714 25.7404H19.2854C19.4957 25.7404 19.6663 25.5698 19.6663 25.3595C19.6663 25.1492 19.4964 24.9785 19.2854 24.9785Z" fill="white"/>
</svg>
