<svg width="42" height="42" viewBox="0 0 42 42" fill="none" xmlns="http://www.w3.org/2000/svg">
<path d="M21 42C32.598 42 42 32.598 42 21C42 9.40202 32.598 0 21 0C9.40202 0 0 9.40202 0 21C0 32.598 9.40202 42 21 42Z" fill="#DEE5EF"/>
<path d="M29.2712 22.394C29.0762 22.199 28.7592 22.199 28.5642 22.394L21.5002 29.457V6.39404C21.5002 6.11804 21.2762 5.89404 21.0002 5.89404C20.7242 5.89404 20.5002 6.11804 20.5002 6.39404V29.457L13.4372 22.394C13.2422 22.199 12.9252 22.199 12.7302 22.394C12.5352 22.589 12.5352 22.906 12.7302 23.101L20.6472 31.018C20.7412 31.112 20.8682 31.164 21.0012 31.164C21.1342 31.164 21.2612 31.111 21.3552 31.018L29.2722 23.101C29.4662 22.905 29.4662 22.589 29.2712 22.394Z" fill="#11305D"/>
<path d="M25.3125 32.7852H16.6875C16.4115 32.7852 16.1875 33.0092 16.1875 33.2852C16.1875 33.5612 16.4115 33.7852 16.6875 33.7852H25.3125C25.5885 33.7852 25.8125 33.5612 25.8125 33.2852C25.8125 33.0092 25.5895 32.7852 25.3125 32.7852Z" fill="#11305D"/>
</svg>
