<svg width="135" height="42" viewBox="0 0 135 42" fill="none" xmlns="http://www.w3.org/2000/svg">
<circle cx="114" cy="21" r="21" transform="rotate(-180 114 21)" fill="white"/>
<rect x="114" y="42" width="21" height="42" transform="rotate(-180 114 42)" fill="white"/>
<rect x="99" y="42" width="68" height="42" transform="rotate(-180 99 42)" fill="white"/>
<circle cx="21" cy="21" r="21" fill="white"/>
<rect x="21" width="21" height="42" fill="white"/>
<path d="M42.972 25H46.344C48.084 25 49.164 24.004 49.164 22.6C49.164 21.376 48.36 20.764 47.736 20.584C48.276 20.356 48.84 19.756 48.84 18.748C48.84 17.524 47.952 16.552 46.236 16.552H42.972V25ZM46.236 21.256C47.136 21.256 47.712 21.736 47.712 22.516C47.712 23.32 47.1 23.776 46.188 23.776H44.4V21.256H46.236ZM46.032 17.776C46.896 17.776 47.4 18.208 47.4 18.928C47.4 19.576 46.98 20.08 46.092 20.08H44.4V17.776H46.032ZM61.6677 25H63.3237L60.4677 20.788L63.2997 16.552H61.6917L59.5797 19.72L57.4797 16.552H55.8357L58.6677 20.74L55.8117 25H57.4437L59.5437 21.808L61.6677 25ZM73.7232 16.408C71.3472 16.408 69.7632 18.22 69.7632 20.776C69.7632 23.332 71.3472 25.144 73.7232 25.144C76.0992 25.144 77.6832 23.332 77.6832 20.776C77.6832 18.22 76.0992 16.408 73.7232 16.408ZM73.7232 23.836C72.1632 23.836 71.2272 22.564 71.2272 20.776C71.2272 18.988 72.1632 17.716 73.7232 17.716C75.2832 17.716 76.2312 18.988 76.2312 20.776C76.2312 22.564 75.2832 23.836 73.7232 23.836ZM92.7695 23.704H91.7375V16.552H86.0855L85.8095 20.824C85.7015 22.408 85.4855 23.296 84.8855 23.704H84.2255V26.608H85.5935V25H91.4015V26.608H92.7695V23.704ZM87.1775 20.824L87.3695 17.836H90.3095V23.704H86.4575C86.9135 23.176 87.0695 22.42 87.1775 20.824Z" fill="#11305D"/>
</svg>
