<svg width="103" height="32" viewBox="0 0 103 32" fill="none" xmlns="http://www.w3.org/2000/svg">
<circle cx="86.8564" cy="16" r="16" transform="rotate(-180 86.8564 16)" fill="#96A9C6"/>
<rect x="86.8564" y="32" width="16" height="32" transform="rotate(-180 86.8564 32)" fill="#96A9C6"/>
<rect x="75.4287" y="32" width="51.8095" height="32" transform="rotate(-180 75.4287 32)" fill="#96A9C6"/>
<circle cx="16" cy="16" r="16" fill="#96A9C6"/>
<rect x="16" width="16" height="32" fill="#96A9C6"/>
<path d="M30.5209 20H33.3309C34.7809 20 35.6809 19.17 35.6809 18C35.6809 16.98 35.0109 16.47 34.4909 16.32C34.9409 16.13 35.4109 15.63 35.4109 14.79C35.4109 13.77 34.6709 12.96 33.2409 12.96H30.5209V20ZM33.2409 16.88C33.9909 16.88 34.4709 17.28 34.4709 17.93C34.4709 18.6 33.9609 18.98 33.2009 18.98H31.7109V16.88H33.2409ZM33.0709 13.98C33.7909 13.98 34.2109 14.34 34.2109 14.94C34.2109 15.48 33.8609 15.9 33.1209 15.9H31.7109V13.98H33.0709ZM46.1007 20H47.4807L45.1007 16.49L47.4607 12.96H46.1207L44.3607 15.6L42.6107 12.96H41.2407L43.6007 16.45L41.2207 20H42.5807L44.3307 17.34L46.1007 20ZM56.147 12.84C54.167 12.84 52.847 14.35 52.847 16.48C52.847 18.61 54.167 20.12 56.147 20.12C58.127 20.12 59.447 18.61 59.447 16.48C59.447 14.35 58.127 12.84 56.147 12.84ZM56.147 19.03C54.847 19.03 54.067 17.97 54.067 16.48C54.067 14.99 54.847 13.93 56.147 13.93C57.447 13.93 58.237 14.99 58.237 16.48C58.237 17.97 57.447 19.03 56.147 19.03ZM72.0188 18.92H71.1588V12.96H66.4488L66.2188 16.52C66.1288 17.84 65.9488 18.58 65.4488 18.92H64.8988V21.34H66.0388V20H70.8788V21.34H72.0188V18.92ZM67.3588 16.52L67.5188 14.03H69.9688V18.92H66.7588C67.1388 18.48 67.2688 17.85 67.3588 16.52Z" fill="#fff"/>
</svg>
