<svg width="32" height="32" viewBox="0 0 32 32" fill="none" xmlns="http://www.w3.org/2000/svg">
<path d="M31.5 15.9796C31.5 24.5281 24.561 31.4591 16 31.4591C7.43898 31.4591 0.5 24.5281 0.5 15.9796C0.5 7.43104 7.43898 0.5 16 0.5C24.561 0.5 31.5 7.43104 31.5 15.9796Z" stroke="#11305D"/>
<path d="M13.7435 15.1618H12.4878V12.6741H13.7435V11.9973C13.7435 10.8231 14.0428 9.96672 14.6002 9.41002C15.1583 8.85333 15.9754 8.57422 17.0514 8.57422C18.0078 8.57422 18.6459 8.69286 19.2033 8.8731V11.3805C18.7647 11.2216 18.3467 11.1219 17.8289 11.1219C17.1313 11.1219 16.7331 11.4801 16.7331 12.2764V12.6947H19.1843V15.1618H16.7727V23.2422H13.7435V15.1618Z" fill="#11305D"/>
</svg>
