<?xml version="1.0" encoding="utf-8"?>
<!-- Generator: Adobe Illustrator 15.0.2, SVG Export Plug-In . SVG Version: 6.00 Build 0)  -->
<!DOCTYPE svg PUBLIC "-//W3C//DTD SVG 1.1//EN" "http://www.w3.org/Graphics/SVG/1.1/DTD/svg11.dtd">
<svg version="1.1" id="Layer_1" xmlns="http://www.w3.org/2000/svg" xmlns:xlink="http://www.w3.org/1999/xlink" x="0px" y="0px"
	 width="200px" height="120px" viewBox="0 0 200 120" enable-background="new 0 0 200 120" xml:space="preserve">
<g>
	<path d="M126.752,0H73.249c-6.371,0-11.554,5.084-11.554,11.334v97.332c0,6.25,5.183,11.334,11.554,11.334h53.503
		c6.371,0,11.553-5.084,11.553-11.334V11.334C138.305,5.084,133.123,0,126.752,0z M66.195,20.388h67.61v74.906h-67.61V20.388z
		 M73.249,4.5h53.503c3.889,0,7.053,3.066,7.053,6.834v4.554h-67.61v-4.554C66.195,7.566,69.359,4.5,73.249,4.5z M126.752,115.5
		H73.249c-3.89,0-7.054-3.065-7.054-6.834v-8.872h67.61v8.872C133.805,112.435,130.641,115.5,126.752,115.5z" fill="#000"/>
	<path d="M106.76,104.229H93.241c-1.243,0-2.25,1.008-2.25,2.25s1.007,2.25,2.25,2.25h13.519c1.242,0,2.25-1.008,2.25-2.25
		S108.002,104.229,106.76,104.229z" fill="#000"/>
	<circle cx="100" cy="9.969" r="2.585" fill="#000"/>
	<path d="M116.551,69.511H83.45c-3.377,0-6.125,2.751-6.125,6.133v4.53c0,3.382,2.748,6.133,6.125,6.133h33.101
		c3.377,0,6.125-2.751,6.125-6.133v-4.53C122.676,72.262,119.928,69.511,116.551,69.511z M118.176,80.174
		c0,0.9-0.729,1.633-1.625,1.633H83.45c-0.896,0-1.625-0.732-1.625-1.633v-4.53c0-0.9,0.729-1.633,1.625-1.633h33.101
		c0.896,0,1.625,0.732,1.625,1.633V80.174z" fill="#000"/>
	<path d="M80.019,35.836h39.961c1.242,0,2.25-1.007,2.25-2.25s-1.008-2.25-2.25-2.25H80.019c-1.243,0-2.25,1.007-2.25,2.25
		S78.776,35.836,80.019,35.836z" fill="#000"/>
	<path d="M80.019,43.942h39.961c1.242,0,2.25-1.007,2.25-2.25s-1.008-2.25-2.25-2.25H80.019c-1.243,0-2.25,1.007-2.25,2.25
		S78.776,43.942,80.019,43.942z" fill="#000"/>
	<path d="M80.019,52.049h39.961c1.242,0,2.25-1.007,2.25-2.25s-1.008-2.25-2.25-2.25H80.019c-1.243,0-2.25,1.007-2.25,2.25
		S78.776,52.049,80.019,52.049z" fill="#000"/>
</g>
</svg>
