<svg width="134" height="80" viewBox="0 0 134 80" fill="none" xmlns="http://www.w3.org/2000/svg">
<path d="M125.575 66.604H115.987V9.75C115.987 4.374 111.543 0 106.08 0H27.2535C21.7908 0 17.3468 4.374 17.3468 9.75V66.604H7.75879C6.93079 66.604 6.25879 67.276 6.25879 68.104C6.25879 74.6633 11.6828 80 18.3501 80H114.984C121.651 80 127.075 74.6633 127.075 68.104C127.075 67.276 126.403 66.604 125.575 66.604ZM27.2535 3H106.08C109.858 3 112.934 5.98067 112.983 9.662H104.214H77.0788H20.3508C20.4001 5.98067 23.4755 3 27.2535 3ZM78.5788 12.662H102.714V35.474H78.5788V12.662ZM114.984 77H18.3495C13.8588 77 10.1181 73.7973 9.38812 69.604H56.3261C57.1548 69.604 57.8261 68.932 57.8261 68.104C57.8261 67.276 57.1548 66.604 56.3261 66.604H20.3468V12.662H75.5795V36.974C75.5795 37.8027 76.2515 38.474 77.0795 38.474H104.215C105.043 38.474 105.715 37.8027 105.715 36.974V12.662H112.988V66.604H77.0075C76.1795 66.604 75.5075 67.276 75.5075 68.104C75.5075 68.932 76.1795 69.604 77.0075 69.604H123.945C123.215 73.7973 119.475 77 114.984 77Z" fill="white"/>
<path d="M46.2547 44.2124C52.2561 44.2124 57.1381 39.409 57.1381 33.5044V29.1277C57.1381 23.2204 52.2561 18.415 46.2547 18.415C40.2541 18.415 35.3721 23.2204 35.3721 29.1277V33.5044C35.3721 39.409 40.2541 44.2124 46.2547 44.2124ZM38.3721 29.1277C38.3721 24.875 41.9087 21.415 46.2547 21.415C50.6021 21.415 54.1381 24.875 54.1381 29.1277V33.5044C54.1381 37.7544 50.6014 41.2124 46.2547 41.2124C41.9081 41.2124 38.3721 37.7544 38.3721 33.5044V29.1277Z" fill="white"/>
<path d="M62.8963 61.223C62.8963 62.051 63.5676 62.723 64.3963 62.723C65.2243 62.723 65.8963 62.051 65.8963 61.223V57.7124C65.8963 53.0844 62.073 49.3184 57.3736 49.3184H35.135C30.4356 49.3184 26.6123 53.0837 26.6123 57.7124V61.3164C26.6123 62.1444 27.2843 62.8164 28.1123 62.8164C28.941 62.8164 29.6123 62.1444 29.6123 61.3164V57.7124C29.6123 54.7384 32.0903 52.3184 35.135 52.3184H57.373C60.4176 52.3184 62.8956 54.7384 62.8956 57.7124V61.223H62.8963Z" fill="white"/>
<path d="M70.32 66.6035H63.0146C62.1866 66.6035 61.5146 67.2755 61.5146 68.1035C61.5146 68.9315 62.1866 69.6035 63.0146 69.6035H70.3193C71.1473 69.6035 71.8193 68.9315 71.8193 68.1035C71.8193 67.2755 71.148 66.6035 70.32 66.6035Z" fill="white"/>
<path d="M98.1632 15.8789H83.1299C82.3019 15.8789 81.6299 16.5502 81.6299 17.3789C81.6299 18.2076 82.3019 18.8789 83.1299 18.8789H98.1632C98.9912 18.8789 99.6632 18.2076 99.6632 17.3789C99.6632 16.5502 98.9912 15.8789 98.1632 15.8789Z" fill="white"/>
<path d="M98.1632 27.0078H83.1299C82.3019 27.0078 81.6299 27.6791 81.6299 28.5078C81.6299 29.3365 82.3019 30.0078 83.1299 30.0078H98.1632C98.9912 30.0078 99.6632 29.3365 99.6632 28.5078C99.6632 27.6791 98.9912 27.0078 98.1632 27.0078Z" fill="white"/>
<path d="M98.1632 21.4434H83.1299C82.3019 21.4434 81.6299 22.1147 81.6299 22.9434C81.6299 23.772 82.3019 24.4434 83.1299 24.4434H98.1632C98.9912 24.4434 99.6632 23.772 99.6632 22.9434C99.6632 22.1147 98.9912 21.4434 98.1632 21.4434Z" fill="white"/>
</svg>
