<svg width="134" height="80" viewBox="0 0 134 80" fill="none" xmlns="http://www.w3.org/2000/svg">
<g clip-path="url(#clip0_119_2)">
<path d="M34.1455 28.0709H99.5315C100.359 28.0709 101.031 27.3996 101.031 26.5709C101.031 25.7422 100.359 25.0709 99.5315 25.0709H34.1455C32.4161 25.0709 31.0088 23.6989 31.0088 22.0122C31.0088 20.3262 32.4161 18.9542 34.1455 18.9542H41.5875V22.0122C41.5875 22.8409 42.2588 23.5122 43.0875 23.5122H88.5955C88.6001 23.5129 88.6055 23.5122 88.6088 23.5122C89.4375 23.5122 90.1088 22.8409 90.1088 22.0122C90.1088 21.3569 89.6881 20.7989 89.1021 20.5956L85.4615 18.9549H99.5315C100.359 18.9549 101.031 18.2836 101.031 17.4549C101.031 16.6262 100.359 15.9549 99.5315 15.9549H79.3528C79.2108 15.9549 79.0761 15.9809 78.9461 16.0182L43.7041 0.132226C43.2395 -0.0764409 42.7015 -0.0364408 42.2735 0.240226C41.8455 0.516226 41.5875 0.990892 41.5875 1.50023V15.9556H34.1455C30.7615 15.9556 28.0088 18.6729 28.0088 22.0136C28.0088 25.3536 30.7615 28.0709 34.1455 28.0709ZM44.5875 3.82089L81.6175 20.5122H44.5875V3.82089Z" fill="black"/>
<path d="M103.825 45.7604H101.031V32.1777C101.031 31.3491 100.359 30.6777 99.5314 30.6777H32.7928C30.9755 30.6777 29.5028 30.6837 29.5028 30.6837C28.6768 30.6871 28.0088 31.3577 28.0088 32.1837V76.0991C28.0088 78.2131 30.1995 79.9997 32.7928 79.9997H99.5314C100.359 79.9997 101.031 79.3277 101.031 78.4997V63.2784H103.825C104.653 63.2784 105.325 62.6064 105.325 61.7784V47.2604C105.325 46.4317 104.653 45.7604 103.825 45.7604ZM98.0314 76.9991H32.7928C31.6715 76.9991 31.0201 76.3217 31.0088 76.0984V33.6791C31.5221 33.6784 32.1348 33.6777 32.7928 33.6777H98.0314V45.7604H86.7375C81.8388 45.7604 77.8535 49.6897 77.8535 54.5191C77.8535 59.3491 81.8395 63.2791 86.7375 63.2791H98.0314V76.9991ZM102.325 60.2784H86.7368C83.4921 60.2784 80.8528 57.6944 80.8528 54.5184C80.8528 51.3431 83.4921 48.7597 86.7368 48.7597H102.325V60.2784Z" fill="black"/>
<path d="M86.8724 50.4658C84.6137 50.4658 82.7764 52.2845 82.7764 54.5198C82.7764 56.7545 84.6137 58.5725 86.8724 58.5725C89.1324 58.5725 90.9704 56.7538 90.9704 54.5198C90.9704 52.2845 89.1317 50.4658 86.8724 50.4658ZM86.8724 55.5725C86.2684 55.5725 85.7764 55.1005 85.7764 54.5198C85.7764 53.9385 86.2677 53.4658 86.8724 53.4658C87.4777 53.4658 87.9704 53.9385 87.9704 54.5198C87.9704 55.1005 87.4777 55.5725 86.8724 55.5725Z" fill="black"/>
</g>
<defs>
<clipPath id="clip0_119_2">
<rect width="133.333" height="80" fill="black"/>
</clipPath>
</defs>
</svg>
