<svg width="76" height="120" viewBox="0 0 76 120" fill="none" xmlns="http://www.w3.org/2000/svg">
<path d="M65.329 0H10.104C4.533 0 0 4.423 0 9.859V110.14C0 115.577 4.532 119.999 10.104 119.999H65.33C70.9 119.999 75.433 115.576 75.433 110.14V9.859C75.432 4.423 70.9 0 65.329 0ZM1 17.369H74.432V98.181H1V17.369ZM10.104 1H65.33C70.35 1 74.433 4.974 74.433 9.859V16.369H1V9.859C1 4.974 5.084 1 10.104 1ZM65.329 119H10.104C5.084 119 1 115.025 1 110.141V99.182H74.432V110.141C74.432 115.025 70.349 119 65.329 119Z" fill="white"/>
<path d="M44.6928 107.387H30.7388C30.4628 107.387 30.2388 107.611 30.2388 107.887C30.2388 108.163 30.4628 108.387 30.7388 108.387H44.6918C44.9678 108.387 45.1918 108.163 45.1918 107.887C45.1918 107.611 44.9688 107.387 44.6928 107.387Z" fill="white"/>
<path d="M37.7162 11.6151C39.4602 11.6151 40.8792 10.1961 40.8792 8.45206C40.8792 6.70806 39.4602 5.28906 37.7162 5.28906C35.9722 5.28906 34.5532 6.70806 34.5532 8.45206C34.5532 10.1961 35.9722 11.6151 37.7162 11.6151ZM37.7162 6.28906C38.9082 6.28906 39.8792 7.25906 39.8792 8.45206C39.8792 9.64506 38.9082 10.6151 37.7162 10.6151C36.5232 10.6151 35.5532 9.64506 35.5532 8.45206C35.5532 7.25906 36.5232 6.28906 37.7162 6.28906Z" fill="white"/>
<path d="M54.7988 71.6182H20.6328C18.1518 71.6182 16.1328 73.6372 16.1328 76.1182V80.7852C16.1328 83.2662 18.1518 85.2852 20.6328 85.2852H54.7988C57.2798 85.2852 59.2988 83.2662 59.2988 80.7852V76.1182C59.2988 73.6372 57.2798 71.6182 54.7988 71.6182ZM58.2988 80.7852C58.2988 82.7152 56.7288 84.2852 54.7988 84.2852H20.6328C18.7028 84.2852 17.1328 82.7152 17.1328 80.7852V76.1182C17.1328 74.1882 18.7028 72.6182 20.6328 72.6182H54.7988C56.7288 72.6182 58.2988 74.1882 58.2988 76.1182V80.7852Z" fill="white"/>
<path d="M17.0928 33.2852H58.3398C58.6158 33.2852 58.8398 33.0612 58.8398 32.7852C58.8398 32.5092 58.6158 32.2852 58.3398 32.2852H17.0928C16.8168 32.2852 16.5928 32.5092 16.5928 32.7852C16.5928 33.0612 16.8168 33.2852 17.0928 33.2852Z" fill="white"/>
<path d="M17.0928 37.2852H58.3398C58.6158 37.2852 58.8398 37.0612 58.8398 36.7852C58.8398 36.5092 58.6158 36.2852 58.3398 36.2852H17.0928C16.8168 36.2852 16.5928 36.5092 16.5928 36.7852C16.5928 37.0612 16.8168 37.2852 17.0928 37.2852Z" fill="white"/>
<path d="M17.0928 41.2852H58.3398C58.6158 41.2852 58.8398 41.0612 58.8398 40.7852C58.8398 40.5092 58.6158 40.2852 58.3398 40.2852H17.0928C16.8168 40.2852 16.5928 40.5092 16.5928 40.7852C16.5928 41.0612 16.8168 41.2852 17.0928 41.2852Z" fill="white"/>
</svg>
