<svg width="134" height="80" viewBox="0 0 134 80" fill="none" xmlns="http://www.w3.org/2000/svg">
<path d="M84.5012 0H48.8325C44.5852 0 41.1299 3.38933 41.1299 7.556V72.444C41.1299 76.6107 44.5852 80 48.8325 80H84.5012C88.7485 80 92.2032 76.6107 92.2032 72.444V7.556C92.2032 3.38933 88.7485 0 84.5012 0ZM44.1299 13.592H89.2032V63.5293H44.1299V13.592ZM48.8325 3H84.5012C87.0939 3 89.2032 5.044 89.2032 7.556V10.592H44.1299V7.556C44.1299 5.044 46.2392 3 48.8325 3ZM84.5012 77H48.8325C46.2392 77 44.1299 74.9567 44.1299 72.444V66.5293H89.2032V72.444C89.2032 74.9567 87.0939 77 84.5012 77Z" fill="white"/>
<path d="M71.1728 69.4863H62.1602C61.3315 69.4863 60.6602 70.1583 60.6602 70.9863C60.6602 71.8143 61.3315 72.4863 62.1602 72.4863H71.1728C72.0008 72.4863 72.6728 71.8143 72.6728 70.9863C72.6728 70.1583 72.0008 69.4863 71.1728 69.4863Z" fill="white"/>
<path d="M66.6667 8.36952C67.6185 8.36952 68.39 7.59795 68.39 6.64618C68.39 5.69441 67.6185 4.92285 66.6667 4.92285C65.7149 4.92285 64.9434 5.69441 64.9434 6.64618C64.9434 7.59795 65.7149 8.36952 66.6667 8.36952Z" fill="white"/>
<path d="M77.7005 46.3408H55.6331C53.3818 46.3408 51.5498 48.1748 51.5498 50.4295V53.4495C51.5498 55.7042 53.3818 57.5382 55.6331 57.5382H77.7005C79.9518 57.5382 81.7838 55.7042 81.7838 53.4495V50.4295C81.7838 48.1748 79.9518 46.3408 77.7005 46.3408ZM78.7838 53.4495C78.7838 54.0495 78.2978 54.5382 77.7005 54.5382H55.6331C55.0358 54.5382 54.5498 54.0502 54.5498 53.4495V50.4295C54.5498 49.8295 55.0358 49.3408 55.6331 49.3408H77.7005C78.2978 49.3408 78.7838 49.8288 78.7838 50.4295V53.4495Z" fill="white"/>
<path d="M53.3457 23.8906H79.9864C80.8144 23.8906 81.4864 23.2193 81.4864 22.3906C81.4864 21.562 80.8144 20.8906 79.9864 20.8906H53.3457C52.517 20.8906 51.8457 21.562 51.8457 22.3906C51.8457 23.2193 52.517 23.8906 53.3457 23.8906Z" fill="white"/>
<path d="M53.3457 29.2949H79.9864C80.8144 29.2949 81.4864 28.6236 81.4864 27.7949C81.4864 26.9663 80.8144 26.2949 79.9864 26.2949H53.3457C52.517 26.2949 51.8457 26.9663 51.8457 27.7949C51.8457 28.6236 52.517 29.2949 53.3457 29.2949Z" fill="white"/>
<path d="M53.3457 34.6992H79.9864C80.8144 34.6992 81.4864 34.0279 81.4864 33.1992C81.4864 32.3706 80.8144 31.6992 79.9864 31.6992H53.3457C52.517 31.6992 51.8457 32.3706 51.8457 33.1992C51.8457 34.0279 52.517 34.6992 53.3457 34.6992Z" fill="white"/>
</svg>
