<svg width="184" height="120" viewBox="0 0 184 120" fill="none" xmlns="http://www.w3.org/2000/svg">
<path d="M182.715 102.934H166.063V13.25C166.063 5.944 160.005 0 152.56 0H30.646C23.201 0 17.143 5.944 17.143 13.25V102.934H0.5C0.224 102.934 0 103.158 0 103.434C0 112.569 7.572 120 16.88 120H166.336C175.644 120 183.216 112.568 183.216 103.434C183.215 103.158 182.992 102.934 182.715 102.934ZM30.646 1H152.56C159.455 1 165.063 6.495 165.063 13.25V14.949C165.035 14.944 165.008 14.932 164.979 14.932H149.674H107.705H18.143V13.25C18.143 6.495 23.752 1 30.646 1ZM108.206 15.932H149.175V48.432H108.206V15.932ZM166.336 119H16.879C8.293 119 1.277 112.287 1.007 103.934H75.615C75.891 103.934 76.115 103.71 76.115 103.434C76.115 103.158 75.891 102.934 75.615 102.934H18.143V15.932H107.205V48.932C107.205 49.208 107.429 49.432 107.705 49.432H149.674C149.95 49.432 150.174 49.208 150.174 48.932V15.932H164.979C165.008 15.932 165.035 15.92 165.063 15.915V102.934H107.6C107.324 102.934 107.1 103.158 107.1 103.434C107.1 103.71 107.324 103.934 107.6 103.934H182.207C181.937 112.287 174.921 119 166.336 119Z" fill="white"/>
<path d="M60.034 64.692C68.311 64.692 75.046 58.084 75.046 49.962V43.198C75.046 35.071 68.312 28.46 60.034 28.46C51.756 28.46 45.022 35.071 45.022 43.198V49.962C45.022 58.084 51.756 64.692 60.034 64.692ZM46.022 43.198C46.022 35.623 52.308 29.46 60.034 29.46C67.76 29.46 74.045 35.622 74.045 43.198V49.962C74.045 57.533 67.759 63.692 60.033 63.692C52.307 63.692 46.021 57.532 46.021 49.962V43.198H46.022Z" fill="white"/>
<path d="M87.5911 87.3732V92.7992C87.5911 93.0752 87.8151 93.2992 88.0911 93.2992C88.3671 93.2992 88.5911 93.0752 88.5911 92.7992V87.3732C88.5911 81.2232 83.4941 76.2192 77.2301 76.2192H42.8361C36.5711 76.2192 31.4751 81.2232 31.4751 87.3732V92.9432C31.4751 93.2192 31.6991 93.4432 31.9751 93.4432C32.2511 93.4432 32.4751 93.2192 32.4751 92.9432V87.3732C32.4751 81.7742 37.1231 77.2192 42.8361 77.2192H77.2301C82.9431 77.2192 87.5911 81.7752 87.5911 87.3732Z" fill="white"/>
<path d="M102.2 102.934H81.0059C80.7299 102.934 80.5059 103.158 80.5059 103.434C80.5059 103.71 80.7299 103.934 81.0059 103.934H102.199C102.475 103.934 102.699 103.71 102.699 103.434C102.699 103.158 102.476 102.934 102.2 102.934Z" fill="white"/>
<path d="M141.315 23.541H116.065C115.789 23.541 115.565 23.765 115.565 24.041C115.565 24.317 115.789 24.541 116.065 24.541H141.315C141.591 24.541 141.815 24.317 141.815 24.041C141.815 23.765 141.591 23.541 141.315 23.541Z" fill="white"/>
<path d="M141.315 31.6821H116.065C115.789 31.6821 115.565 31.9061 115.565 32.1821C115.565 32.4581 115.789 32.6821 116.065 32.6821H141.315C141.591 32.6821 141.815 32.4581 141.815 32.1821C141.815 31.9061 141.591 31.6821 141.315 31.6821Z" fill="white"/>
<path d="M141.315 27.6118H116.065C115.789 27.6118 115.565 27.8358 115.565 28.1118C115.565 28.3878 115.789 28.6118 116.065 28.6118H141.315C141.591 28.6118 141.815 28.3878 141.815 28.1118C141.815 27.8358 141.591 27.6118 141.315 27.6118Z" fill="white"/>
</svg>
