<?xml version="1.0" encoding="utf-8"?>
<!-- Generator: Adobe Illustrator 15.0.2, SVG Export Plug-In . SVG Version: 6.00 Build 0)  -->
<!DOCTYPE svg PUBLIC "-//W3C//DTD SVG 1.1//EN" "http://www.w3.org/Graphics/SVG/1.1/DTD/svg11.dtd">
<svg version="1.1" id="Layer_1" xmlns="http://www.w3.org/2000/svg" xmlns:xlink="http://www.w3.org/1999/xlink" x="0px" y="0px"
	 width="200px" height="120px" viewBox="0 0 200 120" enable-background="new 0 0 200 120" xml:space="preserve">
<g>
	<path d="M51.218,42.107h98.079c1.242,0,2.25-1.007,2.25-2.25s-1.008-2.25-2.25-2.25H51.218c-2.594,0-4.705-2.058-4.705-4.588
		c0-2.529,2.111-4.587,4.705-4.587h11.163v4.587c0,1.243,1.007,2.25,2.25,2.25h68.262c0.007,0.001,0.015,0,0.02,0
		c1.243,0,2.25-1.007,2.25-2.25c0-0.983-0.631-1.82-1.51-2.125l-5.461-2.461h21.105c1.242,0,2.25-1.007,2.25-2.25
		s-1.008-2.25-2.25-2.25h-30.268c-0.213,0-0.415,0.039-0.61,0.095L65.556,0.199c-0.697-0.313-1.504-0.253-2.146,0.162
		c-0.642,0.414-1.029,1.126-1.029,1.89v21.683H51.218c-5.076,0-9.205,4.076-9.205,9.087C42.013,38.031,46.142,42.107,51.218,42.107z
		 M66.881,5.732l55.545,25.037H66.881V5.732z" fill="#fff"/>
	<path d="M155.737,68.642h-4.19V48.268c0-1.243-1.008-2.25-2.25-2.25H49.189c-2.726,0-4.935,0.009-4.935,0.009
		c-1.239,0.005-2.241,1.011-2.241,2.25v65.873c0,3.171,3.286,5.851,7.176,5.851h100.108c1.242,0,2.25-1.008,2.25-2.25V94.919h4.19
		c1.242,0,2.25-1.008,2.25-2.25V70.892C157.987,69.649,156.979,68.642,155.737,68.642z M147.047,115.5H49.189
		c-1.682,0-2.659-1.016-2.676-1.351V50.52c0.77-0.001,1.689-0.002,2.676-0.002h97.858v18.124h-16.941
		c-7.348,0-13.326,5.894-13.326,13.138c0,7.245,5.979,13.14,13.326,13.14h16.941V115.5z M153.487,90.419h-23.382
		c-4.867,0-8.826-3.876-8.826-8.64c0-4.763,3.959-8.638,8.826-8.638h23.382V90.419z" fill="#fff"/>
	<path d="M130.309,75.7c-3.388,0-6.144,2.728-6.144,6.081c0,3.352,2.756,6.079,6.144,6.079c3.39,0,6.147-2.728,6.147-6.079
		C136.456,78.428,133.698,75.7,130.309,75.7z M130.309,83.36c-0.906,0-1.644-0.708-1.644-1.579c0-0.872,0.737-1.581,1.644-1.581
		c0.908,0,1.647,0.709,1.647,1.581C131.956,82.652,131.217,83.36,130.309,83.36z" fill="#fff"/>
</g>
</svg>
