<svg width="118" height="120" viewBox="0 0 118 120" fill="none" xmlns="http://www.w3.org/2000/svg">
<path d="M7.799 40.3978H110.737C111.013 40.3978 111.237 40.1738 111.237 39.8978C111.237 39.6218 111.013 39.3978 110.737 39.3978H7.799C4.05 39.3978 1 36.4088 1 32.7338C1 29.0608 4.05 26.0718 7.799 26.0718H26.834V32.7338C26.834 33.0098 27.058 33.2338 27.334 33.2338H98.977C98.985 33.2348 98.993 33.2338 98.997 33.2338C99.273 33.2338 99.497 33.0098 99.497 32.7338C99.497 32.4988 99.335 32.3008 99.116 32.2478L85.389 26.0718H110.738C111.014 26.0718 111.238 25.8478 111.238 25.5718C111.238 25.2958 111.014 25.0718 110.738 25.0718H83.263C83.24 25.0718 83.219 25.0818 83.196 25.0858L27.539 0.0437717C27.385 -0.0252283 27.205 -0.0122281 27.062 0.0797719C26.919 0.171772 26.833 0.329772 26.833 0.499772V25.0718H7.799C3.498 25.0718 2.14294e-07 28.5088 2.14294e-07 32.7338C-0.000999786 36.9598 3.498 40.3978 7.799 40.3978ZM27.834 1.27277L96.646 32.2338H27.834V1.27277Z" fill="white"/>
<path d="M117.496 69.91H111.237V46.709C111.237 46.433 111.013 46.209 110.737 46.209H5.67C2.997 46.209 1 44.482 1 42.938C1 42.662 0.776 42.438 0.5 42.438C0.224 42.438 0 42.662 0 42.938V115.729C0 118.004 2.65 120 5.67 120H110.737C111.013 120 111.237 119.776 111.237 119.5V93.725H117.496C117.772 93.725 117.996 93.501 117.996 93.225V70.41C117.996 70.134 117.772 69.91 117.496 69.91ZM110.237 119H5.67C2.997 119 1 117.272 1 115.729V45.292C2.042 46.431 3.784 47.209 5.67 47.209H110.237V69.91H90.595C83.908 69.91 78.469 75.251 78.469 81.816C78.469 88.382 83.908 93.724 90.595 93.724H110.237V119ZM116.996 92.725H90.596C84.461 92.725 79.47 87.831 79.47 81.817C79.47 75.803 84.461 70.911 90.596 70.911H116.996V92.725Z" fill="white"/>
<path d="M89.8092 77.3047C87.2802 77.3047 85.2212 79.3287 85.2212 81.8187C85.2212 84.3057 87.2802 86.3307 89.8092 86.3307C92.3402 86.3307 94.3992 84.3067 94.3992 81.8187C94.3982 79.3287 92.3402 77.3047 89.8092 77.3047ZM89.8092 85.3297C87.8302 85.3297 86.2212 83.7547 86.2212 81.8177C86.2212 79.8797 87.8302 78.3037 89.8092 78.3037C91.7882 78.3037 93.3992 79.8797 93.3992 81.8177C93.3982 83.7547 91.7882 85.3297 89.8092 85.3297Z" fill="white"/>
</svg>
