<svg width="33" height="32" viewBox="0 0 33 32" fill="none" xmlns="http://www.w3.org/2000/svg">
<circle cx="16.2681" cy="16" r="15.5" stroke="white"/>
<path d="M20.0438 7.80469C18.7477 7.80469 14.5535 7.80469 13.2574 7.80469C10.395 7.80469 8.07324 10.1226 8.07324 12.9843C8.07324 14.2887 8.07324 18.4898 8.07324 19.795C8.07324 22.6575 10.395 24.9754 13.2574 24.9754C14.5535 24.9754 18.7477 24.9754 20.0438 24.9754C22.907 24.9754 25.2303 22.6575 25.2303 19.795C25.2303 18.4898 25.2303 14.2887 25.2303 12.9843C25.2295 10.1226 22.9062 7.80469 20.0438 7.80469ZM23.5215 19.8217C23.5215 21.7185 21.9818 23.2575 20.0872 23.2575H13.2156C11.3187 23.2575 9.77822 21.7185 9.77822 19.8217V12.9569C9.77822 11.0631 11.3179 9.52337 13.2156 9.52337H20.0872C21.981 9.52337 23.5215 11.0623 23.5215 12.9569V19.8217Z" fill="white"/>
<path d="M21.1437 12.9085C21.6791 12.9085 22.1131 12.4745 22.1131 11.9391C22.1131 11.4037 21.6791 10.9697 21.1437 10.9697C20.6083 10.9697 20.1743 11.4037 20.1743 11.9391C20.1743 12.4745 20.6083 12.9085 21.1437 12.9085Z" fill="white"/>
<path d="M16.6505 12.022C14.2366 12.022 12.2788 13.9759 12.2788 16.3883C12.2788 18.8068 14.2366 20.7608 16.6505 20.7608C19.0652 20.7608 21.0237 18.8068 21.0237 16.3883C21.0237 13.9759 19.0644 12.022 16.6505 12.022ZM16.6505 19.0406C15.1884 19.0406 13.9998 17.8542 13.9998 16.3891C13.9998 14.9248 15.1892 13.7429 16.6505 13.7429C18.1163 13.7429 19.3012 14.9248 19.3012 16.3891C19.3012 17.8542 18.1156 19.0406 16.6505 19.0406Z" fill="white"/>
</svg>
