<svg width="33" height="32" viewBox="0 0 33 32" fill="none" xmlns="http://www.w3.org/2000/svg">
<path d="M31.7681 15.9796C31.7681 24.5281 24.8291 31.4591 16.2681 31.4591C7.70705 31.4591 0.768066 24.5281 0.768066 15.9796C0.768066 7.43104 7.70705 0.5 16.2681 0.5C24.8291 0.5 31.7681 7.43104 31.7681 15.9796Z" stroke="#11305D"/>
<path d="M20.0438 7.79492C18.7477 7.79492 14.5535 7.79492 13.2574 7.79492C10.395 7.79492 8.07324 10.1099 8.07324 12.9679C8.07324 14.2707 8.07324 18.4664 8.07324 19.77C8.07324 22.6287 10.395 24.9437 13.2574 24.9437C14.5535 24.9437 18.7477 24.9437 20.0438 24.9437C22.907 24.9437 25.2303 22.6287 25.2303 19.77C25.2303 18.4664 25.2303 14.2707 25.2303 12.9679C25.2295 10.1099 22.9062 7.79492 20.0438 7.79492ZM23.5215 19.7966C23.5215 21.691 21.9818 23.228 20.0872 23.228H13.2156C11.3187 23.228 9.77822 21.691 9.77822 19.7966V12.9406C9.77822 11.0492 11.3179 9.51141 13.2156 9.51141H20.0872C21.981 9.51141 23.5215 11.0484 23.5215 12.9406V19.7966Z" fill="#11305D"/>
<path d="M21.1437 12.8918C21.6791 12.8918 22.1131 12.4584 22.1131 11.9237C22.1131 11.389 21.6791 10.9556 21.1437 10.9556C20.6083 10.9556 20.1743 11.389 20.1743 11.9237C20.1743 12.4584 20.6083 12.8918 21.1437 12.8918Z" fill="#11305D"/>
<path d="M16.6505 12.0068C14.2366 12.0068 12.2788 13.9583 12.2788 16.3676C12.2788 18.783 14.2366 20.7345 16.6505 20.7345C19.0652 20.7345 21.0237 18.783 21.0237 16.3676C21.0237 13.9583 19.0644 12.0068 16.6505 12.0068ZM16.6505 19.0165C15.1884 19.0165 13.9998 17.8316 13.9998 16.3684C13.9998 14.9059 15.1892 13.7256 16.6505 13.7256C18.1163 13.7256 19.3012 14.9059 19.3012 16.3684C19.3012 17.8316 18.1156 19.0165 16.6505 19.0165Z" fill="#11305D"/>
</svg>
