<svg width="33" height="32" viewBox="0 0 33 32" fill="#11305D" xmlns="http://www.w3.org/2000/svg">
<circle cx="16.2683" cy="16" r="15.5" stroke="#11305D"/>
<path d="M20.0438 7.80493C18.7477 7.80493 14.5535 7.80493 13.2574 7.80493C10.395 7.80493 8.07324 10.1229 8.07324 12.9846C8.07324 14.289 8.07324 18.4901 8.07324 19.7953C8.07324 22.6577 10.395 24.9757 13.2574 24.9757C14.5535 24.9757 18.7477 24.9757 20.0438 24.9757C22.907 24.9757 25.2303 22.6577 25.2303 19.7953C25.2303 18.4901 25.2303 14.289 25.2303 12.9846C25.2295 10.1229 22.9062 7.80493 20.0438 7.80493ZM23.5215 19.8219C23.5215 21.7188 21.9818 23.2577 20.0872 23.2577H13.2156C11.3187 23.2577 9.77822 21.7188 9.77822 19.8219V12.9572C9.77822 11.0633 11.3179 9.52362 13.2156 9.52362H20.0872C21.981 9.52362 23.5215 11.0626 23.5215 12.9572V19.8219Z" fill="white"/>
<path d="M21.1439 12.9082C21.6793 12.9082 22.1133 12.4742 22.1133 11.9389C22.1133 11.4035 21.6793 10.9695 21.1439 10.9695C20.6086 10.9695 20.1746 11.4035 20.1746 11.9389C20.1746 12.4742 20.6086 12.9082 21.1439 12.9082Z" fill="white"/>
<path d="M16.6507 12.0221C14.2368 12.0221 12.2791 13.9761 12.2791 16.3885C12.2791 18.8069 14.2368 20.7609 16.6507 20.7609C19.0654 20.7609 21.024 18.8069 21.024 16.3885C21.024 13.9761 19.0646 12.0221 16.6507 12.0221ZM16.6507 19.0407C15.1887 19.0407 14 17.8543 14 16.3892C14 14.9249 15.1894 13.7431 16.6507 13.7431C18.1166 13.7431 19.3015 14.9249 19.3015 16.3892C19.3015 17.8543 18.1158 19.0407 16.6507 19.0407Z" fill="white"/>
</svg>
