<svg width="32" height="32" viewBox="0 0 32 32" fill="none" xmlns="http://www.w3.org/2000/svg">
<circle cx="16" cy="16" r="15.5" fill="white" stroke="white"/>
<path d="M20.0438 7.80493C18.7477 7.80493 14.5535 7.80493 13.2574 7.80493C10.395 7.80493 8.07324 10.1229 8.07324 12.9846C8.07324 14.289 8.07324 18.4901 8.07324 19.7953C8.07324 22.6577 10.395 24.9757 13.2574 24.9757C14.5535 24.9757 18.7477 24.9757 20.0438 24.9757C22.907 24.9757 25.2303 22.6577 25.2303 19.7953C25.2303 18.4901 25.2303 14.289 25.2303 12.9846C25.2295 10.1229 22.9062 7.80493 20.0438 7.80493ZM23.5215 19.8219C23.5215 21.7188 21.9818 23.2577 20.0872 23.2577H13.2156C11.3187 23.2577 9.77822 21.7188 9.77822 19.8219V12.9572C9.77822 11.0633 11.3179 9.52362 13.2156 9.52362H20.0872C21.981 9.52362 23.5215 11.0626 23.5215 12.9572V19.8219Z" fill="#11305D"/>
<path d="M21.1442 12.9082C21.6796 12.9082 22.1136 12.4742 22.1136 11.9389C22.1136 11.4035 21.6796 10.9695 21.1442 10.9695C20.6088 10.9695 20.1748 11.4035 20.1748 11.9389C20.1748 12.4742 20.6088 12.9082 21.1442 12.9082Z" fill="#11305D"/>
<path d="M16.651 12.0221C14.2371 12.0221 12.2793 13.9761 12.2793 16.3885C12.2793 18.8069 14.2371 20.7609 16.651 20.7609C19.0656 20.7609 21.0242 18.8069 21.0242 16.3885C21.0242 13.9761 19.0649 12.0221 16.651 12.0221ZM16.651 19.0407C15.1889 19.0407 14.0003 17.8543 14.0003 16.3892C14.0003 14.9249 15.1897 13.7431 16.651 13.7431C18.1168 13.7431 19.3017 14.9249 19.3017 16.3892C19.3017 17.8543 18.1161 19.0407 16.651 19.0407Z" fill="#11305D"/>
</svg>
