<svg width="38" height="26" viewBox="0 0 38 26" fill="none" xmlns="http://www.w3.org/2000/svg">
<path d="M13.8794 21.7605H1C1 23.5494 2.44964 24.9999 4.23941 24.9999H33.8015C35.5904 24.9999 37.0409 23.5484 37.0409 21.7605H24.1615" stroke="white" stroke-miterlimit="10" stroke-linecap="round" stroke-linejoin="round"/>
<path d="M4.39038 21.6897V3.57188C4.39038 2.15134 5.54354 1 6.96226 1H31.0769C32.4974 1 33.6487 2.15134 33.6487 3.57188V21.6897" stroke="white" stroke-miterlimit="10" stroke-linecap="round" stroke-linejoin="round"/>
<path d="M16.6456 10.9755C16.6456 12.5616 15.3606 13.8457 13.7755 13.8457C12.1903 13.8457 10.9053 12.5616 10.9053 10.9755V9.61139C10.9053 8.02715 12.1903 6.74121 13.7755 6.74121C15.3606 6.74121 16.6456 8.02715 16.6456 9.61139V10.9755Z" stroke="white" stroke-miterlimit="10" stroke-linecap="round" stroke-linejoin="round"/>
<path d="M8.2251 21.6615V18.5212C8.2251 17.3344 9.18728 16.374 10.3732 16.374H17.1758C18.3626 16.374 19.3238 17.3353 19.3238 18.5212V21.6333" stroke="white" stroke-miterlimit="10" stroke-linecap="round" stroke-linejoin="round"/>
<path d="M16.9243 21.7605H21.1159" stroke="white" stroke-miterlimit="10" stroke-linecap="round" stroke-linejoin="round"/>
<path d="M4.45947 4.01294H33.5332" stroke="white" stroke-miterlimit="10" stroke-linecap="round" stroke-linejoin="round"/>
<rect x="22" y="4" width="8" height="6" fill="white"/>
</svg>
