<svg width="174" height="42" viewBox="0 0 174 42" fill="none" xmlns="http://www.w3.org/2000/svg">
<circle cx="153" cy="21" r="21" transform="rotate(-180 153 21)" fill="black"/>
<rect x="153" y="42" width="21" height="42" transform="rotate(-180 153 42)" fill="black"/>
<rect x="137" y="42" width="106" height="42" transform="rotate(-180 137 42)" fill="black"/>
<circle cx="21" cy="21" r="21" fill="black"/>
<rect x="21" width="21" height="42" fill="black"/>
<path d="M48.576 22.228C48.444 22.936 47.76 23.836 46.44 23.836C44.964 23.836 44.028 22.564 44.028 20.776C44.028 18.952 44.988 17.716 46.44 17.716C47.676 17.716 48.324 18.448 48.564 19.312H49.992C49.752 17.728 48.552 16.408 46.44 16.408C44.148 16.408 42.564 18.208 42.564 20.776C42.564 23.404 44.196 25.144 46.44 25.144C48.768 25.144 49.872 23.536 50.016 22.228H48.576ZM58.9195 25V21.112L62.3155 25H64.1155L60.3355 20.596L64.0435 16.552H62.3035L58.9195 20.212V16.552H57.4915V25H58.9195ZM73.5782 16.552L70.4462 25H71.9462L72.6422 22.996H75.9782L76.7102 25H78.2102L75.0662 16.552H73.5782ZM74.3102 18.256L75.5462 21.76H73.0862L74.3102 18.256ZM89.5602 16.552V20.212C89.1522 20.476 88.6002 20.656 87.9162 20.656C86.8002 20.656 85.9482 20.044 85.9482 18.676V16.552H84.5202V18.712C84.5202 20.944 85.9482 21.952 87.7002 21.952C88.5042 21.952 89.1042 21.796 89.5602 21.52V25H90.9882V16.552H89.5602ZM101.293 16.552L98.161 25H99.661L100.357 22.996H103.693L104.425 25H105.925L102.781 16.552H101.293ZM102.025 18.256L103.261 21.76H100.801L102.025 18.256ZM111.583 17.836H114.248V25H115.676V17.836H118.328V16.552H111.583V17.836ZM128.755 19.54H127.123V16.552H125.695V25H128.791C130.555 25 131.659 23.788 131.659 22.264C131.659 20.728 130.603 19.54 128.755 19.54ZM128.611 20.8C129.631 20.8 130.207 21.376 130.207 22.264C130.207 23.14 129.607 23.74 128.611 23.74H127.123V20.8H128.611Z" fill="#fff"/>
</svg>
