<svg width="133" height="32" viewBox="0 0 133 32" fill="none" xmlns="http://www.w3.org/2000/svg">
<circle cx="116.571" cy="16" r="16" transform="rotate(-180 116.571 16)" fill="#96A9C6"/>
<rect x="116.571" y="32" width="16" height="32" transform="rotate(-180 116.571 32)" fill="#96A9C6"/>
<rect x="104.381" y="32" width="80.7619" height="32" transform="rotate(-180 104.381 32)" fill="#96A9C6"/>
<circle cx="16" cy="16" r="16" fill="#96A9C6"/>
<rect x="16" width="16" height="32" fill="#96A9C6"/>
<path d="M34.4165 17.69C34.3065 18.28 33.7365 19.03 32.6365 19.03C31.4065 19.03 30.6265 17.97 30.6265 16.48C30.6265 14.96 31.4265 13.93 32.6365 13.93C33.6665 13.93 34.2065 14.54 34.4065 15.26H35.5965C35.3965 13.94 34.3965 12.84 32.6365 12.84C30.7265 12.84 29.4065 14.34 29.4065 16.48C29.4065 18.67 30.7665 20.12 32.6365 20.12C34.5765 20.12 35.4965 18.78 35.6165 17.69H34.4165ZM43.0361 20V16.76L45.8661 20H47.3661L44.2161 16.33L47.3061 12.96H45.8561L43.0361 16.01V12.96H41.8461V20H43.0361ZM55.2517 12.96L52.6417 20H53.8917L54.4717 18.33H57.2517L57.8617 20H59.1117L56.4917 12.96H55.2517ZM55.8617 14.38L56.8917 17.3H54.8417L55.8617 14.38ZM68.57 12.96V16.01C68.23 16.23 67.77 16.38 67.2 16.38C66.27 16.38 65.56 15.87 65.56 14.73V12.96H64.37V14.76C64.37 16.62 65.56 17.46 67.02 17.46C67.69 17.46 68.19 17.33 68.57 17.1V20H69.76V12.96H68.57ZM78.3474 12.96L75.7374 20H76.9874L77.5674 18.33H80.3474L80.9574 20H82.2074L79.5874 12.96H78.3474ZM78.9574 14.38L79.9874 17.3H77.9374L78.9574 14.38ZM86.9228 14.03H89.1428V20H90.3328V14.03H92.5428V12.96H86.9228V14.03ZM101.232 15.45H99.8721V12.96H98.6821V20H101.262C102.732 20 103.652 18.99 103.652 17.72C103.652 16.44 102.772 15.45 101.232 15.45ZM101.112 16.5C101.962 16.5 102.442 16.98 102.442 17.72C102.442 18.45 101.942 18.95 101.112 18.95H99.8721V16.5H101.112Z" fill="#fff"/>
</svg>
