<svg width="145" height="125" viewBox="0 0 145 125" fill="none" xmlns="http://www.w3.org/2000/svg">
<path d="M75.6072 75.5596V6.45801C78.4393 7.05003 81.1413 7.71147 83.1169 8.30349C88.779 10.0817 89.3754 11.0055 89.3754 17.9211V63.3115C89.3754 70.2271 88.7812 71.0187 81.7984 73.4562C79.426 74.2455 77.3832 74.9698 75.6072 75.5596ZM56.4348 63.3744V27.606C56.4348 20.6882 57.0289 19.8966 64.0118 17.457C66.382 16.6698 68.4248 16.0084 70.138 15.4186V75.5596C68.3576 74.9698 66.3169 74.3106 64.0118 73.519C57.0289 71.0837 56.4348 70.29 56.4348 63.3744ZM50.6382 62.7803C50.6382 74.573 51.4297 75.165 64.0118 79.1833L70.138 81.1568V87.8099H75.605V81.1568L81.729 79.1833C94.3133 75.1628 95.1026 74.573 95.1026 62.7803V18.6411C95.1026 6.85054 94.4434 5.79878 83.9019 2.83434C80.4127 1.8433 73.7573 0.461906 70.1358 0V9.81497L64.0096 11.7906C51.4275 15.8089 50.636 16.4009 50.636 28.1937V62.7803" fill="white"/>
<path d="M4.05354 119.925C3.88222 120.513 3.69136 120.934 3.40726 121.239C2.98653 121.695 2.29906 121.847 1.68965 121.847H0.947923V120.571H1.65272C2.33803 120.571 2.56578 120.342 2.8347 119.444L3.27277 117.975L0.108643 108.275H1.5183L3.52003 114.449C3.53955 114.527 3.78677 115.46 3.91906 115.995L6.09215 108.275H7.54297L4.05354 119.925Z" fill="white"/>
<path d="M1.6916 121.929H0.869659V120.493H1.65255C2.29232 120.493 2.49837 120.294 2.75862 119.424L3.1902 117.98L0 108.199H1.5767L1.59623 108.255L3.61961 114.521C3.67599 114.729 3.8126 115.256 3.92538 115.692L6.03341 108.199H7.64909L7.61871 108.301L4.12929 119.947C3.94495 120.589 3.74541 120.99 3.46348 121.294C2.95817 121.847 2.13402 121.929 1.6916 121.929ZM1.02585 121.769H1.68948C2.10804 121.769 2.88006 121.695 3.34633 121.187C3.60875 120.905 3.79745 120.519 3.97528 119.901L7.43439 108.359H6.15267L3.91459 116.31L3.84079 116.015C3.72802 115.562 3.53288 114.818 3.46348 114.56L3.43959 114.469L1.45956 108.359H0.216885L3.355 117.98L3.34633 118.001L2.90826 119.472C2.6285 120.411 2.37045 120.656 1.65043 120.656H1.02585V121.769Z" fill="white"/>
<path d="M14.825 121.849L12.0447 115.217L10.8042 117.427V121.849H9.39233V108.279H10.8042V115.1L14.5214 108.279H15.9506L12.9577 113.712L16.3323 121.849H14.825Z" fill="white"/>
<path d="M16.4536 121.929H14.7729L14.7534 121.881L12.0338 115.399L10.8844 117.448V121.929H9.31641V108.199H10.8844V114.792L14.4758 108.199H16.0871L13.0487 113.718L16.4536 121.929ZM14.8792 121.769H16.2129L12.8709 113.705L12.8904 113.675L15.816 108.359H14.569L10.7261 115.412V108.359H9.47472V121.769H10.7261L10.7347 117.386L12.0555 115.037L12.1162 115.184L14.8792 121.769Z" fill="white"/>
<path d="M27.4869 120.574H26.897V121.849H25.4852V120.574H24.8758C23.2189 120.574 21.5771 119.827 21.5771 116.646V113.389C21.5771 110.22 23.2189 109.478 24.8758 109.478H25.4852V108.277H26.897V109.478H27.4869C29.1633 109.478 30.8029 110.22 30.8029 113.389V116.646C30.8007 119.827 29.1633 120.574 27.4869 120.574ZM25.5047 110.775H24.8953C23.8847 110.775 22.9695 111.157 22.9695 113.577V116.472C22.9695 118.893 23.8847 119.277 24.9148 119.277H25.5047V110.775ZM29.3932 113.577C29.3932 111.157 28.4954 110.775 27.4674 110.775H26.8775V119.277H27.4674C28.478 119.277 29.3932 118.893 29.3932 116.472V113.577Z" fill="white"/>
<path d="M26.9753 121.929H25.4051V120.654H24.8738C22.6335 120.654 21.4971 119.305 21.4971 116.648V113.386C21.4971 110.74 22.6335 109.398 24.8738 109.398H25.4051V108.197H26.9753V109.398H27.4871C29.7383 109.398 30.8812 110.74 30.8812 113.386V116.648C30.8812 119.305 29.7383 120.654 27.4871 120.654H26.9753V121.929ZM25.5634 121.768H26.8169V120.493H27.4871C29.6645 120.493 30.7229 119.235 30.7229 116.65V113.388C30.7229 110.812 29.6645 109.561 27.4871 109.561H26.8169V108.359H25.5634V109.561H24.8738C22.7398 109.561 21.6554 110.849 21.6554 113.388V116.65C21.6554 119.201 22.7398 120.493 24.8738 120.493H25.5634V121.768ZM27.4654 119.355H26.7974V110.695H27.4654C28.4587 110.695 29.4715 111.035 29.4715 113.577V116.472C29.4715 119.012 28.4587 119.355 27.4654 119.355ZM26.9558 119.196H27.4654C28.4262 119.196 29.3131 118.867 29.3131 116.472V113.577C29.3131 111.183 28.4262 110.853 27.4654 110.853H26.9558V119.196ZM25.5829 119.355H24.9128C23.9131 119.355 22.8895 119.012 22.8895 116.472V113.577C22.8895 111.035 23.9022 110.695 24.8933 110.695H25.5829V119.355ZM24.8933 110.853C23.9347 110.853 23.0478 111.183 23.0478 113.577V116.472C23.0478 118.867 23.9456 119.196 24.9128 119.196H25.4246V110.853H24.8933Z" fill="white"/>
<path d="M33.2488 121.849V108.279H38.9482V109.537H34.6584V114.36H38.2217V115.616H34.6584V120.591H38.9829V121.849H33.2488Z" fill="white"/>
<path d="M39.0628 121.929H33.1682V108.199H39.0259V109.617H34.7362V114.278H38.2994V115.696H34.7362V120.508H39.0628V121.929ZM33.3265 121.769H38.9045V120.673H34.5779V115.536H38.1411V114.44H34.5779V109.457H38.8676V108.359H33.3265V121.769Z" fill="white"/>
<path d="M47.9479 124.918V121.849H41.4287V124.918H40.1145V120.574H40.9906C42.2095 117.655 42.4957 115.466 42.4957 110.034V108.279H48.0238V120.574H49.2426V124.918H47.9479ZM46.6315 109.554H43.849V111.407C43.849 116.455 43.5064 117.848 42.4589 120.576H46.6315V109.554Z" fill="white"/>
<path d="M49.3206 125H47.8675V121.931H41.5045V125H40.032V120.493H40.9363C42.1096 117.67 42.4154 115.503 42.4154 110.034V108.199H48.1017V120.493H49.3206V125ZM48.0258 124.839H49.1623V120.654H47.9434V108.359H42.5737V110.031C42.5737 115.555 42.2635 117.733 41.0621 120.604L41.0404 120.652H40.1903V124.837H41.3462V121.766H48.0258V124.839ZM46.7094 120.654H42.3395L42.3828 120.543C43.4086 117.873 43.7687 116.481 43.7687 111.404V109.472H46.7094V120.654ZM42.5715 120.493H46.5511V109.637H43.927V111.404C43.927 116.442 43.5756 117.871 42.5715 120.493Z" fill="white"/>
<path d="M51.1157 121.849V108.279H56.8151V109.537H52.5254V114.36H56.0886V115.616H52.5254V120.591H56.852V121.849H51.1157Z" fill="white"/>
<path d="M56.9298 121.929H51.0352V108.199H56.8929V109.617H52.6032V114.278H56.1663V115.696H52.6032V120.508H56.9298V121.929ZM51.1935 121.769H56.7715V120.673H52.4449V115.536H56.008V114.44H52.4449V109.457H56.7346V108.359H51.1935V121.769Z" fill="white"/>
<path d="M62.1908 116.264H60.5534V121.849H59.1416V108.279H62.1908C64.4593 108.279 65.5827 109.518 65.5827 111.994V112.547C65.5827 115.046 64.4398 116.264 62.1908 116.264ZM64.173 112.109C64.173 110.3 63.6786 109.537 62.039 109.537H60.5534V115.009H62.039C63.62 115.009 64.173 114.261 64.173 112.432V112.109Z" fill="white"/>
<path d="M60.6314 121.931H59.0635V108.199H62.1907C64.4939 108.199 65.6629 109.478 65.6629 111.996V112.547C65.6629 115.067 64.4939 116.347 62.1907 116.347H60.6314V121.931ZM59.2196 121.769H60.4709V116.186H62.1886C64.418 116.186 65.5024 114.996 65.5024 112.547V111.996C65.5024 109.55 64.418 108.359 62.1886 108.359H59.2196V121.769ZM62.0389 115.089H60.4731V109.457H62.0389C63.6524 109.457 64.2511 110.175 64.2511 112.111V112.434C64.2511 114.345 63.6308 115.089 62.0389 115.089ZM60.6314 114.926H62.0389C63.5375 114.926 64.0927 114.252 64.0927 112.434V112.111C64.0927 110.27 63.5548 109.617 62.0389 109.617H60.6314V114.926Z" fill="white"/>
<path d="M67.7788 121.849V108.279H73.4782V109.537H69.1885V114.36H72.7517V115.616H69.1885V120.591H73.515V121.849H67.7788Z" fill="white"/>
<path d="M73.5953 121.929H67.7007V108.199H73.5584V109.617H69.2687V114.278H72.8319V115.696H69.2687V120.508H73.5953V121.929ZM67.8591 121.769H73.437V120.673H69.1104V115.536H72.6757V114.44H69.1104V109.457H73.4023V108.359H67.8612V121.769H67.8591Z" fill="white"/>
<path d="M81.142 121.849V112.53C81.142 112.413 81.2178 111.253 81.2178 111.177L80.912 111.996L77.1212 121.849H75.8047V108.277H77.1797V117.559C77.1797 117.674 77.1406 118.893 77.1233 118.988L77.4269 118.073L81.22 108.275H82.5191V121.847H81.142V121.849ZM79.331 107.533C77.9582 107.533 77.0431 106.757 76.8739 105.267H77.9214C77.9973 105.937 78.418 106.542 79.3701 106.542C80.32 106.542 80.7234 105.913 80.7993 105.267H81.8272C81.6754 106.713 80.706 107.533 79.331 107.533Z" fill="white"/>
<path d="M82.5949 121.929H81.066V112.528C81.066 112.463 81.0876 112.096 81.1093 111.741C81.1093 111.725 81.1093 111.708 81.1115 111.695L80.9879 112.023L77.1774 121.929H75.7266V108.199H77.2555V117.559C77.2555 117.601 77.2447 118.026 77.2317 118.407L77.3487 118.049L81.1657 108.199H82.5949V121.929ZM81.2221 121.769H82.4344V108.36H81.2741L77.5027 118.104L77.1991 119.015L77.0451 118.973C77.0603 118.893 77.0994 117.707 77.0994 117.559V108.36H75.8849V121.769H77.0668L81.298 110.734V111.175C81.298 111.209 81.285 111.418 81.2654 111.749C81.2459 112.068 81.2199 112.467 81.2199 112.528V121.769H81.2221ZM79.3309 107.616C77.8887 107.616 76.9649 106.759 76.7936 105.278L76.7849 105.189H77.9928L78.0015 105.258C78.0427 105.623 78.2575 106.464 79.3722 106.464C80.463 106.464 80.6799 105.623 80.7211 105.258L80.7298 105.189H81.9161L81.9074 105.278C81.7556 106.718 80.7688 107.616 79.3309 107.616ZM76.9649 105.349C77.1535 106.709 77.9929 107.453 79.3331 107.453C80.6734 107.453 81.5669 106.668 81.7404 105.349H80.8708C80.7493 106.145 80.1941 106.625 79.3744 106.625C78.5372 106.625 77.9733 106.145 77.854 105.349H76.9649Z" fill="white"/>
<path d="M85.6086 121.849V108.279H87.0183V120.574H90.2215V108.279H91.629V120.574H94.8322V108.279H96.2418V121.849H85.6086Z" fill="white"/>
<path d="M96.3223 121.929H85.5286V108.199H87.0987V120.493H90.1393V108.199H91.7094V120.493H94.7521V108.199H96.3223V121.929ZM85.6891 121.769H96.1618V108.359H94.9148V120.654H91.5489V108.359H90.302V120.654H86.9361V108.359H85.6891V121.769Z" fill="white"/>
<path d="M104.482 121.849V115.635H100.726V121.849H99.3186V108.279H100.726V114.36H104.482V108.279H105.892V121.849H104.482Z" fill="white"/>
<path d="M105.972 121.929H104.4V115.716H100.806V121.929H99.2339V108.199H100.806V114.28H104.4V108.199H105.972V121.929ZM104.562 121.769H105.809V108.359H104.562V114.44H100.646V108.359H99.3987V121.769H100.646V115.555H104.562V121.769Z" fill="white"/>
<path d="M114.002 109.554V121.849H112.588V108.279H118.268V109.554H114.002Z" fill="white"/>
<path d="M114.082 121.929H112.508V108.199H118.348V109.637H114.08V121.929H114.082ZM112.668 121.769H113.92V109.474H118.188V108.359H112.668V121.769Z" fill="white"/>
<path d="M123.551 116.264H121.911V121.849H120.503V108.279H123.551C125.821 108.279 126.942 109.518 126.942 111.994V112.547C126.942 115.046 125.799 116.264 123.551 116.264ZM125.533 112.109C125.533 110.3 125.036 109.537 123.399 109.537H121.911V115.009H123.399C124.98 115.009 125.533 114.261 125.533 112.432V112.109Z" fill="white"/>
<path d="M121.991 121.931H120.421V108.199H123.548C125.851 108.199 127.022 109.478 127.022 111.996V112.547C127.022 115.067 125.851 116.347 123.548 116.347H121.989V121.931H121.991ZM120.583 121.769H121.832V116.186H123.55C125.777 116.186 126.86 114.996 126.86 112.547V111.996C126.86 109.55 125.777 108.359 123.55 108.359H120.583V121.769ZM123.398 115.089H121.832V109.457H123.398C125.014 109.457 125.613 110.175 125.613 112.111V112.434C125.613 114.345 124.995 115.089 123.398 115.089ZM121.991 114.926H123.396C124.895 114.926 125.452 114.252 125.452 112.434V112.111C125.452 110.27 124.914 109.617 123.396 109.617H121.991V114.926Z" fill="white"/>
<path d="M132.017 119.925C131.843 120.513 131.654 120.934 131.368 121.239C130.95 121.695 130.26 121.847 129.651 121.847H128.907V120.571H129.612C130.299 120.571 130.527 120.342 130.796 119.444L131.232 117.975L128.07 108.275H129.479L131.481 114.449C131.498 114.527 131.748 115.46 131.88 115.995L134.053 108.275H135.5L132.017 119.925Z" fill="white"/>
<path d="M129.65 121.929H128.828V120.493H129.613C130.251 120.493 130.459 120.294 130.717 119.424L131.149 117.98L127.961 108.199H129.538L129.553 108.255L131.557 114.427C131.565 114.46 131.598 114.584 131.643 114.755C131.711 115.013 131.804 115.375 131.884 115.692L133.994 108.199H135.606L135.577 108.301L132.092 119.947C131.899 120.595 131.702 120.999 131.424 121.294C130.919 121.847 130.097 121.929 129.65 121.929ZM128.991 121.769H129.653C130.071 121.769 130.843 121.695 131.312 121.187C131.57 120.91 131.758 120.522 131.943 119.901L135.4 108.359H134.118L131.882 116.31L131.808 116.015C131.721 115.666 131.583 115.139 131.496 114.796C131.448 114.62 131.414 114.497 131.407 114.469L129.425 108.359H128.182L131.32 117.98L131.316 118.001L130.878 119.472C130.594 120.411 130.338 120.656 129.618 120.656H128.993V121.769H128.991Z" fill="white"/>
<path d="M142.523 121.849V109.554H138.767V121.849H137.357V108.279H143.931V121.849H142.523Z" fill="white"/>
<path d="M144.011 121.929H142.441V109.637H138.845V121.929H137.275V108.199H144.009V121.929H144.011ZM142.604 121.769H143.851V108.359H137.44V121.769H138.685V109.474H142.604V121.769Z" fill="white"/>
</svg>
