<svg width="109" height="94" viewBox="0 0 109 94" fill="none" xmlns="http://www.w3.org/2000/svg">
<path d="M56.8567 56.8208V4.85642C58.9865 5.30162 61.0184 5.79903 62.504 6.24423C66.7619 7.58145 67.2104 8.27616 67.2104 13.4767V47.6103C67.2104 52.8108 66.7636 53.406 61.5125 55.239C59.7284 55.8326 58.1923 56.3772 56.8567 56.8208ZM42.4391 47.6575V20.7597C42.4391 15.5575 42.8859 14.9623 48.1369 13.1277C49.9194 12.5357 51.4556 12.0384 52.7439 11.5948V56.8208C51.405 56.3772 49.8704 55.8815 48.1369 55.2863C42.8859 53.4549 42.4391 52.8581 42.4391 47.6575ZM38.08 47.2107C38.08 56.0789 38.6752 56.524 48.1369 59.5459L52.7439 61.0299V66.033H56.855V61.0299L61.4603 59.5459C70.9237 56.5224 71.5173 56.0789 71.5173 47.2107V14.0181C71.5173 5.15161 71.0215 4.36068 63.0943 2.13142C60.4704 1.38616 55.4656 0.347353 52.7422 0V7.38086L48.1353 8.8665C38.6736 11.8883 38.0784 12.3335 38.0784 21.2016V47.2107" fill="white"/>
<path d="M3.04835 90.1838C2.91951 90.6257 2.77599 90.9422 2.56234 91.1721C2.24595 91.5146 1.72898 91.6288 1.2707 91.6288H0.712926V90.6698H1.24293C1.75829 90.6698 1.92955 90.4969 2.13178 89.8217L2.46121 88.7176L0.0817871 81.4227H1.14185L2.64715 86.0658C2.66183 86.1245 2.84774 86.8258 2.94722 87.2286L4.58138 81.4227H5.6724L3.04835 90.1838Z" fill="white"/>
<path d="M1.27208 91.6907H0.653983V90.611H1.24272C1.72383 90.611 1.87878 90.461 2.07448 89.807L2.39903 88.7208L0 81.3656H1.18568L1.20036 81.408L2.72194 86.1196C2.76435 86.2761 2.86708 86.6725 2.95188 87.0003L4.53712 81.3656H5.75212L5.72927 81.4422L3.10523 90.2C2.9666 90.6828 2.81655 90.9845 2.60454 91.2128C2.22454 91.6287 1.60478 91.6907 1.27208 91.6907ZM0.771441 91.57H1.27049C1.58525 91.57 2.1658 91.5145 2.51644 91.1329C2.71378 90.9209 2.85568 90.6306 2.98941 90.1658L5.59066 81.4862H4.62681L2.94377 87.4651L2.88828 87.2433C2.80347 86.9024 2.65672 86.343 2.60454 86.1489L2.58657 86.0805L1.09759 81.4862H0.163098L2.52296 88.7208L2.51644 88.7371L2.18701 89.8429C1.97663 90.5491 1.78258 90.7333 1.24112 90.7333H0.771441V91.57Z" fill="white"/>
<path d="M11.1483 91.6302L9.05759 86.643L8.12469 88.3048V91.6302H7.06299V81.4258H8.12469V86.5549L10.92 81.4258H11.9948L9.74417 85.5111L12.2818 91.6302H11.1483Z" fill="white"/>
<path d="M12.3731 91.6907H11.1091L11.0944 91.6548L9.04933 86.7801L8.18497 88.3213V91.6907H7.00586V81.3656H8.18497V86.3234L10.8857 81.3656H12.0974L9.81256 85.5162L12.3731 91.6907ZM11.1891 91.57H12.192L9.67883 85.5064L9.69351 85.4836L11.8936 81.4862H10.9558L8.06592 86.7899V81.4862H7.12491V91.57H8.06592L8.07244 88.274L9.06566 86.5077L9.1113 86.6186L11.1891 91.57Z" fill="white"/>
<path d="M20.6701 90.6713H20.2265V91.6302H19.1648V90.6713H18.7065C17.4605 90.6713 16.226 90.1103 16.226 87.7178V85.2682C16.226 82.8855 17.4605 82.3277 18.7065 82.3277H19.1648V81.4242H20.2265V82.3277H20.6701C21.9308 82.3277 23.1637 82.8855 23.1637 85.2682V87.7178C23.1621 90.1103 21.9308 90.6713 20.6701 90.6713ZM19.1795 83.303H18.7212C17.9612 83.303 17.273 83.59 17.273 85.4101V87.5873C17.273 89.4074 17.9612 89.696 18.7359 89.696H19.1795V83.303ZM22.1036 85.4101C22.1036 83.59 21.4285 83.303 20.6554 83.303H20.2118V89.696H20.6554C21.4154 89.696 22.1036 89.4074 22.1036 87.5873V85.4101Z" fill="white"/>
<path d="M20.2855 91.6905H19.1047V90.7315H18.7052C17.0205 90.7315 16.1659 89.7171 16.1659 87.7193V85.2665C16.1659 83.2768 17.0205 82.2673 18.7052 82.2673H19.1047V81.3638H20.2855V82.2673H20.6704C22.3633 82.2673 23.2227 83.2768 23.2227 85.2665V87.7193C23.2227 89.7171 22.3633 90.7315 20.6704 90.7315H20.2855V91.6905ZM19.2238 91.5698H20.1664V90.6108H20.6704C22.3078 90.6108 23.1037 89.6649 23.1037 87.7209V85.2681C23.1037 83.3306 22.3078 82.3896 20.6704 82.3896H20.1664V81.4861H19.2238V82.3896H18.7052C17.1004 82.3896 16.285 83.3583 16.285 85.2681V87.7209C16.285 89.6389 17.1004 90.6108 18.7052 90.6108H19.2238V91.5698ZM20.6541 89.7546H20.1518V83.2426H20.6541C21.401 83.2426 22.1626 83.4986 22.1626 85.41V87.5872C22.1626 89.497 21.401 89.7546 20.6541 89.7546ZM20.2709 89.6356H20.6541C21.3766 89.6356 22.0436 89.3877 22.0436 87.5872V85.41C22.0436 83.6095 21.3766 83.3616 20.6541 83.3616H20.2709V89.6356ZM19.2385 89.7546H18.7345C17.9827 89.7546 17.213 89.497 17.213 87.5872V85.41C17.213 83.4986 17.9746 83.2426 18.7199 83.2426H19.2385V89.7546ZM18.7199 83.3616C17.999 83.3616 17.332 83.6095 17.332 85.41V87.5872C17.332 89.3877 18.0072 89.6356 18.7345 89.6356H19.1194V83.3616H18.7199Z" fill="white"/>
<path d="M25.0031 91.6302V81.4258H29.289V82.3717H26.0631V85.9988H28.7427V86.943H26.0631V90.6843H29.3151V91.6302H25.0031Z" fill="white"/>
<path d="M29.3752 91.6907H24.9425V81.3656H29.3475V82.4322H26.1216V85.9369H28.8012V87.0035H26.1216V90.6224H29.3752V91.6907ZM25.0616 91.57H29.2562V90.7464H26.0026V86.8829H28.6821V86.0592H26.0026V82.3115H29.2284V81.4862H25.0616V91.57Z" fill="white"/>
<path d="M36.0569 93.9379V91.6302H31.1544V93.9379H30.1661V90.6712H30.825C31.7416 88.4761 31.9568 86.8305 31.9568 82.7451V81.4258H36.114V90.6712H37.0305V93.9379H36.0569ZM35.0669 82.3848H32.9745V83.7775C32.9745 87.5742 32.7168 88.6212 31.9291 90.6729H35.0669V82.3848Z" fill="white"/>
<path d="M37.089 94H35.9963V91.6923H31.2113V94H30.104V90.611H30.7841C31.6664 88.4876 31.8963 86.8584 31.8963 82.7453V81.3656H36.1725V90.611H37.089V94ZM36.1154 93.8793H36.97V90.7317H36.0534V81.4862H32.0154V82.7437C32.0154 86.8975 31.7821 88.5349 30.8786 90.6942L30.8624 90.7301H30.2231V93.8777H31.0923V91.5683H36.1154V93.8793ZM35.1254 90.7317H31.8392L31.8718 90.6485C32.6433 88.6409 32.914 87.5939 32.914 83.776V82.3229H35.1254V90.7317ZM32.0137 90.611H35.0064V82.4469H33.033V83.776C33.033 87.5646 32.7688 88.6393 32.0137 90.611Z" fill="white"/>
<path d="M38.439 91.6302V81.4258H42.7249V82.3717H39.499V85.9988H42.1786V86.943H39.499V90.6843H42.7526V91.6302H38.439Z" fill="white"/>
<path d="M42.8112 91.6907H38.3784V81.3656H42.7834V82.4322H39.5576V85.9369H42.2371V87.0035H39.5576V90.6224H42.8112V91.6907ZM38.4975 91.57H42.6921V90.7464H39.4385V86.8829H42.118V86.0592H39.4385V82.3115H42.6644V81.4862H38.4975V91.57Z" fill="white"/>
<path d="M46.7674 87.4307H45.5361V91.6302H44.4744V81.4258H46.7674C48.4733 81.4258 49.3181 82.357 49.3181 84.2195V84.6353C49.3181 86.5141 48.4586 87.4307 46.7674 87.4307ZM48.258 84.3059C48.258 82.9457 47.8862 82.3717 46.6532 82.3717H45.5361V86.4864H46.6532C47.8421 86.4864 48.258 85.9238 48.258 84.5489V84.3059Z" fill="white"/>
<path d="M45.5949 91.6923H44.4158V81.3656H46.7675C48.4995 81.3656 49.3785 82.3278 49.3785 84.2212V84.6355C49.3785 86.5305 48.4995 87.4928 46.7675 87.4928H45.5949V91.6923ZM44.5332 91.57H45.4742V87.3721H46.7658C48.4424 87.3721 49.2578 86.4767 49.2578 84.6355V84.2212C49.2578 82.3816 48.4424 81.4862 46.7658 81.4862H44.5332V91.57ZM46.6533 86.5469H45.4758V82.3115H46.6533C47.8667 82.3115 48.3168 82.8513 48.3168 84.3077V84.5507C48.3168 85.9875 47.8504 86.5469 46.6533 86.5469ZM45.5949 86.4246H46.6533C47.7802 86.4246 48.1978 85.9174 48.1978 84.5507V84.3077C48.1978 82.9231 47.7933 82.4322 46.6533 82.4322H45.5949V86.4246Z" fill="white"/>
<path d="M50.9696 91.6302V81.4258H55.2555V82.3717H52.0297V85.9988H54.7092V86.943H52.0297V90.6843H55.2833V91.6302H50.9696Z" fill="white"/>
<path d="M55.3438 91.6907H50.911V81.3656H55.316V82.4322H52.0902V85.9369H54.7697V87.0035H52.0902V90.6224H55.3438V91.6907ZM51.0301 91.57H55.2247V90.7464H51.9711V86.8829H54.6523V86.0592H51.9711V82.3115H55.1986V81.4862H51.0317V91.57H51.0301Z" fill="white"/>
<path d="M61.0186 91.6303V84.6224C61.0186 84.5344 61.0757 83.6619 61.0757 83.6048L60.8457 84.2213L57.995 91.6303H57.005V81.4243H58.039V88.4045C58.039 88.4909 58.0096 89.4074 57.9966 89.4792L58.2249 88.791L61.0773 81.4227H62.0542V91.6287H61.0186V91.6303ZM59.6568 80.8649C58.6245 80.8649 57.9363 80.2811 57.809 79.1606H58.5968C58.6538 79.6646 58.9702 80.1196 59.6862 80.1196C60.4005 80.1196 60.7038 79.6466 60.7609 79.1606H61.534C61.4198 80.2484 60.6908 80.8649 59.6568 80.8649Z" fill="white"/>
<path d="M62.1114 91.6908H60.9616V84.6209C60.9616 84.572 60.9779 84.2964 60.9942 84.0289C60.9942 84.0175 60.9943 84.0045 60.9959 83.9947L60.9029 84.2409L58.0375 91.6908H56.9464V81.3657H58.0962V88.4045C58.0962 88.4355 58.088 88.7552 58.0782 89.0422L58.1663 88.7731L61.0366 81.3657H62.1114V91.6908ZM61.079 91.5701H61.9907V81.4864H61.1182L58.2821 88.8139L58.0538 89.4989L57.938 89.4679C57.9494 89.4075 57.9787 88.5154 57.9787 88.4045V81.4864H57.0655V91.5701H57.9543L61.1361 83.2722V83.6032C61.1361 83.6293 61.1263 83.7859 61.1116 84.0354C61.097 84.2752 61.0774 84.5753 61.0774 84.6209V91.5701H61.079ZM59.6569 80.927C58.5724 80.927 57.8776 80.2828 57.7488 79.1689L57.7423 79.1021H58.6506L58.6572 79.1542C58.6882 79.4282 58.8496 80.061 59.6879 80.061C60.5082 80.061 60.6713 79.4282 60.7023 79.1542L60.7089 79.1021H61.6009L61.5944 79.1689C61.4803 80.2518 60.7382 80.927 59.6569 80.927ZM57.8776 79.2227C58.0195 80.2453 58.6507 80.8046 59.6586 80.8046C60.6664 80.8046 61.3383 80.2143 61.4688 79.2227H60.8149C60.7235 79.8213 60.306 80.1817 59.6896 80.1817C59.06 80.1817 58.636 79.8213 58.5463 79.2227H57.8776Z" fill="white"/>
<path d="M64.3777 91.6302V81.4258H65.4377V90.6712H67.8465V81.4258H68.905V90.6712H71.3138V81.4258H72.3739V91.6302H64.3777Z" fill="white"/>
<path d="M72.4344 91.6907H64.3175V81.3656H65.4983V90.611H67.7848V81.3656H68.9655V90.611H71.2536V81.3656H72.4344V91.6907ZM64.4382 91.57H72.3137V81.4862H71.3759V90.7317H68.8448V81.4862H67.9071V90.7317H65.376V81.4862H64.4382V91.57Z" fill="white"/>
<path d="M78.5706 91.6302V86.9577H75.7459V91.6302H74.6875V81.4258H75.7459V85.9988H78.5706V81.4258H79.6307V91.6302H78.5706Z" fill="white"/>
<path d="M79.691 91.6907H78.5086V87.0182H75.8063V91.6907H74.6239V81.3656H75.8063V85.9386H78.5086V81.3656H79.691V91.6907ZM78.631 91.57H79.5687V81.4862H78.631V86.0592H75.6856V81.4862H74.7478V91.57H75.6856V86.8975H78.631V91.57Z" fill="white"/>
<path d="M85.7297 82.3848V91.6302H84.6664V81.4258H88.9377V82.3848H85.7297Z" fill="white"/>
<path d="M85.7897 91.6907H84.6057V81.3656H88.9977V82.4469H85.7881V91.6907H85.7897ZM84.7264 91.57H85.6674V82.3245H88.877V81.4862H84.7264V91.57Z" fill="white"/>
<path d="M92.9098 87.4307H91.6769V91.6302H90.6184V81.4258H92.9098C94.6174 81.4258 95.4605 82.357 95.4605 84.2195V84.6353C95.4605 86.5141 94.6011 87.4307 92.9098 87.4307ZM94.4004 84.3059C94.4004 82.9457 94.027 82.3717 92.7957 82.3717H91.6769V86.4864H92.7957C93.9846 86.4864 94.4004 85.9238 94.4004 84.5489V84.3059Z" fill="white"/>
<path d="M91.7371 91.6923H90.5564V81.3656H92.9081C94.6401 81.3656 95.5208 82.3278 95.5208 84.2212V84.6355C95.5208 86.5305 94.6401 87.4928 92.9081 87.4928H91.7356V91.6923H91.7371ZM90.6787 91.57H91.6181V87.3721H92.9098C94.5847 87.3721 95.3985 86.4767 95.3985 84.6355V84.2212C95.3985 82.3816 94.5847 81.4862 92.9098 81.4862H90.6787V91.57ZM92.7956 86.5469H91.6181V82.3115H92.7956C94.0106 82.3115 94.4607 82.8513 94.4607 84.3077V84.5507C94.4607 85.9875 93.9959 86.5469 92.7956 86.5469ZM91.7371 86.4246H92.794C93.9209 86.4246 94.34 85.9174 94.34 84.5507V84.3077C94.34 82.9231 93.9356 82.4322 92.794 82.4322H91.7371V86.4246Z" fill="white"/>
<path d="M99.2766 90.1838C99.1461 90.6257 99.0042 90.9422 98.7889 91.1721C98.4741 91.5146 97.9555 91.6288 97.4973 91.6288H96.9378V90.6698H97.4679C97.9849 90.6698 98.1561 90.4969 98.3583 89.8217L98.6862 88.7176L96.3083 81.4227H97.3684L98.8737 86.0658C98.8868 86.1245 99.0743 86.8258 99.1738 87.2286L100.808 81.4227H101.896L99.2766 90.1838Z" fill="white"/>
<path d="M97.497 91.6907H96.8789V90.611H97.4693C97.9488 90.611 98.1053 90.461 98.2994 89.807L98.624 88.7208L96.2266 81.3656H97.4122L97.4236 81.408L98.9305 86.0494C98.9371 86.0739 98.9615 86.1669 98.9958 86.2957C99.0463 86.4898 99.1165 86.7622 99.1768 87.0003L100.764 81.3656H101.975L101.954 81.4422L99.3334 90.2C99.1882 90.6877 99.0398 90.991 98.831 91.2128C98.4511 91.6287 97.833 91.6907 97.497 91.6907ZM97.0012 91.57H97.4986C97.8134 91.57 98.394 91.5145 98.7462 91.1329C98.9403 90.9241 99.0822 90.6322 99.2208 90.1658L101.82 81.4862H100.857L99.1752 87.4651L99.1197 87.2433C99.0545 86.9807 98.9501 86.5844 98.8849 86.3267C98.849 86.1946 98.8229 86.1017 98.818 86.0805L97.3274 81.4862H96.3929L98.7528 88.7208L98.7495 88.7371L98.4201 89.8429C98.2064 90.5491 98.014 90.7333 97.4725 90.7333H97.0028V91.57H97.0012Z" fill="white"/>
<path d="M107.178 91.6302V82.3848H104.353V91.6302H103.293V81.4258H108.236V91.6302H107.178Z" fill="white"/>
<path d="M108.296 91.6907H107.116V82.4469H104.412V91.6907H103.231V81.3656H108.295V91.6907H108.296ZM107.238 91.57H108.176V81.4862H103.355V91.57H104.291V82.3245H107.238V91.57Z" fill="white"/>
</svg>
