<svg width="138" height="119" viewBox="0 0 138 119" fill="none" xmlns="http://www.w3.org/2000/svg">
<path d="M71.9784 71.9328V6.14803C74.6746 6.71163 77.2469 7.34132 79.1276 7.90493C84.518 9.59781 85.0858 10.4773 85.0858 17.0609V60.2726C85.0858 66.8563 84.5201 67.6098 77.8724 69.9303C75.6139 70.6818 73.6692 71.3712 71.9784 71.9328ZM53.7263 60.3325V26.2809C53.7263 19.6952 54.2919 18.9416 60.9395 16.6191C63.196 15.8697 65.1408 15.2401 66.7717 14.6785V71.9328C65.0768 71.3712 63.1341 70.7437 60.9395 69.9901C54.2919 67.6717 53.7263 66.9161 53.7263 60.3325ZM48.2079 59.7668C48.2079 70.9935 48.9614 71.5571 60.9395 75.3826L66.7717 77.2613V83.5951H71.9763V77.2613L77.8064 75.3826C89.7866 71.555 90.5381 70.9935 90.5381 59.7668V17.7463C90.5381 6.52172 89.9104 5.52044 79.875 2.69829C76.5532 1.75483 70.2173 0.439735 66.7697 0V9.34385L60.9375 11.2246C48.9593 15.0501 48.2058 15.6137 48.2058 26.8404V59.7668" fill="#11305D"/>
<path d="M3.85882 114.169C3.69571 114.728 3.51402 115.129 3.24355 115.42C2.84302 115.854 2.18855 115.998 1.60839 115.998H0.902267V114.784H1.57323C2.22565 114.784 2.44246 114.565 2.69848 113.71L3.11552 112.313L0.103271 103.078H1.44526L3.35092 108.956C3.3695 109.03 3.60485 109.918 3.73079 110.428L5.79957 103.078H7.18075L3.85882 114.169Z" fill="#11305D"/>
<path d="M1.6104 116.076H0.827915V114.71H1.57323C2.18229 114.71 2.37845 114.52 2.62621 113.692L3.03708 112.317L0 103.005H1.50102L1.51961 103.059L3.44587 109.024C3.49955 109.222 3.6296 109.724 3.73696 110.139L5.7438 103.005H7.28194L7.25302 103.102L3.93109 114.189C3.75559 114.801 3.56563 115.183 3.29723 115.472C2.81618 115.998 2.03159 116.076 1.6104 116.076ZM0.976613 115.924H1.60839C2.00686 115.924 2.74182 115.853 3.18571 115.37C3.43553 115.102 3.61517 114.734 3.78447 114.146L7.07754 103.158H5.85734L3.72669 110.727L3.65644 110.446C3.54908 110.015 3.3633 109.307 3.29723 109.061L3.27449 108.974L1.3895 103.158H0.206475L3.19396 112.317L3.18571 112.337L2.76867 113.737C2.50233 114.631 2.25667 114.865 1.57121 114.865H0.976613V115.924Z" fill="#11305D"/>
<path d="M14.1131 116L11.4662 109.687L10.2852 111.79V116H8.94116V103.082H10.2852V109.575L13.824 103.082H15.1846L12.3354 108.254L15.548 116H14.1131Z" fill="#11305D"/>
<path d="M15.6638 116.076H14.0637L14.0451 116.031L11.4561 109.86L10.3618 111.811V116.076H8.86914V103.005H10.3618V109.282L13.7809 103.005H15.3148L12.4223 108.26L15.6638 116.076ZM14.1649 115.924H15.4346L12.253 108.247L12.2716 108.219L15.0568 103.158H13.8696L10.2111 109.872V103.158H9.01985V115.924H10.2111L10.2194 111.751L11.4768 109.515L11.5345 109.655L14.1649 115.924Z" fill="#11305D"/>
<path d="M26.1679 114.786H25.6063V116H24.2622V114.786H23.682C22.1047 114.786 20.5417 114.076 20.5417 111.047V107.946C20.5417 104.929 22.1047 104.223 23.682 104.223H24.2622V103.08H25.6063V104.223H26.1679C27.7638 104.223 29.3246 104.929 29.3246 107.946V111.047C29.3226 114.076 27.7638 114.786 26.1679 114.786ZM24.2808 105.458H23.7006C22.7385 105.458 21.8672 105.821 21.8672 108.126V110.882C21.8672 113.186 22.7385 113.551 23.7192 113.551H24.2808V105.458ZM27.9827 108.126C27.9827 105.821 27.1279 105.458 26.1493 105.458H25.5877V113.551H26.1493C27.1114 113.551 27.9827 113.186 27.9827 110.882V108.126Z" fill="#11305D"/>
<path d="M25.6803 116.076H24.1855V114.862H23.6797C21.547 114.862 20.4651 113.578 20.4651 111.049V107.944C20.4651 105.425 21.547 104.147 23.6797 104.147H24.1855V103.003H25.6803V104.147H26.1676C28.3107 104.147 29.3988 105.425 29.3988 107.944V111.049C29.3988 113.578 28.3107 114.862 26.1676 114.862H25.6803V116.076ZM24.3363 115.924H25.5296V114.71H26.1676C28.2405 114.71 29.248 113.512 29.248 111.051V107.946C29.248 105.493 28.2405 104.302 26.1676 104.302H25.5296V103.158H24.3363V104.302H23.6797C21.6481 104.302 20.6159 105.528 20.6159 107.946V111.051C20.6159 113.479 21.6481 114.71 23.6797 114.71H24.3363V115.924ZM26.147 113.626H25.511V105.382H26.147C27.0926 105.382 28.0567 105.706 28.0567 108.125V110.882C28.0567 113.299 27.0926 113.626 26.147 113.626ZM25.6618 113.475H26.147C27.0616 113.475 27.906 113.161 27.906 110.882V108.125C27.906 105.846 27.0616 105.532 26.147 105.532H25.6618V113.475ZM24.3548 113.626H23.7169C22.7651 113.626 21.7906 113.299 21.7906 110.882V108.125C21.7906 105.706 22.7548 105.382 23.6983 105.382H24.3548V113.626ZM23.6983 105.532C22.7857 105.532 21.9413 105.846 21.9413 108.125V110.882C21.9413 113.161 22.7961 113.475 23.7169 113.475H24.2041V105.532H23.6983Z" fill="#11305D"/>
<path d="M31.6526 116V103.082H37.0785V104.279H32.9946V108.871H36.3868V110.066H32.9946V114.803H37.1115V116H31.6526Z" fill="#11305D"/>
<path d="M37.1878 116.076H31.5762V103.005H37.1527V104.356H33.0689V108.792H36.4611V110.143H33.0689V114.724H37.1878V116.076ZM31.7269 115.924H37.0371V114.881H32.9182V109.99H36.3103V108.947H32.9182V104.203H37.002V103.158H31.7269V115.924Z" fill="#11305D"/>
<path d="M45.6464 118.922V116H39.4401V118.922H38.189V114.786H39.0231C40.1834 112.007 40.4559 109.924 40.4559 104.752V103.082H45.7186V114.786H46.8789V118.922H45.6464ZM44.3932 104.296H41.7442V106.059C41.7442 110.865 41.418 112.191 40.4208 114.788H44.3932V104.296Z" fill="#11305D"/>
<path d="M46.9531 119H45.5698V116.079H39.5122V119H38.1104V114.71H38.9713C40.0882 112.022 40.3794 109.959 40.3794 104.752V103.005H45.7928V114.71H46.9531V119ZM45.7205 118.847H46.8024V114.862H45.6421V103.158H40.5301V104.75C40.5301 110.009 40.2348 112.081 39.091 114.815L39.0704 114.86H38.2611V118.845H39.3615V115.922H45.7205V118.847ZM44.4673 114.862H40.3071L40.3484 114.757C41.3249 112.216 41.6677 110.89 41.6677 106.057V104.217H44.4673V114.862ZM40.528 114.71H44.3166V104.374H41.8184V106.057C41.8184 110.853 41.4839 112.214 40.528 114.71Z" fill="#11305D"/>
<path d="M48.6619 116V103.082H54.0877V104.279H50.0039V108.871H53.396V110.066H50.0039V114.803H54.1228V116H48.6619Z" fill="#11305D"/>
<path d="M54.1971 116.076H48.5854V103.005H54.162V104.356H50.0782V108.792H53.4703V110.143H50.0782V114.724H54.1971V116.076ZM48.7362 115.924H54.0464V114.881H49.9275V109.99H53.3196V108.947H49.9275V104.203H54.0113V103.158H48.7362V115.924Z" fill="#11305D"/>
<path d="M59.2056 110.684H57.6468V116H56.3027V103.082H59.2056C61.3652 103.082 62.4347 104.261 62.4347 106.619V107.145C62.4347 109.523 61.3466 110.684 59.2056 110.684ZM61.0927 106.728C61.0927 105.006 60.6219 104.279 59.0611 104.279H57.6468V109.488H59.0611C60.5662 109.488 61.0927 108.776 61.0927 107.036V106.728Z" fill="#11305D"/>
<path d="M57.721 116.079H56.2283V103.005H59.2054C61.3981 103.005 62.5109 104.223 62.5109 106.62V107.145C62.5109 109.544 61.3981 110.762 59.2054 110.762H57.721V116.079ZM56.3769 115.924H57.5682V110.609H59.2033C61.3258 110.609 62.3581 109.476 62.3581 107.145V106.62C62.3581 104.292 61.3258 103.158 59.2033 103.158H56.3769V115.924ZM59.0609 109.565H57.5703V104.203H59.0609C60.597 104.203 61.1668 104.886 61.1668 106.73V107.038C61.1668 108.857 60.5763 109.565 59.0609 109.565ZM57.721 109.41H59.0609C60.4875 109.41 61.0161 108.768 61.0161 107.038V106.73C61.0161 104.977 60.5041 104.356 59.0609 104.356H57.721V109.41Z" fill="#11305D"/>
<path d="M64.5254 116V103.082H69.9512V104.279H65.8674V108.871H69.2596V110.066H65.8674V114.803H69.9863V116H64.5254Z" fill="#11305D"/>
<path d="M70.0629 116.076H64.4512V103.005H70.0278V104.356H65.9439V108.792H69.3361V110.143H65.9439V114.724H70.0629V116.076ZM64.6019 115.924H69.9121V114.881H65.7932V109.99H69.1874V108.947H65.7932V104.203H69.8791V103.158H64.604V115.924H64.6019Z" fill="#11305D"/>
<path d="M77.2471 116V107.129C77.2471 107.017 77.3193 105.912 77.3193 105.84L77.0282 106.621L73.4193 116H72.166V103.08H73.475V111.916C73.475 112.026 73.4378 113.186 73.4213 113.277L73.7104 112.406L77.3214 103.078H78.5581V115.998H77.2471V116ZM75.5231 102.372C74.2162 102.372 73.3449 101.633 73.1839 100.214H74.1811C74.2534 100.852 74.6539 101.428 75.5603 101.428C76.4646 101.428 76.8486 100.829 76.9209 100.214H77.8995C77.755 101.591 76.8321 102.372 75.5231 102.372Z" fill="#11305D"/>
<path d="M78.6304 116.077H77.1749V107.127C77.1749 107.065 77.1955 106.716 77.2162 106.377C77.2162 106.363 77.2162 106.346 77.2183 106.334L77.1006 106.646L73.473 116.077H72.0918V103.006H73.5473V111.916C73.5473 111.956 73.537 112.36 73.5246 112.724L73.6361 112.383L77.2699 103.006H78.6304V116.077ZM77.3235 115.924H78.4776V103.158H77.3731L73.7827 112.435L73.4936 113.302L73.3471 113.263C73.3615 113.186 73.3987 112.057 73.3987 111.916V103.158H72.2425V115.924H73.3677L77.3958 105.419V105.838C77.3958 105.871 77.3834 106.069 77.3648 106.385C77.3462 106.689 77.3215 107.069 77.3215 107.127V115.924H77.3235ZM75.5232 102.45C74.1502 102.45 73.2707 101.635 73.1076 100.225L73.0993 100.14H74.2493L74.2575 100.206C74.2968 100.553 74.5012 101.354 75.5624 101.354C76.6009 101.354 76.8074 100.553 76.8466 100.206L76.8549 100.14H77.9842L77.976 100.225C77.8315 101.595 76.892 102.45 75.5232 102.45ZM73.2707 100.293C73.4503 101.587 74.2493 102.295 75.5253 102.295C76.8012 102.295 77.6518 101.548 77.817 100.293H76.9891C76.8735 101.05 76.3449 101.507 75.5645 101.507C74.7676 101.507 74.2307 101.05 74.1172 100.293H73.2707Z" fill="#11305D"/>
<path d="M81.4998 116V103.082H82.8417V114.786H85.8912V103.082H87.2311V114.786H90.2806V103.082H91.6226V116H81.4998Z" fill="#11305D"/>
<path d="M91.699 116.076H81.4233V103.005H82.9181V114.71H85.8127V103.005H87.3075V114.71H90.2042V103.005H91.699V116.076ZM81.5761 115.924H91.5462V103.158H90.359V114.862H87.1547V103.158H85.9676V114.862H82.7633V103.158H81.5761V115.924Z" fill="#11305D"/>
<path d="M99.4672 116V110.085H95.8912V116H94.5513V103.082H95.8912V108.871H99.4672V103.082H100.809V116H99.4672Z" fill="#11305D"/>
<path d="M100.885 116.076H99.3886V110.161H95.9676V116.076H94.4707V103.005H95.9676V108.795H99.3886V103.005H100.885V116.076ZM99.5435 115.924H100.731V103.158H99.5435V108.947H95.8148V103.158H94.6276V115.924H95.8148V110.009H99.5435V115.924Z" fill="#11305D"/>
<path d="M108.53 104.296V116H107.184V103.082H112.591V104.296H108.53Z" fill="#11305D"/>
<path d="M108.606 116.076H107.107V103.005H112.667V104.374H108.604V116.076H108.606ZM107.26 115.924H108.451V104.219H112.515V103.158H107.26V115.924Z" fill="#11305D"/>
<path d="M117.62 110.684H116.059V116H114.719V103.082H117.62C119.782 103.082 120.849 104.261 120.849 106.619V107.145C120.849 109.523 119.761 110.684 117.62 110.684ZM119.507 106.728C119.507 105.006 119.034 104.279 117.476 104.279H116.059V109.488H117.476C118.981 109.488 119.507 108.776 119.507 107.036V106.728Z" fill="#11305D"/>
<path d="M116.136 116.079H114.641V103.005H117.618C119.811 103.005 120.926 104.223 120.926 106.62V107.145C120.926 109.544 119.811 110.762 117.618 110.762H116.134V116.079H116.136ZM114.796 115.924H115.985V110.609H117.62C119.741 110.609 120.771 109.476 120.771 107.145V106.62C120.771 104.292 119.741 103.158 117.62 103.158H114.796V115.924ZM117.476 109.565H115.985V104.203H117.476C119.014 104.203 119.584 104.886 119.584 106.73V107.038C119.584 108.857 118.995 109.565 117.476 109.565ZM116.136 109.41H117.474C118.9 109.41 119.431 108.768 119.431 107.038V106.73C119.431 104.977 118.919 104.356 117.474 104.356H116.136V109.41Z" fill="#11305D"/>
<path d="M125.68 114.169C125.515 114.728 125.335 115.129 125.063 115.42C124.664 115.854 124.008 115.998 123.427 115.998H122.719V114.784H123.39C124.045 114.784 124.262 114.565 124.518 113.71L124.933 112.313L121.922 103.078H123.264L125.17 108.956C125.187 109.03 125.424 109.918 125.55 110.428L127.619 103.078H128.996L125.68 114.169Z" fill="#11305D"/>
<path d="M123.427 116.076H122.645V114.71H123.392C123.999 114.71 124.198 114.52 124.443 113.692L124.854 112.317L121.819 103.005H123.32L123.334 103.059L125.242 108.935C125.25 108.966 125.281 109.084 125.325 109.247C125.389 109.492 125.478 109.837 125.554 110.139L127.563 103.005H129.097L129.07 103.102L125.752 114.189C125.568 114.807 125.381 115.191 125.116 115.472C124.635 115.998 123.853 116.076 123.427 116.076ZM122.8 115.924H123.429C123.828 115.924 124.563 115.853 125.009 115.37C125.255 115.106 125.434 114.737 125.61 114.146L128.901 103.158H127.681L125.552 110.727L125.482 110.446C125.399 110.114 125.267 109.612 125.184 109.286C125.139 109.119 125.106 109.001 125.1 108.974L123.213 103.158H122.03L125.017 112.317L125.013 112.337L124.596 113.737C124.326 114.631 124.082 114.865 123.396 114.865H122.802V115.924H122.8Z" fill="#11305D"/>
<path d="M135.682 116V104.296H132.106V116H130.764V103.082H137.022V116H135.682Z" fill="#11305D"/>
<path d="M137.099 116.076H135.604V104.374H132.181V116.076H130.686V103.005H137.097V116.076H137.099ZM135.759 115.924H136.946V103.158H130.843V115.924H132.028V104.219H135.759V115.924Z" fill="#11305D"/>
</svg>
