<svg width="93" height="80" viewBox="0 0 93 80" fill="none" xmlns="http://www.w3.org/2000/svg">
<path d="M48.3888 48.3582V4.13312C50.2014 4.51202 51.9306 4.93534 53.195 5.31424C56.8188 6.4523 57.2005 7.04354 57.2005 11.4695V40.5194C57.2005 44.9454 56.8202 45.452 52.3512 47.0119C50.8328 47.5171 49.5255 47.9806 48.3888 48.3582ZM36.1185 40.5596V17.6678C36.1185 13.2405 36.4987 12.7339 40.9677 11.1725C42.4847 10.6687 43.7921 10.2454 44.8885 9.8679V48.3582C43.7491 47.9806 42.443 47.5588 40.9677 47.0522C36.4987 45.4936 36.1185 44.9856 36.1185 40.5596ZM32.4086 40.1794C32.4086 47.7267 32.9152 48.1056 40.9677 50.6773L44.8885 51.9403V56.1983H48.3874V51.9403L52.3068 50.6773C60.3607 48.1042 60.8659 47.7267 60.8659 40.1794V11.9303C60.8659 4.38435 60.4439 3.71122 53.6974 1.81398C51.4643 1.17971 47.2049 0.29562 44.8871 0V6.28158L40.9663 7.54596C32.9138 10.1177 32.4072 10.4966 32.4072 18.0439V40.1794" fill="black"/>
<path d="M2.5942 76.7521C2.48454 77.1282 2.3624 77.3975 2.18057 77.5932C1.9113 77.8847 1.47132 77.9819 1.0813 77.9819H0.606597V77.1657H1.05767C1.49627 77.1657 1.64202 77.0186 1.81413 76.444L2.0945 75.5043L0.069458 69.2959H0.971637L2.25275 73.2475C2.26524 73.2974 2.42346 73.8943 2.50812 74.2371L3.8989 69.2959H4.82743L2.5942 76.7521Z" fill="black"/>
<path d="M1.08262 78.0346H0.556582V77.1157H1.05763C1.46709 77.1157 1.59896 76.9881 1.76552 76.4315L2.04173 75.5071L0 69.2473H1.00909L1.02159 69.2834L2.31655 73.2932C2.35264 73.4265 2.44007 73.7638 2.51224 74.0428L3.86138 69.2473H4.89542L4.87598 69.3125L2.64275 76.766C2.52477 77.1768 2.39706 77.4336 2.21663 77.6279C1.89323 77.9819 1.36577 78.0346 1.08262 78.0346ZM0.656546 77.9319H1.08127C1.34915 77.9319 1.84324 77.8847 2.14165 77.5599C2.3096 77.3795 2.43036 77.1324 2.54418 76.7369L4.75801 69.35H3.93771L2.50534 74.4383L2.45811 74.2496C2.38593 73.9595 2.26104 73.4834 2.21663 73.3182L2.20134 73.26L0.934117 69.35H0.138807L2.1472 75.5071L2.14165 75.521L1.86129 76.462C1.68224 77.063 1.51709 77.2199 1.05628 77.2199H0.656546V77.9319Z" fill="black"/>
<path d="M9.48789 77.9832L7.70852 73.7387L6.91456 75.1531V77.9832H6.01099V69.2986H6.91456V73.6638L9.29359 69.2986H10.2083L8.29284 72.7755L10.4525 77.9832H9.48789Z" fill="black"/>
<path d="M10.5302 78.0346H9.45455L9.44205 78.0041L7.70153 73.8554L6.9659 75.167V78.0346H5.9624V69.2473H6.9659V73.4667L9.26441 69.2473H10.2956L8.35109 72.7797L10.5302 78.0346ZM9.52258 77.9319H10.3762L8.23727 72.7714L8.24977 72.752L10.1222 69.35H9.32409L6.86458 73.8637V69.35H6.06372V77.9319H6.86458L6.87013 75.1268L7.71542 73.6236L7.75426 73.718L9.52258 77.9319Z" fill="black"/>
<path d="M17.5917 77.167H17.2142V77.9831H16.3106V77.167H15.9206C14.8601 77.167 13.8094 76.6895 13.8094 74.6533V72.5686C13.8094 70.5407 14.8601 70.0661 15.9206 70.0661H16.3106V69.2971H17.2142V70.0661H17.5917C18.6646 70.0661 19.7139 70.5407 19.7139 72.5686V74.6533C19.7125 76.6895 18.6646 77.167 17.5917 77.167ZM16.3231 70.8961H15.9331C15.2863 70.8961 14.7005 71.1404 14.7005 72.6893V74.5423C14.7005 76.0913 15.2863 76.337 15.9456 76.337H16.3231V70.8961ZM18.8117 72.6893C18.8117 71.1404 18.2371 70.8961 17.5792 70.8961H17.2017V76.337H17.5792C18.226 76.337 18.8117 76.0913 18.8117 74.5423V72.6893Z" fill="black"/>
<path d="M17.2642 78.0345H16.2593V77.2184H15.9193C14.4855 77.2184 13.7582 76.3551 13.7582 74.6548V72.5673C13.7582 70.874 14.4855 70.0148 15.9193 70.0148H16.2593V69.2458H17.2642V70.0148H17.5918C19.0325 70.0148 19.764 70.874 19.764 72.5673V74.6548C19.764 76.3551 19.0325 77.2184 17.5918 77.2184H17.2642V78.0345ZM16.3606 77.9318H17.1629V77.1157H17.5918C18.9853 77.1157 19.6627 76.3107 19.6627 74.6562V72.5687C19.6627 70.9197 18.9853 70.1189 17.5918 70.1189H17.1629V69.3499H16.3606V70.1189H15.9193C14.5535 70.1189 13.8595 70.9433 13.8595 72.5687V74.6562C13.8595 76.2885 14.5535 77.1157 15.9193 77.1157H16.3606V77.9318ZM17.5779 76.387H17.1504V70.8448H17.5779C18.2136 70.8448 18.8618 71.0627 18.8618 72.6894V74.5424C18.8618 76.1677 18.2136 76.387 17.5779 76.387ZM17.2518 76.2857H17.5779C18.1928 76.2857 18.7605 76.0747 18.7605 74.5424V72.6894C18.7605 71.1571 18.1928 70.9461 17.5779 70.9461H17.2518V76.2857ZM16.3731 76.387H15.9443C15.3044 76.387 14.6493 76.1677 14.6493 74.5424V72.6894C14.6493 71.0627 15.2975 70.8448 15.9318 70.8448H16.3731V76.387ZM15.9318 70.9461C15.3183 70.9461 14.7506 71.1571 14.7506 72.6894V74.5424C14.7506 76.0747 15.3252 76.2857 15.9443 76.2857H16.2718V70.9461H15.9318Z" fill="black"/>
<path d="M21.2792 77.9832V69.2986H24.9268V70.1036H22.1814V73.1905H24.4618V73.9941H22.1814V77.1782H24.949V77.9832H21.2792Z" fill="black"/>
<path d="M25.0003 78.0346H21.2278V69.2473H24.9767V70.155H22.2313V73.1378H24.5117V74.0456H22.2313V77.1255H25.0003V78.0346ZM21.3291 77.9319H24.899V77.231H22.13V73.9428H24.4104V73.2419H22.13V70.0523H24.8754V69.35H21.3291V77.9319Z" fill="black"/>
<path d="M30.6866 79.9472V77.9832H26.5143V79.9472H25.6732V77.1671H26.234C27.014 75.2988 27.1972 73.8983 27.1972 70.4214V69.2986H30.7352V77.1671H31.5152V79.9472H30.6866ZM29.8441 70.1147H28.0633V71.3001C28.0633 74.5313 27.844 75.4224 27.1736 77.1685H29.8441V70.1147Z" fill="black"/>
<path d="M31.5652 80H30.6352V78.036H26.5629V80H25.6205V77.1157H26.1993C26.9502 75.3086 27.1459 73.922 27.1459 70.4215V69.2473H30.7851V77.1157H31.5652V80ZM30.7365 79.8973H31.4639V77.2185H30.6838V69.35H27.2472V70.4202C27.2472 73.9553 27.0487 75.3489 26.2797 77.1866L26.2659 77.2171H25.7218V79.8959H26.4616V77.9305H30.7365V79.8973ZM29.894 77.2185H27.0973L27.125 77.1477C27.7815 75.4391 28.012 74.548 28.012 71.2987V70.062H29.894V77.2185ZM27.2458 77.1157H29.7927V70.1675H28.1133V71.2987C28.1133 74.523 27.8884 75.4377 27.2458 77.1157Z" fill="black"/>
<path d="M32.7139 77.9832V69.2986H36.3615V70.1036H33.616V73.1905H35.8965V73.9941H33.616V77.1782H36.3851V77.9832H32.7139Z" fill="black"/>
<path d="M36.4352 78.0346H32.6626V69.2473H36.4116V70.155H33.6661V73.1378H35.9466V74.0456H33.6661V77.1255H36.4352V78.0346ZM32.7639 77.9319H36.3338V77.231H33.5648V73.9428H35.8452V73.2419H33.5648V70.0523H36.3102V69.35H32.7639V77.9319Z" fill="black"/>
<path d="M39.802 74.4091H38.754V77.9832H37.8505V69.2986H39.802C41.2538 69.2986 41.9728 70.0911 41.9728 71.6762V72.0301C41.9728 73.6291 41.2413 74.4091 39.802 74.4091ZM41.0706 71.7497C41.0706 70.5922 40.7541 70.1036 39.7048 70.1036H38.754V73.6055H39.7048C40.7166 73.6055 41.0706 73.1266 41.0706 71.9566V71.7497Z" fill="black"/>
<path d="M38.804 78.036H37.8005V69.2473H39.802C41.276 69.2473 42.0242 70.0662 42.0242 71.6776V72.0302C42.0242 73.643 41.276 74.4619 39.802 74.4619H38.804V78.036ZM37.9005 77.9319H38.7013V74.3592H39.8006C41.2274 74.3592 41.9214 73.5972 41.9214 72.0302V71.6776C41.9214 70.112 41.2274 69.35 39.8006 69.35H37.9005V77.9319ZM39.7048 73.6569H38.7027V70.0523H39.7048C40.7375 70.0523 41.1206 70.5117 41.1206 71.7512V71.958C41.1206 73.1809 40.7236 73.6569 39.7048 73.6569ZM38.804 73.5528H39.7048C40.6639 73.5528 41.0193 73.1212 41.0193 71.958V71.7512C41.0193 70.5728 40.675 70.155 39.7048 70.155H38.804V73.5528Z" fill="black"/>
<path d="M43.3784 77.9832V69.2986H47.026V70.1036H44.2806V73.1905H46.5611V73.9941H44.2806V77.1782H47.0496V77.9832H43.3784Z" fill="black"/>
<path d="M47.1009 78.0346H43.3284V69.2473H47.0773V70.155H44.3319V73.1378H46.6124V74.0456H44.3319V77.1255H47.1009V78.0346ZM43.4297 77.9319H46.9996V77.231H44.2306V73.9428H46.5124V73.2419H44.2306V70.0523H46.9774V69.35H43.4311V77.9319H43.4297Z" fill="black"/>
<path d="M51.9309 77.9833V72.0192C51.9309 71.9442 51.9794 71.2017 51.9794 71.1531L51.7837 71.6777L49.3576 77.9833H48.515V69.2974H49.395V75.2379C49.395 75.3115 49.37 76.0915 49.3589 76.1526L49.5532 75.5669L51.9808 69.296H52.8122V77.982H51.9309V77.9833ZM50.7719 68.8213C49.8933 68.8213 49.3076 68.3244 49.1993 67.3708H49.8697C49.9183 67.7997 50.1875 68.187 50.7969 68.187C51.4048 68.187 51.663 67.7845 51.7115 67.3708H52.3694C52.2723 68.2966 51.6519 68.8213 50.7719 68.8213Z" fill="black"/>
<path d="M52.8608 78.0346H51.8823V72.0177C51.8823 71.9761 51.8962 71.7415 51.91 71.5139C51.91 71.5042 51.9101 71.4931 51.9114 71.4847L51.8323 71.6943L49.3937 78.0346H48.4651V69.2473H49.4436V75.2378C49.4436 75.2642 49.4367 75.5363 49.4283 75.7805L49.5033 75.5515L51.9461 69.2473H52.8608V78.0346ZM51.9822 77.9319H52.7581V69.35H52.0155L49.6018 75.5862L49.4075 76.1692L49.309 76.1428C49.3187 76.0914 49.3437 75.3322 49.3437 75.2378V69.35H48.5664V77.9319H49.3228L52.0308 70.8698V71.1516C52.0308 71.1738 52.0225 71.3071 52.01 71.5194C51.9975 71.7235 51.9808 71.9789 51.9808 72.0177V77.9319H51.9822ZM50.7719 68.8739C49.8489 68.8739 49.2576 68.3257 49.148 67.3777L49.1424 67.3208H49.9155L49.9211 67.3652C49.9474 67.5984 50.0849 68.1369 50.7983 68.1369C51.4964 68.1369 51.6352 67.5984 51.6616 67.3652L51.6672 67.3208H52.4264L52.4208 67.3777C52.3237 68.2993 51.6921 68.8739 50.7719 68.8739ZM49.2576 67.4235C49.3784 68.2938 49.9155 68.7698 50.7733 68.7698C51.6311 68.7698 52.2029 68.2674 52.3139 67.4235H51.7574C51.6797 67.9329 51.3243 68.2396 50.7997 68.2396C50.2639 68.2396 49.903 67.9329 49.8267 67.4235H49.2576Z" fill="black"/>
<path d="M54.7897 77.9832V69.2986H55.6919V77.1671H57.7419V69.2986H58.6427V77.1671H60.6927V69.2986H61.5949V77.9832H54.7897Z" fill="black"/>
<path d="M61.6463 78.0346H54.7383V69.2473H55.7432V77.1157H57.6891V69.2473H58.694V77.1157H60.6413V69.2473H61.6463V78.0346ZM54.841 77.9319H61.5436V69.35H60.7455V77.2185H58.5913V69.35H57.7933V77.2185H55.6391V69.35H54.841V77.9319Z" fill="black"/>
<path d="M66.8686 77.9832V74.0066H64.4646V77.9832H63.5638V69.2986H64.4646V73.1905H66.8686V69.2986H67.7708V77.9832H66.8686Z" fill="black"/>
<path d="M67.8222 78.0346H66.8159V74.0581H64.5161V78.0346H63.5098V69.2473H64.5161V73.1392H66.8159V69.2473H67.8222V78.0346ZM66.92 77.9319H67.7181V69.35H66.92V73.2419H64.4133V69.35H63.6152V77.9319H64.4133V73.9553H66.92V77.9319Z" fill="black"/>
<path d="M72.9612 70.1147V77.9832H72.0563V69.2986H75.6914V70.1147H72.9612Z" fill="black"/>
<path d="M73.0127 78.0346H72.005V69.2473H75.7428V70.1675H73.0113V78.0346H73.0127ZM72.1077 77.9319H72.9086V70.0634H75.6401V69.35H72.1077V77.9319Z" fill="black"/>
<path d="M79.0723 74.4091H78.023V77.9832H77.1222V69.2986H79.0723C80.5256 69.2986 81.2431 70.0911 81.2431 71.6762V72.0301C81.2431 73.6291 80.5117 74.4091 79.0723 74.4091ZM80.3409 71.7497C80.3409 70.5922 80.0231 70.1036 78.9752 70.1036H78.023V73.6055H78.9752C79.987 73.6055 80.3409 73.1266 80.3409 71.9566V71.7497Z" fill="black"/>
<path d="M78.0742 78.036H77.0693V69.2473H79.0708C80.5449 69.2473 81.2944 70.0662 81.2944 71.6776V72.0302C81.2944 73.643 80.5449 74.4619 79.0708 74.4619H78.0729V78.036H78.0742ZM77.1735 77.9319H77.9729V74.3592H79.0722C80.4977 74.3592 81.1903 73.5972 81.1903 72.0302V71.6776C81.1903 70.112 80.4977 69.35 79.0722 69.35H77.1735V77.9319ZM78.9751 73.6569H77.9729V70.0523H78.9751C80.0091 70.0523 80.3922 70.5117 80.3922 71.7512V71.958C80.3922 73.1809 79.9966 73.6569 78.9751 73.6569ZM78.0742 73.5528H78.9737C79.9328 73.5528 80.2895 73.1212 80.2895 71.958V71.7512C80.2895 70.5728 79.9452 70.155 78.9737 70.155H78.0742V73.5528Z" fill="black"/>
<path d="M84.4906 76.7521C84.3796 77.1282 84.2588 77.3975 84.0756 77.5932C83.8077 77.8847 83.3663 77.9819 82.9763 77.9819H82.5002V77.1657H82.9513C83.3913 77.1657 83.537 77.0186 83.7092 76.444L83.9882 75.5043L81.9645 69.2959H82.8667L84.1478 73.2475C84.1589 73.2974 84.3185 73.8943 84.4031 74.2371L85.7939 69.2959H86.7197L84.4906 76.7521Z" fill="black"/>
<path d="M82.9762 78.0346H82.4502V77.1157H82.9527C83.3607 77.1157 83.494 76.9881 83.6591 76.4315L83.9354 75.5071L81.895 69.2473H82.9041L82.9138 69.2834L84.1963 73.2336C84.2018 73.2544 84.2227 73.3335 84.2518 73.4432C84.2948 73.6083 84.3545 73.8401 84.4059 74.0428L85.7564 69.2473H86.7876L86.7696 69.3125L84.5391 76.766C84.4156 77.181 84.2893 77.4392 84.1116 77.6279C83.7882 77.9819 83.2622 78.0346 82.9762 78.0346ZM82.5543 77.9319H82.9776C83.2455 77.9319 83.7396 77.8847 84.0394 77.5599C84.2046 77.3822 84.3254 77.1338 84.4434 76.7369L86.6558 69.35H85.8355L84.4045 74.4383L84.3573 74.2496C84.3018 74.0261 84.2129 73.6888 84.1574 73.4695C84.1269 73.3571 84.1047 73.278 84.1005 73.26L82.8319 69.35H82.0366L84.045 75.5071L84.0422 75.521L83.7619 76.462C83.58 77.063 83.4162 77.2199 82.9554 77.2199H82.5557V77.9319H82.5543Z" fill="black"/>
<path d="M91.215 77.9832V70.1147H88.811V77.9832H87.9088V69.2986H92.1158V77.9832H91.215Z" fill="black"/>
<path d="M92.1672 78.0346H91.1623V70.1675H88.861V78.0346H87.8561V69.2473H92.1658V78.0346H92.1672ZM91.2663 77.9319H92.0645V69.35H87.9616V77.9319H88.7583V70.0634H91.2663V77.9319Z" fill="black"/>
</svg>
