<svg width="25" height="25" viewBox="0 0 25 25" fill="none" xmlns="http://www.w3.org/2000/svg">
<circle cx="12.5" cy="12.5" r="12.5" fill="#11305D"/>
<path d="M8.86284 10.892H10.6388C10.7468 10.376 11.1908 9.98 11.9228 9.98C12.6428 9.98 13.0988 10.364 13.0988 10.94C13.0988 11.528 12.6308 11.936 11.8388 11.936H11.0468V13.448H11.9828C12.7748 13.448 13.3868 13.772 13.3868 14.48C13.3868 15.164 12.7988 15.572 12.0548 15.572C11.2148 15.572 10.6868 15.152 10.5548 14.576H8.77884C8.91084 16.184 10.2788 17.144 12.0548 17.144C13.9268 17.144 15.2228 16.076 15.2228 14.6C15.2228 13.34 14.3348 12.74 13.6868 12.56C14.2628 12.332 14.9228 11.756 14.9228 10.748C14.9228 9.428 13.7828 8.408 11.9828 8.408C10.3748 8.408 9.03084 9.32 8.86284 10.892Z" fill="white"/>
</svg>
