<svg width="33" height="33" viewBox="0 0 33 33" fill="none" xmlns="http://www.w3.org/2000/svg">
<circle cx="16.5" cy="16.5" r="16.5" fill="#11305D"/>
<path d="M12.918 14.347H15.434C15.587 13.616 16.216 13.055 17.253 13.055C18.273 13.055 18.919 13.599 18.919 14.415C18.919 15.248 18.256 15.826 17.134 15.826H16.012V17.968H17.338C18.46 17.968 19.327 18.427 19.327 19.43C19.327 20.399 18.494 20.977 17.44 20.977C16.25 20.977 15.502 20.382 15.315 19.566H12.799C12.986 21.844 14.924 23.204 17.44 23.204C20.092 23.204 21.928 21.691 21.928 19.6C21.928 17.815 20.67 16.965 19.752 16.71C20.568 16.387 21.503 15.571 21.503 14.143C21.503 12.273 19.888 10.828 17.338 10.828C15.06 10.828 13.156 12.12 12.918 14.347Z" fill="white"/>
</svg>
