<svg width="28" height="28" viewBox="0 0 28 28" fill="none" xmlns="http://www.w3.org/2000/svg">
<path d="M14 28C6.28047 28 0 21.7195 0 14C0 6.28047 6.28047 0 14 0C21.7195 0 28 6.28047 28 14C28 21.7195 21.7195 28 14 28Z" fill="#11305D"/>
<path d="M14.0001 18.8218L7.51515 12.3369C7.38818 12.2099 7.38818 12.0035 7.51515 11.8765C7.64213 11.7495 7.84855 11.7495 7.97553 11.8765L14.0001 17.901L20.024 11.8765C20.151 11.7495 20.3574 11.7495 20.4844 11.8765C20.6113 12.0035 20.6113 12.2099 20.4844 12.3369L14.0001 18.8218Z" fill="white"/>
</svg>
