<svg width="43" height="43" viewBox="0 0 43 43" fill="none" xmlns="http://www.w3.org/2000/svg">
<path d="M21.5 43C9.645 43 0 33.355 0 21.5C0 9.645 9.645 0 21.5 0C33.355 0 43 9.645 43 21.5C43 33.355 33.355 43 21.5 43Z" fill="#11305D"/>
<path d="M21.4998 28.906L11.5408 18.947C11.3458 18.752 11.3458 18.435 11.5408 18.24C11.7358 18.045 12.0528 18.045 12.2478 18.24L21.4998 27.492L30.7508 18.24C30.9458 18.045 31.2628 18.045 31.4578 18.24C31.6528 18.435 31.6528 18.752 31.4578 18.947L21.4998 28.906Z" fill="white"/>
</svg>
