<svg width="145" height="42" viewBox="0 0 145 42" fill="none" xmlns="http://www.w3.org/2000/svg">
<path fill-rule="evenodd" clip-rule="evenodd" d="M31 42H21C9.40202 42 0 32.598 0 21C0 9.40202 9.40202 0 21 0H31H42H103H114H124C135.598 0 145 9.40202 145 21C145 32.598 135.598 42 124 42H114H103H42H31Z" fill="#11305D"/>
<path d="M31.636 18.82H33.028C33.172 18.1 33.784 17.692 34.66 17.692C35.524 17.692 36.1 18.148 36.1 18.868C36.1 19.552 35.644 20.056 34.66 20.056H33.568V21.304H34.78C35.728 21.304 36.412 21.676 36.412 22.54C36.412 23.344 35.788 23.86 34.78 23.86C33.724 23.86 33.112 23.344 32.968 22.648H31.552C31.708 24.208 32.968 25.144 34.78 25.144C36.616 25.144 37.864 24.088 37.864 22.564C37.864 21.316 36.928 20.716 36.364 20.572C36.952 20.368 37.552 19.732 37.552 18.772C37.552 17.38 36.412 16.408 34.672 16.408C33.148 16.408 31.792 17.236 31.636 18.82ZM44.7208 16.552L41.5888 25H43.0888L43.7848 22.996H47.1208L47.8528 25H49.3528L46.2088 16.552H44.7208ZM45.4528 18.256L46.6888 21.76H44.2288L45.4528 18.256ZM54.941 25V21.112L58.337 25H60.137L56.357 20.596L60.065 16.552H58.325L54.941 20.212V16.552H53.513V25H54.941ZM66.5997 16.552L63.4677 25H64.9677L65.6637 22.996H68.9997L69.7317 25H71.2317L68.0877 16.552H66.5997ZM67.3317 18.256L68.5677 21.76H66.1077L67.3317 18.256ZM74.9719 18.82H76.3639C76.5079 18.1 77.1199 17.692 77.9959 17.692C78.8599 17.692 79.4359 18.148 79.4359 18.868C79.4359 19.552 78.9799 20.056 77.9959 20.056H76.9039V21.304H78.1159C79.0639 21.304 79.7479 21.676 79.7479 22.54C79.7479 23.344 79.1239 23.86 78.1159 23.86C77.0599 23.86 76.4479 23.344 76.3039 22.648H74.8879C75.0439 24.208 76.3039 25.144 78.1159 25.144C79.9519 25.144 81.1999 24.088 81.1999 22.564C81.1999 21.316 80.2639 20.716 79.6999 20.572C80.2879 20.368 80.8879 19.732 80.8879 18.772C80.8879 17.38 79.7479 16.408 78.0079 16.408C76.4839 16.408 75.1279 17.236 74.9719 18.82ZM88.0567 16.552L84.9247 25H86.4247L87.1207 22.996H90.4567L91.1887 25H92.6887L89.5447 16.552H88.0567ZM88.7887 18.256L90.0247 21.76H87.5647L88.7887 18.256ZM95.3472 17.836H98.0112V25H99.4392V17.836H102.091V16.552H95.3472V17.836ZM109.518 19.54H107.886V16.552H106.458V25H109.554C111.318 25 112.422 23.788 112.422 22.264C112.422 20.728 111.366 19.54 109.518 19.54ZM109.374 20.8C110.394 20.8 110.97 21.376 110.97 22.264C110.97 23.14 110.37 23.74 109.374 23.74H107.886V20.8H109.374Z" fill="white"/>
</svg>
