<svg width="44" height="44" viewBox="0 0 44 44" fill="none" xmlns="http://www.w3.org/2000/svg">
<path d="M28.0493 13.0678C28.0493 13.0678 23.6623 14.8668 22.3683 15.4288L9.26429 20.8278C6.95829 21.7288 8.30929 22.5718 8.30929 22.5718C8.30929 22.5718 10.2773 23.2458 11.9633 23.7528C13.6513 24.2588 14.5513 23.6968 14.5513 23.6968L22.4823 18.3518C25.2953 16.4428 24.6203 18.0148 23.9453 18.6898C22.4823 20.1538 20.0633 22.4588 18.0403 24.3138C17.1403 25.1018 17.5893 25.7768 17.9843 26.1148C19.4453 27.3528 23.4383 29.8848 23.6653 30.0508C23.9453 30.2778 25.5193 31.2888 26.4773 31.0638C27.4313 30.8388 27.5433 29.5458 27.5433 29.5458L28.9493 20.7158C29.3973 17.7368 29.8473 14.9788 29.9053 14.1918C30.0723 12.2808 28.0493 13.0678 28.0493 13.0678Z" fill="#fff"/>
<path d="M22 1C10.42 1 1 10.42 1 22C1 33.579 10.42 43 22 43C33.579 43 43 33.579 43 22C43 10.42 33.579 1 22 1ZM22 42C10.972 42 2 33.028 2 22C2 10.972 10.972 2 22 2C33.028 2 42 10.972 42 22C42 33.028 33.028 42 22 42Z" fill="#fff"/>
</svg>
