<svg width="41" height="41" viewBox="0 0 41 41" fill="none" xmlns="http://www.w3.org/2000/svg">
<path d="M7.00664 20.7721L22.3487 14.4512C23.8633 13.7926 28.9997 11.686 28.9997 11.686C28.9997 11.686 31.3704 10.7644 31.1728 13.0026C31.1068 13.9241 30.5798 17.1509 30.0533 20.6401L28.4066 30.9788C28.4066 30.9788 28.2756 32.4929 27.1566 32.7564C26.0365 33.0194 24.1928 31.8354 23.8638 31.5714C23.6003 31.3739 18.9255 28.4112 17.2134 26.9626C16.7523 26.567 16.2258 25.777 17.2789 24.8549C19.6501 22.6823 22.4812 19.9826 24.1928 18.2704C24.9834 17.4799 25.7735 15.6368 22.4812 17.8754L13.1961 24.1303C13.1961 24.1303 12.1425 24.7894 10.1674 24.1963C8.19172 23.6038 5.88758 22.8143 5.88758 22.8143C5.88758 22.8143 4.30696 21.8257 7.00664 20.7721Z" fill="#29ABE8"/>
<path d="M20.4997 41.0005C9.19578 41.0005 0 31.8042 0 20.5003C0 9.1963 9.1963 0 20.4997 0C31.8037 0 41 9.1963 41 20.5003C41 31.8042 31.8042 41.0005 20.4997 41.0005ZM20.4997 1.03902C9.76908 1.03902 1.03954 9.76908 1.03954 20.4997C1.03954 31.2309 9.7696 39.9605 20.4997 39.9605C31.2309 39.9605 39.9605 31.2304 39.9605 20.4997C39.961 9.7696 31.2309 1.03902 20.4997 1.03902Z" fill="#29ABE8"/>
</svg>
