<svg width="44" height="44" viewBox="0 0 44 44" fill="none" xmlns="http://www.w3.org/2000/svg">
<path d="M21.999 1C10.42 1 1 10.42 1 22C1 26.139 2.199 30.131 4.469 33.563L1.072 42.903L9.078 38.545C12.802 41.461 17.262 43 21.999 43C33.579 43 43 33.579 43 22C43 10.42 33.579 1 21.999 1Z" fill="#159A2A"/>
<path d="M31.9041 26.7752C31.3631 26.4782 28.7051 25.0452 28.2071 24.8402C27.7091 24.6352 27.3491 24.5322 26.9551 25.0692C26.5681 25.6042 25.4671 26.8052 25.1311 27.1642C24.7951 27.5182 24.4741 27.5532 23.9331 27.2562C23.3921 26.9612 21.6401 26.3122 19.6051 24.3592C18.0211 22.8362 16.9841 20.9922 16.6831 20.4262C16.3801 19.8642 16.6811 19.5732 16.9661 19.3122C17.2221 19.0762 17.5421 18.6892 17.8291 18.3772C18.1161 18.0652 18.2181 17.8402 18.4151 17.4802C18.6111 17.1192 18.5321 16.7932 18.4021 16.5122C18.2751 16.2342 17.2751 13.4802 16.8591 12.3592C16.4391 11.2402 15.9761 11.4062 15.6521 11.3932C15.3331 11.3812 14.9661 11.3242 14.5971 11.3072C14.2301 11.2932 13.6281 11.4102 13.1031 11.9432C12.5791 12.4732 11.1051 13.7552 11.0031 16.4642C10.9001 19.1772 12.7751 21.8692 13.0381 22.2492C13.3001 22.6262 16.6201 28.5032 22.1381 30.9192C27.6581 33.3352 27.6871 32.6012 28.7001 32.5442C29.7121 32.4922 32.0091 31.3332 32.5151 30.0652C33.0241 28.7972 33.0651 27.6942 32.9361 27.4602C32.8091 27.2232 32.4451 27.0702 31.9041 26.7752Z" fill="white"/>
</svg>
