<svg width="41" height="41" viewBox="0 0 41 41" fill="none" xmlns="http://www.w3.org/2000/svg">
<path fill-rule="evenodd" clip-rule="evenodd" d="M31.8602 26.479C31.7257 26.2344 31.3486 26.076 30.7846 25.7675C30.2205 25.4584 27.4512 23.9637 26.9318 23.7523C26.4119 23.5419 26.0338 23.4318 25.6281 23.9922C25.224 24.5511 24.0747 25.8033 23.7267 26.1741C23.3761 26.5455 23.0406 26.5798 22.4765 26.2702C21.9135 25.9622 20.0853 25.2865 17.9652 23.2485C16.3156 21.6623 15.2337 19.7395 14.92 19.1526C14.6058 18.5652 14.9174 18.266 15.2156 17.9908C15.4836 17.7425 15.8149 17.341 16.1151 17.0169C16.4138 16.6928 16.5192 16.457 16.7249 16.081C16.9306 15.7044 16.8475 15.3658 16.7145 15.0734C16.5815 14.7815 15.5391 11.9124 15.1034 10.7449C14.6681 9.57782 14.183 9.75129 13.848 9.73831C13.5125 9.72688 13.1318 9.66352 12.749 9.64949C12.3662 9.63547 11.7383 9.75597 11.1909 10.3101C10.6434 10.8648 9.10763 12.1986 9.0022 15.0246C8.89624 17.849 10.8512 20.6568 11.1239 21.0499C11.3965 21.4441 14.8572 27.5687 20.6078 30.0866C26.3599 32.6051 26.3901 31.8375 27.4454 31.7809C28.5013 31.7258 30.8947 30.5183 31.4239 29.1959C31.9521 27.8736 31.9947 26.7236 31.8602 26.479Z" fill="#159A2A"/>
<path d="M20.5 41C16.2629 41 12.2044 39.7182 8.74483 37.2901L0.0872563 40.2298L2.9932 31.1614C1.03409 27.9521 0 24.2707 0 20.4995C0 9.19617 9.19669 0 20.5005 0C31.8038 0 41 9.19617 41 20.4995C40.9995 31.8038 31.8033 41 20.5 41ZM8.91571 36.1355L9.13281 36.2918C12.4615 38.6924 16.3922 39.9612 20.5 39.9612C31.2309 39.9612 39.9607 31.2304 39.9607 20.4995C39.9607 9.76853 31.2304 1.03876 20.5 1.03876C9.76853 1.03876 1.03824 9.76905 1.03824 20.4995C1.03824 24.157 2.06247 27.7241 4.00028 30.816L4.12857 31.0206L1.70513 38.5838L8.91571 36.1355Z" fill="#159A2A"/>
</svg>
